G04 #@! TF.GenerationSoftware,KiCad,Pcbnew,(5.1.2)-1*
G04 #@! TF.CreationDate,2019-12-09T15:18:37+03:00*
G04 #@! TF.ProjectId,controller_board,636f6e74-726f-46c6-9c65-725f626f6172,rev?*
G04 #@! TF.SameCoordinates,Original*
G04 #@! TF.FileFunction,Soldermask,Bot*
G04 #@! TF.FilePolarity,Negative*
%FSLAX46Y46*%
G04 Gerber Fmt 4.6, Leading zero omitted, Abs format (unit mm)*
G04 Created by KiCad (PCBNEW (5.1.2)-1) date 2019-12-09 15:18:37*
%MOMM*%
%LPD*%
G04 APERTURE LIST*
%ADD10C,3.400000*%
%ADD11C,2.400000*%
%ADD12C,2.200000*%
%ADD13O,2.100000X2.100000*%
%ADD14R,2.100000X2.100000*%
%ADD15R,1.400000X2.000000*%
%ADD16R,2.000000X1.400000*%
%ADD17R,1.650000X1.400000*%
%ADD18R,1.400000X1.100000*%
%ADD19R,2.900000X2.700000*%
%ADD20R,1.300000X1.600000*%
%ADD21R,2.400000X2.400000*%
%ADD22R,1.900000X2.900000*%
%ADD23C,2.500000*%
%ADD24C,2.150000*%
%ADD25R,0.800000X1.900000*%
%ADD26R,1.900000X0.800000*%
%ADD27R,1.700000X1.100000*%
%ADD28R,1.100000X1.700000*%
G04 APERTURE END LIST*
D10*
X183000000Y-127000000D03*
X162000000Y-127000000D03*
D11*
X190000000Y-120000000D03*
X187400000Y-122600000D03*
X187400000Y-117400000D03*
X192600000Y-117400000D03*
X192600000Y-122600000D03*
D12*
X130970000Y-132720000D03*
X136050000Y-132720000D03*
X130970000Y-117480000D03*
X136050000Y-117480000D03*
X151290000Y-132720000D03*
X153830000Y-132720000D03*
X151290000Y-117480000D03*
X153830000Y-117480000D03*
D13*
X148770000Y-76920000D03*
X148770000Y-87080000D03*
X146230000Y-84540000D03*
X148770000Y-84540000D03*
X146230000Y-82000000D03*
X148770000Y-82000000D03*
X146230000Y-79460000D03*
X148770000Y-79460000D03*
X146230000Y-76920000D03*
D14*
X146230000Y-87080000D03*
D15*
X134300000Y-121600000D03*
X131300000Y-121600000D03*
X131200000Y-128900000D03*
X134200000Y-128900000D03*
D16*
X147000000Y-110000000D03*
X147000000Y-107000000D03*
D14*
X161900000Y-50200000D03*
D13*
X159360000Y-50200000D03*
X156820000Y-50200000D03*
D16*
X153800000Y-123100000D03*
X153800000Y-126100000D03*
D15*
X142500000Y-117500000D03*
X145500000Y-117500000D03*
D17*
X173800000Y-87500000D03*
X173800000Y-85500000D03*
D15*
X157400000Y-107200000D03*
X160400000Y-107200000D03*
X158700000Y-96800000D03*
X155700000Y-96800000D03*
D18*
X152300000Y-107650000D03*
X152300000Y-108600000D03*
X152300000Y-109550000D03*
X149700000Y-109550000D03*
X149700000Y-107650000D03*
X149700000Y-108600000D03*
D19*
X149350000Y-103500000D03*
X145050000Y-103500000D03*
D20*
X157350000Y-110000000D03*
X160650000Y-110000000D03*
D14*
X189900000Y-126800000D03*
D13*
X187360000Y-126800000D03*
D14*
X193300000Y-106200000D03*
D13*
X195840000Y-106200000D03*
D21*
X120000000Y-91000000D03*
D11*
X120000000Y-88490000D03*
X120000000Y-85990000D03*
X120000000Y-83490000D03*
X120000000Y-80990000D03*
X120000000Y-78490000D03*
X120000000Y-75990000D03*
X120000000Y-73490000D03*
D22*
X160700000Y-102000000D03*
X153700000Y-102000000D03*
D23*
X194010000Y-61510000D03*
D24*
X196500000Y-60250000D03*
X196500000Y-55750000D03*
D23*
X194010000Y-54500000D03*
D25*
X163700000Y-77350000D03*
X164500000Y-77350000D03*
X165300000Y-77350000D03*
X166100000Y-77350000D03*
X166900000Y-77350000D03*
X167700000Y-77350000D03*
X168500000Y-77350000D03*
X169300000Y-77350000D03*
D26*
X171000000Y-79050000D03*
X171000000Y-79850000D03*
X171000000Y-80650000D03*
X171000000Y-81450000D03*
X171000000Y-82250000D03*
X171000000Y-83050000D03*
X171000000Y-83850000D03*
X171000000Y-84650000D03*
D25*
X169300000Y-86350000D03*
X168500000Y-86350000D03*
X167700000Y-86350000D03*
X166900000Y-86350000D03*
X166100000Y-86350000D03*
X165300000Y-86350000D03*
X164500000Y-86350000D03*
X163700000Y-86350000D03*
D26*
X162000000Y-84650000D03*
X162000000Y-83850000D03*
X162000000Y-83050000D03*
X162000000Y-82250000D03*
X162000000Y-81450000D03*
X162000000Y-80650000D03*
X162000000Y-79850000D03*
X162000000Y-79050000D03*
D27*
X134200000Y-79050000D03*
X134200000Y-80950000D03*
X136900000Y-79050000D03*
X136900000Y-80950000D03*
X159200000Y-78850000D03*
X159200000Y-76950000D03*
D28*
X163950000Y-74000000D03*
X165850000Y-74000000D03*
D27*
X143400000Y-82050000D03*
X143400000Y-83950000D03*
D28*
X153450000Y-82000000D03*
X151550000Y-82000000D03*
X153450000Y-79500000D03*
X151550000Y-79500000D03*
X151550000Y-84600000D03*
X153450000Y-84600000D03*
X148950000Y-112500000D03*
X147050000Y-112500000D03*
X155850000Y-112700000D03*
X157750000Y-112700000D03*
X151550000Y-112200000D03*
X153450000Y-112200000D03*
M02*
