G04 #@! TF.GenerationSoftware,KiCad,Pcbnew,(5.1.2)-1*
G04 #@! TF.CreationDate,2019-12-09T15:18:37+03:00*
G04 #@! TF.ProjectId,controller_board,636f6e74-726f-46c6-9c65-725f626f6172,rev?*
G04 #@! TF.SameCoordinates,Original*
G04 #@! TF.FileFunction,Legend,Bot*
G04 #@! TF.FilePolarity,Positive*
%FSLAX46Y46*%
G04 Gerber Fmt 4.6, Leading zero omitted, Abs format (unit mm)*
G04 Created by KiCad (PCBNEW (5.1.2)-1) date 2019-12-09 15:18:37*
%MOMM*%
%LPD*%
G04 APERTURE LIST*
%ADD10C,0.150000*%
%ADD11C,0.120000*%
%ADD12C,0.200000*%
G04 APERTURE END LIST*
D10*
X144650000Y-106800000D02*
X145600000Y-107750000D01*
D11*
X131800000Y-120580000D02*
X133800000Y-120580000D01*
X133800000Y-122620000D02*
X131800000Y-122620000D01*
X133700000Y-129920000D02*
X131700000Y-129920000D01*
X131700000Y-127880000D02*
X133700000Y-127880000D01*
X148020000Y-107500000D02*
X148020000Y-109500000D01*
X145980000Y-109500000D02*
X145980000Y-107500000D01*
X152780000Y-125600000D02*
X152780000Y-123600000D01*
X154820000Y-123600000D02*
X154820000Y-125600000D01*
X145000000Y-118520000D02*
X143000000Y-118520000D01*
X143000000Y-116480000D02*
X145000000Y-116480000D01*
X174650000Y-86000000D02*
X174650000Y-87000000D01*
X172950000Y-87000000D02*
X172950000Y-86000000D01*
X159900000Y-108220000D02*
X157900000Y-108220000D01*
X157900000Y-106180000D02*
X159900000Y-106180000D01*
X156200000Y-95780000D02*
X158200000Y-95780000D01*
X158200000Y-97820000D02*
X156200000Y-97820000D01*
X150150000Y-107000000D02*
X152750000Y-107000000D01*
X150150000Y-110200000D02*
X151850000Y-110200000D01*
X150750000Y-101350000D02*
X150750000Y-105650000D01*
X150750000Y-105650000D02*
X145050000Y-105650000D01*
X150750000Y-101350000D02*
X145050000Y-101350000D01*
X156750000Y-111000000D02*
X156750000Y-109000000D01*
X156750000Y-109000000D02*
X160650000Y-109000000D01*
X156750000Y-111000000D02*
X160650000Y-111000000D01*
D10*
X160450000Y-98750000D02*
X153950000Y-98750000D01*
X153950000Y-98750000D02*
X153950000Y-105250000D01*
X153950000Y-105250000D02*
X160450000Y-105250000D01*
X160450000Y-105250000D02*
X160450000Y-98750000D01*
X163923607Y-78750000D02*
G75*
G03X163923607Y-78750000I-223607J0D01*
G01*
X162900000Y-78350000D02*
X163000000Y-78250000D01*
X163000000Y-85450000D02*
X163000000Y-85350000D01*
X163000000Y-85350000D02*
X162900000Y-85350000D01*
X170000000Y-78250000D02*
X170000000Y-78350000D01*
X170000000Y-78350000D02*
X170100000Y-78350000D01*
X170000000Y-85450000D02*
X170000000Y-85350000D01*
X170000000Y-85350000D02*
X170100000Y-85350000D01*
D11*
X135080000Y-80600000D02*
X135080000Y-79400000D01*
X133320000Y-79400000D02*
X133320000Y-80600000D01*
X137780000Y-80600000D02*
X137780000Y-79400000D01*
X136020000Y-79400000D02*
X136020000Y-80600000D01*
X158320000Y-77300000D02*
X158320000Y-78500000D01*
X160080000Y-78500000D02*
X160080000Y-77300000D01*
X165500000Y-73120000D02*
X164300000Y-73120000D01*
X164300000Y-74880000D02*
X165500000Y-74880000D01*
X144280000Y-83600000D02*
X144280000Y-82400000D01*
X142520000Y-82400000D02*
X142520000Y-83600000D01*
X151900000Y-82880000D02*
X153100000Y-82880000D01*
X153100000Y-81120000D02*
X151900000Y-81120000D01*
X151900000Y-80380000D02*
X153100000Y-80380000D01*
X153100000Y-78620000D02*
X151900000Y-78620000D01*
X153100000Y-83720000D02*
X151900000Y-83720000D01*
X151900000Y-85480000D02*
X153100000Y-85480000D01*
X147400000Y-113380000D02*
X148600000Y-113380000D01*
X148600000Y-111620000D02*
X147400000Y-111620000D01*
X157400000Y-111820000D02*
X156200000Y-111820000D01*
X156200000Y-113580000D02*
X157400000Y-113580000D01*
X153100000Y-111320000D02*
X151900000Y-111320000D01*
X151900000Y-113080000D02*
X153100000Y-113080000D01*
D12*
X133442857Y-120207142D02*
X133490476Y-120254761D01*
X133633333Y-120302380D01*
X133728571Y-120302380D01*
X133871428Y-120254761D01*
X133966666Y-120159523D01*
X134014285Y-120064285D01*
X134061904Y-119873809D01*
X134061904Y-119730952D01*
X134014285Y-119540476D01*
X133966666Y-119445238D01*
X133871428Y-119350000D01*
X133728571Y-119302380D01*
X133633333Y-119302380D01*
X133490476Y-119350000D01*
X133442857Y-119397619D01*
X132490476Y-120302380D02*
X133061904Y-120302380D01*
X132776190Y-120302380D02*
X132776190Y-119302380D01*
X132871428Y-119445238D01*
X132966666Y-119540476D01*
X133061904Y-119588095D01*
X132157142Y-119302380D02*
X131490476Y-119302380D01*
X131919047Y-120302380D01*
X133342857Y-131007142D02*
X133390476Y-131054761D01*
X133533333Y-131102380D01*
X133628571Y-131102380D01*
X133771428Y-131054761D01*
X133866666Y-130959523D01*
X133914285Y-130864285D01*
X133961904Y-130673809D01*
X133961904Y-130530952D01*
X133914285Y-130340476D01*
X133866666Y-130245238D01*
X133771428Y-130150000D01*
X133628571Y-130102380D01*
X133533333Y-130102380D01*
X133390476Y-130150000D01*
X133342857Y-130197619D01*
X132390476Y-131102380D02*
X132961904Y-131102380D01*
X132676190Y-131102380D02*
X132676190Y-130102380D01*
X132771428Y-130245238D01*
X132866666Y-130340476D01*
X132961904Y-130388095D01*
X131533333Y-130102380D02*
X131723809Y-130102380D01*
X131819047Y-130150000D01*
X131866666Y-130197619D01*
X131961904Y-130340476D01*
X132009523Y-130530952D01*
X132009523Y-130911904D01*
X131961904Y-131007142D01*
X131914285Y-131054761D01*
X131819047Y-131102380D01*
X131628571Y-131102380D01*
X131533333Y-131054761D01*
X131485714Y-131007142D01*
X131438095Y-130911904D01*
X131438095Y-130673809D01*
X131485714Y-130578571D01*
X131533333Y-130530952D01*
X131628571Y-130483333D01*
X131819047Y-130483333D01*
X131914285Y-130530952D01*
X131961904Y-130578571D01*
X132009523Y-130673809D01*
X144207142Y-106233333D02*
X144254761Y-106185714D01*
X144302380Y-106042857D01*
X144302380Y-105947619D01*
X144254761Y-105804761D01*
X144159523Y-105709523D01*
X144064285Y-105661904D01*
X143873809Y-105614285D01*
X143730952Y-105614285D01*
X143540476Y-105661904D01*
X143445238Y-105709523D01*
X143350000Y-105804761D01*
X143302380Y-105947619D01*
X143302380Y-106042857D01*
X143350000Y-106185714D01*
X143397619Y-106233333D01*
X144302380Y-107185714D02*
X144302380Y-106614285D01*
X144302380Y-106900000D02*
X143302380Y-106900000D01*
X143445238Y-106804761D01*
X143540476Y-106709523D01*
X143588095Y-106614285D01*
X152407142Y-124433333D02*
X152454761Y-124385714D01*
X152502380Y-124242857D01*
X152502380Y-124147619D01*
X152454761Y-124004761D01*
X152359523Y-123909523D01*
X152264285Y-123861904D01*
X152073809Y-123814285D01*
X151930952Y-123814285D01*
X151740476Y-123861904D01*
X151645238Y-123909523D01*
X151550000Y-124004761D01*
X151502380Y-124147619D01*
X151502380Y-124242857D01*
X151550000Y-124385714D01*
X151597619Y-124433333D01*
X151597619Y-124814285D02*
X151550000Y-124861904D01*
X151502380Y-124957142D01*
X151502380Y-125195238D01*
X151550000Y-125290476D01*
X151597619Y-125338095D01*
X151692857Y-125385714D01*
X151788095Y-125385714D01*
X151930952Y-125338095D01*
X152502380Y-124766666D01*
X152502380Y-125385714D01*
X144166666Y-119607142D02*
X144214285Y-119654761D01*
X144357142Y-119702380D01*
X144452380Y-119702380D01*
X144595238Y-119654761D01*
X144690476Y-119559523D01*
X144738095Y-119464285D01*
X144785714Y-119273809D01*
X144785714Y-119130952D01*
X144738095Y-118940476D01*
X144690476Y-118845238D01*
X144595238Y-118750000D01*
X144452380Y-118702380D01*
X144357142Y-118702380D01*
X144214285Y-118750000D01*
X144166666Y-118797619D01*
X143833333Y-118702380D02*
X143214285Y-118702380D01*
X143547619Y-119083333D01*
X143404761Y-119083333D01*
X143309523Y-119130952D01*
X143261904Y-119178571D01*
X143214285Y-119273809D01*
X143214285Y-119511904D01*
X143261904Y-119607142D01*
X143309523Y-119654761D01*
X143404761Y-119702380D01*
X143690476Y-119702380D01*
X143785714Y-119654761D01*
X143833333Y-119607142D01*
X175857142Y-86333333D02*
X175904761Y-86285714D01*
X175952380Y-86142857D01*
X175952380Y-86047619D01*
X175904761Y-85904761D01*
X175809523Y-85809523D01*
X175714285Y-85761904D01*
X175523809Y-85714285D01*
X175380952Y-85714285D01*
X175190476Y-85761904D01*
X175095238Y-85809523D01*
X175000000Y-85904761D01*
X174952380Y-86047619D01*
X174952380Y-86142857D01*
X175000000Y-86285714D01*
X175047619Y-86333333D01*
X175285714Y-87190476D02*
X175952380Y-87190476D01*
X174904761Y-86952380D02*
X175619047Y-86714285D01*
X175619047Y-87333333D01*
X162666666Y-107607142D02*
X162714285Y-107654761D01*
X162857142Y-107702380D01*
X162952380Y-107702380D01*
X163095238Y-107654761D01*
X163190476Y-107559523D01*
X163238095Y-107464285D01*
X163285714Y-107273809D01*
X163285714Y-107130952D01*
X163238095Y-106940476D01*
X163190476Y-106845238D01*
X163095238Y-106750000D01*
X162952380Y-106702380D01*
X162857142Y-106702380D01*
X162714285Y-106750000D01*
X162666666Y-106797619D01*
X161761904Y-106702380D02*
X162238095Y-106702380D01*
X162285714Y-107178571D01*
X162238095Y-107130952D01*
X162142857Y-107083333D01*
X161904761Y-107083333D01*
X161809523Y-107130952D01*
X161761904Y-107178571D01*
X161714285Y-107273809D01*
X161714285Y-107511904D01*
X161761904Y-107607142D01*
X161809523Y-107654761D01*
X161904761Y-107702380D01*
X162142857Y-107702380D01*
X162238095Y-107654761D01*
X162285714Y-107607142D01*
X161166666Y-96557142D02*
X161214285Y-96604761D01*
X161357142Y-96652380D01*
X161452380Y-96652380D01*
X161595238Y-96604761D01*
X161690476Y-96509523D01*
X161738095Y-96414285D01*
X161785714Y-96223809D01*
X161785714Y-96080952D01*
X161738095Y-95890476D01*
X161690476Y-95795238D01*
X161595238Y-95700000D01*
X161452380Y-95652380D01*
X161357142Y-95652380D01*
X161214285Y-95700000D01*
X161166666Y-95747619D01*
X160595238Y-96080952D02*
X160690476Y-96033333D01*
X160738095Y-95985714D01*
X160785714Y-95890476D01*
X160785714Y-95842857D01*
X160738095Y-95747619D01*
X160690476Y-95700000D01*
X160595238Y-95652380D01*
X160404761Y-95652380D01*
X160309523Y-95700000D01*
X160261904Y-95747619D01*
X160214285Y-95842857D01*
X160214285Y-95890476D01*
X160261904Y-95985714D01*
X160309523Y-96033333D01*
X160404761Y-96080952D01*
X160595238Y-96080952D01*
X160690476Y-96128571D01*
X160738095Y-96176190D01*
X160785714Y-96271428D01*
X160785714Y-96461904D01*
X160738095Y-96557142D01*
X160690476Y-96604761D01*
X160595238Y-96652380D01*
X160404761Y-96652380D01*
X160309523Y-96604761D01*
X160261904Y-96557142D01*
X160214285Y-96461904D01*
X160214285Y-96271428D01*
X160261904Y-96176190D01*
X160309523Y-96128571D01*
X160404761Y-96080952D01*
X151738095Y-106702380D02*
X151738095Y-105702380D01*
X151500000Y-105702380D01*
X151357142Y-105750000D01*
X151261904Y-105845238D01*
X151214285Y-105940476D01*
X151166666Y-106130952D01*
X151166666Y-106273809D01*
X151214285Y-106464285D01*
X151261904Y-106559523D01*
X151357142Y-106654761D01*
X151500000Y-106702380D01*
X151738095Y-106702380D01*
X150785714Y-105797619D02*
X150738095Y-105750000D01*
X150642857Y-105702380D01*
X150404761Y-105702380D01*
X150309523Y-105750000D01*
X150261904Y-105797619D01*
X150214285Y-105892857D01*
X150214285Y-105988095D01*
X150261904Y-106130952D01*
X150833333Y-106702380D01*
X150214285Y-106702380D01*
X147938095Y-100952380D02*
X147938095Y-99952380D01*
X147700000Y-99952380D01*
X147557142Y-100000000D01*
X147461904Y-100095238D01*
X147414285Y-100190476D01*
X147366666Y-100380952D01*
X147366666Y-100523809D01*
X147414285Y-100714285D01*
X147461904Y-100809523D01*
X147557142Y-100904761D01*
X147700000Y-100952380D01*
X147938095Y-100952380D01*
X146509523Y-100285714D02*
X146509523Y-100952380D01*
X146747619Y-99904761D02*
X146985714Y-100619047D01*
X146366666Y-100619047D01*
X163388095Y-110452380D02*
X163388095Y-109452380D01*
X163150000Y-109452380D01*
X163007142Y-109500000D01*
X162911904Y-109595238D01*
X162864285Y-109690476D01*
X162816666Y-109880952D01*
X162816666Y-110023809D01*
X162864285Y-110214285D01*
X162911904Y-110309523D01*
X163007142Y-110404761D01*
X163150000Y-110452380D01*
X163388095Y-110452380D01*
X161911904Y-109452380D02*
X162388095Y-109452380D01*
X162435714Y-109928571D01*
X162388095Y-109880952D01*
X162292857Y-109833333D01*
X162054761Y-109833333D01*
X161959523Y-109880952D01*
X161911904Y-109928571D01*
X161864285Y-110023809D01*
X161864285Y-110261904D01*
X161911904Y-110357142D01*
X161959523Y-110404761D01*
X162054761Y-110452380D01*
X162292857Y-110452380D01*
X162388095Y-110404761D01*
X162435714Y-110357142D01*
X162616666Y-99502380D02*
X163092857Y-99502380D01*
X163092857Y-98502380D01*
X161759523Y-99502380D02*
X162330952Y-99502380D01*
X162045238Y-99502380D02*
X162045238Y-98502380D01*
X162140476Y-98645238D01*
X162235714Y-98740476D01*
X162330952Y-98788095D01*
X159502380Y-81088095D02*
X160311904Y-81088095D01*
X160407142Y-81135714D01*
X160454761Y-81183333D01*
X160502380Y-81278571D01*
X160502380Y-81469047D01*
X160454761Y-81564285D01*
X160407142Y-81611904D01*
X160311904Y-81659523D01*
X159502380Y-81659523D01*
X160502380Y-82659523D02*
X160502380Y-82088095D01*
X160502380Y-82373809D02*
X159502380Y-82373809D01*
X159645238Y-82278571D01*
X159740476Y-82183333D01*
X159788095Y-82088095D01*
X134652380Y-82883333D02*
X134176190Y-82550000D01*
X134652380Y-82311904D02*
X133652380Y-82311904D01*
X133652380Y-82692857D01*
X133700000Y-82788095D01*
X133747619Y-82835714D01*
X133842857Y-82883333D01*
X133985714Y-82883333D01*
X134080952Y-82835714D01*
X134128571Y-82788095D01*
X134176190Y-82692857D01*
X134176190Y-82311904D01*
X134652380Y-83835714D02*
X134652380Y-83264285D01*
X134652380Y-83550000D02*
X133652380Y-83550000D01*
X133795238Y-83454761D01*
X133890476Y-83359523D01*
X133938095Y-83264285D01*
X137502380Y-82733333D02*
X137026190Y-82400000D01*
X137502380Y-82161904D02*
X136502380Y-82161904D01*
X136502380Y-82542857D01*
X136550000Y-82638095D01*
X136597619Y-82685714D01*
X136692857Y-82733333D01*
X136835714Y-82733333D01*
X136930952Y-82685714D01*
X136978571Y-82638095D01*
X137026190Y-82542857D01*
X137026190Y-82161904D01*
X136597619Y-83114285D02*
X136550000Y-83161904D01*
X136502380Y-83257142D01*
X136502380Y-83495238D01*
X136550000Y-83590476D01*
X136597619Y-83638095D01*
X136692857Y-83685714D01*
X136788095Y-83685714D01*
X136930952Y-83638095D01*
X137502380Y-83066666D01*
X137502380Y-83685714D01*
X160102380Y-74833333D02*
X159626190Y-74500000D01*
X160102380Y-74261904D02*
X159102380Y-74261904D01*
X159102380Y-74642857D01*
X159150000Y-74738095D01*
X159197619Y-74785714D01*
X159292857Y-74833333D01*
X159435714Y-74833333D01*
X159530952Y-74785714D01*
X159578571Y-74738095D01*
X159626190Y-74642857D01*
X159626190Y-74261904D01*
X159102380Y-75166666D02*
X159102380Y-75785714D01*
X159483333Y-75452380D01*
X159483333Y-75595238D01*
X159530952Y-75690476D01*
X159578571Y-75738095D01*
X159673809Y-75785714D01*
X159911904Y-75785714D01*
X160007142Y-75738095D01*
X160054761Y-75690476D01*
X160102380Y-75595238D01*
X160102380Y-75309523D01*
X160054761Y-75214285D01*
X160007142Y-75166666D01*
X165116666Y-72552380D02*
X165450000Y-72076190D01*
X165688095Y-72552380D02*
X165688095Y-71552380D01*
X165307142Y-71552380D01*
X165211904Y-71600000D01*
X165164285Y-71647619D01*
X165116666Y-71742857D01*
X165116666Y-71885714D01*
X165164285Y-71980952D01*
X165211904Y-72028571D01*
X165307142Y-72076190D01*
X165688095Y-72076190D01*
X164259523Y-71885714D02*
X164259523Y-72552380D01*
X164497619Y-71504761D02*
X164735714Y-72219047D01*
X164116666Y-72219047D01*
X142202380Y-82833333D02*
X141726190Y-82500000D01*
X142202380Y-82261904D02*
X141202380Y-82261904D01*
X141202380Y-82642857D01*
X141250000Y-82738095D01*
X141297619Y-82785714D01*
X141392857Y-82833333D01*
X141535714Y-82833333D01*
X141630952Y-82785714D01*
X141678571Y-82738095D01*
X141726190Y-82642857D01*
X141726190Y-82261904D01*
X141202380Y-83738095D02*
X141202380Y-83261904D01*
X141678571Y-83214285D01*
X141630952Y-83261904D01*
X141583333Y-83357142D01*
X141583333Y-83595238D01*
X141630952Y-83690476D01*
X141678571Y-83738095D01*
X141773809Y-83785714D01*
X142011904Y-83785714D01*
X142107142Y-83738095D01*
X142154761Y-83690476D01*
X142202380Y-83595238D01*
X142202380Y-83357142D01*
X142154761Y-83261904D01*
X142107142Y-83214285D01*
X156016666Y-80702380D02*
X156350000Y-80226190D01*
X156588095Y-80702380D02*
X156588095Y-79702380D01*
X156207142Y-79702380D01*
X156111904Y-79750000D01*
X156064285Y-79797619D01*
X156016666Y-79892857D01*
X156016666Y-80035714D01*
X156064285Y-80130952D01*
X156111904Y-80178571D01*
X156207142Y-80226190D01*
X156588095Y-80226190D01*
X155159523Y-79702380D02*
X155350000Y-79702380D01*
X155445238Y-79750000D01*
X155492857Y-79797619D01*
X155588095Y-79940476D01*
X155635714Y-80130952D01*
X155635714Y-80511904D01*
X155588095Y-80607142D01*
X155540476Y-80654761D01*
X155445238Y-80702380D01*
X155254761Y-80702380D01*
X155159523Y-80654761D01*
X155111904Y-80607142D01*
X155064285Y-80511904D01*
X155064285Y-80273809D01*
X155111904Y-80178571D01*
X155159523Y-80130952D01*
X155254761Y-80083333D01*
X155445238Y-80083333D01*
X155540476Y-80130952D01*
X155588095Y-80178571D01*
X155635714Y-80273809D01*
X152666666Y-78302380D02*
X153000000Y-77826190D01*
X153238095Y-78302380D02*
X153238095Y-77302380D01*
X152857142Y-77302380D01*
X152761904Y-77350000D01*
X152714285Y-77397619D01*
X152666666Y-77492857D01*
X152666666Y-77635714D01*
X152714285Y-77730952D01*
X152761904Y-77778571D01*
X152857142Y-77826190D01*
X153238095Y-77826190D01*
X152333333Y-77302380D02*
X151666666Y-77302380D01*
X152095238Y-78302380D01*
X152666666Y-86702380D02*
X153000000Y-86226190D01*
X153238095Y-86702380D02*
X153238095Y-85702380D01*
X152857142Y-85702380D01*
X152761904Y-85750000D01*
X152714285Y-85797619D01*
X152666666Y-85892857D01*
X152666666Y-86035714D01*
X152714285Y-86130952D01*
X152761904Y-86178571D01*
X152857142Y-86226190D01*
X153238095Y-86226190D01*
X152095238Y-86130952D02*
X152190476Y-86083333D01*
X152238095Y-86035714D01*
X152285714Y-85940476D01*
X152285714Y-85892857D01*
X152238095Y-85797619D01*
X152190476Y-85750000D01*
X152095238Y-85702380D01*
X151904761Y-85702380D01*
X151809523Y-85750000D01*
X151761904Y-85797619D01*
X151714285Y-85892857D01*
X151714285Y-85940476D01*
X151761904Y-86035714D01*
X151809523Y-86083333D01*
X151904761Y-86130952D01*
X152095238Y-86130952D01*
X152190476Y-86178571D01*
X152238095Y-86226190D01*
X152285714Y-86321428D01*
X152285714Y-86511904D01*
X152238095Y-86607142D01*
X152190476Y-86654761D01*
X152095238Y-86702380D01*
X151904761Y-86702380D01*
X151809523Y-86654761D01*
X151761904Y-86607142D01*
X151714285Y-86511904D01*
X151714285Y-86321428D01*
X151761904Y-86226190D01*
X151809523Y-86178571D01*
X151904761Y-86130952D01*
X149166666Y-111352380D02*
X149500000Y-110876190D01*
X149738095Y-111352380D02*
X149738095Y-110352380D01*
X149357142Y-110352380D01*
X149261904Y-110400000D01*
X149214285Y-110447619D01*
X149166666Y-110542857D01*
X149166666Y-110685714D01*
X149214285Y-110780952D01*
X149261904Y-110828571D01*
X149357142Y-110876190D01*
X149738095Y-110876190D01*
X148690476Y-111352380D02*
X148500000Y-111352380D01*
X148404761Y-111304761D01*
X148357142Y-111257142D01*
X148261904Y-111114285D01*
X148214285Y-110923809D01*
X148214285Y-110542857D01*
X148261904Y-110447619D01*
X148309523Y-110400000D01*
X148404761Y-110352380D01*
X148595238Y-110352380D01*
X148690476Y-110400000D01*
X148738095Y-110447619D01*
X148785714Y-110542857D01*
X148785714Y-110780952D01*
X148738095Y-110876190D01*
X148690476Y-110923809D01*
X148595238Y-110971428D01*
X148404761Y-110971428D01*
X148309523Y-110923809D01*
X148261904Y-110876190D01*
X148214285Y-110780952D01*
X160742857Y-112652380D02*
X161076190Y-112176190D01*
X161314285Y-112652380D02*
X161314285Y-111652380D01*
X160933333Y-111652380D01*
X160838095Y-111700000D01*
X160790476Y-111747619D01*
X160742857Y-111842857D01*
X160742857Y-111985714D01*
X160790476Y-112080952D01*
X160838095Y-112128571D01*
X160933333Y-112176190D01*
X161314285Y-112176190D01*
X159790476Y-112652380D02*
X160361904Y-112652380D01*
X160076190Y-112652380D02*
X160076190Y-111652380D01*
X160171428Y-111795238D01*
X160266666Y-111890476D01*
X160361904Y-111938095D01*
X158838095Y-112652380D02*
X159409523Y-112652380D01*
X159123809Y-112652380D02*
X159123809Y-111652380D01*
X159219047Y-111795238D01*
X159314285Y-111890476D01*
X159409523Y-111938095D01*
X155692857Y-111552380D02*
X156026190Y-111076190D01*
X156264285Y-111552380D02*
X156264285Y-110552380D01*
X155883333Y-110552380D01*
X155788095Y-110600000D01*
X155740476Y-110647619D01*
X155692857Y-110742857D01*
X155692857Y-110885714D01*
X155740476Y-110980952D01*
X155788095Y-111028571D01*
X155883333Y-111076190D01*
X156264285Y-111076190D01*
X154740476Y-111552380D02*
X155311904Y-111552380D01*
X155026190Y-111552380D02*
X155026190Y-110552380D01*
X155121428Y-110695238D01*
X155216666Y-110790476D01*
X155311904Y-110838095D01*
X154359523Y-110647619D02*
X154311904Y-110600000D01*
X154216666Y-110552380D01*
X153978571Y-110552380D01*
X153883333Y-110600000D01*
X153835714Y-110647619D01*
X153788095Y-110742857D01*
X153788095Y-110838095D01*
X153835714Y-110980952D01*
X154407142Y-111552380D01*
X153788095Y-111552380D01*
M02*
