G04 #@! TF.GenerationSoftware,KiCad,Pcbnew,(5.1.2)-1*
G04 #@! TF.CreationDate,2019-12-09T15:18:37+03:00*
G04 #@! TF.ProjectId,controller_board,636f6e74-726f-46c6-9c65-725f626f6172,rev?*
G04 #@! TF.SameCoordinates,Original*
G04 #@! TF.FileFunction,Copper,L2,Bot*
G04 #@! TF.FilePolarity,Positive*
%FSLAX46Y46*%
G04 Gerber Fmt 4.6, Leading zero omitted, Abs format (unit mm)*
G04 Created by KiCad (PCBNEW (5.1.2)-1) date 2019-12-09 15:18:37*
%MOMM*%
%LPD*%
G04 APERTURE LIST*
%ADD10C,3.000000*%
%ADD11C,2.000000*%
%ADD12C,1.800000*%
%ADD13O,1.700000X1.700000*%
%ADD14R,1.700000X1.700000*%
%ADD15R,1.000000X1.600000*%
%ADD16R,1.600000X1.000000*%
%ADD17R,1.250000X1.000000*%
%ADD18R,1.000000X0.700000*%
%ADD19R,2.500000X2.300000*%
%ADD20R,0.900000X1.200000*%
%ADD21R,2.000000X2.000000*%
%ADD22R,1.500000X2.500000*%
%ADD23C,2.100000*%
%ADD24C,1.750000*%
%ADD25R,0.400000X1.500000*%
%ADD26R,1.500000X0.400000*%
%ADD27R,1.300000X0.700000*%
%ADD28R,0.700000X1.300000*%
%ADD29C,1.400000*%
%ADD30C,6.500000*%
%ADD31C,0.600000*%
%ADD32C,0.400000*%
%ADD33C,1.000000*%
%ADD34C,2.000000*%
%ADD35C,0.500000*%
G04 APERTURE END LIST*
D10*
X183000000Y-127000000D03*
X162000000Y-127000000D03*
D11*
X190000000Y-120000000D03*
X187400000Y-122600000D03*
X187400000Y-117400000D03*
X192600000Y-117400000D03*
X192600000Y-122600000D03*
D12*
X130970000Y-132720000D03*
X136050000Y-132720000D03*
X130970000Y-117480000D03*
X136050000Y-117480000D03*
X151290000Y-132720000D03*
X153830000Y-132720000D03*
X151290000Y-117480000D03*
X153830000Y-117480000D03*
D13*
X148770000Y-76920000D03*
X148770000Y-87080000D03*
X146230000Y-84540000D03*
X148770000Y-84540000D03*
X146230000Y-82000000D03*
X148770000Y-82000000D03*
X146230000Y-79460000D03*
X148770000Y-79460000D03*
X146230000Y-76920000D03*
D14*
X146230000Y-87080000D03*
D15*
X134300000Y-121600000D03*
X131300000Y-121600000D03*
X131200000Y-128900000D03*
X134200000Y-128900000D03*
D16*
X147000000Y-110000000D03*
X147000000Y-107000000D03*
D14*
X161900000Y-50200000D03*
D13*
X159360000Y-50200000D03*
X156820000Y-50200000D03*
D16*
X153800000Y-123100000D03*
X153800000Y-126100000D03*
D15*
X142500000Y-117500000D03*
X145500000Y-117500000D03*
D17*
X173800000Y-87500000D03*
X173800000Y-85500000D03*
D15*
X157400000Y-107200000D03*
X160400000Y-107200000D03*
X158700000Y-96800000D03*
X155700000Y-96800000D03*
D18*
X152300000Y-107650000D03*
X152300000Y-108600000D03*
X152300000Y-109550000D03*
X149700000Y-109550000D03*
X149700000Y-107650000D03*
X149700000Y-108600000D03*
D19*
X149350000Y-103500000D03*
X145050000Y-103500000D03*
D20*
X157350000Y-110000000D03*
X160650000Y-110000000D03*
D14*
X189900000Y-126800000D03*
D13*
X187360000Y-126800000D03*
D14*
X193300000Y-106200000D03*
D13*
X195840000Y-106200000D03*
D21*
X120000000Y-91000000D03*
D11*
X120000000Y-88490000D03*
X120000000Y-85990000D03*
X120000000Y-83490000D03*
X120000000Y-80990000D03*
X120000000Y-78490000D03*
X120000000Y-75990000D03*
X120000000Y-73490000D03*
D22*
X160700000Y-102000000D03*
X153700000Y-102000000D03*
D23*
X194010000Y-61510000D03*
D24*
X196500000Y-60250000D03*
X196500000Y-55750000D03*
D23*
X194010000Y-54500000D03*
D25*
X163700000Y-77350000D03*
X164500000Y-77350000D03*
X165300000Y-77350000D03*
X166100000Y-77350000D03*
X166900000Y-77350000D03*
X167700000Y-77350000D03*
X168500000Y-77350000D03*
X169300000Y-77350000D03*
D26*
X171000000Y-79050000D03*
X171000000Y-79850000D03*
X171000000Y-80650000D03*
X171000000Y-81450000D03*
X171000000Y-82250000D03*
X171000000Y-83050000D03*
X171000000Y-83850000D03*
X171000000Y-84650000D03*
D25*
X169300000Y-86350000D03*
X168500000Y-86350000D03*
X167700000Y-86350000D03*
X166900000Y-86350000D03*
X166100000Y-86350000D03*
X165300000Y-86350000D03*
X164500000Y-86350000D03*
X163700000Y-86350000D03*
D26*
X162000000Y-84650000D03*
X162000000Y-83850000D03*
X162000000Y-83050000D03*
X162000000Y-82250000D03*
X162000000Y-81450000D03*
X162000000Y-80650000D03*
X162000000Y-79850000D03*
X162000000Y-79050000D03*
D27*
X134200000Y-79050000D03*
X134200000Y-80950000D03*
X136900000Y-79050000D03*
X136900000Y-80950000D03*
X159200000Y-78850000D03*
X159200000Y-76950000D03*
D28*
X163950000Y-74000000D03*
X165850000Y-74000000D03*
D27*
X143400000Y-82050000D03*
X143400000Y-83950000D03*
D28*
X153450000Y-82000000D03*
X151550000Y-82000000D03*
X153450000Y-79500000D03*
X151550000Y-79500000D03*
X151550000Y-84600000D03*
X153450000Y-84600000D03*
X148950000Y-112500000D03*
X147050000Y-112500000D03*
X155850000Y-112700000D03*
X157750000Y-112700000D03*
X151550000Y-112200000D03*
X153450000Y-112200000D03*
D29*
X145500000Y-112500000D03*
X143500000Y-112500000D03*
D30*
X194000000Y-48500000D03*
X194000000Y-131500000D03*
X148000000Y-68500000D03*
X196000000Y-68500000D03*
X148000000Y-95500000D03*
X196000000Y-95500000D03*
D29*
X152200000Y-75700000D03*
X144500000Y-110400000D03*
X144500000Y-108300000D03*
X155200000Y-109600000D03*
X155000000Y-107200000D03*
X142400000Y-99800000D03*
X142000000Y-102000000D03*
X142000000Y-104000000D03*
X142000000Y-106000000D03*
X142000000Y-108000000D03*
X141200000Y-110000000D03*
X141200000Y-112000000D03*
X141200000Y-114000000D03*
X143900000Y-98300000D03*
X143500000Y-115000000D03*
X145500000Y-115000000D03*
X148000000Y-115000000D03*
X150000000Y-114500000D03*
X152000000Y-114500000D03*
X154000000Y-114500000D03*
X156000000Y-115000000D03*
X158000000Y-115000000D03*
X160000000Y-114000000D03*
X162300000Y-113500000D03*
X164600000Y-113500000D03*
X164300000Y-103400000D03*
X152900000Y-93900000D03*
X155000000Y-93900000D03*
X157000000Y-93900000D03*
X160500000Y-94000000D03*
X162800000Y-94700000D03*
X164300000Y-96600000D03*
X164300000Y-98800000D03*
X164300000Y-101000000D03*
X174200000Y-82900000D03*
X166600000Y-82100000D03*
X160200000Y-88000000D03*
X157600000Y-74000000D03*
X172700000Y-75600000D03*
X180400000Y-66300000D03*
X171400000Y-88900000D03*
X162300000Y-74000000D03*
X139400000Y-78800000D03*
X134100000Y-77200000D03*
X164700000Y-88700000D03*
X162700000Y-88300000D03*
X156700000Y-82900000D03*
X152100000Y-87100000D03*
X159200000Y-84400000D03*
X155100000Y-82000000D03*
D31*
X147050000Y-112500000D02*
X147050000Y-110050000D01*
X147050000Y-110050000D02*
X147000000Y-110000000D01*
X149700000Y-108600000D02*
X147600000Y-108600000D01*
X147000000Y-109200000D02*
X147000000Y-110000000D01*
X147600000Y-108600000D02*
X147000000Y-109200000D01*
X147250000Y-110050000D02*
X147200000Y-110000000D01*
X147050000Y-112500000D02*
X145500000Y-112500000D01*
D32*
X148770000Y-76920000D02*
X150980000Y-76920000D01*
X150980000Y-76920000D02*
X152200000Y-75700000D01*
X171000000Y-84650000D02*
X172950000Y-84650000D01*
X172950000Y-84650000D02*
X173800000Y-85500000D01*
D33*
X145050000Y-103500000D02*
X145050000Y-102250000D01*
X154600000Y-96800000D02*
X155700000Y-96800000D01*
X151000000Y-100400000D02*
X154600000Y-96800000D01*
X146900000Y-100400000D02*
X151000000Y-100400000D01*
X145050000Y-102250000D02*
X146900000Y-100400000D01*
D31*
X144500000Y-108300000D02*
X144500000Y-110400000D01*
X147000000Y-107000000D02*
X145800000Y-107000000D01*
X145800000Y-107000000D02*
X144500000Y-108300000D01*
X152300000Y-108600000D02*
X153600000Y-108600000D01*
X153600000Y-108600000D02*
X155000000Y-107200000D01*
X147000000Y-107000000D02*
X145900000Y-107000000D01*
X145050000Y-106150000D02*
X145050000Y-103500000D01*
X145900000Y-107000000D02*
X145050000Y-106150000D01*
X152300000Y-108600000D02*
X151300000Y-108600000D01*
X151000000Y-111100000D02*
X151550000Y-111650000D01*
X151000000Y-108900000D02*
X151000000Y-111100000D01*
X151300000Y-108600000D02*
X151000000Y-108900000D01*
X151550000Y-111650000D02*
X151550000Y-112200000D01*
X155800000Y-68500000D02*
X148000000Y-68500000D01*
X156800000Y-67500000D02*
X155800000Y-68500000D01*
X156820000Y-50200000D02*
X156800000Y-50220000D01*
D33*
X156800000Y-50220000D02*
X156800000Y-67500000D01*
X151290000Y-117480000D02*
X153830000Y-117480000D01*
X153830000Y-117480000D02*
X153830000Y-121000000D01*
X153830000Y-121000000D02*
X153830000Y-123070000D01*
X153830000Y-123070000D02*
X153800000Y-123100000D01*
X145500000Y-117500000D02*
X151270000Y-117500000D01*
X151270000Y-117500000D02*
X151290000Y-117480000D01*
X151290000Y-132720000D02*
X153830000Y-132720000D01*
X153830000Y-132720000D02*
X153830000Y-127900000D01*
X153830000Y-127900000D02*
X153830000Y-126130000D01*
X153830000Y-126130000D02*
X153800000Y-126100000D01*
D31*
X162300000Y-74000000D02*
X163950000Y-74000000D01*
X140400000Y-88200000D02*
X140400000Y-88600000D01*
X140400000Y-81100000D02*
X140400000Y-88200000D01*
X153900000Y-90400000D02*
X155000000Y-91500000D01*
X142200000Y-90400000D02*
X153900000Y-90400000D01*
X140400000Y-88600000D02*
X142200000Y-90400000D01*
D32*
X153450000Y-79500000D02*
X153450000Y-78750000D01*
X146230000Y-76670000D02*
X146230000Y-76920000D01*
X148600000Y-74300000D02*
X146230000Y-76670000D01*
X153100000Y-74300000D02*
X148600000Y-74300000D01*
X154300000Y-75500000D02*
X153100000Y-74300000D01*
X154300000Y-77900000D02*
X154300000Y-75500000D01*
X153450000Y-78750000D02*
X154300000Y-77900000D01*
D31*
X136900000Y-80950000D02*
X134200000Y-80950000D01*
X158700000Y-91500000D02*
X155000000Y-91500000D01*
X155000000Y-91500000D02*
X154800000Y-91500000D01*
X136900000Y-80950000D02*
X137050000Y-81100000D01*
X137050000Y-81100000D02*
X140400000Y-81100000D01*
X171400000Y-88900000D02*
X168400000Y-88900000D01*
X158700000Y-91500000D02*
X158700000Y-96800000D01*
X165800000Y-91500000D02*
X158700000Y-91500000D01*
X168400000Y-88900000D02*
X165800000Y-91500000D01*
X158700000Y-95400000D02*
X158700000Y-96800000D01*
X171400000Y-88900000D02*
X171400000Y-88800000D01*
X171400000Y-87500000D02*
X171400000Y-88900000D01*
D32*
X169300000Y-86350000D02*
X169300000Y-87200000D01*
X169600000Y-87500000D02*
X171400000Y-87500000D01*
D31*
X171400000Y-87500000D02*
X173800000Y-87500000D01*
D32*
X169300000Y-87200000D02*
X169600000Y-87500000D01*
X163700000Y-77350000D02*
X163700000Y-74250000D01*
X163700000Y-74250000D02*
X163950000Y-74000000D01*
D33*
X160700000Y-102000000D02*
X160700000Y-98800000D01*
X160700000Y-98800000D02*
X158700000Y-96800000D01*
D31*
X160650000Y-110000000D02*
X161300000Y-110000000D01*
X162200000Y-103500000D02*
X160700000Y-102000000D01*
X162200000Y-109100000D02*
X162200000Y-103500000D01*
X161300000Y-110000000D02*
X162200000Y-109100000D01*
X157750000Y-112700000D02*
X158800000Y-112700000D01*
X160650000Y-110850000D02*
X160650000Y-110000000D01*
X158800000Y-112700000D02*
X160650000Y-110850000D01*
X140400000Y-80300000D02*
X140400000Y-81100000D01*
X146230000Y-76920000D02*
X143780000Y-76920000D01*
X143780000Y-76920000D02*
X140400000Y-80300000D01*
X120000000Y-83490000D02*
X124110000Y-83490000D01*
X124110000Y-83490000D02*
X125200000Y-82400000D01*
X125200000Y-82400000D02*
X130700000Y-82400000D01*
X130700000Y-82400000D02*
X132100000Y-81000000D01*
X132100000Y-81000000D02*
X134200000Y-81000000D01*
D32*
X152300000Y-107650000D02*
X152850000Y-107650000D01*
X155900000Y-105700000D02*
X157400000Y-107200000D01*
X154400000Y-105700000D02*
X155900000Y-105700000D01*
X153700000Y-106400000D02*
X154400000Y-105700000D01*
X153700000Y-106800000D02*
X153700000Y-106400000D01*
X152850000Y-107650000D02*
X153700000Y-106800000D01*
D31*
X157400000Y-107200000D02*
X157400000Y-109950000D01*
X157400000Y-109950000D02*
X157350000Y-110000000D01*
D33*
X160400000Y-107200000D02*
X160400000Y-105700000D01*
X155900000Y-103500000D02*
X152200000Y-103500000D01*
X157300000Y-104900000D02*
X155900000Y-103500000D01*
X159600000Y-104900000D02*
X157300000Y-104900000D01*
X160400000Y-105700000D02*
X159600000Y-104900000D01*
D34*
X149350000Y-103500000D02*
X152200000Y-103500000D01*
X152200000Y-103500000D02*
X153700000Y-102000000D01*
D31*
X149700000Y-107650000D02*
X149700000Y-105900000D01*
X149350000Y-105550000D02*
X149350000Y-103500000D01*
X149700000Y-105900000D02*
X149350000Y-105550000D01*
D34*
X120110000Y-86100000D02*
X120000000Y-85990000D01*
D31*
X152300000Y-109550000D02*
X153050000Y-109550000D01*
X153450000Y-109950000D02*
X153450000Y-112200000D01*
X153050000Y-109550000D02*
X153450000Y-109950000D01*
X153450000Y-112200000D02*
X154200000Y-112200000D01*
X154700000Y-112700000D02*
X155850000Y-112700000D01*
X154200000Y-112200000D02*
X154700000Y-112700000D01*
X149700000Y-109550000D02*
X149700000Y-110500000D01*
X148950000Y-111250000D02*
X148950000Y-112500000D01*
X149700000Y-110500000D02*
X148950000Y-111250000D01*
D34*
X186157919Y-126800000D02*
X185857919Y-127100000D01*
X187360000Y-126800000D02*
X186157919Y-126800000D01*
X185957919Y-127000000D02*
X186157919Y-126800000D01*
X183000000Y-127000000D02*
X185957919Y-127000000D01*
D33*
X190000000Y-126700000D02*
X189900000Y-126800000D01*
X190000000Y-120000000D02*
X190000000Y-126700000D01*
D32*
X150000000Y-84600000D02*
X151550000Y-84600000D01*
X149940000Y-84540000D02*
X150000000Y-84600000D01*
D35*
X151490000Y-84540000D02*
X151550000Y-84600000D01*
X149940000Y-84540000D02*
X148760000Y-84540000D01*
X148760000Y-84540000D02*
X148700000Y-84600000D01*
D32*
X143400000Y-82050000D02*
X145350000Y-82050000D01*
X146180000Y-82050000D02*
X146230000Y-82000000D01*
X146180000Y-82050000D02*
X146230000Y-82000000D01*
X146180000Y-82050000D02*
X146230000Y-82000000D01*
D35*
X146130000Y-81900000D02*
X146230000Y-82000000D01*
X145350000Y-82050000D02*
X146150000Y-82050000D01*
X146150000Y-82050000D02*
X146200000Y-82100000D01*
D32*
X149900000Y-82000000D02*
X151550000Y-82000000D01*
D35*
X149900000Y-82000000D02*
X148800000Y-82000000D01*
X148800000Y-82000000D02*
X148700000Y-82000000D01*
D32*
X141600000Y-87900000D02*
X143200000Y-89500000D01*
X155400000Y-90300000D02*
X165400000Y-90300000D01*
X143240000Y-79460000D02*
X141600000Y-81100000D01*
X141600000Y-81100000D02*
X141600000Y-87900000D01*
X166100000Y-89600000D02*
X166100000Y-86350000D01*
X165400000Y-90300000D02*
X166100000Y-89600000D01*
X143240000Y-79460000D02*
X144440000Y-79460000D01*
X154600000Y-89500000D02*
X155400000Y-90300000D01*
X143200000Y-89500000D02*
X154600000Y-89500000D01*
D35*
X145027919Y-79460000D02*
X144440000Y-79460000D01*
X146230000Y-79460000D02*
X145027919Y-79460000D01*
D32*
X149800000Y-79500000D02*
X151550000Y-79500000D01*
X149760000Y-79460000D02*
X149800000Y-79500000D01*
D35*
X151510000Y-79460000D02*
X151550000Y-79500000D01*
X149760000Y-79460000D02*
X148740000Y-79460000D01*
D31*
X128610000Y-80990000D02*
X122110000Y-80990000D01*
X134200000Y-79050000D02*
X130550000Y-79050000D01*
X128610000Y-80990000D02*
X130550000Y-79050000D01*
D32*
X162000000Y-80650000D02*
X157350000Y-80650000D01*
D31*
X140550000Y-72700000D02*
X134200000Y-79050000D01*
D32*
X153800000Y-72700000D02*
X140550000Y-72700000D01*
X155900000Y-74800000D02*
X153800000Y-72700000D01*
X155900000Y-79200000D02*
X155900000Y-74800000D01*
X157350000Y-80650000D02*
X155900000Y-79200000D01*
D31*
X122110000Y-80990000D02*
X119910000Y-80990000D01*
X119910000Y-80990000D02*
X119900000Y-81000000D01*
X128610000Y-78490000D02*
X122210000Y-78490000D01*
X136900000Y-79050000D02*
X139150000Y-79050000D01*
D32*
X139400000Y-78800000D02*
X139150000Y-79050000D01*
D31*
X129900000Y-77200000D02*
X134100000Y-77200000D01*
X128610000Y-78490000D02*
X129900000Y-77200000D01*
D32*
X162000000Y-81450000D02*
X156950000Y-81450000D01*
D31*
X142450000Y-73500000D02*
X136900000Y-79050000D01*
D32*
X153400000Y-73500000D02*
X142450000Y-73500000D01*
X155100000Y-75200000D02*
X153400000Y-73500000D01*
X155100000Y-79600000D02*
X155100000Y-75200000D01*
X156950000Y-81450000D02*
X155100000Y-79600000D01*
D35*
X120010000Y-78490000D02*
X120000000Y-78500000D01*
D31*
X122210000Y-78490000D02*
X120010000Y-78490000D01*
D32*
X164500000Y-86350000D02*
X164500000Y-88500000D01*
X164500000Y-88500000D02*
X164700000Y-88700000D01*
X163700000Y-86350000D02*
X163700000Y-87300000D01*
X163700000Y-87300000D02*
X162700000Y-88300000D01*
X162000000Y-79850000D02*
X160200000Y-79850000D01*
X160200000Y-79850000D02*
X159200000Y-78850000D01*
X166100000Y-77350000D02*
X166100000Y-74250000D01*
X166100000Y-74250000D02*
X165850000Y-74000000D01*
X143800000Y-88700000D02*
X150500000Y-88700000D01*
X157350000Y-82250000D02*
X156700000Y-82900000D01*
X162000000Y-82250000D02*
X157350000Y-82250000D01*
X143800000Y-88700000D02*
X143400000Y-88300000D01*
X143400000Y-88300000D02*
X143400000Y-83950000D01*
X150500000Y-88700000D02*
X152100000Y-87100000D01*
X153450000Y-82000000D02*
X155100000Y-82000000D01*
X159200000Y-84400000D02*
X159750000Y-83850000D01*
X159750000Y-83850000D02*
X162000000Y-83850000D01*
X153450000Y-84600000D02*
X157000000Y-84600000D01*
X158550000Y-83050000D02*
X162000000Y-83050000D01*
X157000000Y-84600000D02*
X158550000Y-83050000D01*
X196500000Y-60000000D02*
X196500000Y-59900000D01*
X167700000Y-73100000D02*
X167700000Y-77350000D01*
X171700000Y-69100000D02*
X167700000Y-73100000D01*
X181500000Y-69100000D02*
X171700000Y-69100000D01*
X192200000Y-58400000D02*
X181500000Y-69100000D01*
X196500000Y-60000000D02*
X194900000Y-58400000D01*
X194900000Y-58400000D02*
X192200000Y-58400000D01*
D33*
X136050000Y-117480000D02*
X142480000Y-117480000D01*
X142480000Y-117480000D02*
X142500000Y-117500000D01*
X135950000Y-121750000D02*
X136050000Y-121750000D01*
X135800000Y-121600000D02*
X135950000Y-121750000D01*
X134300000Y-121600000D02*
X135800000Y-121600000D01*
X136050000Y-117480000D02*
X136050000Y-121750000D01*
X136050000Y-121750000D02*
X136050000Y-128200000D01*
X135750000Y-128850000D02*
X136050000Y-128850000D01*
X135700000Y-128900000D02*
X135750000Y-128850000D01*
X134200000Y-128900000D02*
X135700000Y-128900000D01*
X136050000Y-128200000D02*
X136050000Y-128850000D01*
X136050000Y-128850000D02*
X136050000Y-132720000D01*
X130970000Y-132930000D02*
X130970000Y-132720000D01*
X131200000Y-128900000D02*
X131200000Y-132700000D01*
X131200000Y-132700000D02*
X131000000Y-132900000D01*
X131300000Y-119800000D02*
X130900000Y-119400000D01*
X131300000Y-121600000D02*
X131300000Y-119800000D01*
X130900000Y-119400000D02*
X130900000Y-117700000D01*
D32*
G36*
X199125000Y-72125000D02*
G01*
X181457021Y-72125000D01*
X181419430Y-72128702D01*
X181410227Y-72128638D01*
X181398068Y-72129830D01*
X181106922Y-72160430D01*
X181029243Y-72176375D01*
X180951334Y-72191237D01*
X180939638Y-72194768D01*
X180659982Y-72281336D01*
X180586856Y-72312075D01*
X180513341Y-72341777D01*
X180502554Y-72347513D01*
X180245038Y-72486752D01*
X180179289Y-72531101D01*
X180112933Y-72574523D01*
X180103466Y-72582244D01*
X179877898Y-72768850D01*
X179822037Y-72825102D01*
X179765355Y-72880609D01*
X179757568Y-72890023D01*
X179572542Y-73116887D01*
X179528652Y-73182947D01*
X179483850Y-73248378D01*
X179478039Y-73259125D01*
X179340602Y-73517606D01*
X179310383Y-73590921D01*
X179279139Y-73663819D01*
X179275530Y-73675480D01*
X179275526Y-73675490D01*
X179275524Y-73675500D01*
X179190913Y-73955744D01*
X179175508Y-74033542D01*
X179159020Y-74111114D01*
X179157743Y-74123264D01*
X179129176Y-74414616D01*
X179129176Y-74414622D01*
X179125000Y-74457022D01*
X179125001Y-89542979D01*
X179128702Y-89580560D01*
X179128638Y-89589774D01*
X179129830Y-89601933D01*
X179160430Y-89893078D01*
X179176375Y-89970757D01*
X179191237Y-90048666D01*
X179194768Y-90060362D01*
X179281336Y-90340017D01*
X179312070Y-90413130D01*
X179341777Y-90486659D01*
X179347513Y-90497446D01*
X179486752Y-90754962D01*
X179531116Y-90820734D01*
X179574523Y-90887067D01*
X179582245Y-90896535D01*
X179768850Y-91122102D01*
X179825102Y-91177963D01*
X179880609Y-91234645D01*
X179890023Y-91242432D01*
X180116887Y-91427458D01*
X180182947Y-91471348D01*
X180248378Y-91516150D01*
X180259125Y-91521961D01*
X180517606Y-91659398D01*
X180590910Y-91689612D01*
X180663819Y-91720861D01*
X180675484Y-91724471D01*
X180675491Y-91724474D01*
X180675498Y-91724475D01*
X180955745Y-91809087D01*
X181033527Y-91824489D01*
X181111113Y-91840980D01*
X181123260Y-91842257D01*
X181123264Y-91842257D01*
X181414616Y-91870824D01*
X181414621Y-91870824D01*
X181457021Y-91875000D01*
X199125000Y-91875000D01*
X199125001Y-139125000D01*
X159300000Y-139125000D01*
X159300000Y-126773470D01*
X159700000Y-126773470D01*
X159700000Y-127226530D01*
X159788387Y-127670885D01*
X159961766Y-128089459D01*
X160213473Y-128466165D01*
X160533835Y-128786527D01*
X160910541Y-129038234D01*
X161329115Y-129211613D01*
X161773470Y-129300000D01*
X162226530Y-129300000D01*
X162670885Y-129211613D01*
X163089459Y-129038234D01*
X163466165Y-128786527D01*
X163786527Y-128466165D01*
X164038234Y-128089459D01*
X164211613Y-127670885D01*
X164300000Y-127226530D01*
X164300000Y-126773470D01*
X180700000Y-126773470D01*
X180700000Y-127226530D01*
X180788387Y-127670885D01*
X180961766Y-128089459D01*
X181213473Y-128466165D01*
X181533835Y-128786527D01*
X181910541Y-129038234D01*
X182329115Y-129211613D01*
X182773470Y-129300000D01*
X183226530Y-129300000D01*
X183670885Y-129211613D01*
X184089459Y-129038234D01*
X184446001Y-128800000D01*
X185261261Y-128800000D01*
X185505058Y-128873955D01*
X185857919Y-128908708D01*
X186210780Y-128873955D01*
X186550081Y-128771029D01*
X186862783Y-128603886D01*
X186867518Y-128600000D01*
X187448424Y-128600000D01*
X187712862Y-128573955D01*
X188052163Y-128471029D01*
X188364865Y-128303887D01*
X188476517Y-128212256D01*
X188481578Y-128218422D01*
X188603394Y-128318393D01*
X188742372Y-128392679D01*
X188893173Y-128438424D01*
X189050000Y-128453870D01*
X190750000Y-128453870D01*
X190906827Y-128438424D01*
X191057628Y-128392679D01*
X191196606Y-128318393D01*
X191318422Y-128218422D01*
X191418393Y-128096606D01*
X191492679Y-127957628D01*
X191538424Y-127806827D01*
X191553870Y-127650000D01*
X191553870Y-125950000D01*
X191538424Y-125793173D01*
X191492679Y-125642372D01*
X191418393Y-125503394D01*
X191318422Y-125381578D01*
X191300000Y-125366460D01*
X191300000Y-123725938D01*
X191550429Y-123725938D01*
X191635392Y-124019539D01*
X191930865Y-124180449D01*
X192252053Y-124280623D01*
X192586612Y-124316212D01*
X192921686Y-124285847D01*
X193244397Y-124190697D01*
X193542345Y-124034416D01*
X193564608Y-124019539D01*
X193649571Y-123725938D01*
X192600000Y-122676368D01*
X191550429Y-123725938D01*
X191300000Y-123725938D01*
X191300000Y-123599200D01*
X191474062Y-123649571D01*
X192523632Y-122600000D01*
X192676368Y-122600000D01*
X193725938Y-123649571D01*
X194019539Y-123564608D01*
X194180449Y-123269135D01*
X194280623Y-122947947D01*
X194316212Y-122613388D01*
X194285847Y-122278314D01*
X194190697Y-121955603D01*
X194034416Y-121657655D01*
X194019539Y-121635392D01*
X193725938Y-121550429D01*
X192676368Y-122600000D01*
X192523632Y-122600000D01*
X191474062Y-121550429D01*
X191300000Y-121600800D01*
X191300000Y-121474062D01*
X191550429Y-121474062D01*
X192600000Y-122523632D01*
X193649571Y-121474062D01*
X193564608Y-121180461D01*
X193269135Y-121019551D01*
X192947947Y-120919377D01*
X192613388Y-120883788D01*
X192278314Y-120914153D01*
X191955603Y-121009303D01*
X191657655Y-121165584D01*
X191635392Y-121180461D01*
X191550429Y-121474062D01*
X191300000Y-121474062D01*
X191300000Y-121245584D01*
X191398151Y-121147433D01*
X191595139Y-120852620D01*
X191730827Y-120525041D01*
X191800000Y-120177284D01*
X191800000Y-119822716D01*
X191730827Y-119474959D01*
X191595139Y-119147380D01*
X191398151Y-118852567D01*
X191147433Y-118601849D01*
X191033825Y-118525938D01*
X191550429Y-118525938D01*
X191635392Y-118819539D01*
X191930865Y-118980449D01*
X192252053Y-119080623D01*
X192586612Y-119116212D01*
X192921686Y-119085847D01*
X193244397Y-118990697D01*
X193542345Y-118834416D01*
X193564608Y-118819539D01*
X193649571Y-118525938D01*
X192600000Y-117476368D01*
X191550429Y-118525938D01*
X191033825Y-118525938D01*
X190852620Y-118404861D01*
X190525041Y-118269173D01*
X190177284Y-118200000D01*
X189822716Y-118200000D01*
X189474959Y-118269173D01*
X189147380Y-118404861D01*
X188852567Y-118601849D01*
X188601849Y-118852567D01*
X188404861Y-119147380D01*
X188269173Y-119474959D01*
X188200000Y-119822716D01*
X188200000Y-120177284D01*
X188269173Y-120525041D01*
X188404861Y-120852620D01*
X188601849Y-121147433D01*
X188700000Y-121245584D01*
X188700000Y-121600800D01*
X188525938Y-121550429D01*
X187476368Y-122600000D01*
X188525938Y-123649571D01*
X188700001Y-123599200D01*
X188700001Y-125229969D01*
X188603394Y-125281607D01*
X188481578Y-125381578D01*
X188476517Y-125387744D01*
X188364865Y-125296113D01*
X188052163Y-125128971D01*
X187712862Y-125026045D01*
X187448424Y-125000000D01*
X186246335Y-125000000D01*
X186157919Y-124991292D01*
X186157918Y-124991292D01*
X186069502Y-125000000D01*
X186069495Y-125000000D01*
X185805057Y-125026045D01*
X185465756Y-125128971D01*
X185332870Y-125200000D01*
X184446001Y-125200000D01*
X184089459Y-124961766D01*
X183670885Y-124788387D01*
X183226530Y-124700000D01*
X182773470Y-124700000D01*
X182329115Y-124788387D01*
X181910541Y-124961766D01*
X181533835Y-125213473D01*
X181213473Y-125533835D01*
X180961766Y-125910541D01*
X180788387Y-126329115D01*
X180700000Y-126773470D01*
X164300000Y-126773470D01*
X164211613Y-126329115D01*
X164038234Y-125910541D01*
X163786527Y-125533835D01*
X163466165Y-125213473D01*
X163089459Y-124961766D01*
X162670885Y-124788387D01*
X162226530Y-124700000D01*
X161773470Y-124700000D01*
X161329115Y-124788387D01*
X160910541Y-124961766D01*
X160533835Y-125213473D01*
X160213473Y-125533835D01*
X159961766Y-125910541D01*
X159788387Y-126329115D01*
X159700000Y-126773470D01*
X159300000Y-126773470D01*
X159300000Y-123725938D01*
X186350429Y-123725938D01*
X186435392Y-124019539D01*
X186730865Y-124180449D01*
X187052053Y-124280623D01*
X187386612Y-124316212D01*
X187721686Y-124285847D01*
X188044397Y-124190697D01*
X188342345Y-124034416D01*
X188364608Y-124019539D01*
X188449571Y-123725938D01*
X187400000Y-122676368D01*
X186350429Y-123725938D01*
X159300000Y-123725938D01*
X159300000Y-122586612D01*
X185683788Y-122586612D01*
X185714153Y-122921686D01*
X185809303Y-123244397D01*
X185965584Y-123542345D01*
X185980461Y-123564608D01*
X186274062Y-123649571D01*
X187323632Y-122600000D01*
X186274062Y-121550429D01*
X185980461Y-121635392D01*
X185819551Y-121930865D01*
X185719377Y-122252053D01*
X185683788Y-122586612D01*
X159300000Y-122586612D01*
X159300000Y-121474062D01*
X186350429Y-121474062D01*
X187400000Y-122523632D01*
X188449571Y-121474062D01*
X188364608Y-121180461D01*
X188069135Y-121019551D01*
X187747947Y-120919377D01*
X187413388Y-120883788D01*
X187078314Y-120914153D01*
X186755603Y-121009303D01*
X186457655Y-121165584D01*
X186435392Y-121180461D01*
X186350429Y-121474062D01*
X159300000Y-121474062D01*
X159300000Y-118525938D01*
X186350429Y-118525938D01*
X186435392Y-118819539D01*
X186730865Y-118980449D01*
X187052053Y-119080623D01*
X187386612Y-119116212D01*
X187721686Y-119085847D01*
X188044397Y-118990697D01*
X188342345Y-118834416D01*
X188364608Y-118819539D01*
X188449571Y-118525938D01*
X187400000Y-117476368D01*
X186350429Y-118525938D01*
X159300000Y-118525938D01*
X159300000Y-117386612D01*
X185683788Y-117386612D01*
X185714153Y-117721686D01*
X185809303Y-118044397D01*
X185965584Y-118342345D01*
X185980461Y-118364608D01*
X186274062Y-118449571D01*
X187323632Y-117400000D01*
X187476368Y-117400000D01*
X188525938Y-118449571D01*
X188819539Y-118364608D01*
X188980449Y-118069135D01*
X189080623Y-117747947D01*
X189116212Y-117413388D01*
X189113786Y-117386612D01*
X190883788Y-117386612D01*
X190914153Y-117721686D01*
X191009303Y-118044397D01*
X191165584Y-118342345D01*
X191180461Y-118364608D01*
X191474062Y-118449571D01*
X192523632Y-117400000D01*
X192676368Y-117400000D01*
X193725938Y-118449571D01*
X194019539Y-118364608D01*
X194180449Y-118069135D01*
X194280623Y-117747947D01*
X194316212Y-117413388D01*
X194285847Y-117078314D01*
X194190697Y-116755603D01*
X194034416Y-116457655D01*
X194019539Y-116435392D01*
X193725938Y-116350429D01*
X192676368Y-117400000D01*
X192523632Y-117400000D01*
X191474062Y-116350429D01*
X191180461Y-116435392D01*
X191019551Y-116730865D01*
X190919377Y-117052053D01*
X190883788Y-117386612D01*
X189113786Y-117386612D01*
X189085847Y-117078314D01*
X188990697Y-116755603D01*
X188834416Y-116457655D01*
X188819539Y-116435392D01*
X188525938Y-116350429D01*
X187476368Y-117400000D01*
X187323632Y-117400000D01*
X186274062Y-116350429D01*
X185980461Y-116435392D01*
X185819551Y-116730865D01*
X185719377Y-117052053D01*
X185683788Y-117386612D01*
X159300000Y-117386612D01*
X159300000Y-116274062D01*
X186350429Y-116274062D01*
X187400000Y-117323632D01*
X188449571Y-116274062D01*
X191550429Y-116274062D01*
X192600000Y-117323632D01*
X193649571Y-116274062D01*
X193564608Y-115980461D01*
X193269135Y-115819551D01*
X192947947Y-115719377D01*
X192613388Y-115683788D01*
X192278314Y-115714153D01*
X191955603Y-115809303D01*
X191657655Y-115965584D01*
X191635392Y-115980461D01*
X191550429Y-116274062D01*
X188449571Y-116274062D01*
X188364608Y-115980461D01*
X188069135Y-115819551D01*
X187747947Y-115719377D01*
X187413388Y-115683788D01*
X187078314Y-115714153D01*
X186755603Y-115809303D01*
X186457655Y-115965584D01*
X186435392Y-115980461D01*
X186350429Y-116274062D01*
X159300000Y-116274062D01*
X159300000Y-115800000D01*
X159296157Y-115760982D01*
X159284776Y-115723463D01*
X159266294Y-115688886D01*
X159241421Y-115658579D01*
X159211114Y-115633706D01*
X159176537Y-115615224D01*
X159139018Y-115603843D01*
X159100000Y-115600000D01*
X141865890Y-115600000D01*
X139700000Y-113999125D01*
X139700000Y-106500000D01*
X145488574Y-106500000D01*
X145492000Y-106769000D01*
X145669000Y-106946000D01*
X146946000Y-106946000D01*
X146946000Y-105969000D01*
X146769000Y-105792000D01*
X146200000Y-105788574D01*
X146061208Y-105802244D01*
X145927749Y-105842728D01*
X145804753Y-105908471D01*
X145696946Y-105996946D01*
X145608471Y-106104753D01*
X145542728Y-106227749D01*
X145502244Y-106361208D01*
X145488574Y-106500000D01*
X139700000Y-106500000D01*
X139700000Y-104650000D01*
X143088574Y-104650000D01*
X143102244Y-104788792D01*
X143142728Y-104922251D01*
X143208471Y-105045247D01*
X143296946Y-105153054D01*
X143404753Y-105241529D01*
X143527749Y-105307272D01*
X143661208Y-105347756D01*
X143800000Y-105361426D01*
X144819000Y-105358000D01*
X144996000Y-105181000D01*
X144996000Y-103554000D01*
X145104000Y-103554000D01*
X145104000Y-105181000D01*
X145281000Y-105358000D01*
X146300000Y-105361426D01*
X146438792Y-105347756D01*
X146572251Y-105307272D01*
X146695247Y-105241529D01*
X146803054Y-105153054D01*
X146891529Y-105045247D01*
X146957272Y-104922251D01*
X146997756Y-104788792D01*
X147011426Y-104650000D01*
X147008000Y-103731000D01*
X146831000Y-103554000D01*
X145104000Y-103554000D01*
X144996000Y-103554000D01*
X143269000Y-103554000D01*
X143092000Y-103731000D01*
X143088574Y-104650000D01*
X139700000Y-104650000D01*
X139700000Y-102350000D01*
X143088574Y-102350000D01*
X143092000Y-103269000D01*
X143269000Y-103446000D01*
X144996000Y-103446000D01*
X144996000Y-101819000D01*
X145104000Y-101819000D01*
X145104000Y-103446000D01*
X146831000Y-103446000D01*
X147008000Y-103269000D01*
X147011426Y-102350000D01*
X146997756Y-102211208D01*
X146957272Y-102077749D01*
X146891529Y-101954753D01*
X146803054Y-101846946D01*
X146695247Y-101758471D01*
X146572251Y-101692728D01*
X146438792Y-101652244D01*
X146300000Y-101638574D01*
X145281000Y-101642000D01*
X145104000Y-101819000D01*
X144996000Y-101819000D01*
X144819000Y-101642000D01*
X143800000Y-101638574D01*
X143661208Y-101652244D01*
X143527749Y-101692728D01*
X143404753Y-101758471D01*
X143296946Y-101846946D01*
X143208471Y-101954753D01*
X143142728Y-102077749D01*
X143102244Y-102211208D01*
X143088574Y-102350000D01*
X139700000Y-102350000D01*
X139700000Y-97600000D01*
X154488574Y-97600000D01*
X154502244Y-97738792D01*
X154542728Y-97872251D01*
X154608471Y-97995247D01*
X154696946Y-98103054D01*
X154804753Y-98191529D01*
X154927749Y-98257272D01*
X155061208Y-98297756D01*
X155200000Y-98311426D01*
X155469000Y-98308000D01*
X155646000Y-98131000D01*
X155646000Y-96854000D01*
X155754000Y-96854000D01*
X155754000Y-98131000D01*
X155931000Y-98308000D01*
X156200000Y-98311426D01*
X156338792Y-98297756D01*
X156472251Y-98257272D01*
X156595247Y-98191529D01*
X156703054Y-98103054D01*
X156791529Y-97995247D01*
X156857272Y-97872251D01*
X156897756Y-97738792D01*
X156911426Y-97600000D01*
X156908000Y-97031000D01*
X156731000Y-96854000D01*
X155754000Y-96854000D01*
X155646000Y-96854000D01*
X154669000Y-96854000D01*
X154492000Y-97031000D01*
X154488574Y-97600000D01*
X139700000Y-97600000D01*
X139700000Y-96000000D01*
X154488574Y-96000000D01*
X154492000Y-96569000D01*
X154669000Y-96746000D01*
X155646000Y-96746000D01*
X155646000Y-95469000D01*
X155754000Y-95469000D01*
X155754000Y-96746000D01*
X156731000Y-96746000D01*
X156908000Y-96569000D01*
X156911426Y-96000000D01*
X156897756Y-95861208D01*
X156857272Y-95727749D01*
X156791529Y-95604753D01*
X156703054Y-95496946D01*
X156595247Y-95408471D01*
X156472251Y-95342728D01*
X156338792Y-95302244D01*
X156200000Y-95288574D01*
X155931000Y-95292000D01*
X155754000Y-95469000D01*
X155646000Y-95469000D01*
X155469000Y-95292000D01*
X155200000Y-95288574D01*
X155061208Y-95302244D01*
X154927749Y-95342728D01*
X154804753Y-95408471D01*
X154696946Y-95496946D01*
X154608471Y-95604753D01*
X154542728Y-95727749D01*
X154502244Y-95861208D01*
X154488574Y-96000000D01*
X139700000Y-96000000D01*
X139700000Y-89455634D01*
X141383971Y-91139606D01*
X141418419Y-91181581D01*
X141585916Y-91319042D01*
X141777012Y-91421184D01*
X141984362Y-91484084D01*
X142145964Y-91500000D01*
X142145965Y-91500000D01*
X142199999Y-91505322D01*
X142254033Y-91500000D01*
X153444366Y-91500000D01*
X153740263Y-91795897D01*
X153778816Y-91922988D01*
X153880958Y-92114084D01*
X154018419Y-92281581D01*
X154185916Y-92419042D01*
X154377012Y-92521184D01*
X154584362Y-92584084D01*
X154745964Y-92600000D01*
X154945966Y-92600000D01*
X155000000Y-92605322D01*
X155054034Y-92600000D01*
X157600000Y-92600000D01*
X157600001Y-95345958D01*
X157600000Y-95345965D01*
X157600000Y-95470056D01*
X157531607Y-95553394D01*
X157457321Y-95692372D01*
X157411576Y-95843173D01*
X157396130Y-96000000D01*
X157396130Y-96775430D01*
X157393710Y-96800000D01*
X157396130Y-96824570D01*
X157396130Y-97600000D01*
X157411576Y-97756827D01*
X157457321Y-97907628D01*
X157531607Y-98046606D01*
X157631578Y-98168422D01*
X157753394Y-98268393D01*
X157892372Y-98342679D01*
X158043173Y-98388424D01*
X158200000Y-98403870D01*
X158465393Y-98403870D01*
X159400001Y-99338479D01*
X159400001Y-100166459D01*
X159381578Y-100181578D01*
X159281607Y-100303394D01*
X159207321Y-100442372D01*
X159161576Y-100593173D01*
X159146130Y-100750000D01*
X159146130Y-103250000D01*
X159161576Y-103406827D01*
X159207321Y-103557628D01*
X159229970Y-103600000D01*
X157838478Y-103600000D01*
X156864403Y-102625926D01*
X156823687Y-102576313D01*
X156625736Y-102413860D01*
X156399896Y-102293145D01*
X156154845Y-102218810D01*
X155963864Y-102200000D01*
X155963861Y-102200000D01*
X155900000Y-102193710D01*
X155836139Y-102200000D01*
X155489010Y-102200000D01*
X155508708Y-102000001D01*
X155473955Y-101647139D01*
X155371028Y-101307838D01*
X155253870Y-101088650D01*
X155253870Y-100750000D01*
X155238424Y-100593173D01*
X155192679Y-100442372D01*
X155118393Y-100303394D01*
X155018422Y-100181578D01*
X154896606Y-100081607D01*
X154757628Y-100007321D01*
X154606827Y-99961576D01*
X154450000Y-99946130D01*
X152950000Y-99946130D01*
X152793173Y-99961576D01*
X152642372Y-100007321D01*
X152503394Y-100081607D01*
X152381578Y-100181578D01*
X152281607Y-100303394D01*
X152207321Y-100442372D01*
X152161576Y-100593173D01*
X152146130Y-100750000D01*
X152146130Y-101008285D01*
X151454416Y-101700000D01*
X151069018Y-101700000D01*
X151046606Y-101681607D01*
X150907628Y-101607321D01*
X150756827Y-101561576D01*
X150600000Y-101546130D01*
X148100000Y-101546130D01*
X147943173Y-101561576D01*
X147792372Y-101607321D01*
X147653394Y-101681607D01*
X147531578Y-101781578D01*
X147431607Y-101903394D01*
X147357321Y-102042372D01*
X147311576Y-102193173D01*
X147296130Y-102350000D01*
X147296130Y-104650000D01*
X147311576Y-104806827D01*
X147357321Y-104957628D01*
X147431607Y-105096606D01*
X147531578Y-105218422D01*
X147653394Y-105318393D01*
X147792372Y-105392679D01*
X147943173Y-105438424D01*
X148100000Y-105453870D01*
X148250000Y-105453870D01*
X148250000Y-105495966D01*
X148244678Y-105550000D01*
X148250000Y-105604034D01*
X148250000Y-105604035D01*
X148265916Y-105765637D01*
X148328816Y-105972987D01*
X148430958Y-106164084D01*
X148568419Y-106331581D01*
X148600000Y-106357499D01*
X148600000Y-106770056D01*
X148531607Y-106853394D01*
X148482109Y-106945998D01*
X148331002Y-106945998D01*
X148508000Y-106769000D01*
X148511426Y-106500000D01*
X148497756Y-106361208D01*
X148457272Y-106227749D01*
X148391529Y-106104753D01*
X148303054Y-105996946D01*
X148195247Y-105908471D01*
X148072251Y-105842728D01*
X147938792Y-105802244D01*
X147800000Y-105788574D01*
X147231000Y-105792000D01*
X147054000Y-105969000D01*
X147054000Y-106946000D01*
X147074000Y-106946000D01*
X147074000Y-107054000D01*
X147054000Y-107054000D01*
X147054000Y-107074000D01*
X146946000Y-107074000D01*
X146946000Y-107054000D01*
X145669000Y-107054000D01*
X145492000Y-107231000D01*
X145488574Y-107500000D01*
X145502244Y-107638792D01*
X145542728Y-107772251D01*
X145608471Y-107895247D01*
X145696946Y-108003054D01*
X145804753Y-108091529D01*
X145927749Y-108157272D01*
X146061208Y-108197756D01*
X146200000Y-108211426D01*
X146434351Y-108210015D01*
X146260399Y-108383967D01*
X146218419Y-108418419D01*
X146080958Y-108585916D01*
X146008107Y-108722213D01*
X145892372Y-108757321D01*
X145753394Y-108831607D01*
X145631578Y-108931578D01*
X145531607Y-109053394D01*
X145457321Y-109192372D01*
X145411576Y-109343173D01*
X145396130Y-109500000D01*
X145396130Y-110500000D01*
X145411576Y-110656827D01*
X145457321Y-110807628D01*
X145531607Y-110946606D01*
X145575426Y-111000000D01*
X145352263Y-111000000D01*
X145062466Y-111057644D01*
X144789483Y-111170717D01*
X144543806Y-111334874D01*
X144500000Y-111378680D01*
X144456194Y-111334874D01*
X144210517Y-111170717D01*
X143937534Y-111057644D01*
X143647737Y-111000000D01*
X143352263Y-111000000D01*
X143062466Y-111057644D01*
X142789483Y-111170717D01*
X142543806Y-111334874D01*
X142334874Y-111543806D01*
X142170717Y-111789483D01*
X142057644Y-112062466D01*
X142000000Y-112352263D01*
X142000000Y-112647737D01*
X142057644Y-112937534D01*
X142170717Y-113210517D01*
X142334874Y-113456194D01*
X142543806Y-113665126D01*
X142789483Y-113829283D01*
X143062466Y-113942356D01*
X143352263Y-114000000D01*
X143647737Y-114000000D01*
X143937534Y-113942356D01*
X144210517Y-113829283D01*
X144456194Y-113665126D01*
X144500000Y-113621320D01*
X144543806Y-113665126D01*
X144789483Y-113829283D01*
X145062466Y-113942356D01*
X145352263Y-114000000D01*
X145647737Y-114000000D01*
X145937534Y-113942356D01*
X146210517Y-113829283D01*
X146241466Y-113808604D01*
X146253394Y-113818393D01*
X146392372Y-113892679D01*
X146543173Y-113938424D01*
X146700000Y-113953870D01*
X147400000Y-113953870D01*
X147556827Y-113938424D01*
X147707628Y-113892679D01*
X147846606Y-113818393D01*
X147968422Y-113718422D01*
X148000000Y-113679944D01*
X148031578Y-113718422D01*
X148153394Y-113818393D01*
X148292372Y-113892679D01*
X148443173Y-113938424D01*
X148600000Y-113953870D01*
X149300000Y-113953870D01*
X149456827Y-113938424D01*
X149607628Y-113892679D01*
X149746606Y-113818393D01*
X149868422Y-113718422D01*
X149968393Y-113596606D01*
X150042679Y-113457628D01*
X150088424Y-113306827D01*
X150103870Y-113150000D01*
X150103870Y-112850000D01*
X150488574Y-112850000D01*
X150502244Y-112988792D01*
X150542728Y-113122251D01*
X150608471Y-113245247D01*
X150696946Y-113353054D01*
X150804753Y-113441529D01*
X150927749Y-113507272D01*
X151061208Y-113547756D01*
X151200000Y-113561426D01*
X151319000Y-113558000D01*
X151496000Y-113381000D01*
X151496000Y-112254000D01*
X150669000Y-112254000D01*
X150492000Y-112431000D01*
X150488574Y-112850000D01*
X150103870Y-112850000D01*
X150103870Y-111850000D01*
X150088424Y-111693173D01*
X150082381Y-111673253D01*
X150205634Y-111550000D01*
X150488574Y-111550000D01*
X150492000Y-111969000D01*
X150669000Y-112146000D01*
X151496000Y-112146000D01*
X151496000Y-111019000D01*
X151319000Y-110842000D01*
X151200000Y-110838574D01*
X151061208Y-110852244D01*
X150927749Y-110892728D01*
X150804753Y-110958471D01*
X150696946Y-111046946D01*
X150608471Y-111154753D01*
X150542728Y-111277749D01*
X150502244Y-111411208D01*
X150488574Y-111550000D01*
X150205634Y-111550000D01*
X150439606Y-111316029D01*
X150481581Y-111281581D01*
X150553601Y-111193824D01*
X150619042Y-111114085D01*
X150721183Y-110922989D01*
X150721184Y-110922988D01*
X150784084Y-110715638D01*
X150800000Y-110554035D01*
X150805322Y-110500001D01*
X150800000Y-110445967D01*
X150800000Y-110429944D01*
X150868393Y-110346606D01*
X150942679Y-110207628D01*
X150988424Y-110056827D01*
X151000000Y-109939293D01*
X151011576Y-110056827D01*
X151057321Y-110207628D01*
X151131607Y-110346606D01*
X151231578Y-110468422D01*
X151353394Y-110568393D01*
X151492372Y-110642679D01*
X151643173Y-110688424D01*
X151800000Y-110703870D01*
X152350000Y-110703870D01*
X152350000Y-111003406D01*
X152295247Y-110958471D01*
X152172251Y-110892728D01*
X152038792Y-110852244D01*
X151900000Y-110838574D01*
X151781000Y-110842000D01*
X151604000Y-111019000D01*
X151604000Y-112146000D01*
X151624000Y-112146000D01*
X151624000Y-112254000D01*
X151604000Y-112254000D01*
X151604000Y-113381000D01*
X151781000Y-113558000D01*
X151900000Y-113561426D01*
X152038792Y-113547756D01*
X152172251Y-113507272D01*
X152295247Y-113441529D01*
X152403054Y-113353054D01*
X152440493Y-113307434D01*
X152531578Y-113418422D01*
X152653394Y-113518393D01*
X152792372Y-113592679D01*
X152943173Y-113638424D01*
X153100000Y-113653870D01*
X153800000Y-113653870D01*
X153956827Y-113638424D01*
X154068321Y-113604603D01*
X154085916Y-113619042D01*
X154277012Y-113721184D01*
X154484362Y-113784084D01*
X154645964Y-113800000D01*
X154645966Y-113800000D01*
X154700000Y-113805322D01*
X154754034Y-113800000D01*
X154834392Y-113800000D01*
X154931578Y-113918422D01*
X155053394Y-114018393D01*
X155192372Y-114092679D01*
X155343173Y-114138424D01*
X155500000Y-114153870D01*
X156200000Y-114153870D01*
X156356827Y-114138424D01*
X156507628Y-114092679D01*
X156646606Y-114018393D01*
X156768422Y-113918422D01*
X156800000Y-113879944D01*
X156831578Y-113918422D01*
X156953394Y-114018393D01*
X157092372Y-114092679D01*
X157243173Y-114138424D01*
X157400000Y-114153870D01*
X158100000Y-114153870D01*
X158256827Y-114138424D01*
X158407628Y-114092679D01*
X158546606Y-114018393D01*
X158668422Y-113918422D01*
X158764139Y-113801790D01*
X158800000Y-113805322D01*
X158854034Y-113800000D01*
X158854036Y-113800000D01*
X159015638Y-113784084D01*
X159222988Y-113721184D01*
X159414084Y-113619042D01*
X159581581Y-113481581D01*
X159616033Y-113439601D01*
X161389606Y-111666029D01*
X161431581Y-111631581D01*
X161504793Y-111542372D01*
X161569042Y-111464085D01*
X161633934Y-111342679D01*
X161671184Y-111272988D01*
X161723124Y-111101766D01*
X161768393Y-111046606D01*
X161805577Y-110977039D01*
X161914084Y-110919042D01*
X162081581Y-110781581D01*
X162116033Y-110739601D01*
X162939606Y-109916029D01*
X162981581Y-109881581D01*
X163061366Y-109784363D01*
X163119042Y-109714085D01*
X163206746Y-109550000D01*
X163221184Y-109522988D01*
X163284084Y-109315638D01*
X163300000Y-109154036D01*
X163300000Y-109154035D01*
X163305322Y-109100001D01*
X163300000Y-109045967D01*
X163300000Y-105350000D01*
X191646130Y-105350000D01*
X191646130Y-107050000D01*
X191661576Y-107206827D01*
X191707321Y-107357628D01*
X191781607Y-107496606D01*
X191881578Y-107618422D01*
X192003394Y-107718393D01*
X192142372Y-107792679D01*
X192293173Y-107838424D01*
X192450000Y-107853870D01*
X194150000Y-107853870D01*
X194306827Y-107838424D01*
X194457628Y-107792679D01*
X194596606Y-107718393D01*
X194718422Y-107618422D01*
X194818393Y-107496606D01*
X194866368Y-107406853D01*
X194968467Y-107491433D01*
X195237159Y-107636646D01*
X195529018Y-107726650D01*
X195543086Y-107729446D01*
X195786000Y-107579944D01*
X195786000Y-106254000D01*
X195894000Y-106254000D01*
X195894000Y-107579944D01*
X196136914Y-107729446D01*
X196150982Y-107726650D01*
X196442841Y-107636646D01*
X196711533Y-107491433D01*
X196946733Y-107296591D01*
X197139402Y-107059607D01*
X197282135Y-106789589D01*
X197369448Y-106496914D01*
X197220066Y-106254000D01*
X195894000Y-106254000D01*
X195786000Y-106254000D01*
X195766000Y-106254000D01*
X195766000Y-106146000D01*
X195786000Y-106146000D01*
X195786000Y-104820056D01*
X195894000Y-104820056D01*
X195894000Y-106146000D01*
X197220066Y-106146000D01*
X197369448Y-105903086D01*
X197282135Y-105610411D01*
X197139402Y-105340393D01*
X196946733Y-105103409D01*
X196711533Y-104908567D01*
X196442841Y-104763354D01*
X196150982Y-104673350D01*
X196136914Y-104670554D01*
X195894000Y-104820056D01*
X195786000Y-104820056D01*
X195543086Y-104670554D01*
X195529018Y-104673350D01*
X195237159Y-104763354D01*
X194968467Y-104908567D01*
X194866368Y-104993147D01*
X194818393Y-104903394D01*
X194718422Y-104781578D01*
X194596606Y-104681607D01*
X194457628Y-104607321D01*
X194306827Y-104561576D01*
X194150000Y-104546130D01*
X192450000Y-104546130D01*
X192293173Y-104561576D01*
X192142372Y-104607321D01*
X192003394Y-104681607D01*
X191881578Y-104781578D01*
X191781607Y-104903394D01*
X191707321Y-105042372D01*
X191661576Y-105193173D01*
X191646130Y-105350000D01*
X163300000Y-105350000D01*
X163300000Y-103554033D01*
X163305322Y-103499999D01*
X163296145Y-103406827D01*
X163284084Y-103284362D01*
X163221184Y-103077012D01*
X163119042Y-102885916D01*
X162981581Y-102718419D01*
X162939606Y-102683971D01*
X162253870Y-101998235D01*
X162253870Y-100750000D01*
X162238424Y-100593173D01*
X162192679Y-100442372D01*
X162118393Y-100303394D01*
X162018422Y-100181578D01*
X162000000Y-100166460D01*
X162000000Y-98863860D01*
X162006290Y-98799999D01*
X162000000Y-98736136D01*
X161981190Y-98545155D01*
X161906855Y-98300104D01*
X161786140Y-98074264D01*
X161623687Y-97876313D01*
X161574079Y-97835601D01*
X160003870Y-96265393D01*
X160003870Y-96000000D01*
X159988424Y-95843173D01*
X159942679Y-95692372D01*
X159868393Y-95553394D01*
X159800000Y-95470056D01*
X159800000Y-92600000D01*
X165745966Y-92600000D01*
X165800000Y-92605322D01*
X165854034Y-92600000D01*
X165854036Y-92600000D01*
X166015638Y-92584084D01*
X166222988Y-92521184D01*
X166414084Y-92419042D01*
X166581581Y-92281581D01*
X166616033Y-92239601D01*
X168855635Y-90000000D01*
X170378680Y-90000000D01*
X170443806Y-90065126D01*
X170689483Y-90229283D01*
X170962466Y-90342356D01*
X171252263Y-90400000D01*
X171547737Y-90400000D01*
X171837534Y-90342356D01*
X172110517Y-90229283D01*
X172356194Y-90065126D01*
X172565126Y-89856194D01*
X172729283Y-89610517D01*
X172842356Y-89337534D01*
X172900000Y-89047737D01*
X172900000Y-88752577D01*
X173018173Y-88788424D01*
X173175000Y-88803870D01*
X174425000Y-88803870D01*
X174581827Y-88788424D01*
X174732628Y-88742679D01*
X174871606Y-88668393D01*
X174993422Y-88568422D01*
X175093393Y-88446606D01*
X175167679Y-88307628D01*
X175213424Y-88156827D01*
X175228870Y-88000000D01*
X175228870Y-87000000D01*
X175213424Y-86843173D01*
X175167679Y-86692372D01*
X175093393Y-86553394D01*
X174993422Y-86431578D01*
X174989413Y-86428288D01*
X175016529Y-86395247D01*
X175082272Y-86272251D01*
X175122756Y-86138792D01*
X175136426Y-86000000D01*
X175133000Y-85731000D01*
X174956000Y-85554000D01*
X173854000Y-85554000D01*
X173854000Y-85574000D01*
X173746000Y-85574000D01*
X173746000Y-85554000D01*
X172644000Y-85554000D01*
X172467000Y-85731000D01*
X172463574Y-86000000D01*
X172477244Y-86138792D01*
X172517728Y-86272251D01*
X172583471Y-86395247D01*
X172587372Y-86400000D01*
X171454036Y-86400000D01*
X171400000Y-86394678D01*
X171345964Y-86400000D01*
X171184362Y-86415916D01*
X170977012Y-86478816D01*
X170937379Y-86500000D01*
X170303870Y-86500000D01*
X170303870Y-85600000D01*
X170300038Y-85561096D01*
X170769000Y-85558000D01*
X170946000Y-85381000D01*
X170946000Y-84853870D01*
X171054000Y-84853870D01*
X171054000Y-85381000D01*
X171231000Y-85558000D01*
X171750000Y-85561426D01*
X171888792Y-85547756D01*
X172022251Y-85507272D01*
X172145247Y-85441529D01*
X172253054Y-85353054D01*
X172341529Y-85245247D01*
X172407272Y-85122251D01*
X172444356Y-85000000D01*
X172463574Y-85000000D01*
X172467000Y-85269000D01*
X172644000Y-85446000D01*
X173746000Y-85446000D01*
X173746000Y-84469000D01*
X173854000Y-84469000D01*
X173854000Y-85446000D01*
X174956000Y-85446000D01*
X175133000Y-85269000D01*
X175136426Y-85000000D01*
X175122756Y-84861208D01*
X175082272Y-84727749D01*
X175016529Y-84604753D01*
X174928054Y-84496946D01*
X174820247Y-84408471D01*
X174697251Y-84342728D01*
X174563792Y-84302244D01*
X174425000Y-84288574D01*
X174031000Y-84292000D01*
X173854000Y-84469000D01*
X173746000Y-84469000D01*
X173569000Y-84292000D01*
X173175000Y-84288574D01*
X173036208Y-84302244D01*
X172902749Y-84342728D01*
X172779753Y-84408471D01*
X172671946Y-84496946D01*
X172583471Y-84604753D01*
X172517728Y-84727749D01*
X172477244Y-84861208D01*
X172463574Y-85000000D01*
X172444356Y-85000000D01*
X172447756Y-84988792D01*
X172461426Y-84850000D01*
X172458000Y-84827000D01*
X172281000Y-84650000D01*
X172285834Y-84645166D01*
X172318422Y-84618422D01*
X172345166Y-84585834D01*
X172458000Y-84473000D01*
X172461426Y-84450000D01*
X172458606Y-84421373D01*
X172492679Y-84357628D01*
X172538424Y-84206827D01*
X172553870Y-84050000D01*
X172553870Y-83650000D01*
X172538424Y-83493173D01*
X172525328Y-83450000D01*
X172538424Y-83406827D01*
X172553870Y-83250000D01*
X172553870Y-82850000D01*
X172538424Y-82693173D01*
X172525328Y-82650000D01*
X172538424Y-82606827D01*
X172553870Y-82450000D01*
X172553870Y-82050000D01*
X172538424Y-81893173D01*
X172525328Y-81850000D01*
X172538424Y-81806827D01*
X172553870Y-81650000D01*
X172553870Y-81250000D01*
X172538424Y-81093173D01*
X172525328Y-81050000D01*
X172538424Y-81006827D01*
X172553870Y-80850000D01*
X172553870Y-80450000D01*
X172538424Y-80293173D01*
X172525328Y-80250000D01*
X172538424Y-80206827D01*
X172553870Y-80050000D01*
X172553870Y-79650000D01*
X172538424Y-79493173D01*
X172525328Y-79450000D01*
X172538424Y-79406827D01*
X172553870Y-79250000D01*
X172553870Y-78850000D01*
X172538424Y-78693173D01*
X172492679Y-78542372D01*
X172418393Y-78403394D01*
X172318422Y-78281578D01*
X172196606Y-78181607D01*
X172057628Y-78107321D01*
X171906827Y-78061576D01*
X171750000Y-78046130D01*
X170303870Y-78046130D01*
X170303870Y-76600000D01*
X170288424Y-76443173D01*
X170242679Y-76292372D01*
X170168393Y-76153394D01*
X170068422Y-76031578D01*
X169946606Y-75931607D01*
X169807628Y-75857321D01*
X169656827Y-75811576D01*
X169500000Y-75796130D01*
X169100000Y-75796130D01*
X168943173Y-75811576D01*
X168900000Y-75824672D01*
X168856827Y-75811576D01*
X168700000Y-75796130D01*
X168700000Y-73514212D01*
X172114213Y-70100000D01*
X181450880Y-70100000D01*
X181500000Y-70104838D01*
X181549120Y-70100000D01*
X181696034Y-70085530D01*
X181884535Y-70028349D01*
X182058258Y-69935492D01*
X182210528Y-69810528D01*
X182241849Y-69772363D01*
X187114212Y-64900000D01*
X187800000Y-64900000D01*
X187839018Y-64896157D01*
X187876537Y-64884776D01*
X187911114Y-64866294D01*
X187944167Y-64838622D01*
X190444167Y-62238622D01*
X190468440Y-62207833D01*
X190486241Y-62172900D01*
X190496884Y-62135165D01*
X190500000Y-62100000D01*
X190500000Y-61514213D01*
X192614213Y-59400000D01*
X194485788Y-59400000D01*
X194882374Y-59796587D01*
X194869080Y-59863418D01*
X194549625Y-59731095D01*
X194192209Y-59660000D01*
X193827791Y-59660000D01*
X193470375Y-59731095D01*
X193133697Y-59870552D01*
X192830694Y-60073011D01*
X192573011Y-60330694D01*
X192370552Y-60633697D01*
X192231095Y-60970375D01*
X192160000Y-61327791D01*
X192160000Y-61692209D01*
X192231095Y-62049625D01*
X192370552Y-62386303D01*
X192573011Y-62689306D01*
X192830694Y-62946989D01*
X193133697Y-63149448D01*
X193470375Y-63288905D01*
X193827791Y-63360000D01*
X194192209Y-63360000D01*
X194549625Y-63288905D01*
X194886303Y-63149448D01*
X195189306Y-62946989D01*
X195446989Y-62689306D01*
X195649448Y-62386303D01*
X195788905Y-62049625D01*
X195840575Y-61789865D01*
X196011420Y-61860631D01*
X196335027Y-61925000D01*
X196664973Y-61925000D01*
X196988580Y-61860631D01*
X197293410Y-61734366D01*
X197567751Y-61551058D01*
X197801058Y-61317751D01*
X197984366Y-61043410D01*
X198110631Y-60738580D01*
X198175000Y-60414973D01*
X198175000Y-60085027D01*
X198110631Y-59761420D01*
X197984366Y-59456590D01*
X197801058Y-59182249D01*
X197567751Y-58948942D01*
X197293410Y-58765634D01*
X196988580Y-58639369D01*
X196664973Y-58575000D01*
X196489213Y-58575000D01*
X195641849Y-57727637D01*
X195610528Y-57689472D01*
X195458258Y-57564508D01*
X195284535Y-57471651D01*
X195096034Y-57414470D01*
X194949120Y-57400000D01*
X194900000Y-57395162D01*
X194850880Y-57400000D01*
X192249117Y-57400000D01*
X192199999Y-57395162D01*
X192150881Y-57400000D01*
X192150880Y-57400000D01*
X192003966Y-57414470D01*
X191815465Y-57471651D01*
X191641742Y-57564508D01*
X191489472Y-57689472D01*
X191458155Y-57727632D01*
X190500000Y-58685787D01*
X190500000Y-56787062D01*
X195539306Y-56787062D01*
X195609260Y-57067869D01*
X195883479Y-57216322D01*
X196181390Y-57308424D01*
X196491546Y-57340637D01*
X196802026Y-57311722D01*
X197100899Y-57222792D01*
X197376680Y-57077263D01*
X197390740Y-57067869D01*
X197460694Y-56787062D01*
X196500000Y-55826368D01*
X195539306Y-56787062D01*
X190500000Y-56787062D01*
X190500000Y-54317791D01*
X192160000Y-54317791D01*
X192160000Y-54682209D01*
X192231095Y-55039625D01*
X192370552Y-55376303D01*
X192573011Y-55679306D01*
X192830694Y-55936989D01*
X193133697Y-56139448D01*
X193470375Y-56278905D01*
X193827791Y-56350000D01*
X194192209Y-56350000D01*
X194549625Y-56278905D01*
X194886303Y-56139448D01*
X194951357Y-56095981D01*
X195027208Y-56350899D01*
X195172737Y-56626680D01*
X195182131Y-56640740D01*
X195462938Y-56710694D01*
X196423632Y-55750000D01*
X196576368Y-55750000D01*
X197537062Y-56710694D01*
X197817869Y-56640740D01*
X197966322Y-56366521D01*
X198058424Y-56068610D01*
X198090637Y-55758454D01*
X198061722Y-55447974D01*
X197972792Y-55149101D01*
X197827263Y-54873320D01*
X197817869Y-54859260D01*
X197537062Y-54789306D01*
X196576368Y-55750000D01*
X196423632Y-55750000D01*
X196409490Y-55735858D01*
X196485858Y-55659490D01*
X196500000Y-55673632D01*
X197460694Y-54712938D01*
X197390740Y-54432131D01*
X197116521Y-54283678D01*
X196818610Y-54191576D01*
X196508454Y-54159363D01*
X196197974Y-54188278D01*
X195899101Y-54277208D01*
X195856409Y-54299737D01*
X195788905Y-53960375D01*
X195649448Y-53623697D01*
X195446989Y-53320694D01*
X195189306Y-53063011D01*
X194886303Y-52860552D01*
X194549625Y-52721095D01*
X194192209Y-52650000D01*
X193827791Y-52650000D01*
X193470375Y-52721095D01*
X193133697Y-52860552D01*
X192830694Y-53063011D01*
X192573011Y-53320694D01*
X192370552Y-53623697D01*
X192231095Y-53960375D01*
X192160000Y-54317791D01*
X190500000Y-54317791D01*
X190500000Y-40875000D01*
X199125001Y-40875000D01*
X199125000Y-72125000D01*
X199125000Y-72125000D01*
G37*
X199125000Y-72125000D02*
X181457021Y-72125000D01*
X181419430Y-72128702D01*
X181410227Y-72128638D01*
X181398068Y-72129830D01*
X181106922Y-72160430D01*
X181029243Y-72176375D01*
X180951334Y-72191237D01*
X180939638Y-72194768D01*
X180659982Y-72281336D01*
X180586856Y-72312075D01*
X180513341Y-72341777D01*
X180502554Y-72347513D01*
X180245038Y-72486752D01*
X180179289Y-72531101D01*
X180112933Y-72574523D01*
X180103466Y-72582244D01*
X179877898Y-72768850D01*
X179822037Y-72825102D01*
X179765355Y-72880609D01*
X179757568Y-72890023D01*
X179572542Y-73116887D01*
X179528652Y-73182947D01*
X179483850Y-73248378D01*
X179478039Y-73259125D01*
X179340602Y-73517606D01*
X179310383Y-73590921D01*
X179279139Y-73663819D01*
X179275530Y-73675480D01*
X179275526Y-73675490D01*
X179275524Y-73675500D01*
X179190913Y-73955744D01*
X179175508Y-74033542D01*
X179159020Y-74111114D01*
X179157743Y-74123264D01*
X179129176Y-74414616D01*
X179129176Y-74414622D01*
X179125000Y-74457022D01*
X179125001Y-89542979D01*
X179128702Y-89580560D01*
X179128638Y-89589774D01*
X179129830Y-89601933D01*
X179160430Y-89893078D01*
X179176375Y-89970757D01*
X179191237Y-90048666D01*
X179194768Y-90060362D01*
X179281336Y-90340017D01*
X179312070Y-90413130D01*
X179341777Y-90486659D01*
X179347513Y-90497446D01*
X179486752Y-90754962D01*
X179531116Y-90820734D01*
X179574523Y-90887067D01*
X179582245Y-90896535D01*
X179768850Y-91122102D01*
X179825102Y-91177963D01*
X179880609Y-91234645D01*
X179890023Y-91242432D01*
X180116887Y-91427458D01*
X180182947Y-91471348D01*
X180248378Y-91516150D01*
X180259125Y-91521961D01*
X180517606Y-91659398D01*
X180590910Y-91689612D01*
X180663819Y-91720861D01*
X180675484Y-91724471D01*
X180675491Y-91724474D01*
X180675498Y-91724475D01*
X180955745Y-91809087D01*
X181033527Y-91824489D01*
X181111113Y-91840980D01*
X181123260Y-91842257D01*
X181123264Y-91842257D01*
X181414616Y-91870824D01*
X181414621Y-91870824D01*
X181457021Y-91875000D01*
X199125000Y-91875000D01*
X199125001Y-139125000D01*
X159300000Y-139125000D01*
X159300000Y-126773470D01*
X159700000Y-126773470D01*
X159700000Y-127226530D01*
X159788387Y-127670885D01*
X159961766Y-128089459D01*
X160213473Y-128466165D01*
X160533835Y-128786527D01*
X160910541Y-129038234D01*
X161329115Y-129211613D01*
X161773470Y-129300000D01*
X162226530Y-129300000D01*
X162670885Y-129211613D01*
X163089459Y-129038234D01*
X163466165Y-128786527D01*
X163786527Y-128466165D01*
X164038234Y-128089459D01*
X164211613Y-127670885D01*
X164300000Y-127226530D01*
X164300000Y-126773470D01*
X180700000Y-126773470D01*
X180700000Y-127226530D01*
X180788387Y-127670885D01*
X180961766Y-128089459D01*
X181213473Y-128466165D01*
X181533835Y-128786527D01*
X181910541Y-129038234D01*
X182329115Y-129211613D01*
X182773470Y-129300000D01*
X183226530Y-129300000D01*
X183670885Y-129211613D01*
X184089459Y-129038234D01*
X184446001Y-128800000D01*
X185261261Y-128800000D01*
X185505058Y-128873955D01*
X185857919Y-128908708D01*
X186210780Y-128873955D01*
X186550081Y-128771029D01*
X186862783Y-128603886D01*
X186867518Y-128600000D01*
X187448424Y-128600000D01*
X187712862Y-128573955D01*
X188052163Y-128471029D01*
X188364865Y-128303887D01*
X188476517Y-128212256D01*
X188481578Y-128218422D01*
X188603394Y-128318393D01*
X188742372Y-128392679D01*
X188893173Y-128438424D01*
X189050000Y-128453870D01*
X190750000Y-128453870D01*
X190906827Y-128438424D01*
X191057628Y-128392679D01*
X191196606Y-128318393D01*
X191318422Y-128218422D01*
X191418393Y-128096606D01*
X191492679Y-127957628D01*
X191538424Y-127806827D01*
X191553870Y-127650000D01*
X191553870Y-125950000D01*
X191538424Y-125793173D01*
X191492679Y-125642372D01*
X191418393Y-125503394D01*
X191318422Y-125381578D01*
X191300000Y-125366460D01*
X191300000Y-123725938D01*
X191550429Y-123725938D01*
X191635392Y-124019539D01*
X191930865Y-124180449D01*
X192252053Y-124280623D01*
X192586612Y-124316212D01*
X192921686Y-124285847D01*
X193244397Y-124190697D01*
X193542345Y-124034416D01*
X193564608Y-124019539D01*
X193649571Y-123725938D01*
X192600000Y-122676368D01*
X191550429Y-123725938D01*
X191300000Y-123725938D01*
X191300000Y-123599200D01*
X191474062Y-123649571D01*
X192523632Y-122600000D01*
X192676368Y-122600000D01*
X193725938Y-123649571D01*
X194019539Y-123564608D01*
X194180449Y-123269135D01*
X194280623Y-122947947D01*
X194316212Y-122613388D01*
X194285847Y-122278314D01*
X194190697Y-121955603D01*
X194034416Y-121657655D01*
X194019539Y-121635392D01*
X193725938Y-121550429D01*
X192676368Y-122600000D01*
X192523632Y-122600000D01*
X191474062Y-121550429D01*
X191300000Y-121600800D01*
X191300000Y-121474062D01*
X191550429Y-121474062D01*
X192600000Y-122523632D01*
X193649571Y-121474062D01*
X193564608Y-121180461D01*
X193269135Y-121019551D01*
X192947947Y-120919377D01*
X192613388Y-120883788D01*
X192278314Y-120914153D01*
X191955603Y-121009303D01*
X191657655Y-121165584D01*
X191635392Y-121180461D01*
X191550429Y-121474062D01*
X191300000Y-121474062D01*
X191300000Y-121245584D01*
X191398151Y-121147433D01*
X191595139Y-120852620D01*
X191730827Y-120525041D01*
X191800000Y-120177284D01*
X191800000Y-119822716D01*
X191730827Y-119474959D01*
X191595139Y-119147380D01*
X191398151Y-118852567D01*
X191147433Y-118601849D01*
X191033825Y-118525938D01*
X191550429Y-118525938D01*
X191635392Y-118819539D01*
X191930865Y-118980449D01*
X192252053Y-119080623D01*
X192586612Y-119116212D01*
X192921686Y-119085847D01*
X193244397Y-118990697D01*
X193542345Y-118834416D01*
X193564608Y-118819539D01*
X193649571Y-118525938D01*
X192600000Y-117476368D01*
X191550429Y-118525938D01*
X191033825Y-118525938D01*
X190852620Y-118404861D01*
X190525041Y-118269173D01*
X190177284Y-118200000D01*
X189822716Y-118200000D01*
X189474959Y-118269173D01*
X189147380Y-118404861D01*
X188852567Y-118601849D01*
X188601849Y-118852567D01*
X188404861Y-119147380D01*
X188269173Y-119474959D01*
X188200000Y-119822716D01*
X188200000Y-120177284D01*
X188269173Y-120525041D01*
X188404861Y-120852620D01*
X188601849Y-121147433D01*
X188700000Y-121245584D01*
X188700000Y-121600800D01*
X188525938Y-121550429D01*
X187476368Y-122600000D01*
X188525938Y-123649571D01*
X188700001Y-123599200D01*
X188700001Y-125229969D01*
X188603394Y-125281607D01*
X188481578Y-125381578D01*
X188476517Y-125387744D01*
X188364865Y-125296113D01*
X188052163Y-125128971D01*
X187712862Y-125026045D01*
X187448424Y-125000000D01*
X186246335Y-125000000D01*
X186157919Y-124991292D01*
X186157918Y-124991292D01*
X186069502Y-125000000D01*
X186069495Y-125000000D01*
X185805057Y-125026045D01*
X185465756Y-125128971D01*
X185332870Y-125200000D01*
X184446001Y-125200000D01*
X184089459Y-124961766D01*
X183670885Y-124788387D01*
X183226530Y-124700000D01*
X182773470Y-124700000D01*
X182329115Y-124788387D01*
X181910541Y-124961766D01*
X181533835Y-125213473D01*
X181213473Y-125533835D01*
X180961766Y-125910541D01*
X180788387Y-126329115D01*
X180700000Y-126773470D01*
X164300000Y-126773470D01*
X164211613Y-126329115D01*
X164038234Y-125910541D01*
X163786527Y-125533835D01*
X163466165Y-125213473D01*
X163089459Y-124961766D01*
X162670885Y-124788387D01*
X162226530Y-124700000D01*
X161773470Y-124700000D01*
X161329115Y-124788387D01*
X160910541Y-124961766D01*
X160533835Y-125213473D01*
X160213473Y-125533835D01*
X159961766Y-125910541D01*
X159788387Y-126329115D01*
X159700000Y-126773470D01*
X159300000Y-126773470D01*
X159300000Y-123725938D01*
X186350429Y-123725938D01*
X186435392Y-124019539D01*
X186730865Y-124180449D01*
X187052053Y-124280623D01*
X187386612Y-124316212D01*
X187721686Y-124285847D01*
X188044397Y-124190697D01*
X188342345Y-124034416D01*
X188364608Y-124019539D01*
X188449571Y-123725938D01*
X187400000Y-122676368D01*
X186350429Y-123725938D01*
X159300000Y-123725938D01*
X159300000Y-122586612D01*
X185683788Y-122586612D01*
X185714153Y-122921686D01*
X185809303Y-123244397D01*
X185965584Y-123542345D01*
X185980461Y-123564608D01*
X186274062Y-123649571D01*
X187323632Y-122600000D01*
X186274062Y-121550429D01*
X185980461Y-121635392D01*
X185819551Y-121930865D01*
X185719377Y-122252053D01*
X185683788Y-122586612D01*
X159300000Y-122586612D01*
X159300000Y-121474062D01*
X186350429Y-121474062D01*
X187400000Y-122523632D01*
X188449571Y-121474062D01*
X188364608Y-121180461D01*
X188069135Y-121019551D01*
X187747947Y-120919377D01*
X187413388Y-120883788D01*
X187078314Y-120914153D01*
X186755603Y-121009303D01*
X186457655Y-121165584D01*
X186435392Y-121180461D01*
X186350429Y-121474062D01*
X159300000Y-121474062D01*
X159300000Y-118525938D01*
X186350429Y-118525938D01*
X186435392Y-118819539D01*
X186730865Y-118980449D01*
X187052053Y-119080623D01*
X187386612Y-119116212D01*
X187721686Y-119085847D01*
X188044397Y-118990697D01*
X188342345Y-118834416D01*
X188364608Y-118819539D01*
X188449571Y-118525938D01*
X187400000Y-117476368D01*
X186350429Y-118525938D01*
X159300000Y-118525938D01*
X159300000Y-117386612D01*
X185683788Y-117386612D01*
X185714153Y-117721686D01*
X185809303Y-118044397D01*
X185965584Y-118342345D01*
X185980461Y-118364608D01*
X186274062Y-118449571D01*
X187323632Y-117400000D01*
X187476368Y-117400000D01*
X188525938Y-118449571D01*
X188819539Y-118364608D01*
X188980449Y-118069135D01*
X189080623Y-117747947D01*
X189116212Y-117413388D01*
X189113786Y-117386612D01*
X190883788Y-117386612D01*
X190914153Y-117721686D01*
X191009303Y-118044397D01*
X191165584Y-118342345D01*
X191180461Y-118364608D01*
X191474062Y-118449571D01*
X192523632Y-117400000D01*
X192676368Y-117400000D01*
X193725938Y-118449571D01*
X194019539Y-118364608D01*
X194180449Y-118069135D01*
X194280623Y-117747947D01*
X194316212Y-117413388D01*
X194285847Y-117078314D01*
X194190697Y-116755603D01*
X194034416Y-116457655D01*
X194019539Y-116435392D01*
X193725938Y-116350429D01*
X192676368Y-117400000D01*
X192523632Y-117400000D01*
X191474062Y-116350429D01*
X191180461Y-116435392D01*
X191019551Y-116730865D01*
X190919377Y-117052053D01*
X190883788Y-117386612D01*
X189113786Y-117386612D01*
X189085847Y-117078314D01*
X188990697Y-116755603D01*
X188834416Y-116457655D01*
X188819539Y-116435392D01*
X188525938Y-116350429D01*
X187476368Y-117400000D01*
X187323632Y-117400000D01*
X186274062Y-116350429D01*
X185980461Y-116435392D01*
X185819551Y-116730865D01*
X185719377Y-117052053D01*
X185683788Y-117386612D01*
X159300000Y-117386612D01*
X159300000Y-116274062D01*
X186350429Y-116274062D01*
X187400000Y-117323632D01*
X188449571Y-116274062D01*
X191550429Y-116274062D01*
X192600000Y-117323632D01*
X193649571Y-116274062D01*
X193564608Y-115980461D01*
X193269135Y-115819551D01*
X192947947Y-115719377D01*
X192613388Y-115683788D01*
X192278314Y-115714153D01*
X191955603Y-115809303D01*
X191657655Y-115965584D01*
X191635392Y-115980461D01*
X191550429Y-116274062D01*
X188449571Y-116274062D01*
X188364608Y-115980461D01*
X188069135Y-115819551D01*
X187747947Y-115719377D01*
X187413388Y-115683788D01*
X187078314Y-115714153D01*
X186755603Y-115809303D01*
X186457655Y-115965584D01*
X186435392Y-115980461D01*
X186350429Y-116274062D01*
X159300000Y-116274062D01*
X159300000Y-115800000D01*
X159296157Y-115760982D01*
X159284776Y-115723463D01*
X159266294Y-115688886D01*
X159241421Y-115658579D01*
X159211114Y-115633706D01*
X159176537Y-115615224D01*
X159139018Y-115603843D01*
X159100000Y-115600000D01*
X141865890Y-115600000D01*
X139700000Y-113999125D01*
X139700000Y-106500000D01*
X145488574Y-106500000D01*
X145492000Y-106769000D01*
X145669000Y-106946000D01*
X146946000Y-106946000D01*
X146946000Y-105969000D01*
X146769000Y-105792000D01*
X146200000Y-105788574D01*
X146061208Y-105802244D01*
X145927749Y-105842728D01*
X145804753Y-105908471D01*
X145696946Y-105996946D01*
X145608471Y-106104753D01*
X145542728Y-106227749D01*
X145502244Y-106361208D01*
X145488574Y-106500000D01*
X139700000Y-106500000D01*
X139700000Y-104650000D01*
X143088574Y-104650000D01*
X143102244Y-104788792D01*
X143142728Y-104922251D01*
X143208471Y-105045247D01*
X143296946Y-105153054D01*
X143404753Y-105241529D01*
X143527749Y-105307272D01*
X143661208Y-105347756D01*
X143800000Y-105361426D01*
X144819000Y-105358000D01*
X144996000Y-105181000D01*
X144996000Y-103554000D01*
X145104000Y-103554000D01*
X145104000Y-105181000D01*
X145281000Y-105358000D01*
X146300000Y-105361426D01*
X146438792Y-105347756D01*
X146572251Y-105307272D01*
X146695247Y-105241529D01*
X146803054Y-105153054D01*
X146891529Y-105045247D01*
X146957272Y-104922251D01*
X146997756Y-104788792D01*
X147011426Y-104650000D01*
X147008000Y-103731000D01*
X146831000Y-103554000D01*
X145104000Y-103554000D01*
X144996000Y-103554000D01*
X143269000Y-103554000D01*
X143092000Y-103731000D01*
X143088574Y-104650000D01*
X139700000Y-104650000D01*
X139700000Y-102350000D01*
X143088574Y-102350000D01*
X143092000Y-103269000D01*
X143269000Y-103446000D01*
X144996000Y-103446000D01*
X144996000Y-101819000D01*
X145104000Y-101819000D01*
X145104000Y-103446000D01*
X146831000Y-103446000D01*
X147008000Y-103269000D01*
X147011426Y-102350000D01*
X146997756Y-102211208D01*
X146957272Y-102077749D01*
X146891529Y-101954753D01*
X146803054Y-101846946D01*
X146695247Y-101758471D01*
X146572251Y-101692728D01*
X146438792Y-101652244D01*
X146300000Y-101638574D01*
X145281000Y-101642000D01*
X145104000Y-101819000D01*
X144996000Y-101819000D01*
X144819000Y-101642000D01*
X143800000Y-101638574D01*
X143661208Y-101652244D01*
X143527749Y-101692728D01*
X143404753Y-101758471D01*
X143296946Y-101846946D01*
X143208471Y-101954753D01*
X143142728Y-102077749D01*
X143102244Y-102211208D01*
X143088574Y-102350000D01*
X139700000Y-102350000D01*
X139700000Y-97600000D01*
X154488574Y-97600000D01*
X154502244Y-97738792D01*
X154542728Y-97872251D01*
X154608471Y-97995247D01*
X154696946Y-98103054D01*
X154804753Y-98191529D01*
X154927749Y-98257272D01*
X155061208Y-98297756D01*
X155200000Y-98311426D01*
X155469000Y-98308000D01*
X155646000Y-98131000D01*
X155646000Y-96854000D01*
X155754000Y-96854000D01*
X155754000Y-98131000D01*
X155931000Y-98308000D01*
X156200000Y-98311426D01*
X156338792Y-98297756D01*
X156472251Y-98257272D01*
X156595247Y-98191529D01*
X156703054Y-98103054D01*
X156791529Y-97995247D01*
X156857272Y-97872251D01*
X156897756Y-97738792D01*
X156911426Y-97600000D01*
X156908000Y-97031000D01*
X156731000Y-96854000D01*
X155754000Y-96854000D01*
X155646000Y-96854000D01*
X154669000Y-96854000D01*
X154492000Y-97031000D01*
X154488574Y-97600000D01*
X139700000Y-97600000D01*
X139700000Y-96000000D01*
X154488574Y-96000000D01*
X154492000Y-96569000D01*
X154669000Y-96746000D01*
X155646000Y-96746000D01*
X155646000Y-95469000D01*
X155754000Y-95469000D01*
X155754000Y-96746000D01*
X156731000Y-96746000D01*
X156908000Y-96569000D01*
X156911426Y-96000000D01*
X156897756Y-95861208D01*
X156857272Y-95727749D01*
X156791529Y-95604753D01*
X156703054Y-95496946D01*
X156595247Y-95408471D01*
X156472251Y-95342728D01*
X156338792Y-95302244D01*
X156200000Y-95288574D01*
X155931000Y-95292000D01*
X155754000Y-95469000D01*
X155646000Y-95469000D01*
X155469000Y-95292000D01*
X155200000Y-95288574D01*
X155061208Y-95302244D01*
X154927749Y-95342728D01*
X154804753Y-95408471D01*
X154696946Y-95496946D01*
X154608471Y-95604753D01*
X154542728Y-95727749D01*
X154502244Y-95861208D01*
X154488574Y-96000000D01*
X139700000Y-96000000D01*
X139700000Y-89455634D01*
X141383971Y-91139606D01*
X141418419Y-91181581D01*
X141585916Y-91319042D01*
X141777012Y-91421184D01*
X141984362Y-91484084D01*
X142145964Y-91500000D01*
X142145965Y-91500000D01*
X142199999Y-91505322D01*
X142254033Y-91500000D01*
X153444366Y-91500000D01*
X153740263Y-91795897D01*
X153778816Y-91922988D01*
X153880958Y-92114084D01*
X154018419Y-92281581D01*
X154185916Y-92419042D01*
X154377012Y-92521184D01*
X154584362Y-92584084D01*
X154745964Y-92600000D01*
X154945966Y-92600000D01*
X155000000Y-92605322D01*
X155054034Y-92600000D01*
X157600000Y-92600000D01*
X157600001Y-95345958D01*
X157600000Y-95345965D01*
X157600000Y-95470056D01*
X157531607Y-95553394D01*
X157457321Y-95692372D01*
X157411576Y-95843173D01*
X157396130Y-96000000D01*
X157396130Y-96775430D01*
X157393710Y-96800000D01*
X157396130Y-96824570D01*
X157396130Y-97600000D01*
X157411576Y-97756827D01*
X157457321Y-97907628D01*
X157531607Y-98046606D01*
X157631578Y-98168422D01*
X157753394Y-98268393D01*
X157892372Y-98342679D01*
X158043173Y-98388424D01*
X158200000Y-98403870D01*
X158465393Y-98403870D01*
X159400001Y-99338479D01*
X159400001Y-100166459D01*
X159381578Y-100181578D01*
X159281607Y-100303394D01*
X159207321Y-100442372D01*
X159161576Y-100593173D01*
X159146130Y-100750000D01*
X159146130Y-103250000D01*
X159161576Y-103406827D01*
X159207321Y-103557628D01*
X159229970Y-103600000D01*
X157838478Y-103600000D01*
X156864403Y-102625926D01*
X156823687Y-102576313D01*
X156625736Y-102413860D01*
X156399896Y-102293145D01*
X156154845Y-102218810D01*
X155963864Y-102200000D01*
X155963861Y-102200000D01*
X155900000Y-102193710D01*
X155836139Y-102200000D01*
X155489010Y-102200000D01*
X155508708Y-102000001D01*
X155473955Y-101647139D01*
X155371028Y-101307838D01*
X155253870Y-101088650D01*
X155253870Y-100750000D01*
X155238424Y-100593173D01*
X155192679Y-100442372D01*
X155118393Y-100303394D01*
X155018422Y-100181578D01*
X154896606Y-100081607D01*
X154757628Y-100007321D01*
X154606827Y-99961576D01*
X154450000Y-99946130D01*
X152950000Y-99946130D01*
X152793173Y-99961576D01*
X152642372Y-100007321D01*
X152503394Y-100081607D01*
X152381578Y-100181578D01*
X152281607Y-100303394D01*
X152207321Y-100442372D01*
X152161576Y-100593173D01*
X152146130Y-100750000D01*
X152146130Y-101008285D01*
X151454416Y-101700000D01*
X151069018Y-101700000D01*
X151046606Y-101681607D01*
X150907628Y-101607321D01*
X150756827Y-101561576D01*
X150600000Y-101546130D01*
X148100000Y-101546130D01*
X147943173Y-101561576D01*
X147792372Y-101607321D01*
X147653394Y-101681607D01*
X147531578Y-101781578D01*
X147431607Y-101903394D01*
X147357321Y-102042372D01*
X147311576Y-102193173D01*
X147296130Y-102350000D01*
X147296130Y-104650000D01*
X147311576Y-104806827D01*
X147357321Y-104957628D01*
X147431607Y-105096606D01*
X147531578Y-105218422D01*
X147653394Y-105318393D01*
X147792372Y-105392679D01*
X147943173Y-105438424D01*
X148100000Y-105453870D01*
X148250000Y-105453870D01*
X148250000Y-105495966D01*
X148244678Y-105550000D01*
X148250000Y-105604034D01*
X148250000Y-105604035D01*
X148265916Y-105765637D01*
X148328816Y-105972987D01*
X148430958Y-106164084D01*
X148568419Y-106331581D01*
X148600000Y-106357499D01*
X148600000Y-106770056D01*
X148531607Y-106853394D01*
X148482109Y-106945998D01*
X148331002Y-106945998D01*
X148508000Y-106769000D01*
X148511426Y-106500000D01*
X148497756Y-106361208D01*
X148457272Y-106227749D01*
X148391529Y-106104753D01*
X148303054Y-105996946D01*
X148195247Y-105908471D01*
X148072251Y-105842728D01*
X147938792Y-105802244D01*
X147800000Y-105788574D01*
X147231000Y-105792000D01*
X147054000Y-105969000D01*
X147054000Y-106946000D01*
X147074000Y-106946000D01*
X147074000Y-107054000D01*
X147054000Y-107054000D01*
X147054000Y-107074000D01*
X146946000Y-107074000D01*
X146946000Y-107054000D01*
X145669000Y-107054000D01*
X145492000Y-107231000D01*
X145488574Y-107500000D01*
X145502244Y-107638792D01*
X145542728Y-107772251D01*
X145608471Y-107895247D01*
X145696946Y-108003054D01*
X145804753Y-108091529D01*
X145927749Y-108157272D01*
X146061208Y-108197756D01*
X146200000Y-108211426D01*
X146434351Y-108210015D01*
X146260399Y-108383967D01*
X146218419Y-108418419D01*
X146080958Y-108585916D01*
X146008107Y-108722213D01*
X145892372Y-108757321D01*
X145753394Y-108831607D01*
X145631578Y-108931578D01*
X145531607Y-109053394D01*
X145457321Y-109192372D01*
X145411576Y-109343173D01*
X145396130Y-109500000D01*
X145396130Y-110500000D01*
X145411576Y-110656827D01*
X145457321Y-110807628D01*
X145531607Y-110946606D01*
X145575426Y-111000000D01*
X145352263Y-111000000D01*
X145062466Y-111057644D01*
X144789483Y-111170717D01*
X144543806Y-111334874D01*
X144500000Y-111378680D01*
X144456194Y-111334874D01*
X144210517Y-111170717D01*
X143937534Y-111057644D01*
X143647737Y-111000000D01*
X143352263Y-111000000D01*
X143062466Y-111057644D01*
X142789483Y-111170717D01*
X142543806Y-111334874D01*
X142334874Y-111543806D01*
X142170717Y-111789483D01*
X142057644Y-112062466D01*
X142000000Y-112352263D01*
X142000000Y-112647737D01*
X142057644Y-112937534D01*
X142170717Y-113210517D01*
X142334874Y-113456194D01*
X142543806Y-113665126D01*
X142789483Y-113829283D01*
X143062466Y-113942356D01*
X143352263Y-114000000D01*
X143647737Y-114000000D01*
X143937534Y-113942356D01*
X144210517Y-113829283D01*
X144456194Y-113665126D01*
X144500000Y-113621320D01*
X144543806Y-113665126D01*
X144789483Y-113829283D01*
X145062466Y-113942356D01*
X145352263Y-114000000D01*
X145647737Y-114000000D01*
X145937534Y-113942356D01*
X146210517Y-113829283D01*
X146241466Y-113808604D01*
X146253394Y-113818393D01*
X146392372Y-113892679D01*
X146543173Y-113938424D01*
X146700000Y-113953870D01*
X147400000Y-113953870D01*
X147556827Y-113938424D01*
X147707628Y-113892679D01*
X147846606Y-113818393D01*
X147968422Y-113718422D01*
X148000000Y-113679944D01*
X148031578Y-113718422D01*
X148153394Y-113818393D01*
X148292372Y-113892679D01*
X148443173Y-113938424D01*
X148600000Y-113953870D01*
X149300000Y-113953870D01*
X149456827Y-113938424D01*
X149607628Y-113892679D01*
X149746606Y-113818393D01*
X149868422Y-113718422D01*
X149968393Y-113596606D01*
X150042679Y-113457628D01*
X150088424Y-113306827D01*
X150103870Y-113150000D01*
X150103870Y-112850000D01*
X150488574Y-112850000D01*
X150502244Y-112988792D01*
X150542728Y-113122251D01*
X150608471Y-113245247D01*
X150696946Y-113353054D01*
X150804753Y-113441529D01*
X150927749Y-113507272D01*
X151061208Y-113547756D01*
X151200000Y-113561426D01*
X151319000Y-113558000D01*
X151496000Y-113381000D01*
X151496000Y-112254000D01*
X150669000Y-112254000D01*
X150492000Y-112431000D01*
X150488574Y-112850000D01*
X150103870Y-112850000D01*
X150103870Y-111850000D01*
X150088424Y-111693173D01*
X150082381Y-111673253D01*
X150205634Y-111550000D01*
X150488574Y-111550000D01*
X150492000Y-111969000D01*
X150669000Y-112146000D01*
X151496000Y-112146000D01*
X151496000Y-111019000D01*
X151319000Y-110842000D01*
X151200000Y-110838574D01*
X151061208Y-110852244D01*
X150927749Y-110892728D01*
X150804753Y-110958471D01*
X150696946Y-111046946D01*
X150608471Y-111154753D01*
X150542728Y-111277749D01*
X150502244Y-111411208D01*
X150488574Y-111550000D01*
X150205634Y-111550000D01*
X150439606Y-111316029D01*
X150481581Y-111281581D01*
X150553601Y-111193824D01*
X150619042Y-111114085D01*
X150721183Y-110922989D01*
X150721184Y-110922988D01*
X150784084Y-110715638D01*
X150800000Y-110554035D01*
X150805322Y-110500001D01*
X150800000Y-110445967D01*
X150800000Y-110429944D01*
X150868393Y-110346606D01*
X150942679Y-110207628D01*
X150988424Y-110056827D01*
X151000000Y-109939293D01*
X151011576Y-110056827D01*
X151057321Y-110207628D01*
X151131607Y-110346606D01*
X151231578Y-110468422D01*
X151353394Y-110568393D01*
X151492372Y-110642679D01*
X151643173Y-110688424D01*
X151800000Y-110703870D01*
X152350000Y-110703870D01*
X152350000Y-111003406D01*
X152295247Y-110958471D01*
X152172251Y-110892728D01*
X152038792Y-110852244D01*
X151900000Y-110838574D01*
X151781000Y-110842000D01*
X151604000Y-111019000D01*
X151604000Y-112146000D01*
X151624000Y-112146000D01*
X151624000Y-112254000D01*
X151604000Y-112254000D01*
X151604000Y-113381000D01*
X151781000Y-113558000D01*
X151900000Y-113561426D01*
X152038792Y-113547756D01*
X152172251Y-113507272D01*
X152295247Y-113441529D01*
X152403054Y-113353054D01*
X152440493Y-113307434D01*
X152531578Y-113418422D01*
X152653394Y-113518393D01*
X152792372Y-113592679D01*
X152943173Y-113638424D01*
X153100000Y-113653870D01*
X153800000Y-113653870D01*
X153956827Y-113638424D01*
X154068321Y-113604603D01*
X154085916Y-113619042D01*
X154277012Y-113721184D01*
X154484362Y-113784084D01*
X154645964Y-113800000D01*
X154645966Y-113800000D01*
X154700000Y-113805322D01*
X154754034Y-113800000D01*
X154834392Y-113800000D01*
X154931578Y-113918422D01*
X155053394Y-114018393D01*
X155192372Y-114092679D01*
X155343173Y-114138424D01*
X155500000Y-114153870D01*
X156200000Y-114153870D01*
X156356827Y-114138424D01*
X156507628Y-114092679D01*
X156646606Y-114018393D01*
X156768422Y-113918422D01*
X156800000Y-113879944D01*
X156831578Y-113918422D01*
X156953394Y-114018393D01*
X157092372Y-114092679D01*
X157243173Y-114138424D01*
X157400000Y-114153870D01*
X158100000Y-114153870D01*
X158256827Y-114138424D01*
X158407628Y-114092679D01*
X158546606Y-114018393D01*
X158668422Y-113918422D01*
X158764139Y-113801790D01*
X158800000Y-113805322D01*
X158854034Y-113800000D01*
X158854036Y-113800000D01*
X159015638Y-113784084D01*
X159222988Y-113721184D01*
X159414084Y-113619042D01*
X159581581Y-113481581D01*
X159616033Y-113439601D01*
X161389606Y-111666029D01*
X161431581Y-111631581D01*
X161504793Y-111542372D01*
X161569042Y-111464085D01*
X161633934Y-111342679D01*
X161671184Y-111272988D01*
X161723124Y-111101766D01*
X161768393Y-111046606D01*
X161805577Y-110977039D01*
X161914084Y-110919042D01*
X162081581Y-110781581D01*
X162116033Y-110739601D01*
X162939606Y-109916029D01*
X162981581Y-109881581D01*
X163061366Y-109784363D01*
X163119042Y-109714085D01*
X163206746Y-109550000D01*
X163221184Y-109522988D01*
X163284084Y-109315638D01*
X163300000Y-109154036D01*
X163300000Y-109154035D01*
X163305322Y-109100001D01*
X163300000Y-109045967D01*
X163300000Y-105350000D01*
X191646130Y-105350000D01*
X191646130Y-107050000D01*
X191661576Y-107206827D01*
X191707321Y-107357628D01*
X191781607Y-107496606D01*
X191881578Y-107618422D01*
X192003394Y-107718393D01*
X192142372Y-107792679D01*
X192293173Y-107838424D01*
X192450000Y-107853870D01*
X194150000Y-107853870D01*
X194306827Y-107838424D01*
X194457628Y-107792679D01*
X194596606Y-107718393D01*
X194718422Y-107618422D01*
X194818393Y-107496606D01*
X194866368Y-107406853D01*
X194968467Y-107491433D01*
X195237159Y-107636646D01*
X195529018Y-107726650D01*
X195543086Y-107729446D01*
X195786000Y-107579944D01*
X195786000Y-106254000D01*
X195894000Y-106254000D01*
X195894000Y-107579944D01*
X196136914Y-107729446D01*
X196150982Y-107726650D01*
X196442841Y-107636646D01*
X196711533Y-107491433D01*
X196946733Y-107296591D01*
X197139402Y-107059607D01*
X197282135Y-106789589D01*
X197369448Y-106496914D01*
X197220066Y-106254000D01*
X195894000Y-106254000D01*
X195786000Y-106254000D01*
X195766000Y-106254000D01*
X195766000Y-106146000D01*
X195786000Y-106146000D01*
X195786000Y-104820056D01*
X195894000Y-104820056D01*
X195894000Y-106146000D01*
X197220066Y-106146000D01*
X197369448Y-105903086D01*
X197282135Y-105610411D01*
X197139402Y-105340393D01*
X196946733Y-105103409D01*
X196711533Y-104908567D01*
X196442841Y-104763354D01*
X196150982Y-104673350D01*
X196136914Y-104670554D01*
X195894000Y-104820056D01*
X195786000Y-104820056D01*
X195543086Y-104670554D01*
X195529018Y-104673350D01*
X195237159Y-104763354D01*
X194968467Y-104908567D01*
X194866368Y-104993147D01*
X194818393Y-104903394D01*
X194718422Y-104781578D01*
X194596606Y-104681607D01*
X194457628Y-104607321D01*
X194306827Y-104561576D01*
X194150000Y-104546130D01*
X192450000Y-104546130D01*
X192293173Y-104561576D01*
X192142372Y-104607321D01*
X192003394Y-104681607D01*
X191881578Y-104781578D01*
X191781607Y-104903394D01*
X191707321Y-105042372D01*
X191661576Y-105193173D01*
X191646130Y-105350000D01*
X163300000Y-105350000D01*
X163300000Y-103554033D01*
X163305322Y-103499999D01*
X163296145Y-103406827D01*
X163284084Y-103284362D01*
X163221184Y-103077012D01*
X163119042Y-102885916D01*
X162981581Y-102718419D01*
X162939606Y-102683971D01*
X162253870Y-101998235D01*
X162253870Y-100750000D01*
X162238424Y-100593173D01*
X162192679Y-100442372D01*
X162118393Y-100303394D01*
X162018422Y-100181578D01*
X162000000Y-100166460D01*
X162000000Y-98863860D01*
X162006290Y-98799999D01*
X162000000Y-98736136D01*
X161981190Y-98545155D01*
X161906855Y-98300104D01*
X161786140Y-98074264D01*
X161623687Y-97876313D01*
X161574079Y-97835601D01*
X160003870Y-96265393D01*
X160003870Y-96000000D01*
X159988424Y-95843173D01*
X159942679Y-95692372D01*
X159868393Y-95553394D01*
X159800000Y-95470056D01*
X159800000Y-92600000D01*
X165745966Y-92600000D01*
X165800000Y-92605322D01*
X165854034Y-92600000D01*
X165854036Y-92600000D01*
X166015638Y-92584084D01*
X166222988Y-92521184D01*
X166414084Y-92419042D01*
X166581581Y-92281581D01*
X166616033Y-92239601D01*
X168855635Y-90000000D01*
X170378680Y-90000000D01*
X170443806Y-90065126D01*
X170689483Y-90229283D01*
X170962466Y-90342356D01*
X171252263Y-90400000D01*
X171547737Y-90400000D01*
X171837534Y-90342356D01*
X172110517Y-90229283D01*
X172356194Y-90065126D01*
X172565126Y-89856194D01*
X172729283Y-89610517D01*
X172842356Y-89337534D01*
X172900000Y-89047737D01*
X172900000Y-88752577D01*
X173018173Y-88788424D01*
X173175000Y-88803870D01*
X174425000Y-88803870D01*
X174581827Y-88788424D01*
X174732628Y-88742679D01*
X174871606Y-88668393D01*
X174993422Y-88568422D01*
X175093393Y-88446606D01*
X175167679Y-88307628D01*
X175213424Y-88156827D01*
X175228870Y-88000000D01*
X175228870Y-87000000D01*
X175213424Y-86843173D01*
X175167679Y-86692372D01*
X175093393Y-86553394D01*
X174993422Y-86431578D01*
X174989413Y-86428288D01*
X175016529Y-86395247D01*
X175082272Y-86272251D01*
X175122756Y-86138792D01*
X175136426Y-86000000D01*
X175133000Y-85731000D01*
X174956000Y-85554000D01*
X173854000Y-85554000D01*
X173854000Y-85574000D01*
X173746000Y-85574000D01*
X173746000Y-85554000D01*
X172644000Y-85554000D01*
X172467000Y-85731000D01*
X172463574Y-86000000D01*
X172477244Y-86138792D01*
X172517728Y-86272251D01*
X172583471Y-86395247D01*
X172587372Y-86400000D01*
X171454036Y-86400000D01*
X171400000Y-86394678D01*
X171345964Y-86400000D01*
X171184362Y-86415916D01*
X170977012Y-86478816D01*
X170937379Y-86500000D01*
X170303870Y-86500000D01*
X170303870Y-85600000D01*
X170300038Y-85561096D01*
X170769000Y-85558000D01*
X170946000Y-85381000D01*
X170946000Y-84853870D01*
X171054000Y-84853870D01*
X171054000Y-85381000D01*
X171231000Y-85558000D01*
X171750000Y-85561426D01*
X171888792Y-85547756D01*
X172022251Y-85507272D01*
X172145247Y-85441529D01*
X172253054Y-85353054D01*
X172341529Y-85245247D01*
X172407272Y-85122251D01*
X172444356Y-85000000D01*
X172463574Y-85000000D01*
X172467000Y-85269000D01*
X172644000Y-85446000D01*
X173746000Y-85446000D01*
X173746000Y-84469000D01*
X173854000Y-84469000D01*
X173854000Y-85446000D01*
X174956000Y-85446000D01*
X175133000Y-85269000D01*
X175136426Y-85000000D01*
X175122756Y-84861208D01*
X175082272Y-84727749D01*
X175016529Y-84604753D01*
X174928054Y-84496946D01*
X174820247Y-84408471D01*
X174697251Y-84342728D01*
X174563792Y-84302244D01*
X174425000Y-84288574D01*
X174031000Y-84292000D01*
X173854000Y-84469000D01*
X173746000Y-84469000D01*
X173569000Y-84292000D01*
X173175000Y-84288574D01*
X173036208Y-84302244D01*
X172902749Y-84342728D01*
X172779753Y-84408471D01*
X172671946Y-84496946D01*
X172583471Y-84604753D01*
X172517728Y-84727749D01*
X172477244Y-84861208D01*
X172463574Y-85000000D01*
X172444356Y-85000000D01*
X172447756Y-84988792D01*
X172461426Y-84850000D01*
X172458000Y-84827000D01*
X172281000Y-84650000D01*
X172285834Y-84645166D01*
X172318422Y-84618422D01*
X172345166Y-84585834D01*
X172458000Y-84473000D01*
X172461426Y-84450000D01*
X172458606Y-84421373D01*
X172492679Y-84357628D01*
X172538424Y-84206827D01*
X172553870Y-84050000D01*
X172553870Y-83650000D01*
X172538424Y-83493173D01*
X172525328Y-83450000D01*
X172538424Y-83406827D01*
X172553870Y-83250000D01*
X172553870Y-82850000D01*
X172538424Y-82693173D01*
X172525328Y-82650000D01*
X172538424Y-82606827D01*
X172553870Y-82450000D01*
X172553870Y-82050000D01*
X172538424Y-81893173D01*
X172525328Y-81850000D01*
X172538424Y-81806827D01*
X172553870Y-81650000D01*
X172553870Y-81250000D01*
X172538424Y-81093173D01*
X172525328Y-81050000D01*
X172538424Y-81006827D01*
X172553870Y-80850000D01*
X172553870Y-80450000D01*
X172538424Y-80293173D01*
X172525328Y-80250000D01*
X172538424Y-80206827D01*
X172553870Y-80050000D01*
X172553870Y-79650000D01*
X172538424Y-79493173D01*
X172525328Y-79450000D01*
X172538424Y-79406827D01*
X172553870Y-79250000D01*
X172553870Y-78850000D01*
X172538424Y-78693173D01*
X172492679Y-78542372D01*
X172418393Y-78403394D01*
X172318422Y-78281578D01*
X172196606Y-78181607D01*
X172057628Y-78107321D01*
X171906827Y-78061576D01*
X171750000Y-78046130D01*
X170303870Y-78046130D01*
X170303870Y-76600000D01*
X170288424Y-76443173D01*
X170242679Y-76292372D01*
X170168393Y-76153394D01*
X170068422Y-76031578D01*
X169946606Y-75931607D01*
X169807628Y-75857321D01*
X169656827Y-75811576D01*
X169500000Y-75796130D01*
X169100000Y-75796130D01*
X168943173Y-75811576D01*
X168900000Y-75824672D01*
X168856827Y-75811576D01*
X168700000Y-75796130D01*
X168700000Y-73514212D01*
X172114213Y-70100000D01*
X181450880Y-70100000D01*
X181500000Y-70104838D01*
X181549120Y-70100000D01*
X181696034Y-70085530D01*
X181884535Y-70028349D01*
X182058258Y-69935492D01*
X182210528Y-69810528D01*
X182241849Y-69772363D01*
X187114212Y-64900000D01*
X187800000Y-64900000D01*
X187839018Y-64896157D01*
X187876537Y-64884776D01*
X187911114Y-64866294D01*
X187944167Y-64838622D01*
X190444167Y-62238622D01*
X190468440Y-62207833D01*
X190486241Y-62172900D01*
X190496884Y-62135165D01*
X190500000Y-62100000D01*
X190500000Y-61514213D01*
X192614213Y-59400000D01*
X194485788Y-59400000D01*
X194882374Y-59796587D01*
X194869080Y-59863418D01*
X194549625Y-59731095D01*
X194192209Y-59660000D01*
X193827791Y-59660000D01*
X193470375Y-59731095D01*
X193133697Y-59870552D01*
X192830694Y-60073011D01*
X192573011Y-60330694D01*
X192370552Y-60633697D01*
X192231095Y-60970375D01*
X192160000Y-61327791D01*
X192160000Y-61692209D01*
X192231095Y-62049625D01*
X192370552Y-62386303D01*
X192573011Y-62689306D01*
X192830694Y-62946989D01*
X193133697Y-63149448D01*
X193470375Y-63288905D01*
X193827791Y-63360000D01*
X194192209Y-63360000D01*
X194549625Y-63288905D01*
X194886303Y-63149448D01*
X195189306Y-62946989D01*
X195446989Y-62689306D01*
X195649448Y-62386303D01*
X195788905Y-62049625D01*
X195840575Y-61789865D01*
X196011420Y-61860631D01*
X196335027Y-61925000D01*
X196664973Y-61925000D01*
X196988580Y-61860631D01*
X197293410Y-61734366D01*
X197567751Y-61551058D01*
X197801058Y-61317751D01*
X197984366Y-61043410D01*
X198110631Y-60738580D01*
X198175000Y-60414973D01*
X198175000Y-60085027D01*
X198110631Y-59761420D01*
X197984366Y-59456590D01*
X197801058Y-59182249D01*
X197567751Y-58948942D01*
X197293410Y-58765634D01*
X196988580Y-58639369D01*
X196664973Y-58575000D01*
X196489213Y-58575000D01*
X195641849Y-57727637D01*
X195610528Y-57689472D01*
X195458258Y-57564508D01*
X195284535Y-57471651D01*
X195096034Y-57414470D01*
X194949120Y-57400000D01*
X194900000Y-57395162D01*
X194850880Y-57400000D01*
X192249117Y-57400000D01*
X192199999Y-57395162D01*
X192150881Y-57400000D01*
X192150880Y-57400000D01*
X192003966Y-57414470D01*
X191815465Y-57471651D01*
X191641742Y-57564508D01*
X191489472Y-57689472D01*
X191458155Y-57727632D01*
X190500000Y-58685787D01*
X190500000Y-56787062D01*
X195539306Y-56787062D01*
X195609260Y-57067869D01*
X195883479Y-57216322D01*
X196181390Y-57308424D01*
X196491546Y-57340637D01*
X196802026Y-57311722D01*
X197100899Y-57222792D01*
X197376680Y-57077263D01*
X197390740Y-57067869D01*
X197460694Y-56787062D01*
X196500000Y-55826368D01*
X195539306Y-56787062D01*
X190500000Y-56787062D01*
X190500000Y-54317791D01*
X192160000Y-54317791D01*
X192160000Y-54682209D01*
X192231095Y-55039625D01*
X192370552Y-55376303D01*
X192573011Y-55679306D01*
X192830694Y-55936989D01*
X193133697Y-56139448D01*
X193470375Y-56278905D01*
X193827791Y-56350000D01*
X194192209Y-56350000D01*
X194549625Y-56278905D01*
X194886303Y-56139448D01*
X194951357Y-56095981D01*
X195027208Y-56350899D01*
X195172737Y-56626680D01*
X195182131Y-56640740D01*
X195462938Y-56710694D01*
X196423632Y-55750000D01*
X196576368Y-55750000D01*
X197537062Y-56710694D01*
X197817869Y-56640740D01*
X197966322Y-56366521D01*
X198058424Y-56068610D01*
X198090637Y-55758454D01*
X198061722Y-55447974D01*
X197972792Y-55149101D01*
X197827263Y-54873320D01*
X197817869Y-54859260D01*
X197537062Y-54789306D01*
X196576368Y-55750000D01*
X196423632Y-55750000D01*
X196409490Y-55735858D01*
X196485858Y-55659490D01*
X196500000Y-55673632D01*
X197460694Y-54712938D01*
X197390740Y-54432131D01*
X197116521Y-54283678D01*
X196818610Y-54191576D01*
X196508454Y-54159363D01*
X196197974Y-54188278D01*
X195899101Y-54277208D01*
X195856409Y-54299737D01*
X195788905Y-53960375D01*
X195649448Y-53623697D01*
X195446989Y-53320694D01*
X195189306Y-53063011D01*
X194886303Y-52860552D01*
X194549625Y-52721095D01*
X194192209Y-52650000D01*
X193827791Y-52650000D01*
X193470375Y-52721095D01*
X193133697Y-52860552D01*
X192830694Y-53063011D01*
X192573011Y-53320694D01*
X192370552Y-53623697D01*
X192231095Y-53960375D01*
X192160000Y-54317791D01*
X190500000Y-54317791D01*
X190500000Y-40875000D01*
X199125001Y-40875000D01*
X199125000Y-72125000D01*
G36*
X156096130Y-107310343D02*
G01*
X156096130Y-108000000D01*
X156111576Y-108156827D01*
X156157321Y-108307628D01*
X156231607Y-108446606D01*
X156300000Y-108529944D01*
X156300001Y-108870055D01*
X156231607Y-108953394D01*
X156157321Y-109092372D01*
X156111576Y-109243173D01*
X156096130Y-109400000D01*
X156096130Y-110600000D01*
X156111576Y-110756827D01*
X156157321Y-110907628D01*
X156231607Y-111046606D01*
X156331578Y-111168422D01*
X156453394Y-111268393D01*
X156592372Y-111342679D01*
X156743173Y-111388424D01*
X156900000Y-111403870D01*
X156926266Y-111403870D01*
X156831578Y-111481578D01*
X156800000Y-111520056D01*
X156768422Y-111481578D01*
X156646606Y-111381607D01*
X156507628Y-111307321D01*
X156356827Y-111261576D01*
X156200000Y-111246130D01*
X155500000Y-111246130D01*
X155343173Y-111261576D01*
X155192372Y-111307321D01*
X155053394Y-111381607D01*
X154992430Y-111431639D01*
X154981581Y-111418419D01*
X154814084Y-111280958D01*
X154622988Y-111178816D01*
X154550000Y-111156675D01*
X154550000Y-110004033D01*
X154555322Y-109949999D01*
X154548583Y-109881581D01*
X154534084Y-109734362D01*
X154471184Y-109527012D01*
X154369042Y-109335916D01*
X154231581Y-109168419D01*
X154189601Y-109133967D01*
X153866033Y-108810399D01*
X153831581Y-108768419D01*
X153664084Y-108630958D01*
X153508000Y-108547530D01*
X153508000Y-108545998D01*
X153505134Y-108545998D01*
X153472988Y-108528816D01*
X153415290Y-108511313D01*
X153468393Y-108446606D01*
X153478358Y-108427963D01*
X153560528Y-108360528D01*
X153591848Y-108322364D01*
X154372373Y-107541841D01*
X154410528Y-107510528D01*
X154535492Y-107358258D01*
X154628349Y-107184535D01*
X154685530Y-106996034D01*
X154700000Y-106849120D01*
X154700000Y-106849119D01*
X154703814Y-106810399D01*
X154814213Y-106700000D01*
X155485788Y-106700000D01*
X156096130Y-107310343D01*
X156096130Y-107310343D01*
G37*
X156096130Y-107310343D02*
X156096130Y-108000000D01*
X156111576Y-108156827D01*
X156157321Y-108307628D01*
X156231607Y-108446606D01*
X156300000Y-108529944D01*
X156300001Y-108870055D01*
X156231607Y-108953394D01*
X156157321Y-109092372D01*
X156111576Y-109243173D01*
X156096130Y-109400000D01*
X156096130Y-110600000D01*
X156111576Y-110756827D01*
X156157321Y-110907628D01*
X156231607Y-111046606D01*
X156331578Y-111168422D01*
X156453394Y-111268393D01*
X156592372Y-111342679D01*
X156743173Y-111388424D01*
X156900000Y-111403870D01*
X156926266Y-111403870D01*
X156831578Y-111481578D01*
X156800000Y-111520056D01*
X156768422Y-111481578D01*
X156646606Y-111381607D01*
X156507628Y-111307321D01*
X156356827Y-111261576D01*
X156200000Y-111246130D01*
X155500000Y-111246130D01*
X155343173Y-111261576D01*
X155192372Y-111307321D01*
X155053394Y-111381607D01*
X154992430Y-111431639D01*
X154981581Y-111418419D01*
X154814084Y-111280958D01*
X154622988Y-111178816D01*
X154550000Y-111156675D01*
X154550000Y-110004033D01*
X154555322Y-109949999D01*
X154548583Y-109881581D01*
X154534084Y-109734362D01*
X154471184Y-109527012D01*
X154369042Y-109335916D01*
X154231581Y-109168419D01*
X154189601Y-109133967D01*
X153866033Y-108810399D01*
X153831581Y-108768419D01*
X153664084Y-108630958D01*
X153508000Y-108547530D01*
X153508000Y-108545998D01*
X153505134Y-108545998D01*
X153472988Y-108528816D01*
X153415290Y-108511313D01*
X153468393Y-108446606D01*
X153478358Y-108427963D01*
X153560528Y-108360528D01*
X153591848Y-108322364D01*
X154372373Y-107541841D01*
X154410528Y-107510528D01*
X154535492Y-107358258D01*
X154628349Y-107184535D01*
X154685530Y-106996034D01*
X154700000Y-106849120D01*
X154700000Y-106849119D01*
X154703814Y-106810399D01*
X154814213Y-106700000D01*
X155485788Y-106700000D01*
X156096130Y-107310343D01*
G36*
X151011576Y-108156827D02*
G01*
X151057321Y-108307628D01*
X151131607Y-108446606D01*
X151231578Y-108568422D01*
X151270056Y-108600000D01*
X151231578Y-108631578D01*
X151131607Y-108753394D01*
X151057321Y-108892372D01*
X151011576Y-109043173D01*
X151000000Y-109160707D01*
X150991559Y-109075000D01*
X151003870Y-108950000D01*
X151003870Y-108250000D01*
X150991559Y-108125000D01*
X151000000Y-108039293D01*
X151011576Y-108156827D01*
X151011576Y-108156827D01*
G37*
X151011576Y-108156827D02*
X151057321Y-108307628D01*
X151131607Y-108446606D01*
X151231578Y-108568422D01*
X151270056Y-108600000D01*
X151231578Y-108631578D01*
X151131607Y-108753394D01*
X151057321Y-108892372D01*
X151011576Y-109043173D01*
X151000000Y-109160707D01*
X150991559Y-109075000D01*
X151003870Y-108950000D01*
X151003870Y-108250000D01*
X150991559Y-108125000D01*
X151000000Y-108039293D01*
X151011576Y-108156827D01*
G36*
X158034874Y-85356194D02*
G01*
X158243806Y-85565126D01*
X158489483Y-85729283D01*
X158762466Y-85842356D01*
X159052263Y-85900000D01*
X159347737Y-85900000D01*
X159637534Y-85842356D01*
X159910517Y-85729283D01*
X160156194Y-85565126D01*
X160365126Y-85356194D01*
X160504350Y-85147832D01*
X160507321Y-85157628D01*
X160581607Y-85296606D01*
X160681578Y-85418422D01*
X160803394Y-85518393D01*
X160942372Y-85592679D01*
X161093173Y-85638424D01*
X161250000Y-85653870D01*
X162696130Y-85653870D01*
X162696130Y-86800000D01*
X162552263Y-86800000D01*
X162262466Y-86857644D01*
X161989483Y-86970717D01*
X161743806Y-87134874D01*
X161534874Y-87343806D01*
X161370717Y-87589483D01*
X161257644Y-87862466D01*
X161200000Y-88152263D01*
X161200000Y-88447737D01*
X161257644Y-88737534D01*
X161370717Y-89010517D01*
X161534874Y-89256194D01*
X161578680Y-89300000D01*
X155814213Y-89300000D01*
X155341849Y-88827637D01*
X155310528Y-88789472D01*
X155158258Y-88664508D01*
X154984535Y-88571651D01*
X154796034Y-88514470D01*
X154649120Y-88500000D01*
X154600000Y-88495162D01*
X154550880Y-88500000D01*
X152639791Y-88500000D01*
X152810517Y-88429283D01*
X153056194Y-88265126D01*
X153265126Y-88056194D01*
X153429283Y-87810517D01*
X153542356Y-87537534D01*
X153600000Y-87247737D01*
X153600000Y-86952263D01*
X153542356Y-86662466D01*
X153429283Y-86389483D01*
X153265126Y-86143806D01*
X153175190Y-86053870D01*
X153800000Y-86053870D01*
X153956827Y-86038424D01*
X154107628Y-85992679D01*
X154246606Y-85918393D01*
X154368422Y-85818422D01*
X154468393Y-85696606D01*
X154520030Y-85600000D01*
X156950880Y-85600000D01*
X157000000Y-85604838D01*
X157049120Y-85600000D01*
X157196034Y-85585530D01*
X157384535Y-85528349D01*
X157558258Y-85435492D01*
X157710528Y-85310528D01*
X157741849Y-85272363D01*
X157883926Y-85130286D01*
X158034874Y-85356194D01*
X158034874Y-85356194D01*
G37*
X158034874Y-85356194D02*
X158243806Y-85565126D01*
X158489483Y-85729283D01*
X158762466Y-85842356D01*
X159052263Y-85900000D01*
X159347737Y-85900000D01*
X159637534Y-85842356D01*
X159910517Y-85729283D01*
X160156194Y-85565126D01*
X160365126Y-85356194D01*
X160504350Y-85147832D01*
X160507321Y-85157628D01*
X160581607Y-85296606D01*
X160681578Y-85418422D01*
X160803394Y-85518393D01*
X160942372Y-85592679D01*
X161093173Y-85638424D01*
X161250000Y-85653870D01*
X162696130Y-85653870D01*
X162696130Y-86800000D01*
X162552263Y-86800000D01*
X162262466Y-86857644D01*
X161989483Y-86970717D01*
X161743806Y-87134874D01*
X161534874Y-87343806D01*
X161370717Y-87589483D01*
X161257644Y-87862466D01*
X161200000Y-88152263D01*
X161200000Y-88447737D01*
X161257644Y-88737534D01*
X161370717Y-89010517D01*
X161534874Y-89256194D01*
X161578680Y-89300000D01*
X155814213Y-89300000D01*
X155341849Y-88827637D01*
X155310528Y-88789472D01*
X155158258Y-88664508D01*
X154984535Y-88571651D01*
X154796034Y-88514470D01*
X154649120Y-88500000D01*
X154600000Y-88495162D01*
X154550880Y-88500000D01*
X152639791Y-88500000D01*
X152810517Y-88429283D01*
X153056194Y-88265126D01*
X153265126Y-88056194D01*
X153429283Y-87810517D01*
X153542356Y-87537534D01*
X153600000Y-87247737D01*
X153600000Y-86952263D01*
X153542356Y-86662466D01*
X153429283Y-86389483D01*
X153265126Y-86143806D01*
X153175190Y-86053870D01*
X153800000Y-86053870D01*
X153956827Y-86038424D01*
X154107628Y-85992679D01*
X154246606Y-85918393D01*
X154368422Y-85818422D01*
X154468393Y-85696606D01*
X154520030Y-85600000D01*
X156950880Y-85600000D01*
X157000000Y-85604838D01*
X157049120Y-85600000D01*
X157196034Y-85585530D01*
X157384535Y-85528349D01*
X157558258Y-85435492D01*
X157710528Y-85310528D01*
X157741849Y-85272363D01*
X157883926Y-85130286D01*
X158034874Y-85356194D01*
G36*
X168943173Y-78888424D02*
G01*
X169100000Y-78903870D01*
X169446130Y-78903870D01*
X169446130Y-79250000D01*
X169461576Y-79406827D01*
X169474672Y-79450000D01*
X169461576Y-79493173D01*
X169446130Y-79650000D01*
X169446130Y-80050000D01*
X169461576Y-80206827D01*
X169474672Y-80250000D01*
X169461576Y-80293173D01*
X169446130Y-80450000D01*
X169446130Y-80850000D01*
X169461576Y-81006827D01*
X169474672Y-81050000D01*
X169461576Y-81093173D01*
X169446130Y-81250000D01*
X169446130Y-81650000D01*
X169461576Y-81806827D01*
X169474672Y-81850000D01*
X169461576Y-81893173D01*
X169446130Y-82050000D01*
X169446130Y-82450000D01*
X169461576Y-82606827D01*
X169474672Y-82650000D01*
X169461576Y-82693173D01*
X169446130Y-82850000D01*
X169446130Y-83250000D01*
X169461576Y-83406827D01*
X169474672Y-83450000D01*
X169461576Y-83493173D01*
X169446130Y-83650000D01*
X169446130Y-84050000D01*
X169461576Y-84206827D01*
X169507321Y-84357628D01*
X169541394Y-84421373D01*
X169538574Y-84450000D01*
X169542000Y-84473000D01*
X169654834Y-84585834D01*
X169681578Y-84618422D01*
X169714166Y-84645166D01*
X169719000Y-84650000D01*
X169566336Y-84802664D01*
X169500000Y-84796130D01*
X169100000Y-84796130D01*
X168943173Y-84811576D01*
X168900000Y-84824672D01*
X168856827Y-84811576D01*
X168700000Y-84796130D01*
X168300000Y-84796130D01*
X168143173Y-84811576D01*
X168100000Y-84824672D01*
X168056827Y-84811576D01*
X167900000Y-84796130D01*
X167500000Y-84796130D01*
X167343173Y-84811576D01*
X167300000Y-84824672D01*
X167256827Y-84811576D01*
X167100000Y-84796130D01*
X166700000Y-84796130D01*
X166543173Y-84811576D01*
X166500000Y-84824672D01*
X166456827Y-84811576D01*
X166300000Y-84796130D01*
X165900000Y-84796130D01*
X165743173Y-84811576D01*
X165700000Y-84824672D01*
X165656827Y-84811576D01*
X165500000Y-84796130D01*
X165100000Y-84796130D01*
X164943173Y-84811576D01*
X164900000Y-84824672D01*
X164856827Y-84811576D01*
X164700000Y-84796130D01*
X164300000Y-84796130D01*
X164143173Y-84811576D01*
X164100000Y-84824672D01*
X164056827Y-84811576D01*
X163900000Y-84796130D01*
X163553870Y-84796130D01*
X163553870Y-84450000D01*
X163538424Y-84293173D01*
X163525328Y-84250000D01*
X163538424Y-84206827D01*
X163553870Y-84050000D01*
X163553870Y-83650000D01*
X163538424Y-83493173D01*
X163525328Y-83450000D01*
X163538424Y-83406827D01*
X163553870Y-83250000D01*
X163553870Y-82850000D01*
X163538424Y-82693173D01*
X163525328Y-82650000D01*
X163538424Y-82606827D01*
X163553870Y-82450000D01*
X163553870Y-82050000D01*
X163538424Y-81893173D01*
X163525328Y-81850000D01*
X163538424Y-81806827D01*
X163553870Y-81650000D01*
X163553870Y-81250000D01*
X163538424Y-81093173D01*
X163525328Y-81050000D01*
X163538424Y-81006827D01*
X163553870Y-80850000D01*
X163553870Y-80450000D01*
X163538424Y-80293173D01*
X163525328Y-80250000D01*
X163538424Y-80206827D01*
X163553870Y-80050000D01*
X163553870Y-79650000D01*
X163538424Y-79493173D01*
X163492679Y-79342372D01*
X163458606Y-79278627D01*
X163461426Y-79250000D01*
X163458000Y-79227000D01*
X163345166Y-79114166D01*
X163318422Y-79081578D01*
X163285834Y-79054834D01*
X163281000Y-79050000D01*
X163433664Y-78897336D01*
X163500000Y-78903870D01*
X163900000Y-78903870D01*
X164056827Y-78888424D01*
X164100000Y-78875328D01*
X164143173Y-78888424D01*
X164300000Y-78903870D01*
X164700000Y-78903870D01*
X164856827Y-78888424D01*
X164900000Y-78875328D01*
X164943173Y-78888424D01*
X165100000Y-78903870D01*
X165500000Y-78903870D01*
X165656827Y-78888424D01*
X165700000Y-78875328D01*
X165743173Y-78888424D01*
X165900000Y-78903870D01*
X166300000Y-78903870D01*
X166456827Y-78888424D01*
X166500000Y-78875328D01*
X166543173Y-78888424D01*
X166700000Y-78903870D01*
X167100000Y-78903870D01*
X167256827Y-78888424D01*
X167300000Y-78875328D01*
X167343173Y-78888424D01*
X167500000Y-78903870D01*
X167900000Y-78903870D01*
X168056827Y-78888424D01*
X168100000Y-78875328D01*
X168143173Y-78888424D01*
X168300000Y-78903870D01*
X168700000Y-78903870D01*
X168856827Y-78888424D01*
X168900000Y-78875328D01*
X168943173Y-78888424D01*
X168943173Y-78888424D01*
G37*
X168943173Y-78888424D02*
X169100000Y-78903870D01*
X169446130Y-78903870D01*
X169446130Y-79250000D01*
X169461576Y-79406827D01*
X169474672Y-79450000D01*
X169461576Y-79493173D01*
X169446130Y-79650000D01*
X169446130Y-80050000D01*
X169461576Y-80206827D01*
X169474672Y-80250000D01*
X169461576Y-80293173D01*
X169446130Y-80450000D01*
X169446130Y-80850000D01*
X169461576Y-81006827D01*
X169474672Y-81050000D01*
X169461576Y-81093173D01*
X169446130Y-81250000D01*
X169446130Y-81650000D01*
X169461576Y-81806827D01*
X169474672Y-81850000D01*
X169461576Y-81893173D01*
X169446130Y-82050000D01*
X169446130Y-82450000D01*
X169461576Y-82606827D01*
X169474672Y-82650000D01*
X169461576Y-82693173D01*
X169446130Y-82850000D01*
X169446130Y-83250000D01*
X169461576Y-83406827D01*
X169474672Y-83450000D01*
X169461576Y-83493173D01*
X169446130Y-83650000D01*
X169446130Y-84050000D01*
X169461576Y-84206827D01*
X169507321Y-84357628D01*
X169541394Y-84421373D01*
X169538574Y-84450000D01*
X169542000Y-84473000D01*
X169654834Y-84585834D01*
X169681578Y-84618422D01*
X169714166Y-84645166D01*
X169719000Y-84650000D01*
X169566336Y-84802664D01*
X169500000Y-84796130D01*
X169100000Y-84796130D01*
X168943173Y-84811576D01*
X168900000Y-84824672D01*
X168856827Y-84811576D01*
X168700000Y-84796130D01*
X168300000Y-84796130D01*
X168143173Y-84811576D01*
X168100000Y-84824672D01*
X168056827Y-84811576D01*
X167900000Y-84796130D01*
X167500000Y-84796130D01*
X167343173Y-84811576D01*
X167300000Y-84824672D01*
X167256827Y-84811576D01*
X167100000Y-84796130D01*
X166700000Y-84796130D01*
X166543173Y-84811576D01*
X166500000Y-84824672D01*
X166456827Y-84811576D01*
X166300000Y-84796130D01*
X165900000Y-84796130D01*
X165743173Y-84811576D01*
X165700000Y-84824672D01*
X165656827Y-84811576D01*
X165500000Y-84796130D01*
X165100000Y-84796130D01*
X164943173Y-84811576D01*
X164900000Y-84824672D01*
X164856827Y-84811576D01*
X164700000Y-84796130D01*
X164300000Y-84796130D01*
X164143173Y-84811576D01*
X164100000Y-84824672D01*
X164056827Y-84811576D01*
X163900000Y-84796130D01*
X163553870Y-84796130D01*
X163553870Y-84450000D01*
X163538424Y-84293173D01*
X163525328Y-84250000D01*
X163538424Y-84206827D01*
X163553870Y-84050000D01*
X163553870Y-83650000D01*
X163538424Y-83493173D01*
X163525328Y-83450000D01*
X163538424Y-83406827D01*
X163553870Y-83250000D01*
X163553870Y-82850000D01*
X163538424Y-82693173D01*
X163525328Y-82650000D01*
X163538424Y-82606827D01*
X163553870Y-82450000D01*
X163553870Y-82050000D01*
X163538424Y-81893173D01*
X163525328Y-81850000D01*
X163538424Y-81806827D01*
X163553870Y-81650000D01*
X163553870Y-81250000D01*
X163538424Y-81093173D01*
X163525328Y-81050000D01*
X163538424Y-81006827D01*
X163553870Y-80850000D01*
X163553870Y-80450000D01*
X163538424Y-80293173D01*
X163525328Y-80250000D01*
X163538424Y-80206827D01*
X163553870Y-80050000D01*
X163553870Y-79650000D01*
X163538424Y-79493173D01*
X163492679Y-79342372D01*
X163458606Y-79278627D01*
X163461426Y-79250000D01*
X163458000Y-79227000D01*
X163345166Y-79114166D01*
X163318422Y-79081578D01*
X163285834Y-79054834D01*
X163281000Y-79050000D01*
X163433664Y-78897336D01*
X163500000Y-78903870D01*
X163900000Y-78903870D01*
X164056827Y-78888424D01*
X164100000Y-78875328D01*
X164143173Y-78888424D01*
X164300000Y-78903870D01*
X164700000Y-78903870D01*
X164856827Y-78888424D01*
X164900000Y-78875328D01*
X164943173Y-78888424D01*
X165100000Y-78903870D01*
X165500000Y-78903870D01*
X165656827Y-78888424D01*
X165700000Y-78875328D01*
X165743173Y-78888424D01*
X165900000Y-78903870D01*
X166300000Y-78903870D01*
X166456827Y-78888424D01*
X166500000Y-78875328D01*
X166543173Y-78888424D01*
X166700000Y-78903870D01*
X167100000Y-78903870D01*
X167256827Y-78888424D01*
X167300000Y-78875328D01*
X167343173Y-78888424D01*
X167500000Y-78903870D01*
X167900000Y-78903870D01*
X168056827Y-78888424D01*
X168100000Y-78875328D01*
X168143173Y-78888424D01*
X168300000Y-78903870D01*
X168700000Y-78903870D01*
X168856827Y-78888424D01*
X168900000Y-78875328D01*
X168943173Y-78888424D01*
G36*
X181085788Y-68100000D02*
G01*
X171749117Y-68100000D01*
X171699999Y-68095162D01*
X171650881Y-68100000D01*
X171650880Y-68100000D01*
X171503966Y-68114470D01*
X171315465Y-68171651D01*
X171141742Y-68264508D01*
X170989472Y-68389472D01*
X170958155Y-68427632D01*
X167027637Y-72358151D01*
X166989472Y-72389472D01*
X166864508Y-72541742D01*
X166798888Y-72664509D01*
X166771651Y-72715466D01*
X166754950Y-72770522D01*
X166646606Y-72681607D01*
X166507628Y-72607321D01*
X166356827Y-72561576D01*
X166200000Y-72546130D01*
X165500000Y-72546130D01*
X165343173Y-72561576D01*
X165192372Y-72607321D01*
X165053394Y-72681607D01*
X164931578Y-72781578D01*
X164900000Y-72820056D01*
X164868422Y-72781578D01*
X164746606Y-72681607D01*
X164607628Y-72607321D01*
X164456827Y-72561576D01*
X164300000Y-72546130D01*
X163600000Y-72546130D01*
X163443173Y-72561576D01*
X163292372Y-72607321D01*
X163153394Y-72681607D01*
X163096587Y-72728227D01*
X163010517Y-72670717D01*
X162737534Y-72557644D01*
X162447737Y-72500000D01*
X162152263Y-72500000D01*
X161862466Y-72557644D01*
X161589483Y-72670717D01*
X161343806Y-72834874D01*
X161134874Y-73043806D01*
X160970717Y-73289483D01*
X160857644Y-73562466D01*
X160800000Y-73852263D01*
X160800000Y-74147737D01*
X160857644Y-74437534D01*
X160970717Y-74710517D01*
X161134874Y-74956194D01*
X161343806Y-75165126D01*
X161589483Y-75329283D01*
X161862466Y-75442356D01*
X162152263Y-75500000D01*
X162447737Y-75500000D01*
X162700001Y-75449822D01*
X162700000Y-76560704D01*
X162696130Y-76600000D01*
X162696130Y-78100000D01*
X162699962Y-78138904D01*
X162231000Y-78142000D01*
X162054000Y-78319000D01*
X162054000Y-78846130D01*
X161946000Y-78846130D01*
X161946000Y-78319000D01*
X161769000Y-78142000D01*
X161250000Y-78138574D01*
X161111208Y-78152244D01*
X160977749Y-78192728D01*
X160854753Y-78258471D01*
X160746946Y-78346946D01*
X160658471Y-78454753D01*
X160650823Y-78469062D01*
X160638424Y-78343173D01*
X160592679Y-78192372D01*
X160518393Y-78053394D01*
X160418422Y-77931578D01*
X160307434Y-77840493D01*
X160353054Y-77803054D01*
X160441529Y-77695247D01*
X160507272Y-77572251D01*
X160547756Y-77438792D01*
X160561426Y-77300000D01*
X160558000Y-77181000D01*
X160381000Y-77004000D01*
X159254000Y-77004000D01*
X159254000Y-77024000D01*
X159146000Y-77024000D01*
X159146000Y-77004000D01*
X158019000Y-77004000D01*
X157842000Y-77181000D01*
X157838574Y-77300000D01*
X157852244Y-77438792D01*
X157892728Y-77572251D01*
X157958471Y-77695247D01*
X158046946Y-77803054D01*
X158092566Y-77840493D01*
X157981578Y-77931578D01*
X157881607Y-78053394D01*
X157807321Y-78192372D01*
X157761576Y-78343173D01*
X157746130Y-78500000D01*
X157746130Y-79200000D01*
X157761576Y-79356827D01*
X157807321Y-79507628D01*
X157881607Y-79646606D01*
X157884392Y-79650000D01*
X157764214Y-79650000D01*
X156900000Y-78785788D01*
X156900000Y-76600000D01*
X157838574Y-76600000D01*
X157842000Y-76719000D01*
X158019000Y-76896000D01*
X159146000Y-76896000D01*
X159146000Y-76069000D01*
X159254000Y-76069000D01*
X159254000Y-76896000D01*
X160381000Y-76896000D01*
X160558000Y-76719000D01*
X160561426Y-76600000D01*
X160547756Y-76461208D01*
X160507272Y-76327749D01*
X160441529Y-76204753D01*
X160353054Y-76096946D01*
X160245247Y-76008471D01*
X160122251Y-75942728D01*
X159988792Y-75902244D01*
X159850000Y-75888574D01*
X159431000Y-75892000D01*
X159254000Y-76069000D01*
X159146000Y-76069000D01*
X158969000Y-75892000D01*
X158550000Y-75888574D01*
X158411208Y-75902244D01*
X158277749Y-75942728D01*
X158154753Y-76008471D01*
X158046946Y-76096946D01*
X157958471Y-76204753D01*
X157892728Y-76327749D01*
X157852244Y-76461208D01*
X157838574Y-76600000D01*
X156900000Y-76600000D01*
X156900000Y-74849109D01*
X156904837Y-74799999D01*
X156900000Y-74750889D01*
X156900000Y-74750880D01*
X156885530Y-74603966D01*
X156828349Y-74415465D01*
X156735492Y-74241742D01*
X156610528Y-74089472D01*
X156572374Y-74058160D01*
X154541849Y-72027637D01*
X154510528Y-71989472D01*
X154358258Y-71864508D01*
X154184535Y-71771651D01*
X153996034Y-71714470D01*
X153849120Y-71700000D01*
X153800000Y-71695162D01*
X153750880Y-71700000D01*
X141012619Y-71700000D01*
X140972988Y-71678817D01*
X140765637Y-71615917D01*
X140549999Y-71594678D01*
X140334362Y-71615917D01*
X140127011Y-71678817D01*
X139935915Y-71780958D01*
X139810391Y-71883974D01*
X135339401Y-76354965D01*
X135265126Y-76243806D01*
X135056194Y-76034874D01*
X134810517Y-75870717D01*
X134537534Y-75757644D01*
X134247737Y-75700000D01*
X133952263Y-75700000D01*
X133662466Y-75757644D01*
X133389483Y-75870717D01*
X133143806Y-76034874D01*
X133078680Y-76100000D01*
X129954033Y-76100000D01*
X129899999Y-76094678D01*
X129845965Y-76100000D01*
X129845964Y-76100000D01*
X129684362Y-76115916D01*
X129477012Y-76178816D01*
X129285916Y-76280958D01*
X129118419Y-76418419D01*
X129083971Y-76460394D01*
X128154366Y-77390000D01*
X121429845Y-77390000D01*
X121398151Y-77342567D01*
X121235690Y-77180106D01*
X121251083Y-77164713D01*
X121125940Y-77039570D01*
X121419539Y-76954608D01*
X121580449Y-76659135D01*
X121680623Y-76337947D01*
X121716212Y-76003388D01*
X121685847Y-75668314D01*
X121590697Y-75345603D01*
X121434416Y-75047655D01*
X121419539Y-75025392D01*
X121125938Y-74940429D01*
X120076368Y-75990000D01*
X120090510Y-76004142D01*
X120014142Y-76080510D01*
X120000000Y-76066368D01*
X119985858Y-76080510D01*
X119909490Y-76004142D01*
X119923632Y-75990000D01*
X118874062Y-74940429D01*
X118580461Y-75025392D01*
X118419551Y-75320865D01*
X118319377Y-75642053D01*
X118283788Y-75976612D01*
X118314153Y-76311686D01*
X118409303Y-76634397D01*
X118565584Y-76932345D01*
X118580461Y-76954608D01*
X118874060Y-77039570D01*
X118748917Y-77164713D01*
X118764310Y-77180106D01*
X118601849Y-77342567D01*
X118404861Y-77637380D01*
X118269173Y-77964959D01*
X118200000Y-78312716D01*
X118200000Y-78667284D01*
X118269173Y-79015041D01*
X118404861Y-79342620D01*
X118601849Y-79637433D01*
X118704416Y-79740000D01*
X118601849Y-79842567D01*
X118404861Y-80137380D01*
X118269173Y-80464959D01*
X118200000Y-80812716D01*
X118200000Y-81167284D01*
X118266181Y-81500000D01*
X116875000Y-81500000D01*
X116875000Y-74615938D01*
X118950429Y-74615938D01*
X118986330Y-74740000D01*
X118950429Y-74864062D01*
X120000000Y-75913632D01*
X121049571Y-74864062D01*
X121013670Y-74740000D01*
X121049571Y-74615938D01*
X120000000Y-73566368D01*
X118950429Y-74615938D01*
X116875000Y-74615938D01*
X116875000Y-73476612D01*
X118283788Y-73476612D01*
X118314153Y-73811686D01*
X118409303Y-74134397D01*
X118565584Y-74432345D01*
X118580461Y-74454608D01*
X118874062Y-74539571D01*
X119923632Y-73490000D01*
X120076368Y-73490000D01*
X121125938Y-74539571D01*
X121419539Y-74454608D01*
X121580449Y-74159135D01*
X121680623Y-73837947D01*
X121716212Y-73503388D01*
X121685847Y-73168314D01*
X121590697Y-72845603D01*
X121434416Y-72547655D01*
X121419539Y-72525392D01*
X121125938Y-72440429D01*
X120076368Y-73490000D01*
X119923632Y-73490000D01*
X118874062Y-72440429D01*
X118580461Y-72525392D01*
X118419551Y-72820865D01*
X118319377Y-73142053D01*
X118283788Y-73476612D01*
X116875000Y-73476612D01*
X116875000Y-72364062D01*
X118950429Y-72364062D01*
X120000000Y-73413632D01*
X121049571Y-72364062D01*
X120964608Y-72070461D01*
X120669135Y-71909551D01*
X120347947Y-71809377D01*
X120013388Y-71773788D01*
X119678314Y-71804153D01*
X119355603Y-71899303D01*
X119057655Y-72055584D01*
X119035392Y-72070461D01*
X118950429Y-72364062D01*
X116875000Y-72364062D01*
X116875000Y-64900000D01*
X184285788Y-64900000D01*
X181085788Y-68100000D01*
X181085788Y-68100000D01*
G37*
X181085788Y-68100000D02*
X171749117Y-68100000D01*
X171699999Y-68095162D01*
X171650881Y-68100000D01*
X171650880Y-68100000D01*
X171503966Y-68114470D01*
X171315465Y-68171651D01*
X171141742Y-68264508D01*
X170989472Y-68389472D01*
X170958155Y-68427632D01*
X167027637Y-72358151D01*
X166989472Y-72389472D01*
X166864508Y-72541742D01*
X166798888Y-72664509D01*
X166771651Y-72715466D01*
X166754950Y-72770522D01*
X166646606Y-72681607D01*
X166507628Y-72607321D01*
X166356827Y-72561576D01*
X166200000Y-72546130D01*
X165500000Y-72546130D01*
X165343173Y-72561576D01*
X165192372Y-72607321D01*
X165053394Y-72681607D01*
X164931578Y-72781578D01*
X164900000Y-72820056D01*
X164868422Y-72781578D01*
X164746606Y-72681607D01*
X164607628Y-72607321D01*
X164456827Y-72561576D01*
X164300000Y-72546130D01*
X163600000Y-72546130D01*
X163443173Y-72561576D01*
X163292372Y-72607321D01*
X163153394Y-72681607D01*
X163096587Y-72728227D01*
X163010517Y-72670717D01*
X162737534Y-72557644D01*
X162447737Y-72500000D01*
X162152263Y-72500000D01*
X161862466Y-72557644D01*
X161589483Y-72670717D01*
X161343806Y-72834874D01*
X161134874Y-73043806D01*
X160970717Y-73289483D01*
X160857644Y-73562466D01*
X160800000Y-73852263D01*
X160800000Y-74147737D01*
X160857644Y-74437534D01*
X160970717Y-74710517D01*
X161134874Y-74956194D01*
X161343806Y-75165126D01*
X161589483Y-75329283D01*
X161862466Y-75442356D01*
X162152263Y-75500000D01*
X162447737Y-75500000D01*
X162700001Y-75449822D01*
X162700000Y-76560704D01*
X162696130Y-76600000D01*
X162696130Y-78100000D01*
X162699962Y-78138904D01*
X162231000Y-78142000D01*
X162054000Y-78319000D01*
X162054000Y-78846130D01*
X161946000Y-78846130D01*
X161946000Y-78319000D01*
X161769000Y-78142000D01*
X161250000Y-78138574D01*
X161111208Y-78152244D01*
X160977749Y-78192728D01*
X160854753Y-78258471D01*
X160746946Y-78346946D01*
X160658471Y-78454753D01*
X160650823Y-78469062D01*
X160638424Y-78343173D01*
X160592679Y-78192372D01*
X160518393Y-78053394D01*
X160418422Y-77931578D01*
X160307434Y-77840493D01*
X160353054Y-77803054D01*
X160441529Y-77695247D01*
X160507272Y-77572251D01*
X160547756Y-77438792D01*
X160561426Y-77300000D01*
X160558000Y-77181000D01*
X160381000Y-77004000D01*
X159254000Y-77004000D01*
X159254000Y-77024000D01*
X159146000Y-77024000D01*
X159146000Y-77004000D01*
X158019000Y-77004000D01*
X157842000Y-77181000D01*
X157838574Y-77300000D01*
X157852244Y-77438792D01*
X157892728Y-77572251D01*
X157958471Y-77695247D01*
X158046946Y-77803054D01*
X158092566Y-77840493D01*
X157981578Y-77931578D01*
X157881607Y-78053394D01*
X157807321Y-78192372D01*
X157761576Y-78343173D01*
X157746130Y-78500000D01*
X157746130Y-79200000D01*
X157761576Y-79356827D01*
X157807321Y-79507628D01*
X157881607Y-79646606D01*
X157884392Y-79650000D01*
X157764214Y-79650000D01*
X156900000Y-78785788D01*
X156900000Y-76600000D01*
X157838574Y-76600000D01*
X157842000Y-76719000D01*
X158019000Y-76896000D01*
X159146000Y-76896000D01*
X159146000Y-76069000D01*
X159254000Y-76069000D01*
X159254000Y-76896000D01*
X160381000Y-76896000D01*
X160558000Y-76719000D01*
X160561426Y-76600000D01*
X160547756Y-76461208D01*
X160507272Y-76327749D01*
X160441529Y-76204753D01*
X160353054Y-76096946D01*
X160245247Y-76008471D01*
X160122251Y-75942728D01*
X159988792Y-75902244D01*
X159850000Y-75888574D01*
X159431000Y-75892000D01*
X159254000Y-76069000D01*
X159146000Y-76069000D01*
X158969000Y-75892000D01*
X158550000Y-75888574D01*
X158411208Y-75902244D01*
X158277749Y-75942728D01*
X158154753Y-76008471D01*
X158046946Y-76096946D01*
X157958471Y-76204753D01*
X157892728Y-76327749D01*
X157852244Y-76461208D01*
X157838574Y-76600000D01*
X156900000Y-76600000D01*
X156900000Y-74849109D01*
X156904837Y-74799999D01*
X156900000Y-74750889D01*
X156900000Y-74750880D01*
X156885530Y-74603966D01*
X156828349Y-74415465D01*
X156735492Y-74241742D01*
X156610528Y-74089472D01*
X156572374Y-74058160D01*
X154541849Y-72027637D01*
X154510528Y-71989472D01*
X154358258Y-71864508D01*
X154184535Y-71771651D01*
X153996034Y-71714470D01*
X153849120Y-71700000D01*
X153800000Y-71695162D01*
X153750880Y-71700000D01*
X141012619Y-71700000D01*
X140972988Y-71678817D01*
X140765637Y-71615917D01*
X140549999Y-71594678D01*
X140334362Y-71615917D01*
X140127011Y-71678817D01*
X139935915Y-71780958D01*
X139810391Y-71883974D01*
X135339401Y-76354965D01*
X135265126Y-76243806D01*
X135056194Y-76034874D01*
X134810517Y-75870717D01*
X134537534Y-75757644D01*
X134247737Y-75700000D01*
X133952263Y-75700000D01*
X133662466Y-75757644D01*
X133389483Y-75870717D01*
X133143806Y-76034874D01*
X133078680Y-76100000D01*
X129954033Y-76100000D01*
X129899999Y-76094678D01*
X129845965Y-76100000D01*
X129845964Y-76100000D01*
X129684362Y-76115916D01*
X129477012Y-76178816D01*
X129285916Y-76280958D01*
X129118419Y-76418419D01*
X129083971Y-76460394D01*
X128154366Y-77390000D01*
X121429845Y-77390000D01*
X121398151Y-77342567D01*
X121235690Y-77180106D01*
X121251083Y-77164713D01*
X121125940Y-77039570D01*
X121419539Y-76954608D01*
X121580449Y-76659135D01*
X121680623Y-76337947D01*
X121716212Y-76003388D01*
X121685847Y-75668314D01*
X121590697Y-75345603D01*
X121434416Y-75047655D01*
X121419539Y-75025392D01*
X121125938Y-74940429D01*
X120076368Y-75990000D01*
X120090510Y-76004142D01*
X120014142Y-76080510D01*
X120000000Y-76066368D01*
X119985858Y-76080510D01*
X119909490Y-76004142D01*
X119923632Y-75990000D01*
X118874062Y-74940429D01*
X118580461Y-75025392D01*
X118419551Y-75320865D01*
X118319377Y-75642053D01*
X118283788Y-75976612D01*
X118314153Y-76311686D01*
X118409303Y-76634397D01*
X118565584Y-76932345D01*
X118580461Y-76954608D01*
X118874060Y-77039570D01*
X118748917Y-77164713D01*
X118764310Y-77180106D01*
X118601849Y-77342567D01*
X118404861Y-77637380D01*
X118269173Y-77964959D01*
X118200000Y-78312716D01*
X118200000Y-78667284D01*
X118269173Y-79015041D01*
X118404861Y-79342620D01*
X118601849Y-79637433D01*
X118704416Y-79740000D01*
X118601849Y-79842567D01*
X118404861Y-80137380D01*
X118269173Y-80464959D01*
X118200000Y-80812716D01*
X118200000Y-81167284D01*
X118266181Y-81500000D01*
X116875000Y-81500000D01*
X116875000Y-74615938D01*
X118950429Y-74615938D01*
X118986330Y-74740000D01*
X118950429Y-74864062D01*
X120000000Y-75913632D01*
X121049571Y-74864062D01*
X121013670Y-74740000D01*
X121049571Y-74615938D01*
X120000000Y-73566368D01*
X118950429Y-74615938D01*
X116875000Y-74615938D01*
X116875000Y-73476612D01*
X118283788Y-73476612D01*
X118314153Y-73811686D01*
X118409303Y-74134397D01*
X118565584Y-74432345D01*
X118580461Y-74454608D01*
X118874062Y-74539571D01*
X119923632Y-73490000D01*
X120076368Y-73490000D01*
X121125938Y-74539571D01*
X121419539Y-74454608D01*
X121580449Y-74159135D01*
X121680623Y-73837947D01*
X121716212Y-73503388D01*
X121685847Y-73168314D01*
X121590697Y-72845603D01*
X121434416Y-72547655D01*
X121419539Y-72525392D01*
X121125938Y-72440429D01*
X120076368Y-73490000D01*
X119923632Y-73490000D01*
X118874062Y-72440429D01*
X118580461Y-72525392D01*
X118419551Y-72820865D01*
X118319377Y-73142053D01*
X118283788Y-73476612D01*
X116875000Y-73476612D01*
X116875000Y-72364062D01*
X118950429Y-72364062D01*
X120000000Y-73413632D01*
X121049571Y-72364062D01*
X120964608Y-72070461D01*
X120669135Y-71909551D01*
X120347947Y-71809377D01*
X120013388Y-71773788D01*
X119678314Y-71804153D01*
X119355603Y-71899303D01*
X119057655Y-72055584D01*
X119035392Y-72070461D01*
X118950429Y-72364062D01*
X116875000Y-72364062D01*
X116875000Y-64900000D01*
X184285788Y-64900000D01*
X181085788Y-68100000D01*
G36*
X153300001Y-75914214D02*
G01*
X153300000Y-77485787D01*
X152777632Y-78008156D01*
X152739473Y-78039472D01*
X152614509Y-78191742D01*
X152593773Y-78230536D01*
X152531578Y-78281578D01*
X152500000Y-78320056D01*
X152468422Y-78281578D01*
X152346606Y-78181607D01*
X152207628Y-78107321D01*
X152056827Y-78061576D01*
X151900000Y-78046130D01*
X151200000Y-78046130D01*
X151043173Y-78061576D01*
X150892372Y-78107321D01*
X150753394Y-78181607D01*
X150631578Y-78281578D01*
X150531607Y-78403394D01*
X150479970Y-78500000D01*
X150191389Y-78500000D01*
X150163762Y-78485233D01*
X150084910Y-78461314D01*
X149942371Y-78287629D01*
X149744961Y-78125619D01*
X149866591Y-78026733D01*
X150061433Y-77791533D01*
X150206646Y-77522841D01*
X150296650Y-77230982D01*
X150299446Y-77216914D01*
X150149944Y-76974000D01*
X148824000Y-76974000D01*
X148824000Y-76994000D01*
X148716000Y-76994000D01*
X148716000Y-76974000D01*
X148696000Y-76974000D01*
X148696000Y-76866000D01*
X148716000Y-76866000D01*
X148716000Y-76846000D01*
X148824000Y-76846000D01*
X148824000Y-76866000D01*
X150149944Y-76866000D01*
X150299446Y-76623086D01*
X150296650Y-76609018D01*
X150206646Y-76317159D01*
X150061433Y-76048467D01*
X149866591Y-75813267D01*
X149629607Y-75620598D01*
X149359589Y-75477865D01*
X149066914Y-75390552D01*
X148824002Y-75539933D01*
X148824002Y-75490211D01*
X149014213Y-75300000D01*
X152685788Y-75300000D01*
X153300001Y-75914214D01*
X153300001Y-75914214D01*
G37*
X153300001Y-75914214D02*
X153300000Y-77485787D01*
X152777632Y-78008156D01*
X152739473Y-78039472D01*
X152614509Y-78191742D01*
X152593773Y-78230536D01*
X152531578Y-78281578D01*
X152500000Y-78320056D01*
X152468422Y-78281578D01*
X152346606Y-78181607D01*
X152207628Y-78107321D01*
X152056827Y-78061576D01*
X151900000Y-78046130D01*
X151200000Y-78046130D01*
X151043173Y-78061576D01*
X150892372Y-78107321D01*
X150753394Y-78181607D01*
X150631578Y-78281578D01*
X150531607Y-78403394D01*
X150479970Y-78500000D01*
X150191389Y-78500000D01*
X150163762Y-78485233D01*
X150084910Y-78461314D01*
X149942371Y-78287629D01*
X149744961Y-78125619D01*
X149866591Y-78026733D01*
X150061433Y-77791533D01*
X150206646Y-77522841D01*
X150296650Y-77230982D01*
X150299446Y-77216914D01*
X150149944Y-76974000D01*
X148824000Y-76974000D01*
X148824000Y-76994000D01*
X148716000Y-76994000D01*
X148716000Y-76974000D01*
X148696000Y-76974000D01*
X148696000Y-76866000D01*
X148716000Y-76866000D01*
X148716000Y-76846000D01*
X148824000Y-76846000D01*
X148824000Y-76866000D01*
X150149944Y-76866000D01*
X150299446Y-76623086D01*
X150296650Y-76609018D01*
X150206646Y-76317159D01*
X150061433Y-76048467D01*
X149866591Y-75813267D01*
X149629607Y-75620598D01*
X149359589Y-75477865D01*
X149066914Y-75390552D01*
X148824002Y-75539933D01*
X148824002Y-75490211D01*
X149014213Y-75300000D01*
X152685788Y-75300000D01*
X153300001Y-75914214D01*
M02*
