M48
; DRILL file {KiCad (5.1.2)-1} date 09.12.2019 15:18:43
; FORMAT={-:-/ absolute / inch / decimal}
; #@! TF.CreationDate,2019-12-09T15:18:43+03:00
; #@! TF.GenerationSoftware,Kicad,Pcbnew,(5.1.2)-1
FMAT,2
INCH
T1C0.0236
T2C0.0315
T3C0.0390
T4C0.0394
T5C0.0472
T6C0.0512
T7C0.0709
T8C0.1378
%
G90
G05
T1
X5.2795Y-3.0394
X5.4882Y-3.1024
X5.5591Y-4.3307
X5.5591Y-4.4094
X5.5591Y-4.4882
X5.5906Y-4.0157
X5.5906Y-4.0945
X5.5906Y-4.1732
X5.5906Y-4.252
X5.6063Y-3.9291
X5.6496Y-4.4291
X5.6496Y-4.5276
X5.6654Y-3.8701
X5.689Y-4.2638
X5.689Y-4.3465
X5.7283Y-4.4291
X5.7283Y-4.5276
X5.8268Y-4.5276
X5.9055Y-4.5079
X5.9843Y-4.5079
X5.9882Y-3.4291
X5.9921Y-2.9803
X6.0197Y-3.6969
X6.063Y-4.5079
X6.1024Y-3.6969
X6.1024Y-4.2205
X6.1063Y-3.2283
X6.1102Y-4.315
X6.1417Y-4.5276
X6.1693Y-3.2638
X6.1811Y-3.6969
X6.2047Y-2.9134
X6.2205Y-4.5276
X6.2677Y-3.3228
X6.2992Y-4.4882
X6.3071Y-3.4646
X6.3189Y-3.7008
X6.3898Y-2.9134
X6.3898Y-4.4685
X6.4055Y-3.4764
X6.4094Y-3.7283
X6.4685Y-3.8031
X6.4685Y-3.8898
X6.4685Y-3.9764
X6.4685Y-4.0709
X6.4803Y-4.4685
X6.4843Y-3.4921
X6.5591Y-3.2323
X6.748Y-3.5
X6.7992Y-2.9764
X6.8583Y-3.2638
X7.1024Y-2.6102
T2
X5.1563Y-4.6252
X5.1563Y-5.2252
X5.3563Y-4.6252
X5.3563Y-5.2252
X5.9563Y-4.6252
X5.9563Y-5.2252
X6.0563Y-4.6252
X6.0563Y-5.2252
T3
X7.7362Y-2.1949
X7.7362Y-2.372
T4
X7.378Y-4.622
X7.378Y-4.8268
X7.4803Y-4.7244
X7.5827Y-4.622
X7.5827Y-4.8268
X5.7571Y-3.0283
X5.7571Y-3.1283
X5.7571Y-3.2283
X5.7571Y-3.3283
X5.7571Y-3.4283
X5.8571Y-3.0283
X5.8571Y-3.1283
X5.8571Y-3.2283
X5.8571Y-3.3283
X5.8571Y-3.4283
X7.6102Y-4.1811
X7.7102Y-4.1811
X7.3764Y-4.9921
X7.4764Y-4.9921
X6.174Y-1.9764
X6.274Y-1.9764
X6.374Y-1.9764
T5
X4.7244Y-2.8933
X4.7244Y-2.9917
X4.7244Y-3.0902
X4.7244Y-3.1886
X4.7244Y-3.287
X4.7244Y-3.3854
X4.7244Y-3.4839
X4.7244Y-3.5827
T6
X7.6382Y-2.1457
X7.6382Y-2.4217
T7
X6.378Y-5.0
X7.2047Y-5.0
T8
X5.8268Y-2.6969
X5.8268Y-3.7598
X7.6378Y-1.9094
X7.6378Y-5.1772
X7.7165Y-2.6969
X7.7165Y-3.7598
T0
M30
