G04 #@! TF.GenerationSoftware,KiCad,Pcbnew,(5.1.2)-1*
G04 #@! TF.CreationDate,2019-12-09T15:06:57+03:00*
G04 #@! TF.ProjectId,DAC_board,4441435f-626f-4617-9264-2e6b69636164,rev?*
G04 #@! TF.SameCoordinates,Original*
G04 #@! TF.FileFunction,Copper,L2,Bot*
G04 #@! TF.FilePolarity,Positive*
%FSLAX46Y46*%
G04 Gerber Fmt 4.6, Leading zero omitted, Abs format (unit mm)*
G04 Created by KiCad (PCBNEW (5.1.2)-1) date 2019-12-09 15:06:57*
%MOMM*%
%LPD*%
G04 APERTURE LIST*
%ADD10C,4.000000*%
%ADD11C,1.600000*%
%ADD12R,1.600000X1.600000*%
%ADD13R,1.000000X1.250000*%
%ADD14R,1.250000X1.000000*%
%ADD15R,0.700000X1.300000*%
%ADD16R,1.300000X0.700000*%
%ADD17R,1.450000X0.450000*%
%ADD18R,1.500000X0.600000*%
%ADD19R,3.800000X2.000000*%
%ADD20R,1.500000X2.000000*%
%ADD21C,2.000000*%
%ADD22R,2.000000X2.000000*%
%ADD23C,1.400000*%
%ADD24C,0.600000*%
%ADD25C,0.400000*%
%ADD26C,0.500000*%
%ADD27C,2.000000*%
%ADD28C,0.300000*%
G04 APERTURE END LIST*
D10*
X191220000Y-71370000D03*
X191220000Y-118470000D03*
D11*
X192640000Y-110155000D03*
X192640000Y-107385000D03*
X192640000Y-104615000D03*
X192640000Y-101845000D03*
X192640000Y-99075000D03*
X192640000Y-96305000D03*
X192640000Y-93535000D03*
X192640000Y-90765000D03*
X192640000Y-87995000D03*
X192640000Y-85225000D03*
X192640000Y-82455000D03*
X192640000Y-79685000D03*
X189800000Y-111540000D03*
X189800000Y-108770000D03*
X189800000Y-106000000D03*
X189800000Y-103230000D03*
X189800000Y-100460000D03*
X189800000Y-97690000D03*
X189800000Y-94920000D03*
X189800000Y-92150000D03*
X189800000Y-89380000D03*
X189800000Y-86610000D03*
X189800000Y-83840000D03*
X189800000Y-81070000D03*
D12*
X189800000Y-78300000D03*
D13*
X170400000Y-52400000D03*
X168400000Y-52400000D03*
X170500000Y-67300000D03*
X168500000Y-67300000D03*
X170600000Y-82100000D03*
X168600000Y-82100000D03*
X170600000Y-96800000D03*
X168600000Y-96800000D03*
X170600000Y-111400000D03*
X168600000Y-111400000D03*
X170600000Y-126000000D03*
X168600000Y-126000000D03*
X146700000Y-61400000D03*
X144700000Y-61400000D03*
X145550000Y-90700000D03*
X143550000Y-90700000D03*
X145950000Y-119400000D03*
X143950000Y-119400000D03*
X166500000Y-52400000D03*
X164500000Y-52400000D03*
X166600000Y-67300000D03*
X164600000Y-67300000D03*
X166600000Y-82100000D03*
X164600000Y-82100000D03*
X166700000Y-96800000D03*
X164700000Y-96800000D03*
X166700000Y-111400000D03*
X164700000Y-111400000D03*
X166500000Y-126000000D03*
X164500000Y-126000000D03*
D14*
X142600000Y-72600000D03*
X142600000Y-70600000D03*
D13*
X143250000Y-100950000D03*
X141250000Y-100950000D03*
X142850000Y-129750000D03*
X140850000Y-129750000D03*
X127850000Y-69800000D03*
X129850000Y-69800000D03*
X127900000Y-72750000D03*
X129900000Y-72750000D03*
D15*
X172650000Y-57800000D03*
X174550000Y-57800000D03*
X172750000Y-60400000D03*
X174650000Y-60400000D03*
D16*
X178600000Y-55950000D03*
X178600000Y-57850000D03*
X173600000Y-53950000D03*
X173600000Y-55850000D03*
X178600000Y-62350000D03*
X178600000Y-60450000D03*
X173600000Y-64250000D03*
X173600000Y-62350000D03*
D15*
X162250000Y-60400000D03*
X160350000Y-60400000D03*
X161350000Y-57800000D03*
X159450000Y-57800000D03*
D16*
X162100000Y-64450000D03*
X162100000Y-62550000D03*
X162100000Y-53650000D03*
X162100000Y-55550000D03*
D15*
X172550000Y-72700000D03*
X174450000Y-72700000D03*
X172550000Y-75300000D03*
X174450000Y-75300000D03*
D16*
X178600000Y-70550000D03*
X178600000Y-72450000D03*
X173000000Y-68650000D03*
X173000000Y-70550000D03*
X178600000Y-77450000D03*
X178600000Y-75550000D03*
X173000000Y-79450000D03*
X173000000Y-77550000D03*
D15*
X162250000Y-75300000D03*
X160350000Y-75300000D03*
X161250000Y-72800000D03*
X159350000Y-72800000D03*
D16*
X161800000Y-79450000D03*
X161800000Y-77550000D03*
X161900000Y-68850000D03*
X161900000Y-70750000D03*
D15*
X172750000Y-87200000D03*
X174650000Y-87200000D03*
X172750000Y-89700000D03*
X174650000Y-89700000D03*
D16*
X178500000Y-84050000D03*
X178500000Y-85950000D03*
X173300000Y-83150000D03*
X173300000Y-85050000D03*
X178500000Y-90450000D03*
X178500000Y-88550000D03*
X173300000Y-93750000D03*
X173300000Y-91850000D03*
D15*
X162250000Y-89800000D03*
X160350000Y-89800000D03*
X161250000Y-87300000D03*
X159350000Y-87300000D03*
D16*
X162000000Y-93650000D03*
X162000000Y-91750000D03*
X161700000Y-83250000D03*
X161700000Y-85150000D03*
D15*
X172550000Y-101900000D03*
X174450000Y-101900000D03*
X172550000Y-104400000D03*
X174450000Y-104400000D03*
X175150000Y-99500000D03*
X177050000Y-99500000D03*
D16*
X173100000Y-98050000D03*
X173100000Y-99950000D03*
D15*
X175150000Y-106800000D03*
X177050000Y-106800000D03*
D16*
X173100000Y-108250000D03*
X173100000Y-106350000D03*
D15*
X162650000Y-104300000D03*
X160750000Y-104300000D03*
X161650000Y-101900000D03*
X159750000Y-101900000D03*
D16*
X162200000Y-108250000D03*
X162200000Y-106350000D03*
X162200000Y-97850000D03*
X162200000Y-99750000D03*
D15*
X172725000Y-116400000D03*
X174625000Y-116400000D03*
X172750000Y-119000000D03*
X174650000Y-119000000D03*
D16*
X178400000Y-114350000D03*
X178400000Y-116250000D03*
X173200000Y-112400000D03*
X173200000Y-114300000D03*
X178400000Y-120850000D03*
X178400000Y-118950000D03*
X173275000Y-122850000D03*
X173275000Y-120950000D03*
D15*
X162575000Y-119000000D03*
X160675000Y-119000000D03*
X161550000Y-116500000D03*
X159650000Y-116500000D03*
D16*
X162125000Y-122875000D03*
X162125000Y-120975000D03*
X161900000Y-112550000D03*
X161900000Y-114450000D03*
D15*
X172675000Y-131025000D03*
X174575000Y-131025000D03*
X172675000Y-133575000D03*
X174575000Y-133575000D03*
D16*
X178375000Y-129025000D03*
X178375000Y-130925000D03*
X172925000Y-127100000D03*
X172925000Y-129000000D03*
X178375000Y-135550000D03*
X178375000Y-133650000D03*
X172975000Y-137450000D03*
X172975000Y-135550000D03*
D15*
X162375000Y-133600000D03*
X160475000Y-133600000D03*
X161425000Y-131025000D03*
X159525000Y-131025000D03*
D16*
X162075000Y-137425000D03*
X162075000Y-135525000D03*
X162075000Y-127225000D03*
X162075000Y-129125000D03*
D17*
X151375000Y-63350000D03*
X151375000Y-64000000D03*
X151375000Y-64650000D03*
X151375000Y-65300000D03*
X151375000Y-65950000D03*
X151375000Y-66600000D03*
X151375000Y-67250000D03*
X151375000Y-67900000D03*
X151375000Y-68550000D03*
X151375000Y-69200000D03*
X145475000Y-69200000D03*
X145475000Y-68550000D03*
X145475000Y-67900000D03*
X145475000Y-67250000D03*
X145475000Y-66600000D03*
X145475000Y-65950000D03*
X145475000Y-65300000D03*
X145475000Y-64650000D03*
X145475000Y-64000000D03*
X145475000Y-63350000D03*
X151375000Y-93025000D03*
X151375000Y-93675000D03*
X151375000Y-94325000D03*
X151375000Y-94975000D03*
X151375000Y-95625000D03*
X151375000Y-96275000D03*
X151375000Y-96925000D03*
X151375000Y-97575000D03*
X151375000Y-98225000D03*
X151375000Y-98875000D03*
X145475000Y-98875000D03*
X145475000Y-98225000D03*
X145475000Y-97575000D03*
X145475000Y-96925000D03*
X145475000Y-96275000D03*
X145475000Y-95625000D03*
X145475000Y-94975000D03*
X145475000Y-94325000D03*
X145475000Y-93675000D03*
X145475000Y-93025000D03*
X151050000Y-121975000D03*
X151050000Y-122625000D03*
X151050000Y-123275000D03*
X151050000Y-123925000D03*
X151050000Y-124575000D03*
X151050000Y-125225000D03*
X151050000Y-125875000D03*
X151050000Y-126525000D03*
X151050000Y-127175000D03*
X151050000Y-127825000D03*
X145150000Y-127825000D03*
X145150000Y-127175000D03*
X145150000Y-126525000D03*
X145150000Y-125875000D03*
X145150000Y-125225000D03*
X145150000Y-124575000D03*
X145150000Y-123925000D03*
X145150000Y-123275000D03*
X145150000Y-122625000D03*
X145150000Y-121975000D03*
D18*
X170200000Y-55290000D03*
X170200000Y-56560000D03*
X170200000Y-57830000D03*
X170200000Y-59100000D03*
X170200000Y-60370000D03*
X170200000Y-61640000D03*
X170200000Y-62910000D03*
X164800000Y-62910000D03*
X164800000Y-61640000D03*
X164800000Y-60370000D03*
X164800000Y-59100000D03*
X164800000Y-57830000D03*
X164800000Y-56560000D03*
X164800000Y-55290000D03*
X170200000Y-70190000D03*
X170200000Y-71460000D03*
X170200000Y-72730000D03*
X170200000Y-74000000D03*
X170200000Y-75270000D03*
X170200000Y-76540000D03*
X170200000Y-77810000D03*
X164800000Y-77810000D03*
X164800000Y-76540000D03*
X164800000Y-75270000D03*
X164800000Y-74000000D03*
X164800000Y-72730000D03*
X164800000Y-71460000D03*
X164800000Y-70190000D03*
X170200000Y-84690000D03*
X170200000Y-85960000D03*
X170200000Y-87230000D03*
X170200000Y-88500000D03*
X170200000Y-89770000D03*
X170200000Y-91040000D03*
X170200000Y-92310000D03*
X164800000Y-92310000D03*
X164800000Y-91040000D03*
X164800000Y-89770000D03*
X164800000Y-88500000D03*
X164800000Y-87230000D03*
X164800000Y-85960000D03*
X164800000Y-84690000D03*
X170300000Y-99290000D03*
X170300000Y-100560000D03*
X170300000Y-101830000D03*
X170300000Y-103100000D03*
X170300000Y-104370000D03*
X170300000Y-105640000D03*
X170300000Y-106910000D03*
X164900000Y-106910000D03*
X164900000Y-105640000D03*
X164900000Y-104370000D03*
X164900000Y-103100000D03*
X164900000Y-101830000D03*
X164900000Y-100560000D03*
X164900000Y-99290000D03*
X170300000Y-113890000D03*
X170300000Y-115160000D03*
X170300000Y-116430000D03*
X170300000Y-117700000D03*
X170300000Y-118970000D03*
X170300000Y-120240000D03*
X170300000Y-121510000D03*
X164900000Y-121510000D03*
X164900000Y-120240000D03*
X164900000Y-118970000D03*
X164900000Y-117700000D03*
X164900000Y-116430000D03*
X164900000Y-115160000D03*
X164900000Y-113890000D03*
X170200000Y-128490000D03*
X170200000Y-129760000D03*
X170200000Y-131030000D03*
X170200000Y-132300000D03*
X170200000Y-133570000D03*
X170200000Y-134840000D03*
X170200000Y-136110000D03*
X164800000Y-136110000D03*
X164800000Y-134840000D03*
X164800000Y-133570000D03*
X164800000Y-132300000D03*
X164800000Y-131030000D03*
X164800000Y-129760000D03*
X164800000Y-128490000D03*
D19*
X127700000Y-60150000D03*
D20*
X127700000Y-66450000D03*
X125400000Y-66450000D03*
X130000000Y-66450000D03*
D21*
X118000000Y-85490000D03*
X118000000Y-87990000D03*
X118000000Y-90490000D03*
X118000000Y-92990000D03*
X118000000Y-95490000D03*
X118000000Y-97990000D03*
X118000000Y-100490000D03*
D22*
X118000000Y-103000000D03*
D23*
X153400000Y-53400000D03*
X142600000Y-68700000D03*
X148500000Y-74850000D03*
X148600000Y-61300000D03*
X167400000Y-50700000D03*
X132100000Y-71400000D03*
X142000000Y-121200000D03*
X142850000Y-127200000D03*
X142400000Y-92700000D03*
X142400000Y-98250000D03*
X155500000Y-77500000D03*
X154000000Y-81500000D03*
X137200000Y-60100000D03*
X151400000Y-71000000D03*
X145600000Y-71100000D03*
X151400000Y-100650000D03*
X145900000Y-101500000D03*
X152000000Y-56900000D03*
X125100000Y-100500000D03*
X126900000Y-93000000D03*
X145400000Y-130100000D03*
X140600000Y-74100000D03*
X144050000Y-103400000D03*
X125900000Y-97700000D03*
X175500000Y-65700000D03*
X164325000Y-64925000D03*
X175900000Y-80300000D03*
X164600000Y-79700000D03*
X164400000Y-94200000D03*
X176300000Y-93600000D03*
X172800000Y-110100000D03*
X164500000Y-108700000D03*
X164500000Y-123400000D03*
X176300000Y-123600000D03*
X158000000Y-55000000D03*
X171000000Y-65300000D03*
X170300000Y-79800000D03*
X157700000Y-69600000D03*
X157700000Y-83800000D03*
X172400000Y-95400000D03*
X176000000Y-110800000D03*
X158100000Y-98600000D03*
X158100000Y-112500000D03*
X175400000Y-125600000D03*
X182200000Y-137200000D03*
X158200000Y-127000000D03*
X162200000Y-51900000D03*
X176300000Y-57800000D03*
X156700000Y-56500000D03*
X176300000Y-60400000D03*
X180300000Y-87400000D03*
X176000000Y-97400000D03*
X178400000Y-132300000D03*
X178400000Y-117600000D03*
X178600000Y-73900000D03*
X178600000Y-59100000D03*
X160000000Y-62600000D03*
X159900000Y-55000000D03*
X140700000Y-103300000D03*
X138050000Y-95600000D03*
X140700000Y-95550000D03*
X138050000Y-97650000D03*
X159900000Y-66500000D03*
X176200000Y-72700000D03*
X157500000Y-67800000D03*
X176200000Y-75300000D03*
X159600000Y-77600000D03*
X159700000Y-69600000D03*
X176500000Y-87200000D03*
X154400000Y-83900000D03*
X176400000Y-89700000D03*
X156400000Y-85200000D03*
X159900000Y-92000000D03*
X159600000Y-83900000D03*
X176100000Y-101900000D03*
X159800000Y-95700000D03*
X176100000Y-104400000D03*
X157300000Y-97000000D03*
X160100000Y-106400000D03*
X160000000Y-98600000D03*
X176300000Y-116400000D03*
X159200000Y-109800000D03*
X176300000Y-119000000D03*
X156700000Y-113700000D03*
X159900000Y-121000000D03*
X159900000Y-112600000D03*
X176300000Y-131100000D03*
X159000000Y-124000000D03*
X176300000Y-133600000D03*
X156900000Y-125600000D03*
X159900000Y-135700000D03*
X160000000Y-127100000D03*
X143100000Y-80000000D03*
X125900000Y-95500000D03*
D24*
X128800000Y-74950000D02*
X133700000Y-74950000D01*
X127900000Y-72750000D02*
X127900000Y-74050000D01*
X127900000Y-74050000D02*
X128800000Y-74950000D01*
X133600000Y-75000000D02*
X133700000Y-75000000D01*
X133650000Y-75000000D02*
X133600000Y-75000000D01*
X133700000Y-74950000D02*
X133650000Y-75000000D01*
X121510000Y-87990000D02*
X130410000Y-87990000D01*
X130410000Y-87990000D02*
X133700000Y-84700000D01*
X133700000Y-84700000D02*
X133700000Y-75000000D01*
X135850000Y-64850000D02*
X145000000Y-55700000D01*
X133700000Y-75000000D02*
X133700000Y-67000000D01*
X133700000Y-67000000D02*
X135850000Y-64850000D01*
X145000000Y-55700000D02*
X151150000Y-55700000D01*
X121510000Y-87990000D02*
X121500000Y-88000000D01*
D25*
X153700000Y-53100000D02*
X153750000Y-53100000D01*
X153400000Y-53400000D02*
X153700000Y-53100000D01*
D24*
X125400000Y-66450000D02*
X125400000Y-72150000D01*
X126000000Y-72750000D02*
X127900000Y-72750000D01*
X125400000Y-72150000D02*
X126000000Y-72750000D01*
X170400000Y-52400000D02*
X170400000Y-51200000D01*
X170400000Y-51200000D02*
X168600000Y-49400000D01*
X168600000Y-49400000D02*
X157450000Y-49400000D01*
X157450000Y-49400000D02*
X153750000Y-53100000D01*
X153750000Y-53100000D02*
X151150000Y-55700000D01*
D25*
X151150000Y-55700000D02*
X151100000Y-55750000D01*
X170600000Y-126000000D02*
X170600000Y-126900000D01*
X168800000Y-132300000D02*
X170200000Y-132300000D01*
X168800000Y-132300000D02*
X168800000Y-132300000D01*
X168800000Y-127500000D02*
X168800000Y-132300000D01*
X169000000Y-127300000D02*
X168800000Y-127500000D01*
X170200000Y-127300000D02*
X169000000Y-127300000D01*
X170600000Y-126900000D02*
X170200000Y-127300000D01*
X168700000Y-123000000D02*
X168700000Y-124400000D01*
X168700000Y-117700000D02*
X168700000Y-123000000D01*
X170600000Y-124900000D02*
X170600000Y-126000000D01*
X170400000Y-124700000D02*
X170600000Y-124900000D01*
X169000000Y-124700000D02*
X170400000Y-124700000D01*
X168700000Y-124400000D02*
X169000000Y-124700000D01*
X170600000Y-111400000D02*
X170600000Y-112300000D01*
X170100000Y-112800000D02*
X169200000Y-112800000D01*
X169200000Y-112800000D02*
X168700000Y-113300000D01*
X168700000Y-113300000D02*
X168700000Y-117700000D01*
X168700000Y-117700000D02*
X170300000Y-117700000D01*
X170600000Y-112300000D02*
X170100000Y-112800000D01*
X168700000Y-103100000D02*
X168700000Y-109400000D01*
X170600000Y-110400000D02*
X170600000Y-111400000D01*
X170200000Y-110000000D02*
X170600000Y-110400000D01*
X169300000Y-110000000D02*
X170200000Y-110000000D01*
X168700000Y-109400000D02*
X169300000Y-110000000D01*
X169100000Y-98200000D02*
X169100000Y-98200000D01*
X170100000Y-98200000D02*
X169100000Y-98200000D01*
X170600000Y-97700000D02*
X170100000Y-98200000D01*
X168700000Y-103100000D02*
X170300000Y-103100000D01*
X168700000Y-98600000D02*
X168700000Y-103100000D01*
X169100000Y-98200000D02*
X168700000Y-98600000D01*
X170600000Y-96800000D02*
X170600000Y-97700000D01*
X168700000Y-88400000D02*
X168700000Y-94800000D01*
X170600000Y-95800000D02*
X170600000Y-96800000D01*
X170300000Y-95500000D02*
X170600000Y-95800000D01*
X169400000Y-95500000D02*
X170300000Y-95500000D01*
X168700000Y-94800000D02*
X169400000Y-95500000D01*
X170600000Y-82100000D02*
X170600000Y-83000000D01*
X168700000Y-84000000D02*
X168700000Y-88400000D01*
X168700000Y-88400000D02*
X168700000Y-88500000D01*
X168700000Y-88500000D02*
X170200000Y-88500000D01*
X169200000Y-83500000D02*
X168700000Y-84000000D01*
X170100000Y-83500000D02*
X169200000Y-83500000D01*
X170600000Y-83000000D02*
X170100000Y-83500000D01*
X170400000Y-82100000D02*
X170400000Y-82400000D01*
X168500000Y-73700000D02*
X168500000Y-79900000D01*
X168500000Y-79900000D02*
X170400000Y-81800000D01*
X170400000Y-81800000D02*
X170400000Y-82100000D01*
X168600000Y-59000000D02*
X168600000Y-64700000D01*
X170500000Y-66600000D02*
X170500000Y-67300000D01*
X168600000Y-64700000D02*
X170500000Y-66600000D01*
X170500000Y-67300000D02*
X170500000Y-67700000D01*
X170500000Y-67700000D02*
X168500000Y-69700000D01*
X168500000Y-69700000D02*
X168500000Y-73700000D01*
X168500000Y-73700000D02*
X168500000Y-73800000D01*
X168500000Y-73800000D02*
X168700000Y-74000000D01*
X168700000Y-74000000D02*
X170200000Y-74000000D01*
X170400000Y-52400000D02*
X170400000Y-53500000D01*
X168700000Y-59100000D02*
X170200000Y-59100000D01*
X168600000Y-59000000D02*
X168700000Y-59100000D01*
X168600000Y-54400000D02*
X168600000Y-59000000D01*
X169100000Y-53900000D02*
X168600000Y-54400000D01*
X170000000Y-53900000D02*
X169100000Y-53900000D01*
X170400000Y-53500000D02*
X170000000Y-53900000D01*
D24*
X121510000Y-87990000D02*
X118010000Y-87990000D01*
D25*
X142600000Y-70600000D02*
X142600000Y-68700000D01*
D26*
X143900000Y-68550000D02*
X142750000Y-68550000D01*
X142750000Y-68550000D02*
X142600000Y-68700000D01*
D25*
X144700000Y-61400000D02*
X144700000Y-60100000D01*
X144700000Y-60100000D02*
X144900000Y-59900000D01*
X144900000Y-59900000D02*
X147600000Y-59900000D01*
X147600000Y-59900000D02*
X148600000Y-60900000D01*
X148600000Y-60900000D02*
X148600000Y-61300000D01*
X145475000Y-64000000D02*
X144000000Y-64000000D01*
X143700000Y-62400000D02*
X144700000Y-61400000D01*
X143700000Y-63700000D02*
X143700000Y-62400000D01*
X144000000Y-64000000D02*
X143700000Y-63700000D01*
X148400000Y-63800000D02*
X148400000Y-61500000D01*
X148500000Y-74850000D02*
X148400000Y-74750000D01*
X148400000Y-63800000D02*
X148400000Y-74750000D01*
X148400000Y-61500000D02*
X148600000Y-61300000D01*
D24*
X167400000Y-52400000D02*
X167400000Y-50700000D01*
X132000000Y-71300000D02*
X129850000Y-71300000D01*
X132100000Y-71400000D02*
X132000000Y-71300000D01*
X129850000Y-69800000D02*
X129850000Y-71300000D01*
X129850000Y-71300000D02*
X129850000Y-72700000D01*
X129850000Y-72700000D02*
X129900000Y-72750000D01*
X130000000Y-66450000D02*
X130000000Y-69650000D01*
D25*
X130000000Y-69650000D02*
X129850000Y-69800000D01*
X140850000Y-129750000D02*
X140850000Y-127800000D01*
X141450000Y-127200000D02*
X142850000Y-127200000D01*
X140850000Y-127800000D02*
X141450000Y-127200000D01*
X141250000Y-100950000D02*
X141250000Y-99400000D01*
X141250000Y-99400000D02*
X142400000Y-98250000D01*
X145150000Y-127175000D02*
X142875000Y-127175000D01*
X142000000Y-121200000D02*
X143150000Y-121200000D01*
X142875000Y-127175000D02*
X142850000Y-127200000D01*
X143150000Y-121200000D02*
X143000000Y-121200000D01*
X143000000Y-121200000D02*
X143150000Y-121200000D01*
X145475000Y-98225000D02*
X142425000Y-98225000D01*
X142425000Y-98225000D02*
X142400000Y-98250000D01*
X142400000Y-92700000D02*
X143550000Y-92700000D01*
X143550000Y-92700000D02*
X143450000Y-92700000D01*
X143450000Y-92700000D02*
X143550000Y-92700000D01*
X145475000Y-67900000D02*
X143900000Y-67900000D01*
X143900000Y-68550000D02*
X145475000Y-68550000D01*
X143750000Y-68400000D02*
X143900000Y-68550000D01*
X143750000Y-68050000D02*
X143750000Y-68400000D01*
X143900000Y-67900000D02*
X143750000Y-68050000D01*
X145150000Y-122625000D02*
X143725000Y-122625000D01*
X143150000Y-120200000D02*
X143950000Y-119400000D01*
X143150000Y-122050000D02*
X143150000Y-121200000D01*
X143150000Y-121200000D02*
X143150000Y-120200000D01*
X143725000Y-122625000D02*
X143150000Y-122050000D01*
X145475000Y-93675000D02*
X143775000Y-93675000D01*
X143550000Y-93450000D02*
X143550000Y-92700000D01*
X143550000Y-92700000D02*
X143550000Y-90700000D01*
X143775000Y-93675000D02*
X143550000Y-93450000D01*
X167600000Y-111400000D02*
X167600000Y-126000000D01*
X167600000Y-126000000D02*
X167600000Y-125900000D01*
X167600000Y-125900000D02*
X167600000Y-126000000D01*
X168800000Y-126000000D02*
X167800000Y-126000000D01*
X167800000Y-126000000D02*
X167600000Y-126000000D01*
X167600000Y-126000000D02*
X166600000Y-126000000D01*
X167600000Y-96600000D02*
X167600000Y-111400000D01*
X167500000Y-111300000D02*
X167500000Y-111400000D01*
X167600000Y-111400000D02*
X167500000Y-111300000D01*
X166700000Y-111400000D02*
X167500000Y-111400000D01*
X167500000Y-111400000D02*
X168600000Y-111400000D01*
X167600000Y-82000000D02*
X167600000Y-96600000D01*
X167600000Y-96600000D02*
X167600000Y-96800000D01*
X167600000Y-96800000D02*
X167600000Y-96700000D01*
X167600000Y-96700000D02*
X167600000Y-96800000D01*
X166700000Y-96800000D02*
X167600000Y-96800000D01*
X167600000Y-96800000D02*
X168600000Y-96800000D01*
X167600000Y-67300000D02*
X167600000Y-82000000D01*
X167600000Y-82000000D02*
X167500000Y-82100000D01*
X166500000Y-82100000D02*
X167500000Y-82100000D01*
X167500000Y-82100000D02*
X168400000Y-82100000D01*
X167400000Y-52400000D02*
X167400000Y-67100000D01*
X167400000Y-67100000D02*
X167600000Y-67300000D01*
X166600000Y-67300000D02*
X167600000Y-67300000D01*
X167600000Y-67300000D02*
X168500000Y-67300000D01*
X166500000Y-52400000D02*
X167400000Y-52400000D01*
X167400000Y-52400000D02*
X168400000Y-52400000D01*
D24*
X155500000Y-80000000D02*
X154000000Y-81500000D01*
X155500000Y-77500000D02*
X155500000Y-80000000D01*
X127700000Y-60150000D02*
X137150000Y-60150000D01*
X137150000Y-60150000D02*
X137200000Y-60100000D01*
D25*
X147100000Y-63750000D02*
X147100000Y-61800000D01*
X147100000Y-61800000D02*
X146700000Y-61400000D01*
X151375000Y-70975000D02*
X151400000Y-71000000D01*
X151375000Y-70975000D02*
X151375000Y-69200000D01*
X145600000Y-71100000D02*
X145700000Y-71000000D01*
X145700000Y-71000000D02*
X147100000Y-71000000D01*
D24*
X128150000Y-60150000D02*
X127700000Y-60150000D01*
X127700000Y-66450000D02*
X127700000Y-69650000D01*
D25*
X127700000Y-69650000D02*
X127850000Y-69800000D01*
X145550000Y-90700000D02*
X147150000Y-90700000D01*
X147150000Y-90700000D02*
X147100000Y-90700000D01*
X147100000Y-90700000D02*
X147150000Y-90700000D01*
X145950000Y-119400000D02*
X146850000Y-119400000D01*
X146850000Y-119400000D02*
X147150000Y-119100000D01*
X145150000Y-121975000D02*
X147150000Y-121975000D01*
X147000000Y-122000000D02*
X147150000Y-122000000D01*
X147125000Y-122000000D02*
X147000000Y-122000000D01*
X147150000Y-121975000D02*
X147125000Y-122000000D01*
X151375000Y-98875000D02*
X151375000Y-100625000D01*
X151375000Y-100625000D02*
X151400000Y-100650000D01*
X145900000Y-101500000D02*
X147150000Y-101500000D01*
X147150000Y-101500000D02*
X147100000Y-101500000D01*
X147100000Y-101500000D02*
X147150000Y-101500000D01*
X145475000Y-65300000D02*
X147100000Y-65300000D01*
X145475000Y-64650000D02*
X147100000Y-64650000D01*
X145475000Y-93025000D02*
X147150000Y-93025000D01*
X147100000Y-93000000D02*
X147150000Y-93000000D01*
X147125000Y-93000000D02*
X147100000Y-93000000D01*
X147150000Y-93025000D02*
X147125000Y-93000000D01*
X145475000Y-94975000D02*
X147150000Y-94975000D01*
X147100000Y-95000000D02*
X147150000Y-95000000D01*
X147125000Y-95000000D02*
X147100000Y-95000000D01*
X147150000Y-94975000D02*
X147125000Y-95000000D01*
X145475000Y-94325000D02*
X147150000Y-94325000D01*
X147200000Y-94350000D02*
X147150000Y-94350000D01*
X147175000Y-94350000D02*
X147200000Y-94350000D01*
X147150000Y-94325000D02*
X147175000Y-94350000D01*
X145150000Y-123925000D02*
X147150000Y-123925000D01*
X147100000Y-123850000D02*
X147150000Y-123850000D01*
X147100000Y-123875000D02*
X147100000Y-123850000D01*
X147150000Y-123925000D02*
X147100000Y-123875000D01*
X145150000Y-123275000D02*
X147150000Y-123275000D01*
X147100000Y-123250000D02*
X147150000Y-123250000D01*
X147125000Y-123250000D02*
X147100000Y-123250000D01*
X147150000Y-123275000D02*
X147125000Y-123250000D01*
X151050000Y-127825000D02*
X147625000Y-127825000D01*
X147150000Y-127350000D02*
X147150000Y-126400000D01*
X147625000Y-127825000D02*
X147150000Y-127350000D01*
X145475000Y-63350000D02*
X146700000Y-63350000D01*
X147025000Y-126525000D02*
X145150000Y-126525000D01*
X147150000Y-126400000D02*
X147025000Y-126525000D01*
X147150000Y-83150000D02*
X147150000Y-90700000D01*
X147150000Y-90700000D02*
X147150000Y-93000000D01*
X147150000Y-93000000D02*
X147150000Y-94350000D01*
X147150000Y-94350000D02*
X147150000Y-95000000D01*
X147150000Y-95000000D02*
X147150000Y-101500000D01*
X147150000Y-101500000D02*
X147150000Y-119100000D01*
X147150000Y-119100000D02*
X147150000Y-122000000D01*
X147150000Y-122000000D02*
X147150000Y-123250000D01*
X147150000Y-123250000D02*
X147150000Y-123850000D01*
X147150000Y-123850000D02*
X147150000Y-126400000D01*
X145950000Y-81950000D02*
X147150000Y-83150000D01*
X142800000Y-81950000D02*
X145950000Y-81950000D01*
X141650000Y-80800000D02*
X142800000Y-81950000D01*
X141650000Y-79350000D02*
X141650000Y-80800000D01*
X142700000Y-78300000D02*
X141650000Y-79350000D01*
X146300000Y-78300000D02*
X142700000Y-78300000D01*
X147100000Y-77500000D02*
X146300000Y-78300000D01*
X147100000Y-63750000D02*
X147100000Y-64650000D01*
X147100000Y-64650000D02*
X147100000Y-65300000D01*
X147100000Y-65300000D02*
X147100000Y-71000000D01*
X147100000Y-71000000D02*
X147100000Y-71850000D01*
X147100000Y-71850000D02*
X147100000Y-77500000D01*
X146700000Y-63350000D02*
X147100000Y-63750000D01*
D24*
X144200000Y-58100000D02*
X145400000Y-56900000D01*
X145400000Y-56900000D02*
X152000000Y-56900000D01*
X135000000Y-67350000D02*
X144200000Y-58150000D01*
X144200000Y-58150000D02*
X144200000Y-58100000D01*
X135000000Y-85600000D02*
X135000000Y-67350000D01*
X130125000Y-90475000D02*
X135000000Y-85600000D01*
D25*
X121025000Y-90475000D02*
X121000000Y-90500000D01*
D24*
X164500000Y-52000000D02*
X163000000Y-50500000D01*
X152000000Y-56900000D02*
X158400000Y-50500000D01*
X158400000Y-50500000D02*
X158950000Y-50500000D01*
X163000000Y-50500000D02*
X158950000Y-50500000D01*
D25*
X164500000Y-52400000D02*
X164500000Y-52000000D01*
X164500000Y-126000000D02*
X164500000Y-127000000D01*
X166300000Y-132300000D02*
X164700000Y-132300000D01*
X166200000Y-132400000D02*
X166300000Y-132300000D01*
X166200000Y-127800000D02*
X166200000Y-132400000D01*
X165800000Y-127400000D02*
X166200000Y-127800000D01*
X164900000Y-127400000D02*
X165800000Y-127400000D01*
X164500000Y-127000000D02*
X164900000Y-127400000D01*
X166500000Y-123100000D02*
X166500000Y-124300000D01*
X166500000Y-117700000D02*
X166500000Y-123100000D01*
X164500000Y-125000000D02*
X164500000Y-126000000D01*
X164800000Y-124700000D02*
X164500000Y-125000000D01*
X166100000Y-124700000D02*
X164800000Y-124700000D01*
X166500000Y-124300000D02*
X166100000Y-124700000D01*
X164900000Y-117700000D02*
X166500000Y-117700000D01*
X164700000Y-112400000D02*
X165100000Y-112800000D01*
X165100000Y-112800000D02*
X166100000Y-112800000D01*
X166100000Y-112800000D02*
X166500000Y-113200000D01*
X166500000Y-113200000D02*
X166500000Y-117700000D01*
X164700000Y-112400000D02*
X164700000Y-111400000D01*
X166500000Y-103000000D02*
X166500000Y-109400000D01*
X164700000Y-110300000D02*
X164700000Y-111400000D01*
X165100000Y-109900000D02*
X164700000Y-110300000D01*
X166000000Y-109900000D02*
X165100000Y-109900000D01*
X166500000Y-109400000D02*
X166000000Y-109900000D01*
X164700000Y-96800000D02*
X164700000Y-97700000D01*
X166400000Y-103100000D02*
X164900000Y-103100000D01*
X166500000Y-103000000D02*
X166400000Y-103100000D01*
X166500000Y-98600000D02*
X166500000Y-103000000D01*
X166100000Y-98200000D02*
X166500000Y-98600000D01*
X165200000Y-98200000D02*
X166100000Y-98200000D01*
X164700000Y-97700000D02*
X165200000Y-98200000D01*
X166400000Y-88500000D02*
X166400000Y-94700000D01*
X164700000Y-95700000D02*
X164700000Y-96800000D01*
X165000000Y-95400000D02*
X164700000Y-95700000D01*
X165700000Y-95400000D02*
X165000000Y-95400000D01*
X166400000Y-94700000D02*
X165700000Y-95400000D01*
X164600000Y-82100000D02*
X164600000Y-81400000D01*
X166600000Y-79700000D02*
X166600000Y-73600000D01*
X165500000Y-80800000D02*
X166600000Y-79700000D01*
X165200000Y-80800000D02*
X165500000Y-80800000D01*
X164600000Y-81400000D02*
X165200000Y-80800000D01*
X164600000Y-82100000D02*
X164600000Y-82900000D01*
X166400000Y-84000000D02*
X166400000Y-88500000D01*
X166400000Y-88500000D02*
X166400000Y-88600000D01*
X166400000Y-88600000D02*
X166300000Y-88500000D01*
X166300000Y-88500000D02*
X164800000Y-88500000D01*
X165900000Y-83500000D02*
X166400000Y-84000000D01*
X165200000Y-83500000D02*
X165900000Y-83500000D01*
X164600000Y-82900000D02*
X165200000Y-83500000D01*
X164500000Y-82100000D02*
X164500000Y-82300000D01*
X164500000Y-81800000D02*
X164500000Y-82100000D01*
X166400000Y-59000000D02*
X166400000Y-64800000D01*
X164600000Y-66600000D02*
X164600000Y-67300000D01*
X166400000Y-64800000D02*
X164600000Y-66600000D01*
X164600000Y-67300000D02*
X164600000Y-67600000D01*
X164600000Y-67600000D02*
X166600000Y-69600000D01*
X166600000Y-69600000D02*
X166600000Y-73600000D01*
X166600000Y-73600000D02*
X166200000Y-74000000D01*
X166200000Y-74000000D02*
X164800000Y-74000000D01*
X164500000Y-52400000D02*
X164500000Y-53500000D01*
X166300000Y-59100000D02*
X164800000Y-59100000D01*
X166400000Y-59000000D02*
X166300000Y-59100000D01*
X166400000Y-54200000D02*
X166400000Y-59000000D01*
X166100000Y-53900000D02*
X166400000Y-54200000D01*
X164900000Y-53900000D02*
X166100000Y-53900000D01*
X164500000Y-53500000D02*
X164900000Y-53900000D01*
D24*
X121525000Y-90475000D02*
X118175000Y-90475000D01*
X121525000Y-90475000D02*
X130125000Y-90475000D01*
X121025000Y-90475000D02*
X121525000Y-90475000D01*
X121000000Y-100500000D02*
X125100000Y-100500000D01*
D27*
X118010000Y-100500000D02*
X118000000Y-100490000D01*
X118000000Y-100490000D02*
X118000000Y-103000000D01*
D24*
X121000000Y-100500000D02*
X117900000Y-100500000D01*
D27*
X118010000Y-93000000D02*
X118000000Y-92990000D01*
D24*
X126900000Y-93000000D02*
X121600000Y-93000000D01*
X121600000Y-93000000D02*
X118000000Y-93000000D01*
D26*
X143725000Y-128525000D02*
X143825000Y-128525000D01*
X143825000Y-128525000D02*
X145400000Y-130100000D01*
D25*
X142600000Y-72600000D02*
X142600000Y-73600000D01*
X142100000Y-74100000D02*
X140600000Y-74100000D01*
X142600000Y-73600000D02*
X142100000Y-74100000D01*
X142600000Y-72600000D02*
X143800000Y-72600000D01*
X144400000Y-69200000D02*
X145475000Y-69200000D01*
X144000000Y-69600000D02*
X144400000Y-69200000D01*
X144000000Y-72400000D02*
X144000000Y-69600000D01*
X143800000Y-72600000D02*
X144000000Y-72400000D01*
X144050000Y-103400000D02*
X143250000Y-102600000D01*
X143250000Y-102600000D02*
X143250000Y-100950000D01*
X145150000Y-127825000D02*
X144425000Y-127825000D01*
X144425000Y-127825000D02*
X143725000Y-128525000D01*
X143725000Y-128525000D02*
X142850000Y-129400000D01*
X142850000Y-129400000D02*
X142850000Y-129750000D01*
X145475000Y-98875000D02*
X144675000Y-98875000D01*
X143250000Y-100300000D02*
X143250000Y-100950000D01*
X144675000Y-98875000D02*
X143250000Y-100300000D01*
D24*
X124800000Y-97700000D02*
X124600000Y-97900000D01*
X124600000Y-97900000D02*
X120700000Y-97900000D01*
X124800000Y-97700000D02*
X125900000Y-97700000D01*
D27*
X118090000Y-97900000D02*
X118000000Y-97990000D01*
D24*
X120700000Y-97900000D02*
X118100000Y-97900000D01*
D25*
X173600000Y-53950000D02*
X174850000Y-53950000D01*
X184000000Y-65500000D02*
X184000000Y-74800000D01*
X180400000Y-61900000D02*
X184000000Y-65500000D01*
X180400000Y-55100000D02*
X180400000Y-61900000D01*
X179800000Y-54500000D02*
X180400000Y-55100000D01*
X175400000Y-54500000D02*
X179800000Y-54500000D01*
X174850000Y-53950000D02*
X175400000Y-54500000D01*
X170200000Y-55290000D02*
X171310000Y-55290000D01*
X172650000Y-53950000D02*
X173600000Y-53950000D01*
X171310000Y-55290000D02*
X172650000Y-53950000D01*
X184000000Y-74800000D02*
X184000000Y-75100000D01*
X184000000Y-75100000D02*
X187200000Y-78300000D01*
X187200000Y-78300000D02*
X189900000Y-78300000D01*
X164800000Y-62910000D02*
X163890000Y-62910000D01*
X163500000Y-63300000D02*
X163500000Y-64450000D01*
X163890000Y-62910000D02*
X163500000Y-63300000D01*
X162100000Y-64450000D02*
X163500000Y-64450000D01*
X163500000Y-64450000D02*
X163850000Y-64450000D01*
X163850000Y-64450000D02*
X164325000Y-64925000D01*
X162100000Y-64450000D02*
X162550000Y-64450000D01*
X175600000Y-65600000D02*
X175500000Y-65700000D01*
X180700000Y-65600000D02*
X175600000Y-65600000D01*
X188668630Y-81070000D02*
X188638630Y-81100000D01*
X189800000Y-81070000D02*
X188668630Y-81070000D01*
X188638630Y-81100000D02*
X187000000Y-81100000D01*
X187000000Y-81100000D02*
X182200000Y-76300000D01*
X182200000Y-76300000D02*
X182200000Y-67100000D01*
X182200000Y-67100000D02*
X180700000Y-65600000D01*
X173000000Y-68650000D02*
X179350000Y-68650000D01*
X180300000Y-69600000D02*
X180300000Y-77300000D01*
X179350000Y-68650000D02*
X180300000Y-69600000D01*
X170200000Y-70190000D02*
X170710000Y-70190000D01*
X170710000Y-70190000D02*
X172250000Y-68650000D01*
X172250000Y-68650000D02*
X173000000Y-68650000D01*
X186970000Y-83840000D02*
X186960000Y-83850000D01*
X189800000Y-83840000D02*
X186970000Y-83840000D01*
X186840000Y-83840000D02*
X180300000Y-77300000D01*
X186970000Y-83840000D02*
X186840000Y-83840000D01*
X176100000Y-80100000D02*
X179700000Y-80100000D01*
X175900000Y-80300000D02*
X176100000Y-80100000D01*
X163350000Y-79450000D02*
X164350000Y-79450000D01*
X164350000Y-79450000D02*
X164600000Y-79700000D01*
X164800000Y-77810000D02*
X163690000Y-77810000D01*
X163350000Y-79450000D02*
X161800000Y-79450000D01*
X163400000Y-79400000D02*
X163350000Y-79450000D01*
X163400000Y-78100000D02*
X163400000Y-79400000D01*
X163690000Y-77810000D02*
X163400000Y-78100000D01*
X188668630Y-86610000D02*
X189800000Y-86610000D01*
X188658630Y-86600000D02*
X188668630Y-86610000D01*
X186350000Y-86600000D02*
X188658630Y-86600000D01*
X179700000Y-80100000D02*
X179850000Y-80100000D01*
X179850000Y-80100000D02*
X186350000Y-86600000D01*
X174350000Y-83150000D02*
X174900000Y-82600000D01*
X174900000Y-82600000D02*
X179600000Y-82600000D01*
X174350000Y-83150000D02*
X173300000Y-83150000D01*
X170200000Y-84690000D02*
X170710000Y-84690000D01*
X170710000Y-84690000D02*
X172250000Y-83150000D01*
X172250000Y-83150000D02*
X173300000Y-83150000D01*
D28*
X188638630Y-89350000D02*
X186250000Y-89350000D01*
X188668630Y-89380000D02*
X188638630Y-89350000D01*
X189800000Y-89380000D02*
X188668630Y-89380000D01*
D25*
X186250000Y-89250000D02*
X179600000Y-82600000D01*
X186250000Y-89350000D02*
X186250000Y-89250000D01*
D28*
X164400000Y-94200000D02*
X163300000Y-93100000D01*
D25*
X162000000Y-93650000D02*
X162750000Y-93650000D01*
X162750000Y-93650000D02*
X163300000Y-93100000D01*
X163300000Y-93100000D02*
X164090000Y-92310000D01*
X164090000Y-92310000D02*
X164800000Y-92310000D01*
X180300000Y-93600000D02*
X176300000Y-93600000D01*
X181750000Y-92150000D02*
X180300000Y-93600000D01*
X189800000Y-92150000D02*
X181750000Y-92150000D01*
X173100000Y-98050000D02*
X173100000Y-97100000D01*
X174100000Y-96100000D02*
X181200000Y-96100000D01*
X173100000Y-97100000D02*
X174100000Y-96100000D01*
X170300000Y-99290000D02*
X171010000Y-99290000D01*
X171010000Y-99290000D02*
X172250000Y-98050000D01*
X172250000Y-98050000D02*
X173100000Y-98050000D01*
X182380000Y-94920000D02*
X181200000Y-96100000D01*
X189800000Y-94920000D02*
X182380000Y-94920000D01*
X162200000Y-108250000D02*
X162850000Y-108250000D01*
X162850000Y-108250000D02*
X163400000Y-107700000D01*
X163400000Y-107700000D02*
X164190000Y-106910000D01*
X164190000Y-106910000D02*
X164900000Y-106910000D01*
X172800000Y-110100000D02*
X173700000Y-109200000D01*
X173700000Y-109200000D02*
X178300000Y-109200000D01*
X178300000Y-109200000D02*
X179200000Y-108300000D01*
D28*
X163500000Y-107700000D02*
X164500000Y-108700000D01*
X163500000Y-107700000D02*
X163400000Y-107700000D01*
D25*
X179200000Y-108300000D02*
X179200000Y-101000000D01*
X182510000Y-97690000D02*
X179200000Y-101000000D01*
X189800000Y-97690000D02*
X182510000Y-97690000D01*
X173200000Y-112400000D02*
X177800000Y-112400000D01*
X180800000Y-109400000D02*
X180800000Y-102700000D01*
X177800000Y-112400000D02*
X180800000Y-109400000D01*
X170300000Y-113890000D02*
X170910000Y-113890000D01*
X170910000Y-113890000D02*
X172400000Y-112400000D01*
X172400000Y-112400000D02*
X173200000Y-112400000D01*
X183040000Y-100460000D02*
X180800000Y-102700000D01*
X189800000Y-100460000D02*
X183040000Y-100460000D01*
X163500000Y-122100000D02*
X163500000Y-122400000D01*
X163500000Y-122400000D02*
X164500000Y-123400000D01*
X176300000Y-123600000D02*
X176300000Y-123600000D01*
X176300000Y-123600000D02*
X179300000Y-123600000D01*
X179300000Y-123600000D02*
X180900000Y-122000000D01*
X180900000Y-122000000D02*
X180900000Y-112200000D01*
X180900000Y-112200000D02*
X182400000Y-110700000D01*
X182400000Y-110700000D02*
X182400000Y-104500000D01*
X162125000Y-122875000D02*
X162725000Y-122875000D01*
X162725000Y-122875000D02*
X163500000Y-122100000D01*
X163500000Y-122100000D02*
X164090000Y-121510000D01*
X164090000Y-121510000D02*
X164900000Y-121510000D01*
X183670000Y-103230000D02*
X182400000Y-104500000D01*
X189800000Y-103230000D02*
X183670000Y-103230000D01*
X172925000Y-127100000D02*
X174000000Y-127100000D01*
X184000000Y-111400000D02*
X184000000Y-107000000D01*
X182700000Y-112700000D02*
X184000000Y-111400000D01*
X182700000Y-122800000D02*
X182700000Y-112700000D01*
X178400000Y-127100000D02*
X182700000Y-122800000D01*
X174000000Y-127100000D02*
X178400000Y-127100000D01*
X174000000Y-127100000D02*
X174000000Y-127100000D01*
X170200000Y-128490000D02*
X170610000Y-128490000D01*
X170610000Y-128490000D02*
X172000000Y-127100000D01*
X172000000Y-127100000D02*
X172925000Y-127100000D01*
X185000000Y-106000000D02*
X184000000Y-107000000D01*
X189800000Y-106000000D02*
X185000000Y-106000000D01*
X178800000Y-138600000D02*
X170100000Y-138600000D01*
X178800000Y-138600000D02*
X181000000Y-136400000D01*
X184500000Y-113200000D02*
X185700000Y-112000000D01*
X184500000Y-123500000D02*
X184500000Y-113200000D01*
X181000000Y-127000000D02*
X184500000Y-123500000D01*
X181000000Y-136400000D02*
X181000000Y-127000000D01*
X166400000Y-139900000D02*
X163350000Y-136850000D01*
X168800000Y-139900000D02*
X166400000Y-139900000D01*
X170100000Y-138600000D02*
X168800000Y-139900000D01*
X164800000Y-136110000D02*
X165510000Y-136110000D01*
X162075000Y-137425000D02*
X162775000Y-137425000D01*
X162775000Y-137425000D02*
X163350000Y-136850000D01*
X163350000Y-136850000D02*
X164090000Y-136110000D01*
X164090000Y-136110000D02*
X164800000Y-136110000D01*
X189800000Y-108770000D02*
X185980000Y-108770000D01*
X185700000Y-109050000D02*
X185700000Y-112000000D01*
X185980000Y-108770000D02*
X185700000Y-109050000D01*
X170200000Y-62910000D02*
X170810000Y-62910000D01*
X170810000Y-62910000D02*
X172150000Y-64250000D01*
X172150000Y-64250000D02*
X173600000Y-64250000D01*
D28*
X192640000Y-79685000D02*
X187465000Y-79685000D01*
D25*
X187185000Y-79685000D02*
X187465000Y-79685000D01*
X183100000Y-75600000D02*
X187185000Y-79685000D01*
X183100000Y-66400000D02*
X183100000Y-75600000D01*
X173600000Y-64250000D02*
X180950000Y-64250000D01*
X180950000Y-64250000D02*
X183100000Y-66400000D01*
X158000000Y-55000000D02*
X158000000Y-54700000D01*
X159050000Y-53650000D02*
X162100000Y-53650000D01*
X158000000Y-54700000D02*
X159050000Y-53650000D01*
X171000000Y-65300000D02*
X171900000Y-65300000D01*
X173700000Y-67100000D02*
X180300000Y-67100000D01*
X180300000Y-67100000D02*
X181300000Y-68100000D01*
X181300000Y-68100000D02*
X181300000Y-76800000D01*
X171900000Y-65300000D02*
X173700000Y-67100000D01*
X171000000Y-65300000D02*
X171100000Y-65400000D01*
X164800000Y-55290000D02*
X163890000Y-55290000D01*
X163890000Y-55290000D02*
X163500000Y-54900000D01*
X163500000Y-54900000D02*
X163500000Y-54200000D01*
X163500000Y-54200000D02*
X162950000Y-53650000D01*
X162950000Y-53650000D02*
X162100000Y-53650000D01*
X164800000Y-55290000D02*
X164690000Y-55290000D01*
D28*
X187105000Y-82455000D02*
X187100000Y-82450000D01*
X192640000Y-82455000D02*
X187105000Y-82455000D01*
D25*
X186955000Y-82455000D02*
X181300000Y-76800000D01*
X187105000Y-82455000D02*
X186955000Y-82455000D01*
X170200000Y-77810000D02*
X170910000Y-77810000D01*
X170910000Y-77810000D02*
X172550000Y-79450000D01*
X172550000Y-79450000D02*
X173000000Y-79450000D01*
D28*
X192640000Y-85225000D02*
X186775000Y-85225000D01*
D25*
X174850000Y-79450000D02*
X173000000Y-79450000D01*
X175500000Y-78800000D02*
X174850000Y-79450000D01*
X180250000Y-78800000D02*
X175500000Y-78800000D01*
X186775000Y-85225000D02*
X186675000Y-85225000D01*
X186675000Y-85225000D02*
X180250000Y-78800000D01*
X171300000Y-79800000D02*
X173100000Y-81600000D01*
X173100000Y-81600000D02*
X179900000Y-81600000D01*
X161050000Y-68850000D02*
X161900000Y-68850000D01*
X159000000Y-68300000D02*
X157700000Y-69600000D01*
X160500000Y-68300000D02*
X159000000Y-68300000D01*
X161050000Y-68850000D02*
X160500000Y-68300000D01*
X170300000Y-79800000D02*
X171300000Y-79800000D01*
X161900000Y-68850000D02*
X162850000Y-68850000D01*
X163890000Y-70190000D02*
X164800000Y-70190000D01*
X163500000Y-69800000D02*
X163890000Y-70190000D01*
X163500000Y-69500000D02*
X163500000Y-69800000D01*
X162850000Y-68850000D02*
X163500000Y-69500000D01*
D28*
X186355000Y-87995000D02*
X186350000Y-88000000D01*
X192640000Y-87995000D02*
X186355000Y-87995000D01*
D25*
X186295000Y-87995000D02*
X179900000Y-81600000D01*
X186355000Y-87995000D02*
X186295000Y-87995000D01*
X170200000Y-92310000D02*
X170710000Y-92310000D01*
X170710000Y-92310000D02*
X172150000Y-93750000D01*
X172150000Y-93750000D02*
X173300000Y-93750000D01*
D28*
X191508630Y-90765000D02*
X191493630Y-90750000D01*
X192640000Y-90765000D02*
X191508630Y-90765000D01*
X191493630Y-90750000D02*
X186850000Y-90750000D01*
D25*
X175900000Y-92100000D02*
X180200000Y-92100000D01*
X173300000Y-93750000D02*
X174250000Y-93750000D01*
X174250000Y-93750000D02*
X175900000Y-92100000D01*
X181550000Y-90750000D02*
X180200000Y-92100000D01*
X186850000Y-90750000D02*
X181550000Y-90750000D01*
X161150000Y-83250000D02*
X160400000Y-82500000D01*
X159000000Y-82500000D02*
X157700000Y-83800000D01*
X160400000Y-82500000D02*
X159000000Y-82500000D01*
X161700000Y-83250000D02*
X161150000Y-83250000D01*
X164800000Y-84690000D02*
X164090000Y-84690000D01*
X164090000Y-84690000D02*
X162650000Y-83250000D01*
X162650000Y-83250000D02*
X161700000Y-83250000D01*
D28*
X192640000Y-93535000D02*
X187065000Y-93535000D01*
D25*
X172600000Y-95200000D02*
X172400000Y-95400000D01*
X180400000Y-95200000D02*
X172600000Y-95200000D01*
X187065000Y-93535000D02*
X182065000Y-93535000D01*
X182065000Y-93535000D02*
X180400000Y-95200000D01*
X173100000Y-108250000D02*
X173950000Y-108250000D01*
X178400000Y-107800000D02*
X178400000Y-100200000D01*
X177900000Y-108300000D02*
X178400000Y-107800000D01*
X173900000Y-108300000D02*
X177900000Y-108300000D01*
X173950000Y-108250000D02*
X173900000Y-108300000D01*
X170300000Y-106910000D02*
X171010000Y-106910000D01*
X171010000Y-106910000D02*
X172350000Y-108250000D01*
X172350000Y-108250000D02*
X173100000Y-108250000D01*
D28*
X191508630Y-96305000D02*
X191503630Y-96300000D01*
X192640000Y-96305000D02*
X191508630Y-96305000D01*
X191503630Y-96300000D02*
X187400000Y-96300000D01*
D25*
X181899991Y-96700009D02*
X178400000Y-100200000D01*
X186999991Y-96700009D02*
X181899991Y-96700009D01*
X187400000Y-96300000D02*
X186999991Y-96700009D01*
X176000000Y-110800000D02*
X176600000Y-110200000D01*
X176600000Y-110200000D02*
X178600000Y-110200000D01*
X178600000Y-110200000D02*
X180000000Y-108800000D01*
X160900000Y-97200000D02*
X159500000Y-97200000D01*
X159500000Y-97200000D02*
X158100000Y-98600000D01*
X161550000Y-97850000D02*
X160900000Y-97200000D01*
X180000000Y-108800000D02*
X180000000Y-101900000D01*
X162200000Y-97850000D02*
X161550000Y-97850000D01*
X164900000Y-99290000D02*
X164390000Y-99290000D01*
X164390000Y-99290000D02*
X162950000Y-97850000D01*
X162950000Y-97850000D02*
X162200000Y-97850000D01*
D28*
X192640000Y-99075000D02*
X187325000Y-99075000D01*
D25*
X182825000Y-99075000D02*
X180000000Y-101900000D01*
X187325000Y-99075000D02*
X182825000Y-99075000D01*
X174850000Y-122850000D02*
X175500000Y-122200000D01*
X175500000Y-122200000D02*
X179400000Y-122200000D01*
X179400000Y-122200000D02*
X180000000Y-121600000D01*
X180000000Y-121600000D02*
X180000000Y-111900000D01*
X180000000Y-111900000D02*
X181600000Y-110300000D01*
X181600000Y-110300000D02*
X181600000Y-103500000D01*
X174850000Y-122850000D02*
X173275000Y-122850000D01*
X170300000Y-121510000D02*
X170810000Y-121510000D01*
X170810000Y-121510000D02*
X172150000Y-122850000D01*
X172150000Y-122850000D02*
X173275000Y-122850000D01*
D28*
X192640000Y-101845000D02*
X187555000Y-101845000D01*
D25*
X183255000Y-101845000D02*
X181600000Y-103500000D01*
X187555000Y-101845000D02*
X183255000Y-101845000D01*
X161850000Y-112550000D02*
X160600000Y-111300000D01*
X159300000Y-111300000D02*
X158100000Y-112500000D01*
X160600000Y-111300000D02*
X159300000Y-111300000D01*
X175400000Y-125600000D02*
X178000000Y-125600000D01*
X181800000Y-122300000D02*
X178500000Y-125600000D01*
X178500000Y-125600000D02*
X178000000Y-125600000D01*
X181800000Y-122300000D02*
X181800000Y-112500000D01*
X181800000Y-112500000D02*
X183200000Y-111100000D01*
X183200000Y-111100000D02*
X183200000Y-105800000D01*
X178000000Y-125600000D02*
X177900000Y-125600000D01*
X161900000Y-112550000D02*
X161850000Y-112550000D01*
X164900000Y-113890000D02*
X164490000Y-113890000D01*
X164490000Y-113890000D02*
X163150000Y-112550000D01*
X163150000Y-112550000D02*
X161900000Y-112550000D01*
D28*
X192640000Y-104615000D02*
X187385000Y-104615000D01*
D25*
X184385000Y-104615000D02*
X183200000Y-105800000D01*
X187385000Y-104615000D02*
X184385000Y-104615000D01*
X174850000Y-137450000D02*
X175500000Y-136800000D01*
X175500000Y-136800000D02*
X179300000Y-136800000D01*
X179300000Y-136800000D02*
X179900000Y-136200000D01*
X179900000Y-136200000D02*
X179900000Y-126800000D01*
X179900000Y-126800000D02*
X183600000Y-123100000D01*
X183600000Y-123100000D02*
X183600000Y-112900000D01*
X183600000Y-112900000D02*
X184900000Y-111600000D01*
X184900000Y-111600000D02*
X184900000Y-108200000D01*
X184900000Y-108200000D02*
X185700000Y-107400000D01*
X185700000Y-107400000D02*
X187200000Y-107400000D01*
X174850000Y-137450000D02*
X172975000Y-137450000D01*
X170200000Y-136110000D02*
X170610000Y-136110000D01*
X170610000Y-136110000D02*
X171950000Y-137450000D01*
X171950000Y-137450000D02*
X172975000Y-137450000D01*
D28*
X187215000Y-107385000D02*
X187200000Y-107400000D01*
X192640000Y-107385000D02*
X187215000Y-107385000D01*
D25*
X185400000Y-113500000D02*
X186500000Y-112400000D01*
X186500000Y-112400000D02*
X186500000Y-110900000D01*
X186500000Y-110900000D02*
X187100000Y-110300000D01*
X162075000Y-126775000D02*
X162075000Y-127225000D01*
X185400000Y-123900000D02*
X185400000Y-114600000D01*
X182200000Y-127100000D02*
X185400000Y-123900000D01*
X182200000Y-130000000D02*
X182200000Y-127100000D01*
X182200000Y-137200000D02*
X182200000Y-130000000D01*
X159500000Y-125700000D02*
X158200000Y-127000000D01*
X161000000Y-125700000D02*
X159500000Y-125700000D01*
X162075000Y-126775000D02*
X161000000Y-125700000D01*
X185400000Y-114600000D02*
X185400000Y-113500000D01*
X164800000Y-128490000D02*
X164290000Y-128490000D01*
X164290000Y-128490000D02*
X163025000Y-127225000D01*
X163025000Y-127225000D02*
X162075000Y-127225000D01*
D28*
X187245000Y-110155000D02*
X187100000Y-110300000D01*
X192640000Y-110155000D02*
X187245000Y-110155000D01*
D25*
X170200000Y-57830000D02*
X172620000Y-57830000D01*
X172620000Y-57830000D02*
X172650000Y-57800000D01*
X162200000Y-51900000D02*
X159100000Y-51900000D01*
X174550000Y-57800000D02*
X176300000Y-57800000D01*
X152800000Y-64000000D02*
X151375000Y-64000000D01*
X153200000Y-63600000D02*
X152800000Y-64000000D01*
X153200000Y-57800000D02*
X153200000Y-63600000D01*
X159100000Y-51900000D02*
X153200000Y-57800000D01*
X170200000Y-60370000D02*
X172720000Y-60370000D01*
X172720000Y-60370000D02*
X172750000Y-60400000D01*
X156700000Y-56500000D02*
X156600000Y-56500000D01*
X174650000Y-60400000D02*
X176300000Y-60400000D01*
X153250000Y-64650000D02*
X151375000Y-64650000D01*
X154100000Y-63800000D02*
X153250000Y-64650000D01*
X154100000Y-59000000D02*
X154100000Y-63800000D01*
X156600000Y-56500000D02*
X154100000Y-59000000D01*
X173600000Y-55850000D02*
X178500000Y-55850000D01*
X178500000Y-55850000D02*
X178600000Y-55950000D01*
X178500000Y-55850000D02*
X178600000Y-55950000D01*
X170200000Y-56560000D02*
X171240000Y-56560000D01*
X171950000Y-55850000D02*
X173600000Y-55850000D01*
X171240000Y-56560000D02*
X171950000Y-55850000D01*
X178500000Y-87300000D02*
X180200000Y-87300000D01*
X180200000Y-87300000D02*
X180300000Y-87400000D01*
X178500000Y-85950000D02*
X178500000Y-87300000D01*
X178500000Y-87300000D02*
X178500000Y-88550000D01*
X177050000Y-99500000D02*
X177050000Y-98450000D01*
X177050000Y-98450000D02*
X176000000Y-97400000D01*
X177050000Y-106800000D02*
X177050000Y-105450000D01*
X177400000Y-105100000D02*
X177400000Y-99850000D01*
X177050000Y-105450000D02*
X177400000Y-105100000D01*
X177400000Y-99850000D02*
X177050000Y-99500000D01*
D26*
X178400000Y-132300000D02*
X178375000Y-132300000D01*
X178375000Y-132300000D02*
X178300000Y-132300000D01*
X178300000Y-132300000D02*
X178375000Y-132300000D01*
D25*
X178375000Y-130925000D02*
X178375000Y-132300000D01*
X178375000Y-132300000D02*
X178375000Y-133650000D01*
X178400000Y-116250000D02*
X178400000Y-117600000D01*
X178400000Y-117600000D02*
X178400000Y-118950000D01*
X178600000Y-72450000D02*
X178600000Y-73900000D01*
X178600000Y-73900000D02*
X178600000Y-75550000D01*
X178600000Y-57850000D02*
X178600000Y-59100000D01*
X178600000Y-59100000D02*
X178600000Y-60450000D01*
X173600000Y-62350000D02*
X178600000Y-62350000D01*
X170200000Y-61640000D02*
X171440000Y-61640000D01*
X172150000Y-62350000D02*
X173600000Y-62350000D01*
X171440000Y-61640000D02*
X172150000Y-62350000D01*
X164800000Y-60370000D02*
X162280000Y-60370000D01*
X162280000Y-60370000D02*
X162250000Y-60400000D01*
X160000000Y-56400000D02*
X158500000Y-56400000D01*
D28*
X160350000Y-60400000D02*
X160350000Y-56750000D01*
X160350000Y-56750000D02*
X160000000Y-56400000D01*
D25*
X153800000Y-65300000D02*
X151375000Y-65300000D01*
X155100000Y-64000000D02*
X153800000Y-65300000D01*
X155100000Y-60500000D02*
X155100000Y-64000000D01*
X158000000Y-57600000D02*
X155100000Y-60500000D01*
X158000000Y-56900000D02*
X158000000Y-57600000D01*
X158500000Y-56400000D02*
X158000000Y-56900000D01*
X164800000Y-57830000D02*
X161380000Y-57830000D01*
X161380000Y-57830000D02*
X161350000Y-57800000D01*
X159450000Y-57800000D02*
X159450000Y-57950000D01*
X159450000Y-57950000D02*
X156000000Y-61400000D01*
X156000000Y-61400000D02*
X156000000Y-64300000D01*
X156000000Y-64300000D02*
X154350000Y-65950000D01*
X154350000Y-65950000D02*
X151375000Y-65950000D01*
X160050000Y-62550000D02*
X160000000Y-62600000D01*
X160050000Y-62550000D02*
X162100000Y-62550000D01*
X162100000Y-62550000D02*
X162850000Y-62550000D01*
X162850000Y-62550000D02*
X163760000Y-61640000D01*
X163760000Y-61640000D02*
X164800000Y-61640000D01*
X162100000Y-55550000D02*
X161050000Y-55550000D01*
X160500000Y-55000000D02*
X159900000Y-55000000D01*
X161050000Y-55550000D02*
X160500000Y-55000000D01*
X164800000Y-56560000D02*
X163110000Y-56560000D01*
X163110000Y-56560000D02*
X162100000Y-55550000D01*
X140700000Y-110600000D02*
X140700000Y-122300000D01*
X140700000Y-103300000D02*
X140700000Y-110600000D01*
X143625000Y-125225000D02*
X145150000Y-125225000D01*
X140700000Y-122300000D02*
X143625000Y-125225000D01*
X141550000Y-66600000D02*
X141400000Y-66600000D01*
X145475000Y-66600000D02*
X141550000Y-66600000D01*
X138600000Y-95050000D02*
X138050000Y-95600000D01*
X138600000Y-69400000D02*
X138600000Y-95050000D01*
X141400000Y-66600000D02*
X138600000Y-69400000D01*
X145475000Y-96275000D02*
X143575000Y-96275000D01*
X138050000Y-95500000D02*
X138100000Y-95500000D01*
X138100000Y-95550000D02*
X138050000Y-95500000D01*
X138050000Y-95600000D02*
X138100000Y-95550000D01*
X142850000Y-95550000D02*
X140700000Y-95550000D01*
X143575000Y-96275000D02*
X142850000Y-95550000D01*
X139450000Y-97600000D02*
X139450000Y-122500000D01*
X142825000Y-125875000D02*
X139450000Y-122500000D01*
X142825000Y-125875000D02*
X145150000Y-125875000D01*
X138100000Y-97600000D02*
X139450000Y-97600000D01*
X138050000Y-97650000D02*
X138100000Y-97600000D01*
X145475000Y-96925000D02*
X139450000Y-96925000D01*
X139500000Y-96900000D02*
X139450000Y-96900000D01*
X139475000Y-96900000D02*
X139500000Y-96900000D01*
X139450000Y-96925000D02*
X139475000Y-96900000D01*
X141950000Y-67250000D02*
X139450000Y-69750000D01*
X139450000Y-69750000D02*
X139450000Y-96900000D01*
X139450000Y-96900000D02*
X139450000Y-97600000D01*
X141950000Y-67250000D02*
X145475000Y-67250000D01*
X170200000Y-72730000D02*
X172520000Y-72730000D01*
X172520000Y-72730000D02*
X172550000Y-72700000D01*
X159900000Y-66500000D02*
X156300000Y-66500000D01*
X174450000Y-72700000D02*
X176200000Y-72700000D01*
X156200000Y-66600000D02*
X151375000Y-66600000D01*
X156300000Y-66500000D02*
X156200000Y-66600000D01*
X170200000Y-75270000D02*
X172520000Y-75270000D01*
X172520000Y-75270000D02*
X172550000Y-75300000D01*
X157500000Y-67800000D02*
X154300000Y-67800000D01*
X174450000Y-75300000D02*
X176200000Y-75300000D01*
X153750000Y-67250000D02*
X151375000Y-67250000D01*
X154300000Y-67800000D02*
X153750000Y-67250000D01*
X170200000Y-71460000D02*
X171440000Y-71460000D01*
X171440000Y-71460000D02*
X172350000Y-70550000D01*
X172350000Y-70550000D02*
X173000000Y-70550000D01*
X173000000Y-70550000D02*
X178600000Y-70550000D01*
X170200000Y-76540000D02*
X171540000Y-76540000D01*
X171540000Y-76540000D02*
X172550000Y-77550000D01*
X172550000Y-77550000D02*
X173000000Y-77550000D01*
X173000000Y-77550000D02*
X178500000Y-77550000D01*
X178500000Y-77550000D02*
X178600000Y-77450000D01*
X164800000Y-75270000D02*
X162280000Y-75270000D01*
X162280000Y-75270000D02*
X162250000Y-75300000D01*
X153200000Y-67900000D02*
X154100000Y-68800000D01*
D28*
X160350000Y-71750000D02*
X159800000Y-71200000D01*
D25*
X159800000Y-71200000D02*
X157400000Y-71200000D01*
X151375000Y-67900000D02*
X153200000Y-67900000D01*
D28*
X160350000Y-71750000D02*
X160350000Y-75300000D01*
D25*
X156200000Y-70000000D02*
X157400000Y-71200000D01*
X156200000Y-70000000D02*
X156200000Y-70000000D01*
X155000000Y-68800000D02*
X156200000Y-70000000D01*
X154100000Y-68800000D02*
X155000000Y-68800000D01*
X164800000Y-72730000D02*
X161320000Y-72730000D01*
X161320000Y-72730000D02*
X161250000Y-72800000D01*
X159350000Y-72800000D02*
X157000000Y-72800000D01*
X152750000Y-68550000D02*
X151375000Y-68550000D01*
X157000000Y-72800000D02*
X152750000Y-68550000D01*
X164800000Y-76540000D02*
X163660000Y-76540000D01*
X162650000Y-77550000D02*
X161800000Y-77550000D01*
X163660000Y-76540000D02*
X162650000Y-77550000D01*
X161800000Y-77550000D02*
X159650000Y-77550000D01*
X159650000Y-77550000D02*
X159600000Y-77600000D01*
X159700000Y-69600000D02*
X160850000Y-70750000D01*
X160850000Y-70750000D02*
X161900000Y-70750000D01*
X164800000Y-71460000D02*
X162610000Y-71460000D01*
X162610000Y-71460000D02*
X161900000Y-70750000D01*
X170200000Y-87230000D02*
X172720000Y-87230000D01*
X172720000Y-87230000D02*
X172750000Y-87200000D01*
X153700000Y-85400000D02*
X153700000Y-92500000D01*
X153700000Y-92500000D02*
X152525000Y-93675000D01*
X151375000Y-93675000D02*
X152525000Y-93675000D01*
X176500000Y-87200000D02*
X174650000Y-87200000D01*
X153700000Y-84600000D02*
X153700000Y-85400000D01*
X154400000Y-83900000D02*
X153700000Y-84600000D01*
X170200000Y-89770000D02*
X172680000Y-89770000D01*
X172680000Y-89770000D02*
X172750000Y-89700000D01*
X174650000Y-89700000D02*
X176400000Y-89700000D01*
X156200000Y-85200000D02*
X154500000Y-86900000D01*
X154500000Y-86900000D02*
X154500000Y-92900000D01*
X154500000Y-92900000D02*
X153075000Y-94325000D01*
X153075000Y-94325000D02*
X151375000Y-94325000D01*
X156400000Y-85200000D02*
X156200000Y-85200000D01*
X173300000Y-85050000D02*
X175350000Y-85050000D01*
X176350000Y-84050000D02*
X178500000Y-84050000D01*
X175350000Y-85050000D02*
X176350000Y-84050000D01*
X170200000Y-85960000D02*
X171340000Y-85960000D01*
X172250000Y-85050000D02*
X173300000Y-85050000D01*
X171340000Y-85960000D02*
X172250000Y-85050000D01*
X173300000Y-91850000D02*
X174750000Y-91850000D01*
X177850000Y-91100000D02*
X178500000Y-90450000D01*
X175500000Y-91100000D02*
X177850000Y-91100000D01*
X174750000Y-91850000D02*
X175500000Y-91100000D01*
X170200000Y-91040000D02*
X171240000Y-91040000D01*
X172050000Y-91850000D02*
X173300000Y-91850000D01*
X171240000Y-91040000D02*
X172050000Y-91850000D01*
X164800000Y-89770000D02*
X162280000Y-89770000D01*
X162280000Y-89770000D02*
X162250000Y-89800000D01*
D28*
X160350000Y-89800000D02*
X160350000Y-86150000D01*
D25*
X153625000Y-94975000D02*
X151375000Y-94975000D01*
X155300000Y-93300000D02*
X153625000Y-94975000D01*
X155300000Y-88800000D02*
X155300000Y-93300000D01*
X158500000Y-85600000D02*
X155300000Y-88800000D01*
X159800000Y-85600000D02*
X158500000Y-85600000D01*
D28*
X160350000Y-86150000D02*
X159800000Y-85600000D01*
D25*
X161250000Y-87300000D02*
X164730000Y-87300000D01*
X164730000Y-87300000D02*
X164800000Y-87230000D01*
X159350000Y-87300000D02*
X159350000Y-88350000D01*
X154175000Y-95625000D02*
X151375000Y-95625000D01*
X156200000Y-93600000D02*
X154175000Y-95625000D01*
X156200000Y-91500000D02*
X156200000Y-93600000D01*
X159350000Y-88350000D02*
X156200000Y-91500000D01*
X162000000Y-91750000D02*
X160150000Y-91750000D01*
X160150000Y-91750000D02*
X159900000Y-92000000D01*
X162000000Y-91750000D02*
X163050000Y-91750000D01*
X163760000Y-91040000D02*
X164800000Y-91040000D01*
X163050000Y-91750000D02*
X163760000Y-91040000D01*
X161700000Y-85150000D02*
X160850000Y-85150000D01*
X160850000Y-85150000D02*
X159600000Y-83900000D01*
X164800000Y-85960000D02*
X163660000Y-85960000D01*
X162850000Y-85150000D02*
X161700000Y-85150000D01*
X163660000Y-85960000D02*
X162850000Y-85150000D01*
X170300000Y-101830000D02*
X172480000Y-101830000D01*
X172480000Y-101830000D02*
X172550000Y-101900000D01*
X174450000Y-101900000D02*
X176100000Y-101900000D01*
X155225000Y-96275000D02*
X156100000Y-95400000D01*
X156100000Y-95400000D02*
X159500000Y-95400000D01*
X159500000Y-95400000D02*
X159800000Y-95700000D01*
X155225000Y-96275000D02*
X151375000Y-96275000D01*
X170300000Y-104370000D02*
X172520000Y-104370000D01*
X172520000Y-104370000D02*
X172550000Y-104400000D01*
X174450000Y-104400000D02*
X176100000Y-104400000D01*
X157225000Y-96925000D02*
X151375000Y-96925000D01*
X157300000Y-97000000D02*
X157225000Y-96925000D01*
X173100000Y-99950000D02*
X174700000Y-99950000D01*
X174700000Y-99950000D02*
X175150000Y-99500000D01*
X170300000Y-100560000D02*
X171340000Y-100560000D01*
X171950000Y-99950000D02*
X173100000Y-99950000D01*
X171340000Y-100560000D02*
X171950000Y-99950000D01*
X173100000Y-106350000D02*
X174700000Y-106350000D01*
X174700000Y-106350000D02*
X175150000Y-106800000D01*
X170300000Y-105640000D02*
X171140000Y-105640000D01*
X171850000Y-106350000D02*
X173100000Y-106350000D01*
X171140000Y-105640000D02*
X171850000Y-106350000D01*
X164900000Y-104370000D02*
X162720000Y-104370000D01*
X162720000Y-104370000D02*
X162650000Y-104300000D01*
D28*
X160750000Y-104300000D02*
X160750000Y-100850000D01*
D25*
X153375000Y-97575000D02*
X151375000Y-97575000D01*
X156000000Y-100200000D02*
X153375000Y-97575000D01*
X160100000Y-100200000D02*
X156000000Y-100200000D01*
D28*
X160750000Y-100850000D02*
X160100000Y-100200000D01*
D25*
X164900000Y-101830000D02*
X161720000Y-101830000D01*
X161720000Y-101830000D02*
X161650000Y-101900000D01*
X159750000Y-101900000D02*
X156500000Y-101900000D01*
X152825000Y-98225000D02*
X151375000Y-98225000D01*
X156500000Y-101900000D02*
X152825000Y-98225000D01*
X160100000Y-106400000D02*
X160150000Y-106350000D01*
X160150000Y-106350000D02*
X162200000Y-106350000D01*
X162200000Y-106350000D02*
X163150000Y-106350000D01*
X163860000Y-105640000D02*
X164900000Y-105640000D01*
X163150000Y-106350000D02*
X163860000Y-105640000D01*
X160500000Y-98600000D02*
X161750000Y-99850000D01*
X160000000Y-98600000D02*
X160500000Y-98600000D01*
X161950000Y-99750000D02*
X162200000Y-99750000D01*
X162200000Y-99750000D02*
X163150000Y-99750000D01*
X163960000Y-100560000D02*
X164900000Y-100560000D01*
X163150000Y-99750000D02*
X163960000Y-100560000D01*
X172725000Y-116400000D02*
X170330000Y-116400000D01*
X170330000Y-116400000D02*
X170300000Y-116430000D01*
X174625000Y-116400000D02*
X176300000Y-116400000D01*
X152375000Y-122625000D02*
X151050000Y-122625000D01*
X153100000Y-121900000D02*
X152375000Y-122625000D01*
X153100000Y-115300000D02*
X153100000Y-121900000D01*
X158600000Y-109800000D02*
X153100000Y-115300000D01*
X159200000Y-109800000D02*
X158600000Y-109800000D01*
X170300000Y-118970000D02*
X172720000Y-118970000D01*
X172720000Y-118970000D02*
X172750000Y-119000000D01*
X156700000Y-113700000D02*
X156100000Y-113700000D01*
X174650000Y-119000000D02*
X176300000Y-119000000D01*
X152825000Y-123275000D02*
X151050000Y-123275000D01*
X154300000Y-121800000D02*
X152825000Y-123275000D01*
X154300000Y-115500000D02*
X154300000Y-121800000D01*
X156100000Y-113700000D02*
X154300000Y-115500000D01*
X173200000Y-114300000D02*
X178350000Y-114300000D01*
X178350000Y-114300000D02*
X178400000Y-114350000D01*
X170300000Y-115160000D02*
X171240000Y-115160000D01*
X172100000Y-114300000D02*
X173200000Y-114300000D01*
X171240000Y-115160000D02*
X172100000Y-114300000D01*
X173275000Y-120950000D02*
X178300000Y-120950000D01*
X178300000Y-120950000D02*
X178400000Y-120850000D01*
X170300000Y-120240000D02*
X171340000Y-120240000D01*
X172050000Y-120950000D02*
X173275000Y-120950000D01*
X171340000Y-120240000D02*
X172050000Y-120950000D01*
X164900000Y-118970000D02*
X162605000Y-118970000D01*
X162605000Y-118970000D02*
X162575000Y-119000000D01*
D28*
X160675000Y-119000000D02*
X160675000Y-117375000D01*
D25*
X153375000Y-123925000D02*
X151050000Y-123925000D01*
X155400000Y-121900000D02*
X153375000Y-123925000D01*
X155400000Y-117400000D02*
X155400000Y-121900000D01*
X158000000Y-114800000D02*
X155400000Y-117400000D01*
X160200000Y-114800000D02*
X158000000Y-114800000D01*
D28*
X160600000Y-115200000D02*
X160200000Y-114800000D01*
X160600000Y-117300000D02*
X160600000Y-115200000D01*
X160675000Y-117375000D02*
X160600000Y-117300000D01*
D25*
X164900000Y-116430000D02*
X161620000Y-116430000D01*
X161620000Y-116430000D02*
X161550000Y-116500000D01*
X159650000Y-116500000D02*
X157800000Y-116500000D01*
X153925000Y-124575000D02*
X151050000Y-124575000D01*
X156100000Y-122400000D02*
X153925000Y-124575000D01*
X156100000Y-118200000D02*
X156100000Y-122400000D01*
X157800000Y-116500000D02*
X156100000Y-118200000D01*
X159925000Y-120975000D02*
X162125000Y-120975000D01*
X159900000Y-121000000D02*
X159925000Y-120975000D01*
X162125000Y-120975000D02*
X163025000Y-120975000D01*
X163760000Y-120240000D02*
X164900000Y-120240000D01*
X163025000Y-120975000D02*
X163760000Y-120240000D01*
X161900000Y-114450000D02*
X161350000Y-114450000D01*
X161350000Y-114450000D02*
X159900000Y-113000000D01*
X159900000Y-113000000D02*
X159900000Y-112600000D01*
X164900000Y-115160000D02*
X163760000Y-115160000D01*
X163050000Y-114450000D02*
X161900000Y-114450000D01*
X163760000Y-115160000D02*
X163050000Y-114450000D01*
X170200000Y-131030000D02*
X172670000Y-131030000D01*
X172670000Y-131030000D02*
X172675000Y-131025000D01*
X174650000Y-131100000D02*
X176300000Y-131100000D01*
X154475000Y-125225000D02*
X151050000Y-125225000D01*
X155700000Y-124000000D02*
X154475000Y-125225000D01*
X159000000Y-124000000D02*
X155700000Y-124000000D01*
X174575000Y-131025000D02*
X174650000Y-131100000D01*
X170200000Y-133570000D02*
X172670000Y-133570000D01*
X172670000Y-133570000D02*
X172675000Y-133575000D01*
X174600000Y-133600000D02*
X176300000Y-133600000D01*
X156625000Y-125875000D02*
X151050000Y-125875000D01*
X156900000Y-125600000D02*
X156625000Y-125875000D01*
X174575000Y-133575000D02*
X174600000Y-133600000D01*
X178375000Y-129025000D02*
X172950000Y-129025000D01*
X172950000Y-129025000D02*
X172925000Y-129000000D01*
X170200000Y-129760000D02*
X171240000Y-129760000D01*
X172000000Y-129000000D02*
X172925000Y-129000000D01*
X171240000Y-129760000D02*
X172000000Y-129000000D01*
X172975000Y-135550000D02*
X178375000Y-135550000D01*
X170200000Y-134840000D02*
X171040000Y-134840000D01*
X171750000Y-135550000D02*
X172975000Y-135550000D01*
X171040000Y-134840000D02*
X171750000Y-135550000D01*
X164800000Y-133570000D02*
X162405000Y-133570000D01*
X162405000Y-133570000D02*
X162375000Y-133600000D01*
D28*
X160475000Y-133600000D02*
X160475000Y-129775000D01*
D25*
X153225000Y-126525000D02*
X151050000Y-126525000D01*
X155900000Y-129200000D02*
X153225000Y-126525000D01*
X159900000Y-129200000D02*
X155900000Y-129200000D01*
D28*
X160475000Y-129775000D02*
X159900000Y-129200000D01*
D25*
X161425000Y-131025000D02*
X164795000Y-131025000D01*
X164795000Y-131025000D02*
X164800000Y-131030000D01*
X159525000Y-131025000D02*
X156525000Y-131025000D01*
X152675000Y-127175000D02*
X151050000Y-127175000D01*
X156525000Y-131025000D02*
X152675000Y-127175000D01*
X160075000Y-135525000D02*
X162075000Y-135525000D01*
X159900000Y-135700000D02*
X160075000Y-135525000D01*
X162075000Y-135525000D02*
X163075000Y-135525000D01*
X163760000Y-134840000D02*
X164800000Y-134840000D01*
X163075000Y-135525000D02*
X163760000Y-134840000D01*
X161325000Y-129125000D02*
X162075000Y-129125000D01*
X160500000Y-128300000D02*
X161325000Y-129125000D01*
X160500000Y-127600000D02*
X160500000Y-128300000D01*
X160000000Y-127100000D02*
X160500000Y-127600000D01*
X164800000Y-129760000D02*
X163760000Y-129760000D01*
X163125000Y-129125000D02*
X162075000Y-129125000D01*
X163760000Y-129760000D02*
X163125000Y-129125000D01*
X143200000Y-80100000D02*
X149800000Y-80100000D01*
X143100000Y-80000000D02*
X143200000Y-80100000D01*
X149800000Y-121750000D02*
X149800000Y-121800000D01*
X149800000Y-93100000D02*
X149800000Y-121750000D01*
X149975000Y-121975000D02*
X151050000Y-121975000D01*
X149800000Y-121800000D02*
X149975000Y-121975000D01*
X151375000Y-93025000D02*
X149800000Y-93025000D01*
X149800000Y-93025000D02*
X149800000Y-93100000D01*
X150150000Y-63350000D02*
X151375000Y-63350000D01*
X149800000Y-63700000D02*
X150150000Y-63350000D01*
X149800000Y-93100000D02*
X149800000Y-80100000D01*
X149800000Y-80100000D02*
X149800000Y-63700000D01*
D24*
X125900000Y-95500000D02*
X121600000Y-95500000D01*
D27*
X118010000Y-95500000D02*
X118000000Y-95490000D01*
D24*
X121600000Y-95500000D02*
X118000000Y-95500000D01*
D25*
G36*
X147900000Y-52300000D02*
G01*
X146000000Y-52300000D01*
X145960982Y-52303843D01*
X145923463Y-52315224D01*
X145888886Y-52333706D01*
X145858110Y-52359049D01*
X131553870Y-66758651D01*
X131553870Y-65450000D01*
X131538424Y-65293173D01*
X131492679Y-65142372D01*
X131418393Y-65003394D01*
X131318422Y-64881578D01*
X131196606Y-64781607D01*
X131057628Y-64707321D01*
X130906827Y-64661576D01*
X130750000Y-64646130D01*
X129250000Y-64646130D01*
X129093173Y-64661576D01*
X128942372Y-64707321D01*
X128803394Y-64781607D01*
X128681578Y-64881578D01*
X128581607Y-65003394D01*
X128507321Y-65142372D01*
X128461576Y-65293173D01*
X128446130Y-65450000D01*
X128446130Y-67400000D01*
X126953870Y-67400000D01*
X126953870Y-65450000D01*
X126938424Y-65293173D01*
X126892679Y-65142372D01*
X126818393Y-65003394D01*
X126718422Y-64881578D01*
X126596606Y-64781607D01*
X126457628Y-64707321D01*
X126306827Y-64661576D01*
X126150000Y-64646130D01*
X124650000Y-64646130D01*
X124493173Y-64661576D01*
X124342372Y-64707321D01*
X124203394Y-64781607D01*
X124081578Y-64881578D01*
X123981607Y-65003394D01*
X123907321Y-65142372D01*
X123861576Y-65293173D01*
X123846130Y-65450000D01*
X123846130Y-67450000D01*
X123861576Y-67606827D01*
X123907321Y-67757628D01*
X123981607Y-67896606D01*
X124081578Y-68018422D01*
X124203394Y-68118393D01*
X124300000Y-68170031D01*
X124300001Y-72095956D01*
X124294678Y-72150000D01*
X124307188Y-72277012D01*
X124315917Y-72365638D01*
X124372111Y-72550881D01*
X124378817Y-72572988D01*
X124480958Y-72764084D01*
X124544792Y-72841865D01*
X122411242Y-75200000D01*
X116800000Y-75200000D01*
X116800000Y-49100000D01*
X147900000Y-49100000D01*
X147900000Y-52300000D01*
X147900000Y-52300000D01*
G37*
X147900000Y-52300000D02*
X146000000Y-52300000D01*
X145960982Y-52303843D01*
X145923463Y-52315224D01*
X145888886Y-52333706D01*
X145858110Y-52359049D01*
X131553870Y-66758651D01*
X131553870Y-65450000D01*
X131538424Y-65293173D01*
X131492679Y-65142372D01*
X131418393Y-65003394D01*
X131318422Y-64881578D01*
X131196606Y-64781607D01*
X131057628Y-64707321D01*
X130906827Y-64661576D01*
X130750000Y-64646130D01*
X129250000Y-64646130D01*
X129093173Y-64661576D01*
X128942372Y-64707321D01*
X128803394Y-64781607D01*
X128681578Y-64881578D01*
X128581607Y-65003394D01*
X128507321Y-65142372D01*
X128461576Y-65293173D01*
X128446130Y-65450000D01*
X128446130Y-67400000D01*
X126953870Y-67400000D01*
X126953870Y-65450000D01*
X126938424Y-65293173D01*
X126892679Y-65142372D01*
X126818393Y-65003394D01*
X126718422Y-64881578D01*
X126596606Y-64781607D01*
X126457628Y-64707321D01*
X126306827Y-64661576D01*
X126150000Y-64646130D01*
X124650000Y-64646130D01*
X124493173Y-64661576D01*
X124342372Y-64707321D01*
X124203394Y-64781607D01*
X124081578Y-64881578D01*
X123981607Y-65003394D01*
X123907321Y-65142372D01*
X123861576Y-65293173D01*
X123846130Y-65450000D01*
X123846130Y-67450000D01*
X123861576Y-67606827D01*
X123907321Y-67757628D01*
X123981607Y-67896606D01*
X124081578Y-68018422D01*
X124203394Y-68118393D01*
X124300000Y-68170031D01*
X124300001Y-72095956D01*
X124294678Y-72150000D01*
X124307188Y-72277012D01*
X124315917Y-72365638D01*
X124372111Y-72550881D01*
X124378817Y-72572988D01*
X124480958Y-72764084D01*
X124544792Y-72841865D01*
X122411242Y-75200000D01*
X116800000Y-75200000D01*
X116800000Y-49100000D01*
X147900000Y-49100000D01*
X147900000Y-52300000D01*
G36*
X196800000Y-124300000D02*
G01*
X186320083Y-124300000D01*
X186328349Y-124284535D01*
X186385530Y-124096034D01*
X186400000Y-123949120D01*
X186400000Y-123949119D01*
X186404838Y-123900001D01*
X186400000Y-123850883D01*
X186400000Y-113914212D01*
X186814213Y-113500000D01*
X196800000Y-113500000D01*
X196800000Y-124300000D01*
X196800000Y-124300000D01*
G37*
X196800000Y-124300000D02*
X186320083Y-124300000D01*
X186328349Y-124284535D01*
X186385530Y-124096034D01*
X186400000Y-123949120D01*
X186400000Y-123949119D01*
X186404838Y-123900001D01*
X186400000Y-123850883D01*
X186400000Y-113914212D01*
X186814213Y-113500000D01*
X196800000Y-113500000D01*
X196800000Y-124300000D01*
G36*
X196800000Y-77300000D02*
G01*
X191375328Y-77300000D01*
X191342679Y-77192372D01*
X191268393Y-77053394D01*
X191168422Y-76931578D01*
X191046606Y-76831607D01*
X190907628Y-76757321D01*
X190756827Y-76711576D01*
X190600000Y-76696130D01*
X189000000Y-76696130D01*
X188843173Y-76711576D01*
X188692372Y-76757321D01*
X188553394Y-76831607D01*
X188431578Y-76931578D01*
X188331607Y-77053394D01*
X188257321Y-77192372D01*
X188224672Y-77300000D01*
X187614213Y-77300000D01*
X185200000Y-74885788D01*
X185200000Y-65200000D01*
X196800000Y-65200000D01*
X196800000Y-77300000D01*
X196800000Y-77300000D01*
G37*
X196800000Y-77300000D02*
X191375328Y-77300000D01*
X191342679Y-77192372D01*
X191268393Y-77053394D01*
X191168422Y-76931578D01*
X191046606Y-76831607D01*
X190907628Y-76757321D01*
X190756827Y-76711576D01*
X190600000Y-76696130D01*
X189000000Y-76696130D01*
X188843173Y-76711576D01*
X188692372Y-76757321D01*
X188553394Y-76831607D01*
X188431578Y-76931578D01*
X188331607Y-77053394D01*
X188257321Y-77192372D01*
X188224672Y-77300000D01*
X187614213Y-77300000D01*
X185200000Y-74885788D01*
X185200000Y-65200000D01*
X196800000Y-65200000D01*
X196800000Y-77300000D01*
M02*
