G04 #@! TF.GenerationSoftware,KiCad,Pcbnew,(5.1.2)-1*
G04 #@! TF.CreationDate,2019-12-09T15:06:57+03:00*
G04 #@! TF.ProjectId,DAC_board,4441435f-626f-4617-9264-2e6b69636164,rev?*
G04 #@! TF.SameCoordinates,Original*
G04 #@! TF.FileFunction,Legend,Bot*
G04 #@! TF.FilePolarity,Positive*
%FSLAX46Y46*%
G04 Gerber Fmt 4.6, Leading zero omitted, Abs format (unit mm)*
G04 Created by KiCad (PCBNEW (5.1.2)-1) date 2019-12-09 15:06:57*
%MOMM*%
%LPD*%
G04 APERTURE LIST*
%ADD10C,0.150000*%
%ADD11C,0.120000*%
G04 APERTURE END LIST*
D10*
X177050000Y-63150000D02*
X175300000Y-61600000D01*
X177200000Y-78500000D02*
X174950000Y-76400000D01*
X176100000Y-85800000D02*
X175300000Y-86250000D01*
X177450000Y-83100000D02*
X176100000Y-85800000D01*
X176900000Y-91650000D02*
X175400000Y-90750000D01*
X175650000Y-115150000D02*
X175350000Y-115450000D01*
X175650000Y-120400000D02*
X175150000Y-120050000D01*
D11*
X168900000Y-51550000D02*
X169900000Y-51550000D01*
X169900000Y-53250000D02*
X168900000Y-53250000D01*
X169000000Y-66450000D02*
X170000000Y-66450000D01*
X170000000Y-68150000D02*
X169000000Y-68150000D01*
X169100000Y-81250000D02*
X170100000Y-81250000D01*
X170100000Y-82950000D02*
X169100000Y-82950000D01*
X169100000Y-95950000D02*
X170100000Y-95950000D01*
X170100000Y-97650000D02*
X169100000Y-97650000D01*
X169100000Y-110550000D02*
X170100000Y-110550000D01*
X170100000Y-112250000D02*
X169100000Y-112250000D01*
X169100000Y-125150000D02*
X170100000Y-125150000D01*
X170100000Y-126850000D02*
X169100000Y-126850000D01*
X145200000Y-60550000D02*
X146200000Y-60550000D01*
X146200000Y-62250000D02*
X145200000Y-62250000D01*
X144050000Y-89850000D02*
X145050000Y-89850000D01*
X145050000Y-91550000D02*
X144050000Y-91550000D01*
X144450000Y-118550000D02*
X145450000Y-118550000D01*
X145450000Y-120250000D02*
X144450000Y-120250000D01*
X165000000Y-51550000D02*
X166000000Y-51550000D01*
X166000000Y-53250000D02*
X165000000Y-53250000D01*
X165100000Y-66450000D02*
X166100000Y-66450000D01*
X166100000Y-68150000D02*
X165100000Y-68150000D01*
X165100000Y-81250000D02*
X166100000Y-81250000D01*
X166100000Y-82950000D02*
X165100000Y-82950000D01*
X165200000Y-95950000D02*
X166200000Y-95950000D01*
X166200000Y-97650000D02*
X165200000Y-97650000D01*
X165200000Y-110550000D02*
X166200000Y-110550000D01*
X166200000Y-112250000D02*
X165200000Y-112250000D01*
X165000000Y-125150000D02*
X166000000Y-125150000D01*
X166000000Y-126850000D02*
X165000000Y-126850000D01*
X143450000Y-71100000D02*
X143450000Y-72100000D01*
X141750000Y-72100000D02*
X141750000Y-71100000D01*
X141750000Y-100100000D02*
X142750000Y-100100000D01*
X142750000Y-101800000D02*
X141750000Y-101800000D01*
X141350000Y-128900000D02*
X142350000Y-128900000D01*
X142350000Y-130600000D02*
X141350000Y-130600000D01*
X129350000Y-70650000D02*
X128350000Y-70650000D01*
X128350000Y-68950000D02*
X129350000Y-68950000D01*
X129400000Y-73600000D02*
X128400000Y-73600000D01*
X128400000Y-71900000D02*
X129400000Y-71900000D01*
X174200000Y-56920000D02*
X173000000Y-56920000D01*
X173000000Y-58680000D02*
X174200000Y-58680000D01*
X174300000Y-59520000D02*
X173100000Y-59520000D01*
X173100000Y-61280000D02*
X174300000Y-61280000D01*
X179480000Y-57500000D02*
X179480000Y-56300000D01*
X177720000Y-56300000D02*
X177720000Y-57500000D01*
X174480000Y-55500000D02*
X174480000Y-54300000D01*
X172720000Y-54300000D02*
X172720000Y-55500000D01*
X177720000Y-60800000D02*
X177720000Y-62000000D01*
X179480000Y-62000000D02*
X179480000Y-60800000D01*
X172720000Y-62700000D02*
X172720000Y-63900000D01*
X174480000Y-63900000D02*
X174480000Y-62700000D01*
X160700000Y-61280000D02*
X161900000Y-61280000D01*
X161900000Y-59520000D02*
X160700000Y-59520000D01*
X159800000Y-58680000D02*
X161000000Y-58680000D01*
X161000000Y-56920000D02*
X159800000Y-56920000D01*
X161220000Y-62900000D02*
X161220000Y-64100000D01*
X162980000Y-64100000D02*
X162980000Y-62900000D01*
X162980000Y-55200000D02*
X162980000Y-54000000D01*
X161220000Y-54000000D02*
X161220000Y-55200000D01*
X174100000Y-71820000D02*
X172900000Y-71820000D01*
X172900000Y-73580000D02*
X174100000Y-73580000D01*
X174100000Y-74420000D02*
X172900000Y-74420000D01*
X172900000Y-76180000D02*
X174100000Y-76180000D01*
X179480000Y-72100000D02*
X179480000Y-70900000D01*
X177720000Y-70900000D02*
X177720000Y-72100000D01*
X173880000Y-70200000D02*
X173880000Y-69000000D01*
X172120000Y-69000000D02*
X172120000Y-70200000D01*
X177720000Y-75900000D02*
X177720000Y-77100000D01*
X179480000Y-77100000D02*
X179480000Y-75900000D01*
X172120000Y-77900000D02*
X172120000Y-79100000D01*
X173880000Y-79100000D02*
X173880000Y-77900000D01*
X160700000Y-76180000D02*
X161900000Y-76180000D01*
X161900000Y-74420000D02*
X160700000Y-74420000D01*
X159700000Y-73680000D02*
X160900000Y-73680000D01*
X160900000Y-71920000D02*
X159700000Y-71920000D01*
X160920000Y-77900000D02*
X160920000Y-79100000D01*
X162680000Y-79100000D02*
X162680000Y-77900000D01*
X162780000Y-70400000D02*
X162780000Y-69200000D01*
X161020000Y-69200000D02*
X161020000Y-70400000D01*
X174300000Y-86320000D02*
X173100000Y-86320000D01*
X173100000Y-88080000D02*
X174300000Y-88080000D01*
X174300000Y-88820000D02*
X173100000Y-88820000D01*
X173100000Y-90580000D02*
X174300000Y-90580000D01*
X179380000Y-85600000D02*
X179380000Y-84400000D01*
X177620000Y-84400000D02*
X177620000Y-85600000D01*
X174180000Y-84700000D02*
X174180000Y-83500000D01*
X172420000Y-83500000D02*
X172420000Y-84700000D01*
X177620000Y-88900000D02*
X177620000Y-90100000D01*
X179380000Y-90100000D02*
X179380000Y-88900000D01*
X172420000Y-92200000D02*
X172420000Y-93400000D01*
X174180000Y-93400000D02*
X174180000Y-92200000D01*
X160700000Y-90680000D02*
X161900000Y-90680000D01*
X161900000Y-88920000D02*
X160700000Y-88920000D01*
X159700000Y-88180000D02*
X160900000Y-88180000D01*
X160900000Y-86420000D02*
X159700000Y-86420000D01*
X161120000Y-92100000D02*
X161120000Y-93300000D01*
X162880000Y-93300000D02*
X162880000Y-92100000D01*
X162580000Y-84800000D02*
X162580000Y-83600000D01*
X160820000Y-83600000D02*
X160820000Y-84800000D01*
X174100000Y-101020000D02*
X172900000Y-101020000D01*
X172900000Y-102780000D02*
X174100000Y-102780000D01*
X174100000Y-103520000D02*
X172900000Y-103520000D01*
X172900000Y-105280000D02*
X174100000Y-105280000D01*
X176700000Y-98620000D02*
X175500000Y-98620000D01*
X175500000Y-100380000D02*
X176700000Y-100380000D01*
X173980000Y-99600000D02*
X173980000Y-98400000D01*
X172220000Y-98400000D02*
X172220000Y-99600000D01*
X176700000Y-105920000D02*
X175500000Y-105920000D01*
X175500000Y-107680000D02*
X176700000Y-107680000D01*
X172220000Y-106700000D02*
X172220000Y-107900000D01*
X173980000Y-107900000D02*
X173980000Y-106700000D01*
X161100000Y-105180000D02*
X162300000Y-105180000D01*
X162300000Y-103420000D02*
X161100000Y-103420000D01*
X160100000Y-102780000D02*
X161300000Y-102780000D01*
X161300000Y-101020000D02*
X160100000Y-101020000D01*
X161320000Y-106700000D02*
X161320000Y-107900000D01*
X163080000Y-107900000D02*
X163080000Y-106700000D01*
X163080000Y-99400000D02*
X163080000Y-98200000D01*
X161320000Y-98200000D02*
X161320000Y-99400000D01*
X174275000Y-115520000D02*
X173075000Y-115520000D01*
X173075000Y-117280000D02*
X174275000Y-117280000D01*
X174300000Y-118120000D02*
X173100000Y-118120000D01*
X173100000Y-119880000D02*
X174300000Y-119880000D01*
X179280000Y-115900000D02*
X179280000Y-114700000D01*
X177520000Y-114700000D02*
X177520000Y-115900000D01*
X174080000Y-113950000D02*
X174080000Y-112750000D01*
X172320000Y-112750000D02*
X172320000Y-113950000D01*
X177520000Y-119300000D02*
X177520000Y-120500000D01*
X179280000Y-120500000D02*
X179280000Y-119300000D01*
X172395000Y-121300000D02*
X172395000Y-122500000D01*
X174155000Y-122500000D02*
X174155000Y-121300000D01*
X161025000Y-119880000D02*
X162225000Y-119880000D01*
X162225000Y-118120000D02*
X161025000Y-118120000D01*
X160000000Y-117380000D02*
X161200000Y-117380000D01*
X161200000Y-115620000D02*
X160000000Y-115620000D01*
X161245000Y-121325000D02*
X161245000Y-122525000D01*
X163005000Y-122525000D02*
X163005000Y-121325000D01*
X162780000Y-114100000D02*
X162780000Y-112900000D01*
X161020000Y-112900000D02*
X161020000Y-114100000D01*
X174225000Y-130145000D02*
X173025000Y-130145000D01*
X173025000Y-131905000D02*
X174225000Y-131905000D01*
X174225000Y-132695000D02*
X173025000Y-132695000D01*
X173025000Y-134455000D02*
X174225000Y-134455000D01*
X179255000Y-130575000D02*
X179255000Y-129375000D01*
X177495000Y-129375000D02*
X177495000Y-130575000D01*
X173805000Y-128650000D02*
X173805000Y-127450000D01*
X172045000Y-127450000D02*
X172045000Y-128650000D01*
X177495000Y-134000000D02*
X177495000Y-135200000D01*
X179255000Y-135200000D02*
X179255000Y-134000000D01*
X172095000Y-135900000D02*
X172095000Y-137100000D01*
X173855000Y-137100000D02*
X173855000Y-135900000D01*
X160825000Y-134480000D02*
X162025000Y-134480000D01*
X162025000Y-132720000D02*
X160825000Y-132720000D01*
X159875000Y-131905000D02*
X161075000Y-131905000D01*
X161075000Y-130145000D02*
X159875000Y-130145000D01*
X161195000Y-135875000D02*
X161195000Y-137075000D01*
X162955000Y-137075000D02*
X162955000Y-135875000D01*
X162955000Y-128775000D02*
X162955000Y-127575000D01*
X161195000Y-127575000D02*
X161195000Y-128775000D01*
D10*
X150650000Y-69725000D02*
X146200000Y-69725000D01*
X152175000Y-62825000D02*
X146200000Y-62825000D01*
X150650000Y-99400000D02*
X146200000Y-99400000D01*
X152175000Y-92500000D02*
X146200000Y-92500000D01*
X150325000Y-128350000D02*
X145875000Y-128350000D01*
X151850000Y-121450000D02*
X145875000Y-121450000D01*
X169575000Y-54650000D02*
X169575000Y-54675000D01*
X165425000Y-54650000D02*
X165425000Y-54765000D01*
X165425000Y-63550000D02*
X165425000Y-63435000D01*
X169575000Y-63550000D02*
X169575000Y-63435000D01*
X169575000Y-54650000D02*
X165425000Y-54650000D01*
X169575000Y-63550000D02*
X165425000Y-63550000D01*
X169575000Y-54675000D02*
X170950000Y-54675000D01*
X169575000Y-69550000D02*
X169575000Y-69575000D01*
X165425000Y-69550000D02*
X165425000Y-69665000D01*
X165425000Y-78450000D02*
X165425000Y-78335000D01*
X169575000Y-78450000D02*
X169575000Y-78335000D01*
X169575000Y-69550000D02*
X165425000Y-69550000D01*
X169575000Y-78450000D02*
X165425000Y-78450000D01*
X169575000Y-69575000D02*
X170950000Y-69575000D01*
X169575000Y-84050000D02*
X169575000Y-84075000D01*
X165425000Y-84050000D02*
X165425000Y-84165000D01*
X165425000Y-92950000D02*
X165425000Y-92835000D01*
X169575000Y-92950000D02*
X169575000Y-92835000D01*
X169575000Y-84050000D02*
X165425000Y-84050000D01*
X169575000Y-92950000D02*
X165425000Y-92950000D01*
X169575000Y-84075000D02*
X170950000Y-84075000D01*
X169675000Y-98650000D02*
X169675000Y-98675000D01*
X165525000Y-98650000D02*
X165525000Y-98765000D01*
X165525000Y-107550000D02*
X165525000Y-107435000D01*
X169675000Y-107550000D02*
X169675000Y-107435000D01*
X169675000Y-98650000D02*
X165525000Y-98650000D01*
X169675000Y-107550000D02*
X165525000Y-107550000D01*
X169675000Y-98675000D02*
X171050000Y-98675000D01*
X169675000Y-113250000D02*
X169675000Y-113275000D01*
X165525000Y-113250000D02*
X165525000Y-113365000D01*
X165525000Y-122150000D02*
X165525000Y-122035000D01*
X169675000Y-122150000D02*
X169675000Y-122035000D01*
X169675000Y-113250000D02*
X165525000Y-113250000D01*
X169675000Y-122150000D02*
X165525000Y-122150000D01*
X169675000Y-113275000D02*
X171050000Y-113275000D01*
X169575000Y-127850000D02*
X169575000Y-127875000D01*
X165425000Y-127850000D02*
X165425000Y-127965000D01*
X165425000Y-136750000D02*
X165425000Y-136635000D01*
X169575000Y-136750000D02*
X169575000Y-136635000D01*
X169575000Y-127850000D02*
X165425000Y-127850000D01*
X169575000Y-136750000D02*
X165425000Y-136750000D01*
X169575000Y-127875000D02*
X170950000Y-127875000D01*
D11*
X124290000Y-61390000D02*
X125550000Y-61390000D01*
X131110000Y-61390000D02*
X129850000Y-61390000D01*
X124290000Y-65150000D02*
X124290000Y-61390000D01*
X131110000Y-67400000D02*
X131110000Y-61390000D01*
D10*
X169566666Y-51257142D02*
X169614285Y-51304761D01*
X169757142Y-51352380D01*
X169852380Y-51352380D01*
X169995238Y-51304761D01*
X170090476Y-51209523D01*
X170138095Y-51114285D01*
X170185714Y-50923809D01*
X170185714Y-50780952D01*
X170138095Y-50590476D01*
X170090476Y-50495238D01*
X169995238Y-50400000D01*
X169852380Y-50352380D01*
X169757142Y-50352380D01*
X169614285Y-50400000D01*
X169566666Y-50447619D01*
X168614285Y-51352380D02*
X169185714Y-51352380D01*
X168900000Y-51352380D02*
X168900000Y-50352380D01*
X168995238Y-50495238D01*
X169090476Y-50590476D01*
X169185714Y-50638095D01*
X172366666Y-67307142D02*
X172414285Y-67354761D01*
X172557142Y-67402380D01*
X172652380Y-67402380D01*
X172795238Y-67354761D01*
X172890476Y-67259523D01*
X172938095Y-67164285D01*
X172985714Y-66973809D01*
X172985714Y-66830952D01*
X172938095Y-66640476D01*
X172890476Y-66545238D01*
X172795238Y-66450000D01*
X172652380Y-66402380D01*
X172557142Y-66402380D01*
X172414285Y-66450000D01*
X172366666Y-66497619D01*
X171985714Y-66497619D02*
X171938095Y-66450000D01*
X171842857Y-66402380D01*
X171604761Y-66402380D01*
X171509523Y-66450000D01*
X171461904Y-66497619D01*
X171414285Y-66592857D01*
X171414285Y-66688095D01*
X171461904Y-66830952D01*
X172033333Y-67402380D01*
X171414285Y-67402380D01*
X172566666Y-81457142D02*
X172614285Y-81504761D01*
X172757142Y-81552380D01*
X172852380Y-81552380D01*
X172995238Y-81504761D01*
X173090476Y-81409523D01*
X173138095Y-81314285D01*
X173185714Y-81123809D01*
X173185714Y-80980952D01*
X173138095Y-80790476D01*
X173090476Y-80695238D01*
X172995238Y-80600000D01*
X172852380Y-80552380D01*
X172757142Y-80552380D01*
X172614285Y-80600000D01*
X172566666Y-80647619D01*
X172233333Y-80552380D02*
X171614285Y-80552380D01*
X171947619Y-80933333D01*
X171804761Y-80933333D01*
X171709523Y-80980952D01*
X171661904Y-81028571D01*
X171614285Y-81123809D01*
X171614285Y-81361904D01*
X171661904Y-81457142D01*
X171709523Y-81504761D01*
X171804761Y-81552380D01*
X172090476Y-81552380D01*
X172185714Y-81504761D01*
X172233333Y-81457142D01*
X169766666Y-95657142D02*
X169814285Y-95704761D01*
X169957142Y-95752380D01*
X170052380Y-95752380D01*
X170195238Y-95704761D01*
X170290476Y-95609523D01*
X170338095Y-95514285D01*
X170385714Y-95323809D01*
X170385714Y-95180952D01*
X170338095Y-94990476D01*
X170290476Y-94895238D01*
X170195238Y-94800000D01*
X170052380Y-94752380D01*
X169957142Y-94752380D01*
X169814285Y-94800000D01*
X169766666Y-94847619D01*
X168909523Y-95085714D02*
X168909523Y-95752380D01*
X169147619Y-94704761D02*
X169385714Y-95419047D01*
X168766666Y-95419047D01*
X169766666Y-110257142D02*
X169814285Y-110304761D01*
X169957142Y-110352380D01*
X170052380Y-110352380D01*
X170195238Y-110304761D01*
X170290476Y-110209523D01*
X170338095Y-110114285D01*
X170385714Y-109923809D01*
X170385714Y-109780952D01*
X170338095Y-109590476D01*
X170290476Y-109495238D01*
X170195238Y-109400000D01*
X170052380Y-109352380D01*
X169957142Y-109352380D01*
X169814285Y-109400000D01*
X169766666Y-109447619D01*
X168861904Y-109352380D02*
X169338095Y-109352380D01*
X169385714Y-109828571D01*
X169338095Y-109780952D01*
X169242857Y-109733333D01*
X169004761Y-109733333D01*
X168909523Y-109780952D01*
X168861904Y-109828571D01*
X168814285Y-109923809D01*
X168814285Y-110161904D01*
X168861904Y-110257142D01*
X168909523Y-110304761D01*
X169004761Y-110352380D01*
X169242857Y-110352380D01*
X169338095Y-110304761D01*
X169385714Y-110257142D01*
X170816666Y-124707142D02*
X170864285Y-124754761D01*
X171007142Y-124802380D01*
X171102380Y-124802380D01*
X171245238Y-124754761D01*
X171340476Y-124659523D01*
X171388095Y-124564285D01*
X171435714Y-124373809D01*
X171435714Y-124230952D01*
X171388095Y-124040476D01*
X171340476Y-123945238D01*
X171245238Y-123850000D01*
X171102380Y-123802380D01*
X171007142Y-123802380D01*
X170864285Y-123850000D01*
X170816666Y-123897619D01*
X169959523Y-123802380D02*
X170150000Y-123802380D01*
X170245238Y-123850000D01*
X170292857Y-123897619D01*
X170388095Y-124040476D01*
X170435714Y-124230952D01*
X170435714Y-124611904D01*
X170388095Y-124707142D01*
X170340476Y-124754761D01*
X170245238Y-124802380D01*
X170054761Y-124802380D01*
X169959523Y-124754761D01*
X169911904Y-124707142D01*
X169864285Y-124611904D01*
X169864285Y-124373809D01*
X169911904Y-124278571D01*
X169959523Y-124230952D01*
X170054761Y-124183333D01*
X170245238Y-124183333D01*
X170340476Y-124230952D01*
X170388095Y-124278571D01*
X170435714Y-124373809D01*
X145866666Y-60257142D02*
X145914285Y-60304761D01*
X146057142Y-60352380D01*
X146152380Y-60352380D01*
X146295238Y-60304761D01*
X146390476Y-60209523D01*
X146438095Y-60114285D01*
X146485714Y-59923809D01*
X146485714Y-59780952D01*
X146438095Y-59590476D01*
X146390476Y-59495238D01*
X146295238Y-59400000D01*
X146152380Y-59352380D01*
X146057142Y-59352380D01*
X145914285Y-59400000D01*
X145866666Y-59447619D01*
X145295238Y-59780952D02*
X145390476Y-59733333D01*
X145438095Y-59685714D01*
X145485714Y-59590476D01*
X145485714Y-59542857D01*
X145438095Y-59447619D01*
X145390476Y-59400000D01*
X145295238Y-59352380D01*
X145104761Y-59352380D01*
X145009523Y-59400000D01*
X144961904Y-59447619D01*
X144914285Y-59542857D01*
X144914285Y-59590476D01*
X144961904Y-59685714D01*
X145009523Y-59733333D01*
X145104761Y-59780952D01*
X145295238Y-59780952D01*
X145390476Y-59828571D01*
X145438095Y-59876190D01*
X145485714Y-59971428D01*
X145485714Y-60161904D01*
X145438095Y-60257142D01*
X145390476Y-60304761D01*
X145295238Y-60352380D01*
X145104761Y-60352380D01*
X145009523Y-60304761D01*
X144961904Y-60257142D01*
X144914285Y-60161904D01*
X144914285Y-59971428D01*
X144961904Y-59876190D01*
X145009523Y-59828571D01*
X145104761Y-59780952D01*
X144716666Y-89257142D02*
X144764285Y-89304761D01*
X144907142Y-89352380D01*
X145002380Y-89352380D01*
X145145238Y-89304761D01*
X145240476Y-89209523D01*
X145288095Y-89114285D01*
X145335714Y-88923809D01*
X145335714Y-88780952D01*
X145288095Y-88590476D01*
X145240476Y-88495238D01*
X145145238Y-88400000D01*
X145002380Y-88352380D01*
X144907142Y-88352380D01*
X144764285Y-88400000D01*
X144716666Y-88447619D01*
X144240476Y-89352380D02*
X144050000Y-89352380D01*
X143954761Y-89304761D01*
X143907142Y-89257142D01*
X143811904Y-89114285D01*
X143764285Y-88923809D01*
X143764285Y-88542857D01*
X143811904Y-88447619D01*
X143859523Y-88400000D01*
X143954761Y-88352380D01*
X144145238Y-88352380D01*
X144240476Y-88400000D01*
X144288095Y-88447619D01*
X144335714Y-88542857D01*
X144335714Y-88780952D01*
X144288095Y-88876190D01*
X144240476Y-88923809D01*
X144145238Y-88971428D01*
X143954761Y-88971428D01*
X143859523Y-88923809D01*
X143811904Y-88876190D01*
X143764285Y-88780952D01*
X145592857Y-117957142D02*
X145640476Y-118004761D01*
X145783333Y-118052380D01*
X145878571Y-118052380D01*
X146021428Y-118004761D01*
X146116666Y-117909523D01*
X146164285Y-117814285D01*
X146211904Y-117623809D01*
X146211904Y-117480952D01*
X146164285Y-117290476D01*
X146116666Y-117195238D01*
X146021428Y-117100000D01*
X145878571Y-117052380D01*
X145783333Y-117052380D01*
X145640476Y-117100000D01*
X145592857Y-117147619D01*
X144640476Y-118052380D02*
X145211904Y-118052380D01*
X144926190Y-118052380D02*
X144926190Y-117052380D01*
X145021428Y-117195238D01*
X145116666Y-117290476D01*
X145211904Y-117338095D01*
X144021428Y-117052380D02*
X143926190Y-117052380D01*
X143830952Y-117100000D01*
X143783333Y-117147619D01*
X143735714Y-117242857D01*
X143688095Y-117433333D01*
X143688095Y-117671428D01*
X143735714Y-117861904D01*
X143783333Y-117957142D01*
X143830952Y-118004761D01*
X143926190Y-118052380D01*
X144021428Y-118052380D01*
X144116666Y-118004761D01*
X144164285Y-117957142D01*
X144211904Y-117861904D01*
X144259523Y-117671428D01*
X144259523Y-117433333D01*
X144211904Y-117242857D01*
X144164285Y-117147619D01*
X144116666Y-117100000D01*
X144021428Y-117052380D01*
X165142857Y-50757142D02*
X165190476Y-50804761D01*
X165333333Y-50852380D01*
X165428571Y-50852380D01*
X165571428Y-50804761D01*
X165666666Y-50709523D01*
X165714285Y-50614285D01*
X165761904Y-50423809D01*
X165761904Y-50280952D01*
X165714285Y-50090476D01*
X165666666Y-49995238D01*
X165571428Y-49900000D01*
X165428571Y-49852380D01*
X165333333Y-49852380D01*
X165190476Y-49900000D01*
X165142857Y-49947619D01*
X164190476Y-50852380D02*
X164761904Y-50852380D01*
X164476190Y-50852380D02*
X164476190Y-49852380D01*
X164571428Y-49995238D01*
X164666666Y-50090476D01*
X164761904Y-50138095D01*
X163238095Y-50852380D02*
X163809523Y-50852380D01*
X163523809Y-50852380D02*
X163523809Y-49852380D01*
X163619047Y-49995238D01*
X163714285Y-50090476D01*
X163809523Y-50138095D01*
X167142857Y-66057142D02*
X167190476Y-66104761D01*
X167333333Y-66152380D01*
X167428571Y-66152380D01*
X167571428Y-66104761D01*
X167666666Y-66009523D01*
X167714285Y-65914285D01*
X167761904Y-65723809D01*
X167761904Y-65580952D01*
X167714285Y-65390476D01*
X167666666Y-65295238D01*
X167571428Y-65200000D01*
X167428571Y-65152380D01*
X167333333Y-65152380D01*
X167190476Y-65200000D01*
X167142857Y-65247619D01*
X166190476Y-66152380D02*
X166761904Y-66152380D01*
X166476190Y-66152380D02*
X166476190Y-65152380D01*
X166571428Y-65295238D01*
X166666666Y-65390476D01*
X166761904Y-65438095D01*
X165809523Y-65247619D02*
X165761904Y-65200000D01*
X165666666Y-65152380D01*
X165428571Y-65152380D01*
X165333333Y-65200000D01*
X165285714Y-65247619D01*
X165238095Y-65342857D01*
X165238095Y-65438095D01*
X165285714Y-65580952D01*
X165857142Y-66152380D01*
X165238095Y-66152380D01*
X167392857Y-80857142D02*
X167440476Y-80904761D01*
X167583333Y-80952380D01*
X167678571Y-80952380D01*
X167821428Y-80904761D01*
X167916666Y-80809523D01*
X167964285Y-80714285D01*
X168011904Y-80523809D01*
X168011904Y-80380952D01*
X167964285Y-80190476D01*
X167916666Y-80095238D01*
X167821428Y-80000000D01*
X167678571Y-79952380D01*
X167583333Y-79952380D01*
X167440476Y-80000000D01*
X167392857Y-80047619D01*
X166440476Y-80952380D02*
X167011904Y-80952380D01*
X166726190Y-80952380D02*
X166726190Y-79952380D01*
X166821428Y-80095238D01*
X166916666Y-80190476D01*
X167011904Y-80238095D01*
X166107142Y-79952380D02*
X165488095Y-79952380D01*
X165821428Y-80333333D01*
X165678571Y-80333333D01*
X165583333Y-80380952D01*
X165535714Y-80428571D01*
X165488095Y-80523809D01*
X165488095Y-80761904D01*
X165535714Y-80857142D01*
X165583333Y-80904761D01*
X165678571Y-80952380D01*
X165964285Y-80952380D01*
X166059523Y-80904761D01*
X166107142Y-80857142D01*
X167142857Y-95557142D02*
X167190476Y-95604761D01*
X167333333Y-95652380D01*
X167428571Y-95652380D01*
X167571428Y-95604761D01*
X167666666Y-95509523D01*
X167714285Y-95414285D01*
X167761904Y-95223809D01*
X167761904Y-95080952D01*
X167714285Y-94890476D01*
X167666666Y-94795238D01*
X167571428Y-94700000D01*
X167428571Y-94652380D01*
X167333333Y-94652380D01*
X167190476Y-94700000D01*
X167142857Y-94747619D01*
X166190476Y-95652380D02*
X166761904Y-95652380D01*
X166476190Y-95652380D02*
X166476190Y-94652380D01*
X166571428Y-94795238D01*
X166666666Y-94890476D01*
X166761904Y-94938095D01*
X165333333Y-94985714D02*
X165333333Y-95652380D01*
X165571428Y-94604761D02*
X165809523Y-95319047D01*
X165190476Y-95319047D01*
X166342857Y-110257142D02*
X166390476Y-110304761D01*
X166533333Y-110352380D01*
X166628571Y-110352380D01*
X166771428Y-110304761D01*
X166866666Y-110209523D01*
X166914285Y-110114285D01*
X166961904Y-109923809D01*
X166961904Y-109780952D01*
X166914285Y-109590476D01*
X166866666Y-109495238D01*
X166771428Y-109400000D01*
X166628571Y-109352380D01*
X166533333Y-109352380D01*
X166390476Y-109400000D01*
X166342857Y-109447619D01*
X165390476Y-110352380D02*
X165961904Y-110352380D01*
X165676190Y-110352380D02*
X165676190Y-109352380D01*
X165771428Y-109495238D01*
X165866666Y-109590476D01*
X165961904Y-109638095D01*
X164485714Y-109352380D02*
X164961904Y-109352380D01*
X165009523Y-109828571D01*
X164961904Y-109780952D01*
X164866666Y-109733333D01*
X164628571Y-109733333D01*
X164533333Y-109780952D01*
X164485714Y-109828571D01*
X164438095Y-109923809D01*
X164438095Y-110161904D01*
X164485714Y-110257142D01*
X164533333Y-110304761D01*
X164628571Y-110352380D01*
X164866666Y-110352380D01*
X164961904Y-110304761D01*
X165009523Y-110257142D01*
X167342857Y-124707142D02*
X167390476Y-124754761D01*
X167533333Y-124802380D01*
X167628571Y-124802380D01*
X167771428Y-124754761D01*
X167866666Y-124659523D01*
X167914285Y-124564285D01*
X167961904Y-124373809D01*
X167961904Y-124230952D01*
X167914285Y-124040476D01*
X167866666Y-123945238D01*
X167771428Y-123850000D01*
X167628571Y-123802380D01*
X167533333Y-123802380D01*
X167390476Y-123850000D01*
X167342857Y-123897619D01*
X166390476Y-124802380D02*
X166961904Y-124802380D01*
X166676190Y-124802380D02*
X166676190Y-123802380D01*
X166771428Y-123945238D01*
X166866666Y-124040476D01*
X166961904Y-124088095D01*
X165533333Y-123802380D02*
X165723809Y-123802380D01*
X165819047Y-123850000D01*
X165866666Y-123897619D01*
X165961904Y-124040476D01*
X166009523Y-124230952D01*
X166009523Y-124611904D01*
X165961904Y-124707142D01*
X165914285Y-124754761D01*
X165819047Y-124802380D01*
X165628571Y-124802380D01*
X165533333Y-124754761D01*
X165485714Y-124707142D01*
X165438095Y-124611904D01*
X165438095Y-124373809D01*
X165485714Y-124278571D01*
X165533333Y-124230952D01*
X165628571Y-124183333D01*
X165819047Y-124183333D01*
X165914285Y-124230952D01*
X165961904Y-124278571D01*
X166009523Y-124373809D01*
X141057142Y-70757142D02*
X141104761Y-70709523D01*
X141152380Y-70566666D01*
X141152380Y-70471428D01*
X141104761Y-70328571D01*
X141009523Y-70233333D01*
X140914285Y-70185714D01*
X140723809Y-70138095D01*
X140580952Y-70138095D01*
X140390476Y-70185714D01*
X140295238Y-70233333D01*
X140200000Y-70328571D01*
X140152380Y-70471428D01*
X140152380Y-70566666D01*
X140200000Y-70709523D01*
X140247619Y-70757142D01*
X141152380Y-71709523D02*
X141152380Y-71138095D01*
X141152380Y-71423809D02*
X140152380Y-71423809D01*
X140295238Y-71328571D01*
X140390476Y-71233333D01*
X140438095Y-71138095D01*
X140580952Y-72280952D02*
X140533333Y-72185714D01*
X140485714Y-72138095D01*
X140390476Y-72090476D01*
X140342857Y-72090476D01*
X140247619Y-72138095D01*
X140200000Y-72185714D01*
X140152380Y-72280952D01*
X140152380Y-72471428D01*
X140200000Y-72566666D01*
X140247619Y-72614285D01*
X140342857Y-72661904D01*
X140390476Y-72661904D01*
X140485714Y-72614285D01*
X140533333Y-72566666D01*
X140580952Y-72471428D01*
X140580952Y-72280952D01*
X140628571Y-72185714D01*
X140676190Y-72138095D01*
X140771428Y-72090476D01*
X140961904Y-72090476D01*
X141057142Y-72138095D01*
X141104761Y-72185714D01*
X141152380Y-72280952D01*
X141152380Y-72471428D01*
X141104761Y-72566666D01*
X141057142Y-72614285D01*
X140961904Y-72661904D01*
X140771428Y-72661904D01*
X140676190Y-72614285D01*
X140628571Y-72566666D01*
X140580952Y-72471428D01*
X139342857Y-101307142D02*
X139390476Y-101354761D01*
X139533333Y-101402380D01*
X139628571Y-101402380D01*
X139771428Y-101354761D01*
X139866666Y-101259523D01*
X139914285Y-101164285D01*
X139961904Y-100973809D01*
X139961904Y-100830952D01*
X139914285Y-100640476D01*
X139866666Y-100545238D01*
X139771428Y-100450000D01*
X139628571Y-100402380D01*
X139533333Y-100402380D01*
X139390476Y-100450000D01*
X139342857Y-100497619D01*
X138390476Y-101402380D02*
X138961904Y-101402380D01*
X138676190Y-101402380D02*
X138676190Y-100402380D01*
X138771428Y-100545238D01*
X138866666Y-100640476D01*
X138961904Y-100688095D01*
X137914285Y-101402380D02*
X137723809Y-101402380D01*
X137628571Y-101354761D01*
X137580952Y-101307142D01*
X137485714Y-101164285D01*
X137438095Y-100973809D01*
X137438095Y-100592857D01*
X137485714Y-100497619D01*
X137533333Y-100450000D01*
X137628571Y-100402380D01*
X137819047Y-100402380D01*
X137914285Y-100450000D01*
X137961904Y-100497619D01*
X138009523Y-100592857D01*
X138009523Y-100830952D01*
X137961904Y-100926190D01*
X137914285Y-100973809D01*
X137819047Y-101021428D01*
X137628571Y-101021428D01*
X137533333Y-100973809D01*
X137485714Y-100926190D01*
X137438095Y-100830952D01*
X142592857Y-131857142D02*
X142640476Y-131904761D01*
X142783333Y-131952380D01*
X142878571Y-131952380D01*
X143021428Y-131904761D01*
X143116666Y-131809523D01*
X143164285Y-131714285D01*
X143211904Y-131523809D01*
X143211904Y-131380952D01*
X143164285Y-131190476D01*
X143116666Y-131095238D01*
X143021428Y-131000000D01*
X142878571Y-130952380D01*
X142783333Y-130952380D01*
X142640476Y-131000000D01*
X142592857Y-131047619D01*
X142211904Y-131047619D02*
X142164285Y-131000000D01*
X142069047Y-130952380D01*
X141830952Y-130952380D01*
X141735714Y-131000000D01*
X141688095Y-131047619D01*
X141640476Y-131142857D01*
X141640476Y-131238095D01*
X141688095Y-131380952D01*
X142259523Y-131952380D01*
X141640476Y-131952380D01*
X141021428Y-130952380D02*
X140926190Y-130952380D01*
X140830952Y-131000000D01*
X140783333Y-131047619D01*
X140735714Y-131142857D01*
X140688095Y-131333333D01*
X140688095Y-131571428D01*
X140735714Y-131761904D01*
X140783333Y-131857142D01*
X140830952Y-131904761D01*
X140926190Y-131952380D01*
X141021428Y-131952380D01*
X141116666Y-131904761D01*
X141164285Y-131857142D01*
X141211904Y-131761904D01*
X141259523Y-131571428D01*
X141259523Y-131333333D01*
X141211904Y-131142857D01*
X141164285Y-131047619D01*
X141116666Y-131000000D01*
X141021428Y-130952380D01*
X125892857Y-70207142D02*
X125940476Y-70254761D01*
X126083333Y-70302380D01*
X126178571Y-70302380D01*
X126321428Y-70254761D01*
X126416666Y-70159523D01*
X126464285Y-70064285D01*
X126511904Y-69873809D01*
X126511904Y-69730952D01*
X126464285Y-69540476D01*
X126416666Y-69445238D01*
X126321428Y-69350000D01*
X126178571Y-69302380D01*
X126083333Y-69302380D01*
X125940476Y-69350000D01*
X125892857Y-69397619D01*
X125511904Y-69397619D02*
X125464285Y-69350000D01*
X125369047Y-69302380D01*
X125130952Y-69302380D01*
X125035714Y-69350000D01*
X124988095Y-69397619D01*
X124940476Y-69492857D01*
X124940476Y-69588095D01*
X124988095Y-69730952D01*
X125559523Y-70302380D01*
X124940476Y-70302380D01*
X124559523Y-69397619D02*
X124511904Y-69350000D01*
X124416666Y-69302380D01*
X124178571Y-69302380D01*
X124083333Y-69350000D01*
X124035714Y-69397619D01*
X123988095Y-69492857D01*
X123988095Y-69588095D01*
X124035714Y-69730952D01*
X124607142Y-70302380D01*
X123988095Y-70302380D01*
X125892857Y-73107142D02*
X125940476Y-73154761D01*
X126083333Y-73202380D01*
X126178571Y-73202380D01*
X126321428Y-73154761D01*
X126416666Y-73059523D01*
X126464285Y-72964285D01*
X126511904Y-72773809D01*
X126511904Y-72630952D01*
X126464285Y-72440476D01*
X126416666Y-72345238D01*
X126321428Y-72250000D01*
X126178571Y-72202380D01*
X126083333Y-72202380D01*
X125940476Y-72250000D01*
X125892857Y-72297619D01*
X125511904Y-72297619D02*
X125464285Y-72250000D01*
X125369047Y-72202380D01*
X125130952Y-72202380D01*
X125035714Y-72250000D01*
X124988095Y-72297619D01*
X124940476Y-72392857D01*
X124940476Y-72488095D01*
X124988095Y-72630952D01*
X125559523Y-73202380D01*
X124940476Y-73202380D01*
X124083333Y-72535714D02*
X124083333Y-73202380D01*
X124321428Y-72154761D02*
X124559523Y-72869047D01*
X123940476Y-72869047D01*
X176066666Y-56452380D02*
X176400000Y-55976190D01*
X176638095Y-56452380D02*
X176638095Y-55452380D01*
X176257142Y-55452380D01*
X176161904Y-55500000D01*
X176114285Y-55547619D01*
X176066666Y-55642857D01*
X176066666Y-55785714D01*
X176114285Y-55880952D01*
X176161904Y-55928571D01*
X176257142Y-55976190D01*
X176638095Y-55976190D01*
X175114285Y-56452380D02*
X175685714Y-56452380D01*
X175400000Y-56452380D02*
X175400000Y-55452380D01*
X175495238Y-55595238D01*
X175590476Y-55690476D01*
X175685714Y-55738095D01*
X177916666Y-64452380D02*
X178250000Y-63976190D01*
X178488095Y-64452380D02*
X178488095Y-63452380D01*
X178107142Y-63452380D01*
X178011904Y-63500000D01*
X177964285Y-63547619D01*
X177916666Y-63642857D01*
X177916666Y-63785714D01*
X177964285Y-63880952D01*
X178011904Y-63928571D01*
X178107142Y-63976190D01*
X178488095Y-63976190D01*
X177535714Y-63547619D02*
X177488095Y-63500000D01*
X177392857Y-63452380D01*
X177154761Y-63452380D01*
X177059523Y-63500000D01*
X177011904Y-63547619D01*
X176964285Y-63642857D01*
X176964285Y-63738095D01*
X177011904Y-63880952D01*
X177583333Y-64452380D01*
X176964285Y-64452380D01*
X180952380Y-56633333D02*
X180476190Y-56300000D01*
X180952380Y-56061904D02*
X179952380Y-56061904D01*
X179952380Y-56442857D01*
X180000000Y-56538095D01*
X180047619Y-56585714D01*
X180142857Y-56633333D01*
X180285714Y-56633333D01*
X180380952Y-56585714D01*
X180428571Y-56538095D01*
X180476190Y-56442857D01*
X180476190Y-56061904D01*
X179952380Y-56966666D02*
X179952380Y-57585714D01*
X180333333Y-57252380D01*
X180333333Y-57395238D01*
X180380952Y-57490476D01*
X180428571Y-57538095D01*
X180523809Y-57585714D01*
X180761904Y-57585714D01*
X180857142Y-57538095D01*
X180904761Y-57490476D01*
X180952380Y-57395238D01*
X180952380Y-57109523D01*
X180904761Y-57014285D01*
X180857142Y-56966666D01*
X174102380Y-52033333D02*
X173626190Y-51700000D01*
X174102380Y-51461904D02*
X173102380Y-51461904D01*
X173102380Y-51842857D01*
X173150000Y-51938095D01*
X173197619Y-51985714D01*
X173292857Y-52033333D01*
X173435714Y-52033333D01*
X173530952Y-51985714D01*
X173578571Y-51938095D01*
X173626190Y-51842857D01*
X173626190Y-51461904D01*
X173435714Y-52890476D02*
X174102380Y-52890476D01*
X173054761Y-52652380D02*
X173769047Y-52414285D01*
X173769047Y-53033333D01*
X180802380Y-61333333D02*
X180326190Y-61000000D01*
X180802380Y-60761904D02*
X179802380Y-60761904D01*
X179802380Y-61142857D01*
X179850000Y-61238095D01*
X179897619Y-61285714D01*
X179992857Y-61333333D01*
X180135714Y-61333333D01*
X180230952Y-61285714D01*
X180278571Y-61238095D01*
X180326190Y-61142857D01*
X180326190Y-60761904D01*
X179802380Y-62238095D02*
X179802380Y-61761904D01*
X180278571Y-61714285D01*
X180230952Y-61761904D01*
X180183333Y-61857142D01*
X180183333Y-62095238D01*
X180230952Y-62190476D01*
X180278571Y-62238095D01*
X180373809Y-62285714D01*
X180611904Y-62285714D01*
X180707142Y-62238095D01*
X180754761Y-62190476D01*
X180802380Y-62095238D01*
X180802380Y-61857142D01*
X180754761Y-61761904D01*
X180707142Y-61714285D01*
X175702380Y-63133333D02*
X175226190Y-62800000D01*
X175702380Y-62561904D02*
X174702380Y-62561904D01*
X174702380Y-62942857D01*
X174750000Y-63038095D01*
X174797619Y-63085714D01*
X174892857Y-63133333D01*
X175035714Y-63133333D01*
X175130952Y-63085714D01*
X175178571Y-63038095D01*
X175226190Y-62942857D01*
X175226190Y-62561904D01*
X174702380Y-63990476D02*
X174702380Y-63800000D01*
X174750000Y-63704761D01*
X174797619Y-63657142D01*
X174940476Y-63561904D01*
X175130952Y-63514285D01*
X175511904Y-63514285D01*
X175607142Y-63561904D01*
X175654761Y-63609523D01*
X175702380Y-63704761D01*
X175702380Y-63895238D01*
X175654761Y-63990476D01*
X175607142Y-64038095D01*
X175511904Y-64085714D01*
X175273809Y-64085714D01*
X175178571Y-64038095D01*
X175130952Y-63990476D01*
X175083333Y-63895238D01*
X175083333Y-63704761D01*
X175130952Y-63609523D01*
X175178571Y-63561904D01*
X175273809Y-63514285D01*
X158766666Y-60802380D02*
X159100000Y-60326190D01*
X159338095Y-60802380D02*
X159338095Y-59802380D01*
X158957142Y-59802380D01*
X158861904Y-59850000D01*
X158814285Y-59897619D01*
X158766666Y-59992857D01*
X158766666Y-60135714D01*
X158814285Y-60230952D01*
X158861904Y-60278571D01*
X158957142Y-60326190D01*
X159338095Y-60326190D01*
X158433333Y-59802380D02*
X157766666Y-59802380D01*
X158195238Y-60802380D01*
X157866666Y-58302380D02*
X158200000Y-57826190D01*
X158438095Y-58302380D02*
X158438095Y-57302380D01*
X158057142Y-57302380D01*
X157961904Y-57350000D01*
X157914285Y-57397619D01*
X157866666Y-57492857D01*
X157866666Y-57635714D01*
X157914285Y-57730952D01*
X157961904Y-57778571D01*
X158057142Y-57826190D01*
X158438095Y-57826190D01*
X157295238Y-57730952D02*
X157390476Y-57683333D01*
X157438095Y-57635714D01*
X157485714Y-57540476D01*
X157485714Y-57492857D01*
X157438095Y-57397619D01*
X157390476Y-57350000D01*
X157295238Y-57302380D01*
X157104761Y-57302380D01*
X157009523Y-57350000D01*
X156961904Y-57397619D01*
X156914285Y-57492857D01*
X156914285Y-57540476D01*
X156961904Y-57635714D01*
X157009523Y-57683333D01*
X157104761Y-57730952D01*
X157295238Y-57730952D01*
X157390476Y-57778571D01*
X157438095Y-57826190D01*
X157485714Y-57921428D01*
X157485714Y-58111904D01*
X157438095Y-58207142D01*
X157390476Y-58254761D01*
X157295238Y-58302380D01*
X157104761Y-58302380D01*
X157009523Y-58254761D01*
X156961904Y-58207142D01*
X156914285Y-58111904D01*
X156914285Y-57921428D01*
X156961904Y-57826190D01*
X157009523Y-57778571D01*
X157104761Y-57730952D01*
X162652380Y-65907142D02*
X162176190Y-65573809D01*
X162652380Y-65335714D02*
X161652380Y-65335714D01*
X161652380Y-65716666D01*
X161700000Y-65811904D01*
X161747619Y-65859523D01*
X161842857Y-65907142D01*
X161985714Y-65907142D01*
X162080952Y-65859523D01*
X162128571Y-65811904D01*
X162176190Y-65716666D01*
X162176190Y-65335714D01*
X162652380Y-66859523D02*
X162652380Y-66288095D01*
X162652380Y-66573809D02*
X161652380Y-66573809D01*
X161795238Y-66478571D01*
X161890476Y-66383333D01*
X161938095Y-66288095D01*
X161652380Y-67478571D02*
X161652380Y-67573809D01*
X161700000Y-67669047D01*
X161747619Y-67716666D01*
X161842857Y-67764285D01*
X162033333Y-67811904D01*
X162271428Y-67811904D01*
X162461904Y-67764285D01*
X162557142Y-67716666D01*
X162604761Y-67669047D01*
X162652380Y-67573809D01*
X162652380Y-67478571D01*
X162604761Y-67383333D01*
X162557142Y-67335714D01*
X162461904Y-67288095D01*
X162271428Y-67240476D01*
X162033333Y-67240476D01*
X161842857Y-67288095D01*
X161747619Y-67335714D01*
X161700000Y-67383333D01*
X161652380Y-67478571D01*
X160452380Y-51907142D02*
X159976190Y-51573809D01*
X160452380Y-51335714D02*
X159452380Y-51335714D01*
X159452380Y-51716666D01*
X159500000Y-51811904D01*
X159547619Y-51859523D01*
X159642857Y-51907142D01*
X159785714Y-51907142D01*
X159880952Y-51859523D01*
X159928571Y-51811904D01*
X159976190Y-51716666D01*
X159976190Y-51335714D01*
X160452380Y-52859523D02*
X160452380Y-52288095D01*
X160452380Y-52573809D02*
X159452380Y-52573809D01*
X159595238Y-52478571D01*
X159690476Y-52383333D01*
X159738095Y-52288095D01*
X159547619Y-53240476D02*
X159500000Y-53288095D01*
X159452380Y-53383333D01*
X159452380Y-53621428D01*
X159500000Y-53716666D01*
X159547619Y-53764285D01*
X159642857Y-53811904D01*
X159738095Y-53811904D01*
X159880952Y-53764285D01*
X160452380Y-53192857D01*
X160452380Y-53811904D01*
X176292857Y-71152380D02*
X176626190Y-70676190D01*
X176864285Y-71152380D02*
X176864285Y-70152380D01*
X176483333Y-70152380D01*
X176388095Y-70200000D01*
X176340476Y-70247619D01*
X176292857Y-70342857D01*
X176292857Y-70485714D01*
X176340476Y-70580952D01*
X176388095Y-70628571D01*
X176483333Y-70676190D01*
X176864285Y-70676190D01*
X175340476Y-71152380D02*
X175911904Y-71152380D01*
X175626190Y-71152380D02*
X175626190Y-70152380D01*
X175721428Y-70295238D01*
X175816666Y-70390476D01*
X175911904Y-70438095D01*
X174435714Y-70152380D02*
X174911904Y-70152380D01*
X174959523Y-70628571D01*
X174911904Y-70580952D01*
X174816666Y-70533333D01*
X174578571Y-70533333D01*
X174483333Y-70580952D01*
X174435714Y-70628571D01*
X174388095Y-70723809D01*
X174388095Y-70961904D01*
X174435714Y-71057142D01*
X174483333Y-71104761D01*
X174578571Y-71152380D01*
X174816666Y-71152380D01*
X174911904Y-71104761D01*
X174959523Y-71057142D01*
X179242857Y-79852380D02*
X179576190Y-79376190D01*
X179814285Y-79852380D02*
X179814285Y-78852380D01*
X179433333Y-78852380D01*
X179338095Y-78900000D01*
X179290476Y-78947619D01*
X179242857Y-79042857D01*
X179242857Y-79185714D01*
X179290476Y-79280952D01*
X179338095Y-79328571D01*
X179433333Y-79376190D01*
X179814285Y-79376190D01*
X178290476Y-79852380D02*
X178861904Y-79852380D01*
X178576190Y-79852380D02*
X178576190Y-78852380D01*
X178671428Y-78995238D01*
X178766666Y-79090476D01*
X178861904Y-79138095D01*
X177433333Y-78852380D02*
X177623809Y-78852380D01*
X177719047Y-78900000D01*
X177766666Y-78947619D01*
X177861904Y-79090476D01*
X177909523Y-79280952D01*
X177909523Y-79661904D01*
X177861904Y-79757142D01*
X177814285Y-79804761D01*
X177719047Y-79852380D01*
X177528571Y-79852380D01*
X177433333Y-79804761D01*
X177385714Y-79757142D01*
X177338095Y-79661904D01*
X177338095Y-79423809D01*
X177385714Y-79328571D01*
X177433333Y-79280952D01*
X177528571Y-79233333D01*
X177719047Y-79233333D01*
X177814285Y-79280952D01*
X177861904Y-79328571D01*
X177909523Y-79423809D01*
X181152380Y-70807142D02*
X180676190Y-70473809D01*
X181152380Y-70235714D02*
X180152380Y-70235714D01*
X180152380Y-70616666D01*
X180200000Y-70711904D01*
X180247619Y-70759523D01*
X180342857Y-70807142D01*
X180485714Y-70807142D01*
X180580952Y-70759523D01*
X180628571Y-70711904D01*
X180676190Y-70616666D01*
X180676190Y-70235714D01*
X181152380Y-71759523D02*
X181152380Y-71188095D01*
X181152380Y-71473809D02*
X180152380Y-71473809D01*
X180295238Y-71378571D01*
X180390476Y-71283333D01*
X180438095Y-71188095D01*
X180152380Y-72092857D02*
X180152380Y-72759523D01*
X181152380Y-72330952D01*
X175352380Y-67607142D02*
X174876190Y-67273809D01*
X175352380Y-67035714D02*
X174352380Y-67035714D01*
X174352380Y-67416666D01*
X174400000Y-67511904D01*
X174447619Y-67559523D01*
X174542857Y-67607142D01*
X174685714Y-67607142D01*
X174780952Y-67559523D01*
X174828571Y-67511904D01*
X174876190Y-67416666D01*
X174876190Y-67035714D01*
X175352380Y-68559523D02*
X175352380Y-67988095D01*
X175352380Y-68273809D02*
X174352380Y-68273809D01*
X174495238Y-68178571D01*
X174590476Y-68083333D01*
X174638095Y-67988095D01*
X174780952Y-69130952D02*
X174733333Y-69035714D01*
X174685714Y-68988095D01*
X174590476Y-68940476D01*
X174542857Y-68940476D01*
X174447619Y-68988095D01*
X174400000Y-69035714D01*
X174352380Y-69130952D01*
X174352380Y-69321428D01*
X174400000Y-69416666D01*
X174447619Y-69464285D01*
X174542857Y-69511904D01*
X174590476Y-69511904D01*
X174685714Y-69464285D01*
X174733333Y-69416666D01*
X174780952Y-69321428D01*
X174780952Y-69130952D01*
X174828571Y-69035714D01*
X174876190Y-68988095D01*
X174971428Y-68940476D01*
X175161904Y-68940476D01*
X175257142Y-68988095D01*
X175304761Y-69035714D01*
X175352380Y-69130952D01*
X175352380Y-69321428D01*
X175304761Y-69416666D01*
X175257142Y-69464285D01*
X175161904Y-69511904D01*
X174971428Y-69511904D01*
X174876190Y-69464285D01*
X174828571Y-69416666D01*
X174780952Y-69321428D01*
X181002380Y-75857142D02*
X180526190Y-75523809D01*
X181002380Y-75285714D02*
X180002380Y-75285714D01*
X180002380Y-75666666D01*
X180050000Y-75761904D01*
X180097619Y-75809523D01*
X180192857Y-75857142D01*
X180335714Y-75857142D01*
X180430952Y-75809523D01*
X180478571Y-75761904D01*
X180526190Y-75666666D01*
X180526190Y-75285714D01*
X181002380Y-76809523D02*
X181002380Y-76238095D01*
X181002380Y-76523809D02*
X180002380Y-76523809D01*
X180145238Y-76428571D01*
X180240476Y-76333333D01*
X180288095Y-76238095D01*
X181002380Y-77285714D02*
X181002380Y-77476190D01*
X180954761Y-77571428D01*
X180907142Y-77619047D01*
X180764285Y-77714285D01*
X180573809Y-77761904D01*
X180192857Y-77761904D01*
X180097619Y-77714285D01*
X180050000Y-77666666D01*
X180002380Y-77571428D01*
X180002380Y-77380952D01*
X180050000Y-77285714D01*
X180097619Y-77238095D01*
X180192857Y-77190476D01*
X180430952Y-77190476D01*
X180526190Y-77238095D01*
X180573809Y-77285714D01*
X180621428Y-77380952D01*
X180621428Y-77571428D01*
X180573809Y-77666666D01*
X180526190Y-77714285D01*
X180430952Y-77761904D01*
X175102380Y-77857142D02*
X174626190Y-77523809D01*
X175102380Y-77285714D02*
X174102380Y-77285714D01*
X174102380Y-77666666D01*
X174150000Y-77761904D01*
X174197619Y-77809523D01*
X174292857Y-77857142D01*
X174435714Y-77857142D01*
X174530952Y-77809523D01*
X174578571Y-77761904D01*
X174626190Y-77666666D01*
X174626190Y-77285714D01*
X174197619Y-78238095D02*
X174150000Y-78285714D01*
X174102380Y-78380952D01*
X174102380Y-78619047D01*
X174150000Y-78714285D01*
X174197619Y-78761904D01*
X174292857Y-78809523D01*
X174388095Y-78809523D01*
X174530952Y-78761904D01*
X175102380Y-78190476D01*
X175102380Y-78809523D01*
X174102380Y-79428571D02*
X174102380Y-79523809D01*
X174150000Y-79619047D01*
X174197619Y-79666666D01*
X174292857Y-79714285D01*
X174483333Y-79761904D01*
X174721428Y-79761904D01*
X174911904Y-79714285D01*
X175007142Y-79666666D01*
X175054761Y-79619047D01*
X175102380Y-79523809D01*
X175102380Y-79428571D01*
X175054761Y-79333333D01*
X175007142Y-79285714D01*
X174911904Y-79238095D01*
X174721428Y-79190476D01*
X174483333Y-79190476D01*
X174292857Y-79238095D01*
X174197619Y-79285714D01*
X174150000Y-79333333D01*
X174102380Y-79428571D01*
X161942857Y-74102380D02*
X162276190Y-73626190D01*
X162514285Y-74102380D02*
X162514285Y-73102380D01*
X162133333Y-73102380D01*
X162038095Y-73150000D01*
X161990476Y-73197619D01*
X161942857Y-73292857D01*
X161942857Y-73435714D01*
X161990476Y-73530952D01*
X162038095Y-73578571D01*
X162133333Y-73626190D01*
X162514285Y-73626190D01*
X161561904Y-73197619D02*
X161514285Y-73150000D01*
X161419047Y-73102380D01*
X161180952Y-73102380D01*
X161085714Y-73150000D01*
X161038095Y-73197619D01*
X160990476Y-73292857D01*
X160990476Y-73388095D01*
X161038095Y-73530952D01*
X161609523Y-74102380D01*
X160990476Y-74102380D01*
X160038095Y-74102380D02*
X160609523Y-74102380D01*
X160323809Y-74102380D02*
X160323809Y-73102380D01*
X160419047Y-73245238D01*
X160514285Y-73340476D01*
X160609523Y-73388095D01*
X160942857Y-71602380D02*
X161276190Y-71126190D01*
X161514285Y-71602380D02*
X161514285Y-70602380D01*
X161133333Y-70602380D01*
X161038095Y-70650000D01*
X160990476Y-70697619D01*
X160942857Y-70792857D01*
X160942857Y-70935714D01*
X160990476Y-71030952D01*
X161038095Y-71078571D01*
X161133333Y-71126190D01*
X161514285Y-71126190D01*
X160561904Y-70697619D02*
X160514285Y-70650000D01*
X160419047Y-70602380D01*
X160180952Y-70602380D01*
X160085714Y-70650000D01*
X160038095Y-70697619D01*
X159990476Y-70792857D01*
X159990476Y-70888095D01*
X160038095Y-71030952D01*
X160609523Y-71602380D01*
X159990476Y-71602380D01*
X159609523Y-70697619D02*
X159561904Y-70650000D01*
X159466666Y-70602380D01*
X159228571Y-70602380D01*
X159133333Y-70650000D01*
X159085714Y-70697619D01*
X159038095Y-70792857D01*
X159038095Y-70888095D01*
X159085714Y-71030952D01*
X159657142Y-71602380D01*
X159038095Y-71602380D01*
X163902380Y-77857142D02*
X163426190Y-77523809D01*
X163902380Y-77285714D02*
X162902380Y-77285714D01*
X162902380Y-77666666D01*
X162950000Y-77761904D01*
X162997619Y-77809523D01*
X163092857Y-77857142D01*
X163235714Y-77857142D01*
X163330952Y-77809523D01*
X163378571Y-77761904D01*
X163426190Y-77666666D01*
X163426190Y-77285714D01*
X162997619Y-78238095D02*
X162950000Y-78285714D01*
X162902380Y-78380952D01*
X162902380Y-78619047D01*
X162950000Y-78714285D01*
X162997619Y-78761904D01*
X163092857Y-78809523D01*
X163188095Y-78809523D01*
X163330952Y-78761904D01*
X163902380Y-78190476D01*
X163902380Y-78809523D01*
X163235714Y-79666666D02*
X163902380Y-79666666D01*
X162854761Y-79428571D02*
X163569047Y-79190476D01*
X163569047Y-79809523D01*
X160702380Y-69157142D02*
X160226190Y-68823809D01*
X160702380Y-68585714D02*
X159702380Y-68585714D01*
X159702380Y-68966666D01*
X159750000Y-69061904D01*
X159797619Y-69109523D01*
X159892857Y-69157142D01*
X160035714Y-69157142D01*
X160130952Y-69109523D01*
X160178571Y-69061904D01*
X160226190Y-68966666D01*
X160226190Y-68585714D01*
X159797619Y-69538095D02*
X159750000Y-69585714D01*
X159702380Y-69680952D01*
X159702380Y-69919047D01*
X159750000Y-70014285D01*
X159797619Y-70061904D01*
X159892857Y-70109523D01*
X159988095Y-70109523D01*
X160130952Y-70061904D01*
X160702380Y-69490476D01*
X160702380Y-70109523D01*
X159702380Y-70966666D02*
X159702380Y-70776190D01*
X159750000Y-70680952D01*
X159797619Y-70633333D01*
X159940476Y-70538095D01*
X160130952Y-70490476D01*
X160511904Y-70490476D01*
X160607142Y-70538095D01*
X160654761Y-70585714D01*
X160702380Y-70680952D01*
X160702380Y-70871428D01*
X160654761Y-70966666D01*
X160607142Y-71014285D01*
X160511904Y-71061904D01*
X160273809Y-71061904D01*
X160178571Y-71014285D01*
X160130952Y-70966666D01*
X160083333Y-70871428D01*
X160083333Y-70680952D01*
X160130952Y-70585714D01*
X160178571Y-70538095D01*
X160273809Y-70490476D01*
X179042857Y-82602380D02*
X179376190Y-82126190D01*
X179614285Y-82602380D02*
X179614285Y-81602380D01*
X179233333Y-81602380D01*
X179138095Y-81650000D01*
X179090476Y-81697619D01*
X179042857Y-81792857D01*
X179042857Y-81935714D01*
X179090476Y-82030952D01*
X179138095Y-82078571D01*
X179233333Y-82126190D01*
X179614285Y-82126190D01*
X178661904Y-81697619D02*
X178614285Y-81650000D01*
X178519047Y-81602380D01*
X178280952Y-81602380D01*
X178185714Y-81650000D01*
X178138095Y-81697619D01*
X178090476Y-81792857D01*
X178090476Y-81888095D01*
X178138095Y-82030952D01*
X178709523Y-82602380D01*
X178090476Y-82602380D01*
X177757142Y-81602380D02*
X177090476Y-81602380D01*
X177519047Y-82602380D01*
X179092857Y-92802380D02*
X179426190Y-92326190D01*
X179664285Y-92802380D02*
X179664285Y-91802380D01*
X179283333Y-91802380D01*
X179188095Y-91850000D01*
X179140476Y-91897619D01*
X179092857Y-91992857D01*
X179092857Y-92135714D01*
X179140476Y-92230952D01*
X179188095Y-92278571D01*
X179283333Y-92326190D01*
X179664285Y-92326190D01*
X178711904Y-91897619D02*
X178664285Y-91850000D01*
X178569047Y-91802380D01*
X178330952Y-91802380D01*
X178235714Y-91850000D01*
X178188095Y-91897619D01*
X178140476Y-91992857D01*
X178140476Y-92088095D01*
X178188095Y-92230952D01*
X178759523Y-92802380D01*
X178140476Y-92802380D01*
X177569047Y-92230952D02*
X177664285Y-92183333D01*
X177711904Y-92135714D01*
X177759523Y-92040476D01*
X177759523Y-91992857D01*
X177711904Y-91897619D01*
X177664285Y-91850000D01*
X177569047Y-91802380D01*
X177378571Y-91802380D01*
X177283333Y-91850000D01*
X177235714Y-91897619D01*
X177188095Y-91992857D01*
X177188095Y-92040476D01*
X177235714Y-92135714D01*
X177283333Y-92183333D01*
X177378571Y-92230952D01*
X177569047Y-92230952D01*
X177664285Y-92278571D01*
X177711904Y-92326190D01*
X177759523Y-92421428D01*
X177759523Y-92611904D01*
X177711904Y-92707142D01*
X177664285Y-92754761D01*
X177569047Y-92802380D01*
X177378571Y-92802380D01*
X177283333Y-92754761D01*
X177235714Y-92707142D01*
X177188095Y-92611904D01*
X177188095Y-92421428D01*
X177235714Y-92326190D01*
X177283333Y-92278571D01*
X177378571Y-92230952D01*
X180752380Y-84207142D02*
X180276190Y-83873809D01*
X180752380Y-83635714D02*
X179752380Y-83635714D01*
X179752380Y-84016666D01*
X179800000Y-84111904D01*
X179847619Y-84159523D01*
X179942857Y-84207142D01*
X180085714Y-84207142D01*
X180180952Y-84159523D01*
X180228571Y-84111904D01*
X180276190Y-84016666D01*
X180276190Y-83635714D01*
X179847619Y-84588095D02*
X179800000Y-84635714D01*
X179752380Y-84730952D01*
X179752380Y-84969047D01*
X179800000Y-85064285D01*
X179847619Y-85111904D01*
X179942857Y-85159523D01*
X180038095Y-85159523D01*
X180180952Y-85111904D01*
X180752380Y-84540476D01*
X180752380Y-85159523D01*
X180752380Y-85635714D02*
X180752380Y-85826190D01*
X180704761Y-85921428D01*
X180657142Y-85969047D01*
X180514285Y-86064285D01*
X180323809Y-86111904D01*
X179942857Y-86111904D01*
X179847619Y-86064285D01*
X179800000Y-86016666D01*
X179752380Y-85921428D01*
X179752380Y-85730952D01*
X179800000Y-85635714D01*
X179847619Y-85588095D01*
X179942857Y-85540476D01*
X180180952Y-85540476D01*
X180276190Y-85588095D01*
X180323809Y-85635714D01*
X180371428Y-85730952D01*
X180371428Y-85921428D01*
X180323809Y-86016666D01*
X180276190Y-86064285D01*
X180180952Y-86111904D01*
X175752380Y-83407142D02*
X175276190Y-83073809D01*
X175752380Y-82835714D02*
X174752380Y-82835714D01*
X174752380Y-83216666D01*
X174800000Y-83311904D01*
X174847619Y-83359523D01*
X174942857Y-83407142D01*
X175085714Y-83407142D01*
X175180952Y-83359523D01*
X175228571Y-83311904D01*
X175276190Y-83216666D01*
X175276190Y-82835714D01*
X174752380Y-83740476D02*
X174752380Y-84359523D01*
X175133333Y-84026190D01*
X175133333Y-84169047D01*
X175180952Y-84264285D01*
X175228571Y-84311904D01*
X175323809Y-84359523D01*
X175561904Y-84359523D01*
X175657142Y-84311904D01*
X175704761Y-84264285D01*
X175752380Y-84169047D01*
X175752380Y-83883333D01*
X175704761Y-83788095D01*
X175657142Y-83740476D01*
X174752380Y-84978571D02*
X174752380Y-85073809D01*
X174800000Y-85169047D01*
X174847619Y-85216666D01*
X174942857Y-85264285D01*
X175133333Y-85311904D01*
X175371428Y-85311904D01*
X175561904Y-85264285D01*
X175657142Y-85216666D01*
X175704761Y-85169047D01*
X175752380Y-85073809D01*
X175752380Y-84978571D01*
X175704761Y-84883333D01*
X175657142Y-84835714D01*
X175561904Y-84788095D01*
X175371428Y-84740476D01*
X175133333Y-84740476D01*
X174942857Y-84788095D01*
X174847619Y-84835714D01*
X174800000Y-84883333D01*
X174752380Y-84978571D01*
X180602380Y-88857142D02*
X180126190Y-88523809D01*
X180602380Y-88285714D02*
X179602380Y-88285714D01*
X179602380Y-88666666D01*
X179650000Y-88761904D01*
X179697619Y-88809523D01*
X179792857Y-88857142D01*
X179935714Y-88857142D01*
X180030952Y-88809523D01*
X180078571Y-88761904D01*
X180126190Y-88666666D01*
X180126190Y-88285714D01*
X179602380Y-89190476D02*
X179602380Y-89809523D01*
X179983333Y-89476190D01*
X179983333Y-89619047D01*
X180030952Y-89714285D01*
X180078571Y-89761904D01*
X180173809Y-89809523D01*
X180411904Y-89809523D01*
X180507142Y-89761904D01*
X180554761Y-89714285D01*
X180602380Y-89619047D01*
X180602380Y-89333333D01*
X180554761Y-89238095D01*
X180507142Y-89190476D01*
X180602380Y-90761904D02*
X180602380Y-90190476D01*
X180602380Y-90476190D02*
X179602380Y-90476190D01*
X179745238Y-90380952D01*
X179840476Y-90285714D01*
X179888095Y-90190476D01*
X175402380Y-92157142D02*
X174926190Y-91823809D01*
X175402380Y-91585714D02*
X174402380Y-91585714D01*
X174402380Y-91966666D01*
X174450000Y-92061904D01*
X174497619Y-92109523D01*
X174592857Y-92157142D01*
X174735714Y-92157142D01*
X174830952Y-92109523D01*
X174878571Y-92061904D01*
X174926190Y-91966666D01*
X174926190Y-91585714D01*
X174402380Y-92490476D02*
X174402380Y-93109523D01*
X174783333Y-92776190D01*
X174783333Y-92919047D01*
X174830952Y-93014285D01*
X174878571Y-93061904D01*
X174973809Y-93109523D01*
X175211904Y-93109523D01*
X175307142Y-93061904D01*
X175354761Y-93014285D01*
X175402380Y-92919047D01*
X175402380Y-92633333D01*
X175354761Y-92538095D01*
X175307142Y-92490476D01*
X174497619Y-93490476D02*
X174450000Y-93538095D01*
X174402380Y-93633333D01*
X174402380Y-93871428D01*
X174450000Y-93966666D01*
X174497619Y-94014285D01*
X174592857Y-94061904D01*
X174688095Y-94061904D01*
X174830952Y-94014285D01*
X175402380Y-93442857D01*
X175402380Y-94061904D01*
X158642857Y-90302380D02*
X158976190Y-89826190D01*
X159214285Y-90302380D02*
X159214285Y-89302380D01*
X158833333Y-89302380D01*
X158738095Y-89350000D01*
X158690476Y-89397619D01*
X158642857Y-89492857D01*
X158642857Y-89635714D01*
X158690476Y-89730952D01*
X158738095Y-89778571D01*
X158833333Y-89826190D01*
X159214285Y-89826190D01*
X158309523Y-89302380D02*
X157690476Y-89302380D01*
X158023809Y-89683333D01*
X157880952Y-89683333D01*
X157785714Y-89730952D01*
X157738095Y-89778571D01*
X157690476Y-89873809D01*
X157690476Y-90111904D01*
X157738095Y-90207142D01*
X157785714Y-90254761D01*
X157880952Y-90302380D01*
X158166666Y-90302380D01*
X158261904Y-90254761D01*
X158309523Y-90207142D01*
X157357142Y-89302380D02*
X156738095Y-89302380D01*
X157071428Y-89683333D01*
X156928571Y-89683333D01*
X156833333Y-89730952D01*
X156785714Y-89778571D01*
X156738095Y-89873809D01*
X156738095Y-90111904D01*
X156785714Y-90207142D01*
X156833333Y-90254761D01*
X156928571Y-90302380D01*
X157214285Y-90302380D01*
X157309523Y-90254761D01*
X157357142Y-90207142D01*
X157842857Y-87902380D02*
X158176190Y-87426190D01*
X158414285Y-87902380D02*
X158414285Y-86902380D01*
X158033333Y-86902380D01*
X157938095Y-86950000D01*
X157890476Y-86997619D01*
X157842857Y-87092857D01*
X157842857Y-87235714D01*
X157890476Y-87330952D01*
X157938095Y-87378571D01*
X158033333Y-87426190D01*
X158414285Y-87426190D01*
X157509523Y-86902380D02*
X156890476Y-86902380D01*
X157223809Y-87283333D01*
X157080952Y-87283333D01*
X156985714Y-87330952D01*
X156938095Y-87378571D01*
X156890476Y-87473809D01*
X156890476Y-87711904D01*
X156938095Y-87807142D01*
X156985714Y-87854761D01*
X157080952Y-87902380D01*
X157366666Y-87902380D01*
X157461904Y-87854761D01*
X157509523Y-87807142D01*
X156033333Y-87235714D02*
X156033333Y-87902380D01*
X156271428Y-86854761D02*
X156509523Y-87569047D01*
X155890476Y-87569047D01*
X159942857Y-94052380D02*
X160276190Y-93576190D01*
X160514285Y-94052380D02*
X160514285Y-93052380D01*
X160133333Y-93052380D01*
X160038095Y-93100000D01*
X159990476Y-93147619D01*
X159942857Y-93242857D01*
X159942857Y-93385714D01*
X159990476Y-93480952D01*
X160038095Y-93528571D01*
X160133333Y-93576190D01*
X160514285Y-93576190D01*
X159609523Y-93052380D02*
X158990476Y-93052380D01*
X159323809Y-93433333D01*
X159180952Y-93433333D01*
X159085714Y-93480952D01*
X159038095Y-93528571D01*
X158990476Y-93623809D01*
X158990476Y-93861904D01*
X159038095Y-93957142D01*
X159085714Y-94004761D01*
X159180952Y-94052380D01*
X159466666Y-94052380D01*
X159561904Y-94004761D01*
X159609523Y-93957142D01*
X158133333Y-93052380D02*
X158323809Y-93052380D01*
X158419047Y-93100000D01*
X158466666Y-93147619D01*
X158561904Y-93290476D01*
X158609523Y-93480952D01*
X158609523Y-93861904D01*
X158561904Y-93957142D01*
X158514285Y-94004761D01*
X158419047Y-94052380D01*
X158228571Y-94052380D01*
X158133333Y-94004761D01*
X158085714Y-93957142D01*
X158038095Y-93861904D01*
X158038095Y-93623809D01*
X158085714Y-93528571D01*
X158133333Y-93480952D01*
X158228571Y-93433333D01*
X158419047Y-93433333D01*
X158514285Y-93480952D01*
X158561904Y-93528571D01*
X158609523Y-93623809D01*
X162342857Y-82202380D02*
X162676190Y-81726190D01*
X162914285Y-82202380D02*
X162914285Y-81202380D01*
X162533333Y-81202380D01*
X162438095Y-81250000D01*
X162390476Y-81297619D01*
X162342857Y-81392857D01*
X162342857Y-81535714D01*
X162390476Y-81630952D01*
X162438095Y-81678571D01*
X162533333Y-81726190D01*
X162914285Y-81726190D01*
X162009523Y-81202380D02*
X161390476Y-81202380D01*
X161723809Y-81583333D01*
X161580952Y-81583333D01*
X161485714Y-81630952D01*
X161438095Y-81678571D01*
X161390476Y-81773809D01*
X161390476Y-82011904D01*
X161438095Y-82107142D01*
X161485714Y-82154761D01*
X161580952Y-82202380D01*
X161866666Y-82202380D01*
X161961904Y-82154761D01*
X162009523Y-82107142D01*
X160819047Y-81630952D02*
X160914285Y-81583333D01*
X160961904Y-81535714D01*
X161009523Y-81440476D01*
X161009523Y-81392857D01*
X160961904Y-81297619D01*
X160914285Y-81250000D01*
X160819047Y-81202380D01*
X160628571Y-81202380D01*
X160533333Y-81250000D01*
X160485714Y-81297619D01*
X160438095Y-81392857D01*
X160438095Y-81440476D01*
X160485714Y-81535714D01*
X160533333Y-81583333D01*
X160628571Y-81630952D01*
X160819047Y-81630952D01*
X160914285Y-81678571D01*
X160961904Y-81726190D01*
X161009523Y-81821428D01*
X161009523Y-82011904D01*
X160961904Y-82107142D01*
X160914285Y-82154761D01*
X160819047Y-82202380D01*
X160628571Y-82202380D01*
X160533333Y-82154761D01*
X160485714Y-82107142D01*
X160438095Y-82011904D01*
X160438095Y-81821428D01*
X160485714Y-81726190D01*
X160533333Y-81678571D01*
X160628571Y-81630952D01*
X179292857Y-102352380D02*
X179626190Y-101876190D01*
X179864285Y-102352380D02*
X179864285Y-101352380D01*
X179483333Y-101352380D01*
X179388095Y-101400000D01*
X179340476Y-101447619D01*
X179292857Y-101542857D01*
X179292857Y-101685714D01*
X179340476Y-101780952D01*
X179388095Y-101828571D01*
X179483333Y-101876190D01*
X179864285Y-101876190D01*
X178959523Y-101352380D02*
X178340476Y-101352380D01*
X178673809Y-101733333D01*
X178530952Y-101733333D01*
X178435714Y-101780952D01*
X178388095Y-101828571D01*
X178340476Y-101923809D01*
X178340476Y-102161904D01*
X178388095Y-102257142D01*
X178435714Y-102304761D01*
X178530952Y-102352380D01*
X178816666Y-102352380D01*
X178911904Y-102304761D01*
X178959523Y-102257142D01*
X177864285Y-102352380D02*
X177673809Y-102352380D01*
X177578571Y-102304761D01*
X177530952Y-102257142D01*
X177435714Y-102114285D01*
X177388095Y-101923809D01*
X177388095Y-101542857D01*
X177435714Y-101447619D01*
X177483333Y-101400000D01*
X177578571Y-101352380D01*
X177769047Y-101352380D01*
X177864285Y-101400000D01*
X177911904Y-101447619D01*
X177959523Y-101542857D01*
X177959523Y-101780952D01*
X177911904Y-101876190D01*
X177864285Y-101923809D01*
X177769047Y-101971428D01*
X177578571Y-101971428D01*
X177483333Y-101923809D01*
X177435714Y-101876190D01*
X177388095Y-101780952D01*
X179392857Y-104952380D02*
X179726190Y-104476190D01*
X179964285Y-104952380D02*
X179964285Y-103952380D01*
X179583333Y-103952380D01*
X179488095Y-104000000D01*
X179440476Y-104047619D01*
X179392857Y-104142857D01*
X179392857Y-104285714D01*
X179440476Y-104380952D01*
X179488095Y-104428571D01*
X179583333Y-104476190D01*
X179964285Y-104476190D01*
X178535714Y-104285714D02*
X178535714Y-104952380D01*
X178773809Y-103904761D02*
X179011904Y-104619047D01*
X178392857Y-104619047D01*
X177821428Y-103952380D02*
X177726190Y-103952380D01*
X177630952Y-104000000D01*
X177583333Y-104047619D01*
X177535714Y-104142857D01*
X177488095Y-104333333D01*
X177488095Y-104571428D01*
X177535714Y-104761904D01*
X177583333Y-104857142D01*
X177630952Y-104904761D01*
X177726190Y-104952380D01*
X177821428Y-104952380D01*
X177916666Y-104904761D01*
X177964285Y-104857142D01*
X178011904Y-104761904D01*
X178059523Y-104571428D01*
X178059523Y-104333333D01*
X178011904Y-104142857D01*
X177964285Y-104047619D01*
X177916666Y-104000000D01*
X177821428Y-103952380D01*
X179692857Y-99952380D02*
X180026190Y-99476190D01*
X180264285Y-99952380D02*
X180264285Y-98952380D01*
X179883333Y-98952380D01*
X179788095Y-99000000D01*
X179740476Y-99047619D01*
X179692857Y-99142857D01*
X179692857Y-99285714D01*
X179740476Y-99380952D01*
X179788095Y-99428571D01*
X179883333Y-99476190D01*
X180264285Y-99476190D01*
X178835714Y-99285714D02*
X178835714Y-99952380D01*
X179073809Y-98904761D02*
X179311904Y-99619047D01*
X178692857Y-99619047D01*
X177788095Y-99952380D02*
X178359523Y-99952380D01*
X178073809Y-99952380D02*
X178073809Y-98952380D01*
X178169047Y-99095238D01*
X178264285Y-99190476D01*
X178359523Y-99238095D01*
X174292857Y-97302380D02*
X174626190Y-96826190D01*
X174864285Y-97302380D02*
X174864285Y-96302380D01*
X174483333Y-96302380D01*
X174388095Y-96350000D01*
X174340476Y-96397619D01*
X174292857Y-96492857D01*
X174292857Y-96635714D01*
X174340476Y-96730952D01*
X174388095Y-96778571D01*
X174483333Y-96826190D01*
X174864285Y-96826190D01*
X173435714Y-96635714D02*
X173435714Y-97302380D01*
X173673809Y-96254761D02*
X173911904Y-96969047D01*
X173292857Y-96969047D01*
X172959523Y-96397619D02*
X172911904Y-96350000D01*
X172816666Y-96302380D01*
X172578571Y-96302380D01*
X172483333Y-96350000D01*
X172435714Y-96397619D01*
X172388095Y-96492857D01*
X172388095Y-96588095D01*
X172435714Y-96730952D01*
X173007142Y-97302380D01*
X172388095Y-97302380D01*
X180042857Y-107302380D02*
X180376190Y-106826190D01*
X180614285Y-107302380D02*
X180614285Y-106302380D01*
X180233333Y-106302380D01*
X180138095Y-106350000D01*
X180090476Y-106397619D01*
X180042857Y-106492857D01*
X180042857Y-106635714D01*
X180090476Y-106730952D01*
X180138095Y-106778571D01*
X180233333Y-106826190D01*
X180614285Y-106826190D01*
X179185714Y-106635714D02*
X179185714Y-107302380D01*
X179423809Y-106254761D02*
X179661904Y-106969047D01*
X179042857Y-106969047D01*
X178757142Y-106302380D02*
X178138095Y-106302380D01*
X178471428Y-106683333D01*
X178328571Y-106683333D01*
X178233333Y-106730952D01*
X178185714Y-106778571D01*
X178138095Y-106873809D01*
X178138095Y-107111904D01*
X178185714Y-107207142D01*
X178233333Y-107254761D01*
X178328571Y-107302380D01*
X178614285Y-107302380D01*
X178709523Y-107254761D01*
X178757142Y-107207142D01*
X176242857Y-109552380D02*
X176576190Y-109076190D01*
X176814285Y-109552380D02*
X176814285Y-108552380D01*
X176433333Y-108552380D01*
X176338095Y-108600000D01*
X176290476Y-108647619D01*
X176242857Y-108742857D01*
X176242857Y-108885714D01*
X176290476Y-108980952D01*
X176338095Y-109028571D01*
X176433333Y-109076190D01*
X176814285Y-109076190D01*
X175385714Y-108885714D02*
X175385714Y-109552380D01*
X175623809Y-108504761D02*
X175861904Y-109219047D01*
X175242857Y-109219047D01*
X174433333Y-108885714D02*
X174433333Y-109552380D01*
X174671428Y-108504761D02*
X174909523Y-109219047D01*
X174290476Y-109219047D01*
X159042857Y-104852380D02*
X159376190Y-104376190D01*
X159614285Y-104852380D02*
X159614285Y-103852380D01*
X159233333Y-103852380D01*
X159138095Y-103900000D01*
X159090476Y-103947619D01*
X159042857Y-104042857D01*
X159042857Y-104185714D01*
X159090476Y-104280952D01*
X159138095Y-104328571D01*
X159233333Y-104376190D01*
X159614285Y-104376190D01*
X158185714Y-104185714D02*
X158185714Y-104852380D01*
X158423809Y-103804761D02*
X158661904Y-104519047D01*
X158042857Y-104519047D01*
X157185714Y-103852380D02*
X157661904Y-103852380D01*
X157709523Y-104328571D01*
X157661904Y-104280952D01*
X157566666Y-104233333D01*
X157328571Y-104233333D01*
X157233333Y-104280952D01*
X157185714Y-104328571D01*
X157138095Y-104423809D01*
X157138095Y-104661904D01*
X157185714Y-104757142D01*
X157233333Y-104804761D01*
X157328571Y-104852380D01*
X157566666Y-104852380D01*
X157661904Y-104804761D01*
X157709523Y-104757142D01*
X159742857Y-100652380D02*
X160076190Y-100176190D01*
X160314285Y-100652380D02*
X160314285Y-99652380D01*
X159933333Y-99652380D01*
X159838095Y-99700000D01*
X159790476Y-99747619D01*
X159742857Y-99842857D01*
X159742857Y-99985714D01*
X159790476Y-100080952D01*
X159838095Y-100128571D01*
X159933333Y-100176190D01*
X160314285Y-100176190D01*
X158885714Y-99985714D02*
X158885714Y-100652380D01*
X159123809Y-99604761D02*
X159361904Y-100319047D01*
X158742857Y-100319047D01*
X157933333Y-99652380D02*
X158123809Y-99652380D01*
X158219047Y-99700000D01*
X158266666Y-99747619D01*
X158361904Y-99890476D01*
X158409523Y-100080952D01*
X158409523Y-100461904D01*
X158361904Y-100557142D01*
X158314285Y-100604761D01*
X158219047Y-100652380D01*
X158028571Y-100652380D01*
X157933333Y-100604761D01*
X157885714Y-100557142D01*
X157838095Y-100461904D01*
X157838095Y-100223809D01*
X157885714Y-100128571D01*
X157933333Y-100080952D01*
X158028571Y-100033333D01*
X158219047Y-100033333D01*
X158314285Y-100080952D01*
X158361904Y-100128571D01*
X158409523Y-100223809D01*
X160292857Y-108602380D02*
X160626190Y-108126190D01*
X160864285Y-108602380D02*
X160864285Y-107602380D01*
X160483333Y-107602380D01*
X160388095Y-107650000D01*
X160340476Y-107697619D01*
X160292857Y-107792857D01*
X160292857Y-107935714D01*
X160340476Y-108030952D01*
X160388095Y-108078571D01*
X160483333Y-108126190D01*
X160864285Y-108126190D01*
X159435714Y-107935714D02*
X159435714Y-108602380D01*
X159673809Y-107554761D02*
X159911904Y-108269047D01*
X159292857Y-108269047D01*
X158769047Y-108030952D02*
X158864285Y-107983333D01*
X158911904Y-107935714D01*
X158959523Y-107840476D01*
X158959523Y-107792857D01*
X158911904Y-107697619D01*
X158864285Y-107650000D01*
X158769047Y-107602380D01*
X158578571Y-107602380D01*
X158483333Y-107650000D01*
X158435714Y-107697619D01*
X158388095Y-107792857D01*
X158388095Y-107840476D01*
X158435714Y-107935714D01*
X158483333Y-107983333D01*
X158578571Y-108030952D01*
X158769047Y-108030952D01*
X158864285Y-108078571D01*
X158911904Y-108126190D01*
X158959523Y-108221428D01*
X158959523Y-108411904D01*
X158911904Y-108507142D01*
X158864285Y-108554761D01*
X158769047Y-108602380D01*
X158578571Y-108602380D01*
X158483333Y-108554761D01*
X158435714Y-108507142D01*
X158388095Y-108411904D01*
X158388095Y-108221428D01*
X158435714Y-108126190D01*
X158483333Y-108078571D01*
X158578571Y-108030952D01*
X162942857Y-96902380D02*
X163276190Y-96426190D01*
X163514285Y-96902380D02*
X163514285Y-95902380D01*
X163133333Y-95902380D01*
X163038095Y-95950000D01*
X162990476Y-95997619D01*
X162942857Y-96092857D01*
X162942857Y-96235714D01*
X162990476Y-96330952D01*
X163038095Y-96378571D01*
X163133333Y-96426190D01*
X163514285Y-96426190D01*
X162038095Y-95902380D02*
X162514285Y-95902380D01*
X162561904Y-96378571D01*
X162514285Y-96330952D01*
X162419047Y-96283333D01*
X162180952Y-96283333D01*
X162085714Y-96330952D01*
X162038095Y-96378571D01*
X161990476Y-96473809D01*
X161990476Y-96711904D01*
X162038095Y-96807142D01*
X162085714Y-96854761D01*
X162180952Y-96902380D01*
X162419047Y-96902380D01*
X162514285Y-96854761D01*
X162561904Y-96807142D01*
X161371428Y-95902380D02*
X161276190Y-95902380D01*
X161180952Y-95950000D01*
X161133333Y-95997619D01*
X161085714Y-96092857D01*
X161038095Y-96283333D01*
X161038095Y-96521428D01*
X161085714Y-96711904D01*
X161133333Y-96807142D01*
X161180952Y-96854761D01*
X161276190Y-96902380D01*
X161371428Y-96902380D01*
X161466666Y-96854761D01*
X161514285Y-96807142D01*
X161561904Y-96711904D01*
X161609523Y-96521428D01*
X161609523Y-96283333D01*
X161561904Y-96092857D01*
X161514285Y-95997619D01*
X161466666Y-95950000D01*
X161371428Y-95902380D01*
X176242857Y-114902380D02*
X176576190Y-114426190D01*
X176814285Y-114902380D02*
X176814285Y-113902380D01*
X176433333Y-113902380D01*
X176338095Y-113950000D01*
X176290476Y-113997619D01*
X176242857Y-114092857D01*
X176242857Y-114235714D01*
X176290476Y-114330952D01*
X176338095Y-114378571D01*
X176433333Y-114426190D01*
X176814285Y-114426190D01*
X175338095Y-113902380D02*
X175814285Y-113902380D01*
X175861904Y-114378571D01*
X175814285Y-114330952D01*
X175719047Y-114283333D01*
X175480952Y-114283333D01*
X175385714Y-114330952D01*
X175338095Y-114378571D01*
X175290476Y-114473809D01*
X175290476Y-114711904D01*
X175338095Y-114807142D01*
X175385714Y-114854761D01*
X175480952Y-114902380D01*
X175719047Y-114902380D01*
X175814285Y-114854761D01*
X175861904Y-114807142D01*
X174338095Y-114902380D02*
X174909523Y-114902380D01*
X174623809Y-114902380D02*
X174623809Y-113902380D01*
X174719047Y-114045238D01*
X174814285Y-114140476D01*
X174909523Y-114188095D01*
X176852380Y-120607142D02*
X176376190Y-120273809D01*
X176852380Y-120035714D02*
X175852380Y-120035714D01*
X175852380Y-120416666D01*
X175900000Y-120511904D01*
X175947619Y-120559523D01*
X176042857Y-120607142D01*
X176185714Y-120607142D01*
X176280952Y-120559523D01*
X176328571Y-120511904D01*
X176376190Y-120416666D01*
X176376190Y-120035714D01*
X175852380Y-121511904D02*
X175852380Y-121035714D01*
X176328571Y-120988095D01*
X176280952Y-121035714D01*
X176233333Y-121130952D01*
X176233333Y-121369047D01*
X176280952Y-121464285D01*
X176328571Y-121511904D01*
X176423809Y-121559523D01*
X176661904Y-121559523D01*
X176757142Y-121511904D01*
X176804761Y-121464285D01*
X176852380Y-121369047D01*
X176852380Y-121130952D01*
X176804761Y-121035714D01*
X176757142Y-120988095D01*
X175947619Y-121940476D02*
X175900000Y-121988095D01*
X175852380Y-122083333D01*
X175852380Y-122321428D01*
X175900000Y-122416666D01*
X175947619Y-122464285D01*
X176042857Y-122511904D01*
X176138095Y-122511904D01*
X176280952Y-122464285D01*
X176852380Y-121892857D01*
X176852380Y-122511904D01*
X180702380Y-114457142D02*
X180226190Y-114123809D01*
X180702380Y-113885714D02*
X179702380Y-113885714D01*
X179702380Y-114266666D01*
X179750000Y-114361904D01*
X179797619Y-114409523D01*
X179892857Y-114457142D01*
X180035714Y-114457142D01*
X180130952Y-114409523D01*
X180178571Y-114361904D01*
X180226190Y-114266666D01*
X180226190Y-113885714D01*
X179702380Y-115361904D02*
X179702380Y-114885714D01*
X180178571Y-114838095D01*
X180130952Y-114885714D01*
X180083333Y-114980952D01*
X180083333Y-115219047D01*
X180130952Y-115314285D01*
X180178571Y-115361904D01*
X180273809Y-115409523D01*
X180511904Y-115409523D01*
X180607142Y-115361904D01*
X180654761Y-115314285D01*
X180702380Y-115219047D01*
X180702380Y-114980952D01*
X180654761Y-114885714D01*
X180607142Y-114838095D01*
X179702380Y-115742857D02*
X179702380Y-116361904D01*
X180083333Y-116028571D01*
X180083333Y-116171428D01*
X180130952Y-116266666D01*
X180178571Y-116314285D01*
X180273809Y-116361904D01*
X180511904Y-116361904D01*
X180607142Y-116314285D01*
X180654761Y-116266666D01*
X180702380Y-116171428D01*
X180702380Y-115885714D01*
X180654761Y-115790476D01*
X180607142Y-115742857D01*
X176442857Y-113102380D02*
X176776190Y-112626190D01*
X177014285Y-113102380D02*
X177014285Y-112102380D01*
X176633333Y-112102380D01*
X176538095Y-112150000D01*
X176490476Y-112197619D01*
X176442857Y-112292857D01*
X176442857Y-112435714D01*
X176490476Y-112530952D01*
X176538095Y-112578571D01*
X176633333Y-112626190D01*
X177014285Y-112626190D01*
X175538095Y-112102380D02*
X176014285Y-112102380D01*
X176061904Y-112578571D01*
X176014285Y-112530952D01*
X175919047Y-112483333D01*
X175680952Y-112483333D01*
X175585714Y-112530952D01*
X175538095Y-112578571D01*
X175490476Y-112673809D01*
X175490476Y-112911904D01*
X175538095Y-113007142D01*
X175585714Y-113054761D01*
X175680952Y-113102380D01*
X175919047Y-113102380D01*
X176014285Y-113054761D01*
X176061904Y-113007142D01*
X174633333Y-112435714D02*
X174633333Y-113102380D01*
X174871428Y-112054761D02*
X175109523Y-112769047D01*
X174490476Y-112769047D01*
X180502380Y-119257142D02*
X180026190Y-118923809D01*
X180502380Y-118685714D02*
X179502380Y-118685714D01*
X179502380Y-119066666D01*
X179550000Y-119161904D01*
X179597619Y-119209523D01*
X179692857Y-119257142D01*
X179835714Y-119257142D01*
X179930952Y-119209523D01*
X179978571Y-119161904D01*
X180026190Y-119066666D01*
X180026190Y-118685714D01*
X179502380Y-120161904D02*
X179502380Y-119685714D01*
X179978571Y-119638095D01*
X179930952Y-119685714D01*
X179883333Y-119780952D01*
X179883333Y-120019047D01*
X179930952Y-120114285D01*
X179978571Y-120161904D01*
X180073809Y-120209523D01*
X180311904Y-120209523D01*
X180407142Y-120161904D01*
X180454761Y-120114285D01*
X180502380Y-120019047D01*
X180502380Y-119780952D01*
X180454761Y-119685714D01*
X180407142Y-119638095D01*
X179502380Y-121114285D02*
X179502380Y-120638095D01*
X179978571Y-120590476D01*
X179930952Y-120638095D01*
X179883333Y-120733333D01*
X179883333Y-120971428D01*
X179930952Y-121066666D01*
X179978571Y-121114285D01*
X180073809Y-121161904D01*
X180311904Y-121161904D01*
X180407142Y-121114285D01*
X180454761Y-121066666D01*
X180502380Y-120971428D01*
X180502380Y-120733333D01*
X180454761Y-120638095D01*
X180407142Y-120590476D01*
X175377380Y-121257142D02*
X174901190Y-120923809D01*
X175377380Y-120685714D02*
X174377380Y-120685714D01*
X174377380Y-121066666D01*
X174425000Y-121161904D01*
X174472619Y-121209523D01*
X174567857Y-121257142D01*
X174710714Y-121257142D01*
X174805952Y-121209523D01*
X174853571Y-121161904D01*
X174901190Y-121066666D01*
X174901190Y-120685714D01*
X174377380Y-122161904D02*
X174377380Y-121685714D01*
X174853571Y-121638095D01*
X174805952Y-121685714D01*
X174758333Y-121780952D01*
X174758333Y-122019047D01*
X174805952Y-122114285D01*
X174853571Y-122161904D01*
X174948809Y-122209523D01*
X175186904Y-122209523D01*
X175282142Y-122161904D01*
X175329761Y-122114285D01*
X175377380Y-122019047D01*
X175377380Y-121780952D01*
X175329761Y-121685714D01*
X175282142Y-121638095D01*
X174377380Y-123066666D02*
X174377380Y-122876190D01*
X174425000Y-122780952D01*
X174472619Y-122733333D01*
X174615476Y-122638095D01*
X174805952Y-122590476D01*
X175186904Y-122590476D01*
X175282142Y-122638095D01*
X175329761Y-122685714D01*
X175377380Y-122780952D01*
X175377380Y-122971428D01*
X175329761Y-123066666D01*
X175282142Y-123114285D01*
X175186904Y-123161904D01*
X174948809Y-123161904D01*
X174853571Y-123114285D01*
X174805952Y-123066666D01*
X174758333Y-122971428D01*
X174758333Y-122780952D01*
X174805952Y-122685714D01*
X174853571Y-122638095D01*
X174948809Y-122590476D01*
X159142857Y-119452380D02*
X159476190Y-118976190D01*
X159714285Y-119452380D02*
X159714285Y-118452380D01*
X159333333Y-118452380D01*
X159238095Y-118500000D01*
X159190476Y-118547619D01*
X159142857Y-118642857D01*
X159142857Y-118785714D01*
X159190476Y-118880952D01*
X159238095Y-118928571D01*
X159333333Y-118976190D01*
X159714285Y-118976190D01*
X158238095Y-118452380D02*
X158714285Y-118452380D01*
X158761904Y-118928571D01*
X158714285Y-118880952D01*
X158619047Y-118833333D01*
X158380952Y-118833333D01*
X158285714Y-118880952D01*
X158238095Y-118928571D01*
X158190476Y-119023809D01*
X158190476Y-119261904D01*
X158238095Y-119357142D01*
X158285714Y-119404761D01*
X158380952Y-119452380D01*
X158619047Y-119452380D01*
X158714285Y-119404761D01*
X158761904Y-119357142D01*
X157857142Y-118452380D02*
X157190476Y-118452380D01*
X157619047Y-119452380D01*
X159792857Y-115302380D02*
X160126190Y-114826190D01*
X160364285Y-115302380D02*
X160364285Y-114302380D01*
X159983333Y-114302380D01*
X159888095Y-114350000D01*
X159840476Y-114397619D01*
X159792857Y-114492857D01*
X159792857Y-114635714D01*
X159840476Y-114730952D01*
X159888095Y-114778571D01*
X159983333Y-114826190D01*
X160364285Y-114826190D01*
X158888095Y-114302380D02*
X159364285Y-114302380D01*
X159411904Y-114778571D01*
X159364285Y-114730952D01*
X159269047Y-114683333D01*
X159030952Y-114683333D01*
X158935714Y-114730952D01*
X158888095Y-114778571D01*
X158840476Y-114873809D01*
X158840476Y-115111904D01*
X158888095Y-115207142D01*
X158935714Y-115254761D01*
X159030952Y-115302380D01*
X159269047Y-115302380D01*
X159364285Y-115254761D01*
X159411904Y-115207142D01*
X158269047Y-114730952D02*
X158364285Y-114683333D01*
X158411904Y-114635714D01*
X158459523Y-114540476D01*
X158459523Y-114492857D01*
X158411904Y-114397619D01*
X158364285Y-114350000D01*
X158269047Y-114302380D01*
X158078571Y-114302380D01*
X157983333Y-114350000D01*
X157935714Y-114397619D01*
X157888095Y-114492857D01*
X157888095Y-114540476D01*
X157935714Y-114635714D01*
X157983333Y-114683333D01*
X158078571Y-114730952D01*
X158269047Y-114730952D01*
X158364285Y-114778571D01*
X158411904Y-114826190D01*
X158459523Y-114921428D01*
X158459523Y-115111904D01*
X158411904Y-115207142D01*
X158364285Y-115254761D01*
X158269047Y-115302380D01*
X158078571Y-115302380D01*
X157983333Y-115254761D01*
X157935714Y-115207142D01*
X157888095Y-115111904D01*
X157888095Y-114921428D01*
X157935714Y-114826190D01*
X157983333Y-114778571D01*
X158078571Y-114730952D01*
X160292857Y-123052380D02*
X160626190Y-122576190D01*
X160864285Y-123052380D02*
X160864285Y-122052380D01*
X160483333Y-122052380D01*
X160388095Y-122100000D01*
X160340476Y-122147619D01*
X160292857Y-122242857D01*
X160292857Y-122385714D01*
X160340476Y-122480952D01*
X160388095Y-122528571D01*
X160483333Y-122576190D01*
X160864285Y-122576190D01*
X159435714Y-122052380D02*
X159626190Y-122052380D01*
X159721428Y-122100000D01*
X159769047Y-122147619D01*
X159864285Y-122290476D01*
X159911904Y-122480952D01*
X159911904Y-122861904D01*
X159864285Y-122957142D01*
X159816666Y-123004761D01*
X159721428Y-123052380D01*
X159530952Y-123052380D01*
X159435714Y-123004761D01*
X159388095Y-122957142D01*
X159340476Y-122861904D01*
X159340476Y-122623809D01*
X159388095Y-122528571D01*
X159435714Y-122480952D01*
X159530952Y-122433333D01*
X159721428Y-122433333D01*
X159816666Y-122480952D01*
X159864285Y-122528571D01*
X159911904Y-122623809D01*
X158721428Y-122052380D02*
X158626190Y-122052380D01*
X158530952Y-122100000D01*
X158483333Y-122147619D01*
X158435714Y-122242857D01*
X158388095Y-122433333D01*
X158388095Y-122671428D01*
X158435714Y-122861904D01*
X158483333Y-122957142D01*
X158530952Y-123004761D01*
X158626190Y-123052380D01*
X158721428Y-123052380D01*
X158816666Y-123004761D01*
X158864285Y-122957142D01*
X158911904Y-122861904D01*
X158959523Y-122671428D01*
X158959523Y-122433333D01*
X158911904Y-122242857D01*
X158864285Y-122147619D01*
X158816666Y-122100000D01*
X158721428Y-122052380D01*
X162592857Y-111602380D02*
X162926190Y-111126190D01*
X163164285Y-111602380D02*
X163164285Y-110602380D01*
X162783333Y-110602380D01*
X162688095Y-110650000D01*
X162640476Y-110697619D01*
X162592857Y-110792857D01*
X162592857Y-110935714D01*
X162640476Y-111030952D01*
X162688095Y-111078571D01*
X162783333Y-111126190D01*
X163164285Y-111126190D01*
X161735714Y-110602380D02*
X161926190Y-110602380D01*
X162021428Y-110650000D01*
X162069047Y-110697619D01*
X162164285Y-110840476D01*
X162211904Y-111030952D01*
X162211904Y-111411904D01*
X162164285Y-111507142D01*
X162116666Y-111554761D01*
X162021428Y-111602380D01*
X161830952Y-111602380D01*
X161735714Y-111554761D01*
X161688095Y-111507142D01*
X161640476Y-111411904D01*
X161640476Y-111173809D01*
X161688095Y-111078571D01*
X161735714Y-111030952D01*
X161830952Y-110983333D01*
X162021428Y-110983333D01*
X162116666Y-111030952D01*
X162164285Y-111078571D01*
X162211904Y-111173809D01*
X161259523Y-110697619D02*
X161211904Y-110650000D01*
X161116666Y-110602380D01*
X160878571Y-110602380D01*
X160783333Y-110650000D01*
X160735714Y-110697619D01*
X160688095Y-110792857D01*
X160688095Y-110888095D01*
X160735714Y-111030952D01*
X161307142Y-111602380D01*
X160688095Y-111602380D01*
X176242857Y-129402380D02*
X176576190Y-128926190D01*
X176814285Y-129402380D02*
X176814285Y-128402380D01*
X176433333Y-128402380D01*
X176338095Y-128450000D01*
X176290476Y-128497619D01*
X176242857Y-128592857D01*
X176242857Y-128735714D01*
X176290476Y-128830952D01*
X176338095Y-128878571D01*
X176433333Y-128926190D01*
X176814285Y-128926190D01*
X175385714Y-128402380D02*
X175576190Y-128402380D01*
X175671428Y-128450000D01*
X175719047Y-128497619D01*
X175814285Y-128640476D01*
X175861904Y-128830952D01*
X175861904Y-129211904D01*
X175814285Y-129307142D01*
X175766666Y-129354761D01*
X175671428Y-129402380D01*
X175480952Y-129402380D01*
X175385714Y-129354761D01*
X175338095Y-129307142D01*
X175290476Y-129211904D01*
X175290476Y-128973809D01*
X175338095Y-128878571D01*
X175385714Y-128830952D01*
X175480952Y-128783333D01*
X175671428Y-128783333D01*
X175766666Y-128830952D01*
X175814285Y-128878571D01*
X175861904Y-128973809D01*
X174957142Y-128402380D02*
X174338095Y-128402380D01*
X174671428Y-128783333D01*
X174528571Y-128783333D01*
X174433333Y-128830952D01*
X174385714Y-128878571D01*
X174338095Y-128973809D01*
X174338095Y-129211904D01*
X174385714Y-129307142D01*
X174433333Y-129354761D01*
X174528571Y-129402380D01*
X174814285Y-129402380D01*
X174909523Y-129354761D01*
X174957142Y-129307142D01*
X176192857Y-135702380D02*
X176526190Y-135226190D01*
X176764285Y-135702380D02*
X176764285Y-134702380D01*
X176383333Y-134702380D01*
X176288095Y-134750000D01*
X176240476Y-134797619D01*
X176192857Y-134892857D01*
X176192857Y-135035714D01*
X176240476Y-135130952D01*
X176288095Y-135178571D01*
X176383333Y-135226190D01*
X176764285Y-135226190D01*
X175335714Y-134702380D02*
X175526190Y-134702380D01*
X175621428Y-134750000D01*
X175669047Y-134797619D01*
X175764285Y-134940476D01*
X175811904Y-135130952D01*
X175811904Y-135511904D01*
X175764285Y-135607142D01*
X175716666Y-135654761D01*
X175621428Y-135702380D01*
X175430952Y-135702380D01*
X175335714Y-135654761D01*
X175288095Y-135607142D01*
X175240476Y-135511904D01*
X175240476Y-135273809D01*
X175288095Y-135178571D01*
X175335714Y-135130952D01*
X175430952Y-135083333D01*
X175621428Y-135083333D01*
X175716666Y-135130952D01*
X175764285Y-135178571D01*
X175811904Y-135273809D01*
X174383333Y-135035714D02*
X174383333Y-135702380D01*
X174621428Y-134654761D02*
X174859523Y-135369047D01*
X174240476Y-135369047D01*
X180652380Y-129157142D02*
X180176190Y-128823809D01*
X180652380Y-128585714D02*
X179652380Y-128585714D01*
X179652380Y-128966666D01*
X179700000Y-129061904D01*
X179747619Y-129109523D01*
X179842857Y-129157142D01*
X179985714Y-129157142D01*
X180080952Y-129109523D01*
X180128571Y-129061904D01*
X180176190Y-128966666D01*
X180176190Y-128585714D01*
X179652380Y-130014285D02*
X179652380Y-129823809D01*
X179700000Y-129728571D01*
X179747619Y-129680952D01*
X179890476Y-129585714D01*
X180080952Y-129538095D01*
X180461904Y-129538095D01*
X180557142Y-129585714D01*
X180604761Y-129633333D01*
X180652380Y-129728571D01*
X180652380Y-129919047D01*
X180604761Y-130014285D01*
X180557142Y-130061904D01*
X180461904Y-130109523D01*
X180223809Y-130109523D01*
X180128571Y-130061904D01*
X180080952Y-130014285D01*
X180033333Y-129919047D01*
X180033333Y-129728571D01*
X180080952Y-129633333D01*
X180128571Y-129585714D01*
X180223809Y-129538095D01*
X179652380Y-131014285D02*
X179652380Y-130538095D01*
X180128571Y-130490476D01*
X180080952Y-130538095D01*
X180033333Y-130633333D01*
X180033333Y-130871428D01*
X180080952Y-130966666D01*
X180128571Y-131014285D01*
X180223809Y-131061904D01*
X180461904Y-131061904D01*
X180557142Y-131014285D01*
X180604761Y-130966666D01*
X180652380Y-130871428D01*
X180652380Y-130633333D01*
X180604761Y-130538095D01*
X180557142Y-130490476D01*
X173542857Y-126252380D02*
X173876190Y-125776190D01*
X174114285Y-126252380D02*
X174114285Y-125252380D01*
X173733333Y-125252380D01*
X173638095Y-125300000D01*
X173590476Y-125347619D01*
X173542857Y-125442857D01*
X173542857Y-125585714D01*
X173590476Y-125680952D01*
X173638095Y-125728571D01*
X173733333Y-125776190D01*
X174114285Y-125776190D01*
X172685714Y-125252380D02*
X172876190Y-125252380D01*
X172971428Y-125300000D01*
X173019047Y-125347619D01*
X173114285Y-125490476D01*
X173161904Y-125680952D01*
X173161904Y-126061904D01*
X173114285Y-126157142D01*
X173066666Y-126204761D01*
X172971428Y-126252380D01*
X172780952Y-126252380D01*
X172685714Y-126204761D01*
X172638095Y-126157142D01*
X172590476Y-126061904D01*
X172590476Y-125823809D01*
X172638095Y-125728571D01*
X172685714Y-125680952D01*
X172780952Y-125633333D01*
X172971428Y-125633333D01*
X173066666Y-125680952D01*
X173114285Y-125728571D01*
X173161904Y-125823809D01*
X171733333Y-125252380D02*
X171923809Y-125252380D01*
X172019047Y-125300000D01*
X172066666Y-125347619D01*
X172161904Y-125490476D01*
X172209523Y-125680952D01*
X172209523Y-126061904D01*
X172161904Y-126157142D01*
X172114285Y-126204761D01*
X172019047Y-126252380D01*
X171828571Y-126252380D01*
X171733333Y-126204761D01*
X171685714Y-126157142D01*
X171638095Y-126061904D01*
X171638095Y-125823809D01*
X171685714Y-125728571D01*
X171733333Y-125680952D01*
X171828571Y-125633333D01*
X172019047Y-125633333D01*
X172114285Y-125680952D01*
X172161904Y-125728571D01*
X172209523Y-125823809D01*
X180477380Y-133957142D02*
X180001190Y-133623809D01*
X180477380Y-133385714D02*
X179477380Y-133385714D01*
X179477380Y-133766666D01*
X179525000Y-133861904D01*
X179572619Y-133909523D01*
X179667857Y-133957142D01*
X179810714Y-133957142D01*
X179905952Y-133909523D01*
X179953571Y-133861904D01*
X180001190Y-133766666D01*
X180001190Y-133385714D01*
X179477380Y-134814285D02*
X179477380Y-134623809D01*
X179525000Y-134528571D01*
X179572619Y-134480952D01*
X179715476Y-134385714D01*
X179905952Y-134338095D01*
X180286904Y-134338095D01*
X180382142Y-134385714D01*
X180429761Y-134433333D01*
X180477380Y-134528571D01*
X180477380Y-134719047D01*
X180429761Y-134814285D01*
X180382142Y-134861904D01*
X180286904Y-134909523D01*
X180048809Y-134909523D01*
X179953571Y-134861904D01*
X179905952Y-134814285D01*
X179858333Y-134719047D01*
X179858333Y-134528571D01*
X179905952Y-134433333D01*
X179953571Y-134385714D01*
X180048809Y-134338095D01*
X179477380Y-135242857D02*
X179477380Y-135909523D01*
X180477380Y-135480952D01*
X173552380Y-139007142D02*
X173076190Y-138673809D01*
X173552380Y-138435714D02*
X172552380Y-138435714D01*
X172552380Y-138816666D01*
X172600000Y-138911904D01*
X172647619Y-138959523D01*
X172742857Y-139007142D01*
X172885714Y-139007142D01*
X172980952Y-138959523D01*
X173028571Y-138911904D01*
X173076190Y-138816666D01*
X173076190Y-138435714D01*
X172552380Y-139864285D02*
X172552380Y-139673809D01*
X172600000Y-139578571D01*
X172647619Y-139530952D01*
X172790476Y-139435714D01*
X172980952Y-139388095D01*
X173361904Y-139388095D01*
X173457142Y-139435714D01*
X173504761Y-139483333D01*
X173552380Y-139578571D01*
X173552380Y-139769047D01*
X173504761Y-139864285D01*
X173457142Y-139911904D01*
X173361904Y-139959523D01*
X173123809Y-139959523D01*
X173028571Y-139911904D01*
X172980952Y-139864285D01*
X172933333Y-139769047D01*
X172933333Y-139578571D01*
X172980952Y-139483333D01*
X173028571Y-139435714D01*
X173123809Y-139388095D01*
X172980952Y-140530952D02*
X172933333Y-140435714D01*
X172885714Y-140388095D01*
X172790476Y-140340476D01*
X172742857Y-140340476D01*
X172647619Y-140388095D01*
X172600000Y-140435714D01*
X172552380Y-140530952D01*
X172552380Y-140721428D01*
X172600000Y-140816666D01*
X172647619Y-140864285D01*
X172742857Y-140911904D01*
X172790476Y-140911904D01*
X172885714Y-140864285D01*
X172933333Y-140816666D01*
X172980952Y-140721428D01*
X172980952Y-140530952D01*
X173028571Y-140435714D01*
X173076190Y-140388095D01*
X173171428Y-140340476D01*
X173361904Y-140340476D01*
X173457142Y-140388095D01*
X173504761Y-140435714D01*
X173552380Y-140530952D01*
X173552380Y-140721428D01*
X173504761Y-140816666D01*
X173457142Y-140864285D01*
X173361904Y-140911904D01*
X173171428Y-140911904D01*
X173076190Y-140864285D01*
X173028571Y-140816666D01*
X172980952Y-140721428D01*
X158942857Y-134152380D02*
X159276190Y-133676190D01*
X159514285Y-134152380D02*
X159514285Y-133152380D01*
X159133333Y-133152380D01*
X159038095Y-133200000D01*
X158990476Y-133247619D01*
X158942857Y-133342857D01*
X158942857Y-133485714D01*
X158990476Y-133580952D01*
X159038095Y-133628571D01*
X159133333Y-133676190D01*
X159514285Y-133676190D01*
X158085714Y-133152380D02*
X158276190Y-133152380D01*
X158371428Y-133200000D01*
X158419047Y-133247619D01*
X158514285Y-133390476D01*
X158561904Y-133580952D01*
X158561904Y-133961904D01*
X158514285Y-134057142D01*
X158466666Y-134104761D01*
X158371428Y-134152380D01*
X158180952Y-134152380D01*
X158085714Y-134104761D01*
X158038095Y-134057142D01*
X157990476Y-133961904D01*
X157990476Y-133723809D01*
X158038095Y-133628571D01*
X158085714Y-133580952D01*
X158180952Y-133533333D01*
X158371428Y-133533333D01*
X158466666Y-133580952D01*
X158514285Y-133628571D01*
X158561904Y-133723809D01*
X157514285Y-134152380D02*
X157323809Y-134152380D01*
X157228571Y-134104761D01*
X157180952Y-134057142D01*
X157085714Y-133914285D01*
X157038095Y-133723809D01*
X157038095Y-133342857D01*
X157085714Y-133247619D01*
X157133333Y-133200000D01*
X157228571Y-133152380D01*
X157419047Y-133152380D01*
X157514285Y-133200000D01*
X157561904Y-133247619D01*
X157609523Y-133342857D01*
X157609523Y-133580952D01*
X157561904Y-133676190D01*
X157514285Y-133723809D01*
X157419047Y-133771428D01*
X157228571Y-133771428D01*
X157133333Y-133723809D01*
X157085714Y-133676190D01*
X157038095Y-133580952D01*
X159742857Y-129702380D02*
X160076190Y-129226190D01*
X160314285Y-129702380D02*
X160314285Y-128702380D01*
X159933333Y-128702380D01*
X159838095Y-128750000D01*
X159790476Y-128797619D01*
X159742857Y-128892857D01*
X159742857Y-129035714D01*
X159790476Y-129130952D01*
X159838095Y-129178571D01*
X159933333Y-129226190D01*
X160314285Y-129226190D01*
X159409523Y-128702380D02*
X158742857Y-128702380D01*
X159171428Y-129702380D01*
X158171428Y-128702380D02*
X158076190Y-128702380D01*
X157980952Y-128750000D01*
X157933333Y-128797619D01*
X157885714Y-128892857D01*
X157838095Y-129083333D01*
X157838095Y-129321428D01*
X157885714Y-129511904D01*
X157933333Y-129607142D01*
X157980952Y-129654761D01*
X158076190Y-129702380D01*
X158171428Y-129702380D01*
X158266666Y-129654761D01*
X158314285Y-129607142D01*
X158361904Y-129511904D01*
X158409523Y-129321428D01*
X158409523Y-129083333D01*
X158361904Y-128892857D01*
X158314285Y-128797619D01*
X158266666Y-128750000D01*
X158171428Y-128702380D01*
X162602380Y-138907142D02*
X162126190Y-138573809D01*
X162602380Y-138335714D02*
X161602380Y-138335714D01*
X161602380Y-138716666D01*
X161650000Y-138811904D01*
X161697619Y-138859523D01*
X161792857Y-138907142D01*
X161935714Y-138907142D01*
X162030952Y-138859523D01*
X162078571Y-138811904D01*
X162126190Y-138716666D01*
X162126190Y-138335714D01*
X161602380Y-139240476D02*
X161602380Y-139907142D01*
X162602380Y-139478571D01*
X161697619Y-140240476D02*
X161650000Y-140288095D01*
X161602380Y-140383333D01*
X161602380Y-140621428D01*
X161650000Y-140716666D01*
X161697619Y-140764285D01*
X161792857Y-140811904D01*
X161888095Y-140811904D01*
X162030952Y-140764285D01*
X162602380Y-140192857D01*
X162602380Y-140811904D01*
X162692857Y-126352380D02*
X163026190Y-125876190D01*
X163264285Y-126352380D02*
X163264285Y-125352380D01*
X162883333Y-125352380D01*
X162788095Y-125400000D01*
X162740476Y-125447619D01*
X162692857Y-125542857D01*
X162692857Y-125685714D01*
X162740476Y-125780952D01*
X162788095Y-125828571D01*
X162883333Y-125876190D01*
X163264285Y-125876190D01*
X162359523Y-125352380D02*
X161692857Y-125352380D01*
X162121428Y-126352380D01*
X160883333Y-125685714D02*
X160883333Y-126352380D01*
X161121428Y-125304761D02*
X161359523Y-126019047D01*
X160740476Y-126019047D01*
X149161904Y-70452380D02*
X149161904Y-71261904D01*
X149114285Y-71357142D01*
X149066666Y-71404761D01*
X148971428Y-71452380D01*
X148780952Y-71452380D01*
X148685714Y-71404761D01*
X148638095Y-71357142D01*
X148590476Y-71261904D01*
X148590476Y-70452380D01*
X147590476Y-71452380D02*
X148161904Y-71452380D01*
X147876190Y-71452380D02*
X147876190Y-70452380D01*
X147971428Y-70595238D01*
X148066666Y-70690476D01*
X148161904Y-70738095D01*
X149186904Y-91102380D02*
X149186904Y-91911904D01*
X149139285Y-92007142D01*
X149091666Y-92054761D01*
X148996428Y-92102380D01*
X148805952Y-92102380D01*
X148710714Y-92054761D01*
X148663095Y-92007142D01*
X148615476Y-91911904D01*
X148615476Y-91102380D01*
X148186904Y-91197619D02*
X148139285Y-91150000D01*
X148044047Y-91102380D01*
X147805952Y-91102380D01*
X147710714Y-91150000D01*
X147663095Y-91197619D01*
X147615476Y-91292857D01*
X147615476Y-91388095D01*
X147663095Y-91530952D01*
X148234523Y-92102380D01*
X147615476Y-92102380D01*
X148861904Y-120052380D02*
X148861904Y-120861904D01*
X148814285Y-120957142D01*
X148766666Y-121004761D01*
X148671428Y-121052380D01*
X148480952Y-121052380D01*
X148385714Y-121004761D01*
X148338095Y-120957142D01*
X148290476Y-120861904D01*
X148290476Y-120052380D01*
X147909523Y-120052380D02*
X147290476Y-120052380D01*
X147623809Y-120433333D01*
X147480952Y-120433333D01*
X147385714Y-120480952D01*
X147338095Y-120528571D01*
X147290476Y-120623809D01*
X147290476Y-120861904D01*
X147338095Y-120957142D01*
X147385714Y-121004761D01*
X147480952Y-121052380D01*
X147766666Y-121052380D01*
X147861904Y-121004761D01*
X147909523Y-120957142D01*
X167961904Y-63802380D02*
X167961904Y-64611904D01*
X167914285Y-64707142D01*
X167866666Y-64754761D01*
X167771428Y-64802380D01*
X167580952Y-64802380D01*
X167485714Y-64754761D01*
X167438095Y-64707142D01*
X167390476Y-64611904D01*
X167390476Y-63802380D01*
X166485714Y-64135714D02*
X166485714Y-64802380D01*
X166723809Y-63754761D02*
X166961904Y-64469047D01*
X166342857Y-64469047D01*
X168311904Y-68302380D02*
X168311904Y-69111904D01*
X168264285Y-69207142D01*
X168216666Y-69254761D01*
X168121428Y-69302380D01*
X167930952Y-69302380D01*
X167835714Y-69254761D01*
X167788095Y-69207142D01*
X167740476Y-69111904D01*
X167740476Y-68302380D01*
X166788095Y-68302380D02*
X167264285Y-68302380D01*
X167311904Y-68778571D01*
X167264285Y-68730952D01*
X167169047Y-68683333D01*
X166930952Y-68683333D01*
X166835714Y-68730952D01*
X166788095Y-68778571D01*
X166740476Y-68873809D01*
X166740476Y-69111904D01*
X166788095Y-69207142D01*
X166835714Y-69254761D01*
X166930952Y-69302380D01*
X167169047Y-69302380D01*
X167264285Y-69254761D01*
X167311904Y-69207142D01*
X168061904Y-93252380D02*
X168061904Y-94061904D01*
X168014285Y-94157142D01*
X167966666Y-94204761D01*
X167871428Y-94252380D01*
X167680952Y-94252380D01*
X167585714Y-94204761D01*
X167538095Y-94157142D01*
X167490476Y-94061904D01*
X167490476Y-93252380D01*
X166585714Y-93252380D02*
X166776190Y-93252380D01*
X166871428Y-93300000D01*
X166919047Y-93347619D01*
X167014285Y-93490476D01*
X167061904Y-93680952D01*
X167061904Y-94061904D01*
X167014285Y-94157142D01*
X166966666Y-94204761D01*
X166871428Y-94252380D01*
X166680952Y-94252380D01*
X166585714Y-94204761D01*
X166538095Y-94157142D01*
X166490476Y-94061904D01*
X166490476Y-93823809D01*
X166538095Y-93728571D01*
X166585714Y-93680952D01*
X166680952Y-93633333D01*
X166871428Y-93633333D01*
X166966666Y-93680952D01*
X167014285Y-93728571D01*
X167061904Y-93823809D01*
X168211904Y-107852380D02*
X168211904Y-108661904D01*
X168164285Y-108757142D01*
X168116666Y-108804761D01*
X168021428Y-108852380D01*
X167830952Y-108852380D01*
X167735714Y-108804761D01*
X167688095Y-108757142D01*
X167640476Y-108661904D01*
X167640476Y-107852380D01*
X167259523Y-107852380D02*
X166592857Y-107852380D01*
X167021428Y-108852380D01*
X168461904Y-122452380D02*
X168461904Y-123261904D01*
X168414285Y-123357142D01*
X168366666Y-123404761D01*
X168271428Y-123452380D01*
X168080952Y-123452380D01*
X167985714Y-123404761D01*
X167938095Y-123357142D01*
X167890476Y-123261904D01*
X167890476Y-122452380D01*
X167271428Y-122880952D02*
X167366666Y-122833333D01*
X167414285Y-122785714D01*
X167461904Y-122690476D01*
X167461904Y-122642857D01*
X167414285Y-122547619D01*
X167366666Y-122500000D01*
X167271428Y-122452380D01*
X167080952Y-122452380D01*
X166985714Y-122500000D01*
X166938095Y-122547619D01*
X166890476Y-122642857D01*
X166890476Y-122690476D01*
X166938095Y-122785714D01*
X166985714Y-122833333D01*
X167080952Y-122880952D01*
X167271428Y-122880952D01*
X167366666Y-122928571D01*
X167414285Y-122976190D01*
X167461904Y-123071428D01*
X167461904Y-123261904D01*
X167414285Y-123357142D01*
X167366666Y-123404761D01*
X167271428Y-123452380D01*
X167080952Y-123452380D01*
X166985714Y-123404761D01*
X166938095Y-123357142D01*
X166890476Y-123261904D01*
X166890476Y-123071428D01*
X166938095Y-122976190D01*
X166985714Y-122928571D01*
X167080952Y-122880952D01*
X168261904Y-137352380D02*
X168261904Y-138161904D01*
X168214285Y-138257142D01*
X168166666Y-138304761D01*
X168071428Y-138352380D01*
X167880952Y-138352380D01*
X167785714Y-138304761D01*
X167738095Y-138257142D01*
X167690476Y-138161904D01*
X167690476Y-137352380D01*
X167166666Y-138352380D02*
X166976190Y-138352380D01*
X166880952Y-138304761D01*
X166833333Y-138257142D01*
X166738095Y-138114285D01*
X166690476Y-137923809D01*
X166690476Y-137542857D01*
X166738095Y-137447619D01*
X166785714Y-137400000D01*
X166880952Y-137352380D01*
X167071428Y-137352380D01*
X167166666Y-137400000D01*
X167214285Y-137447619D01*
X167261904Y-137542857D01*
X167261904Y-137780952D01*
X167214285Y-137876190D01*
X167166666Y-137923809D01*
X167071428Y-137971428D01*
X166880952Y-137971428D01*
X166785714Y-137923809D01*
X166738095Y-137876190D01*
X166690476Y-137780952D01*
X131652380Y-62061904D02*
X132461904Y-62061904D01*
X132557142Y-62109523D01*
X132604761Y-62157142D01*
X132652380Y-62252380D01*
X132652380Y-62442857D01*
X132604761Y-62538095D01*
X132557142Y-62585714D01*
X132461904Y-62633333D01*
X131652380Y-62633333D01*
X132652380Y-63633333D02*
X132652380Y-63061904D01*
X132652380Y-63347619D02*
X131652380Y-63347619D01*
X131795238Y-63252380D01*
X131890476Y-63157142D01*
X131938095Y-63061904D01*
X132652380Y-64585714D02*
X132652380Y-64014285D01*
X132652380Y-64300000D02*
X131652380Y-64300000D01*
X131795238Y-64204761D01*
X131890476Y-64109523D01*
X131938095Y-64014285D01*
M02*
