M48
; DRILL file {KiCad (5.1.2)-1} date 09.12.2019 15:07:03
; FORMAT={-:-/ absolute / inch / decimal}
; #@! TF.CreationDate,2019-12-09T15:07:03+03:00
; #@! TF.GenerationSoftware,Kicad,Pcbnew,(5.1.2)-1
FMAT,2
INCH
T1C0.0197
T2C0.0394
T3C0.0472
T4C0.1260
%
G90
G05
T1
X4.9252Y-3.9567
X4.9567Y-3.7598
X4.9567Y-3.8465
X4.9961Y-3.6614
X5.2008Y-2.811
X5.4016Y-2.3661
X5.435Y-3.7638
X5.435Y-3.8445
X5.5354Y-2.9173
X5.5394Y-3.7618
X5.5394Y-4.0669
X5.5906Y-4.7717
X5.6063Y-3.6496
X5.6063Y-3.8681
X5.6142Y-2.7047
X5.624Y-5.0079
X5.6339Y-3.1496
X5.6713Y-4.0709
X5.7244Y-5.122
X5.7323Y-2.7992
X5.7441Y-3.9961
X5.8465Y-2.9469
X5.8504Y-2.4134
X5.9606Y-2.7953
X5.9606Y-3.9626
X5.9843Y-2.2402
X6.0394Y-2.1024
X6.063Y-3.2087
X6.0787Y-3.3031
X6.122Y-3.0512
X6.1575Y-3.3543
X6.1693Y-2.2244
X6.1693Y-4.4764
X6.1772Y-4.9449
X6.1929Y-3.8189
X6.2008Y-2.6693
X6.2087Y-2.7402
X6.2087Y-3.2992
X6.2205Y-2.1654
X6.2244Y-3.8819
X6.2244Y-4.4291
X6.2283Y-5.0
X6.2598Y-4.8819
X6.2677Y-4.3228
X6.2835Y-3.0551
X6.2835Y-3.3031
X6.2874Y-2.7402
X6.2913Y-3.7677
X6.2953Y-2.1654
X6.2953Y-2.6181
X6.2953Y-3.622
X6.2953Y-4.4331
X6.2953Y-4.7638
X6.2953Y-5.3425
X6.2992Y-2.4646
X6.2992Y-3.8819
X6.2992Y-5.0039
X6.3031Y-4.189
X6.3858Y-2.0433
X6.4695Y-2.5561
X6.4724Y-3.7087
X6.4764Y-4.2795
X6.4764Y-4.8583
X6.4803Y-3.1378
X6.5906Y-1.9961
X6.7047Y-3.1417
X6.7323Y-2.5709
X6.7874Y-3.7559
X6.8031Y-4.3346
X6.9055Y-4.9449
X6.9094Y-2.5866
X6.9252Y-3.1614
X6.9291Y-3.8346
X6.9291Y-4.3622
X6.9331Y-4.0118
X6.9331Y-4.1102
X6.937Y-2.8622
X6.937Y-2.9646
X6.9409Y-2.2756
X6.9409Y-2.378
X6.9409Y-3.685
X6.9409Y-4.5827
X6.9409Y-4.685
X6.9409Y-4.8661
X6.9409Y-5.1614
X6.9409Y-5.2598
X6.9449Y-3.5315
X6.9488Y-3.4331
X7.0236Y-4.6299
X7.0236Y-5.2087
X7.0315Y-2.3268
X7.0315Y-2.9094
X7.0984Y-3.4409
X7.1732Y-5.4016
T2
X7.4724Y-3.0827
X7.4724Y-3.1917
X7.4724Y-3.3008
X7.4724Y-3.4098
X7.4724Y-3.5189
X7.4724Y-3.628
X7.4724Y-3.737
X7.4724Y-3.8461
X7.4724Y-3.9551
X7.4724Y-4.0642
X7.4724Y-4.1732
X7.4724Y-4.2823
X7.4724Y-4.3913
X7.5843Y-3.1372
X7.5843Y-3.2463
X7.5843Y-3.3553
X7.5843Y-3.4644
X7.5843Y-3.5734
X7.5843Y-3.6825
X7.5843Y-3.7915
X7.5843Y-3.9006
X7.5843Y-4.0096
X7.5843Y-4.1187
X7.5843Y-4.2278
X7.5843Y-4.3368
T3
X4.6457Y-3.3657
X4.6457Y-3.4642
X4.6457Y-3.5626
X4.6457Y-3.661
X4.6457Y-3.7594
X4.6457Y-3.8579
X4.6457Y-3.9563
X4.6457Y-4.0551
T4
X7.5283Y-2.8098
X7.5283Y-4.6642
T0
M30
