G04 #@! TF.GenerationSoftware,KiCad,Pcbnew,(5.1.2)-1*
G04 #@! TF.CreationDate,2019-12-09T15:06:57+03:00*
G04 #@! TF.ProjectId,DAC_board,4441435f-626f-4617-9264-2e6b69636164,rev?*
G04 #@! TF.SameCoordinates,Original*
G04 #@! TF.FileFunction,Soldermask,Top*
G04 #@! TF.FilePolarity,Negative*
%FSLAX46Y46*%
G04 Gerber Fmt 4.6, Leading zero omitted, Abs format (unit mm)*
G04 Created by KiCad (PCBNEW (5.1.2)-1) date 2019-12-09 15:06:57*
%MOMM*%
%LPD*%
G04 APERTURE LIST*
%ADD10C,4.400000*%
%ADD11C,2.000000*%
%ADD12R,2.000000X2.000000*%
%ADD13R,1.400000X1.650000*%
%ADD14R,4.400000X2.400000*%
%ADD15R,1.700000X1.100000*%
%ADD16R,1.950000X1.000000*%
%ADD17C,2.400000*%
%ADD18R,2.400000X2.400000*%
%ADD19R,2.000000X1.400000*%
G04 APERTURE END LIST*
D10*
X191220000Y-71370000D03*
X191220000Y-118470000D03*
D11*
X192640000Y-110155000D03*
X192640000Y-107385000D03*
X192640000Y-104615000D03*
X192640000Y-101845000D03*
X192640000Y-99075000D03*
X192640000Y-96305000D03*
X192640000Y-93535000D03*
X192640000Y-90765000D03*
X192640000Y-87995000D03*
X192640000Y-85225000D03*
X192640000Y-82455000D03*
X192640000Y-79685000D03*
X189800000Y-111540000D03*
X189800000Y-108770000D03*
X189800000Y-106000000D03*
X189800000Y-103230000D03*
X189800000Y-100460000D03*
X189800000Y-97690000D03*
X189800000Y-94920000D03*
X189800000Y-92150000D03*
X189800000Y-89380000D03*
X189800000Y-86610000D03*
X189800000Y-83840000D03*
X189800000Y-81070000D03*
D12*
X189800000Y-78300000D03*
D13*
X133700000Y-101650000D03*
X135700000Y-101650000D03*
X126850000Y-101600000D03*
X128850000Y-101600000D03*
X152400000Y-74800000D03*
X150400000Y-74800000D03*
X146600000Y-74850000D03*
X144600000Y-74850000D03*
D14*
X137700000Y-63441000D03*
X137700000Y-67759000D03*
D15*
X162200000Y-62450000D03*
X162200000Y-60550000D03*
X162200000Y-56950000D03*
X162200000Y-58850000D03*
X136200000Y-93250000D03*
X136200000Y-91350000D03*
X133850000Y-91350000D03*
X133850000Y-93250000D03*
X162000000Y-77450000D03*
X162000000Y-75550000D03*
X161900000Y-71650000D03*
X161900000Y-73550000D03*
X162000000Y-91550000D03*
X162000000Y-89650000D03*
X162000000Y-85450000D03*
X162000000Y-87350000D03*
X162200000Y-106350000D03*
X162200000Y-104450000D03*
X162100000Y-100550000D03*
X162100000Y-102450000D03*
X162100000Y-120950000D03*
X162100000Y-119050000D03*
X162100000Y-114950000D03*
X162100000Y-116850000D03*
X162100000Y-135550000D03*
X162100000Y-133650000D03*
X162000000Y-129550000D03*
X162000000Y-131450000D03*
D16*
X128600000Y-95145000D03*
X128600000Y-96415000D03*
X128600000Y-97685000D03*
X128600000Y-98955000D03*
X134000000Y-98955000D03*
X134000000Y-97685000D03*
X134000000Y-96415000D03*
X134000000Y-95145000D03*
X145700000Y-77495000D03*
X145700000Y-78765000D03*
X145700000Y-80035000D03*
X145700000Y-81305000D03*
X151100000Y-81305000D03*
X151100000Y-80035000D03*
X151100000Y-78765000D03*
X151100000Y-77495000D03*
D17*
X118000000Y-85490000D03*
X118000000Y-87990000D03*
X118000000Y-90490000D03*
X118000000Y-92990000D03*
X118000000Y-95490000D03*
X118000000Y-97990000D03*
X118000000Y-100490000D03*
D18*
X118000000Y-103000000D03*
D19*
X137700000Y-71100000D03*
X137700000Y-74100000D03*
M02*
